<?xml version="1.0" encoding="UTF-8"?>
<svg width="25px" height="25px" viewBox="0 0 25 25" version="1.1" xmlns="http://www.w3.org/2000/svg" xmlns:xlink="http://www.w3.org/1999/xlink">
    <title>Icons/Android-Line</title>
    <g id="Icons/Android-Line" stroke="none" stroke-width="1" fill="none" fill-rule="evenodd">
        <path d="M17.502,10.4964465 L17.502,17.373446 C17.502,17.996446 17,18.498446 16.389,18.498446 L15.5,18.498446 L15.5,20.818446 C15.5,21.401446 15.082,21.870446 14.5,21.870446 C13.917,21.870446 13.5,21.400446 13.5,20.818446 L13.5,18.498446 L11.5,18.498446 L11.5,20.818446 C11.5,21.400446 11.083,21.870446 10.5,21.870446 C9.929,21.870446 9.509,21.400446 9.509,20.818446 L9.5,18.498446 L8.623,18.498446 C8.001,18.498446 7.499,17.997446 7.499,17.373446 L7.499,10.4964465 L17.502,10.4964465 Z M5.5,11.3444465 L5.5,15.7404465 C5.5,16.3234465 5.918,16.7924465 6.5,16.7924465 C7.082,16.7924465 7.5,16.3224465 7.5,15.7404465 L7.5,11.3444465 C7.5,10.7734465 7.074,10.3024465 6.5,10.3024465 C5.918,10.3024465 5.5,10.7734465 5.5,11.3444465 Z M7.46,10.498447 C7.46,8.87344696 8.74,7.15244648 10.181,6.41744648 L9.454,5.07944648 C9.413,5.00744648 9.433,4.91544648 9.505,4.87444648 C9.576,4.84344648 9.669,4.86344648 9.71,4.93644648 L10.445,6.28544648 C11.07,6.00844648 11.765,5.85544648 12.5,5.85544648 C13.235,5.85544648 13.93,6.00844648 14.555,6.28444648 L15.29,4.93544648 C15.331,4.86344648 15.424,4.84344648 15.495,4.87344648 C15.567,4.91444648 15.587,5.00644648 15.546,5.07844648 L14.819,6.41644648 C16.251,7.15244648 17.53,8.87344696 17.53,10.498447 L7.46,10.498447 Z M17.5,11.3444465 L17.5,15.7404465 C17.5,16.3234465 17.927,16.7924465 18.5,16.7924465 C19.082,16.7924465 19.5,16.3224465 19.5,15.7404465 L19.5,11.3444465 C19.499,10.7624465 19.082,10.3024465 18.5,10.3024465 C17.927,10.3024465 17.5,10.7624465 17.5,11.3444465 Z" id="Shape" stroke="#000000"></path>
        <circle id="Oval" fill="#000000" cx="14.5" cy="8.5" r="1"></circle>
        <circle id="Oval" fill="#000000" cx="10.5" cy="8.5" r="1"></circle>
    </g>
</svg>