<?xml version="1.0" encoding="UTF-8"?>
<svg width="25px" height="25px" viewBox="0 0 25 25" version="1.1" xmlns="http://www.w3.org/2000/svg" xmlns:xlink="http://www.w3.org/1999/xlink">
    <title>Icons/Apple-Line</title>
    <g id="Icons/Apple-Line" stroke="none" stroke-width="1" fill="none" fill-rule="evenodd">
        <g id="Icons/Apple" transform="translate(5.000000, 4.000000)" fill="#080A0E">
            <path d="M13.001,11.125 C12.532,10.451 12.297,9.685 12.297,8.847 C12.297,8.071 12.522,7.365 12.961,6.732 C13.206,6.375 13.594,5.976 14.126,5.527 C13.779,5.097 13.42,4.75 13.063,4.505 C12.429,4.066 11.705,3.841 10.887,3.841 C10.386,3.841 9.794,3.964 9.12,4.188 C8.445,4.423 7.955,4.536 7.659,4.536 C7.423,4.536 6.953,4.434 6.248,4.229 C5.533,4.025 4.94,3.923 4.44,3.923 C3.264,3.923 2.304,4.414 1.539,5.394 C0.773,6.385 0.385,7.652 0.385,9.215 C0.385,10.89 0.896,12.596 1.886,14.354 C2.897,16.111 3.909,17 4.961,17 C5.298,17 5.748,16.888 6.31,16.652 C6.863,16.428 7.352,16.315 7.761,16.315 C8.18,16.315 8.7,16.417 9.303,16.642 C9.917,16.856 10.386,16.969 10.734,16.969 C11.602,16.969 12.481,16.304 13.36,14.966 C13.952,14.077 14.361,13.219 14.616,12.412 C14.014,12.229 13.472,11.8 13.001,11.125 L13.001,11.125 Z M12.523,14.418 C11.866,15.418 11.23,15.97 10.733,15.97 C10.586,15.97 10.274,15.923 9.652,15.706 C8.959,15.447 8.322,15.316 7.76,15.316 C7.219,15.316 6.605,15.454 5.922,15.731 C5.342,15.974 5.057,16 4.961,16 C4.333,16 3.549,15.238 2.757,13.863 C1.834,12.224 1.385,10.704 1.385,9.215 C1.385,7.879 1.695,6.828 2.327,6.009 C2.906,5.268 3.578,4.923 4.44,4.923 C4.841,4.923 5.342,5.011 5.969,5.19 C7.02,5.495 7.413,5.536 7.658,5.536 C8.083,5.536 8.668,5.404 9.435,5.137 C10.024,4.941 10.512,4.841 10.885,4.841 C11.494,4.841 12.02,5 12.495,5.33 C12.561,5.376 12.63,5.428 12.699,5.485 C12.471,5.721 12.285,5.946 12.137,6.162 C11.577,6.968 11.294,7.871 11.294,8.848 C11.294,9.896 11.591,10.854 12.178,11.698 C12.532,12.203 12.926,12.606 13.36,12.904 C13.143,13.403 12.862,13.91 12.523,14.418 L12.523,14.418 Z M8.424,3.964 C8.189,4.036 7.842,4.097 7.362,4.138 C7.383,3.127 7.648,2.248 8.159,1.513 C8.67,0.776 9.527,0.276 10.714,0 C10.734,0.092 10.754,0.164 10.764,0.225 C10.764,0.296 10.775,0.357 10.775,0.429 C10.775,0.848 10.673,1.318 10.479,1.819 C10.275,2.33 9.958,2.8 9.528,3.229 C9.16,3.596 8.792,3.841 8.424,3.964 L8.424,3.964 Z" id="Shape"></path>
        </g>
    </g>
</svg>