<?xml version="1.0" encoding="UTF-8"?>
<svg width="25px" height="25px" viewBox="0 0 25 25" version="1.1" xmlns="http://www.w3.org/2000/svg" xmlns:xlink="http://www.w3.org/1999/xlink">
    <title>Icons/Cross-Platform</title>
    <g id="Icons/Cross-Platform" stroke="none" stroke-width="1" fill="none" fill-rule="evenodd">
        <path d="M18.297,12.847 C18.297,12.071 18.522,11.365 18.961,10.732 C19.206,10.375 19.594,9.976 20.126,9.527 C19.779,9.097 19.42,8.75 19.063,8.505 C18.429,8.066 17.705,7.841 16.887,7.841 C16.386,7.841 15.794,7.964 15.12,8.188 C14.6697195,8.34476432 14.2829593,8.4472388 14,8.4980951 L14,20.3269002 C14.3681844,20.359682 14.8181231,20.4610758 15.303,20.642 C15.917,20.856 16.386,20.969 16.734,20.969 C17.602,20.969 18.481,20.304 19.36,18.966 C19.952,18.077 20.361,17.219 20.616,16.412 C20.014,16.229 19.472,15.8 19.001,15.125 C18.532,14.451 18.297,13.685 18.297,12.847 Z M16.733,19.97 C16.586,19.97 16.274,19.923 15.652,19.706 C15.0613083,19.4852364 14.4975538,19.3574691 14,19.3245558 L14,9.50884119 C14.3767382,9.45769085 14.8686657,9.33414635 15.435,9.137 C16.024,8.941 16.512,8.841 16.885,8.841 C17.494,8.841 18.02,9 18.495,9.33 C18.561,9.376 18.63,9.428 18.699,9.485 C18.471,9.721 18.285,9.946 18.137,10.162 C17.577,10.968 17.294,11.871 17.294,12.848 C17.294,13.896 17.591,14.854 18.178,15.698 C18.532,16.203 18.926,16.606 19.36,16.904 C19.143,17.403 18.862,17.91 18.523,18.418 C17.866,19.418 17.23,19.97 16.733,19.97 Z M14,8.05763657 L14,5.75080534 C14.0485048,5.6699385 14.1050041,5.59066533 14.159,5.513 C14.67,4.776 15.527,4.276 16.714,4 C16.734,4.092 16.754,4.164 16.764,4.225 C16.764,4.296 16.775,4.357 16.775,4.429 C16.775,4.848 16.673,5.318 16.479,5.819 C16.275,6.33 15.958,6.8 15.528,7.229 C15.16,7.596 14.792,7.841 14.424,7.964 C14.3131026,7.99797709 14.1629876,8.02950455 14,8.05763657 Z" id="Shape" fill="#080A0E"></path>
        <rect id="Rectangle" fill="#000000" x="12" y="2" width="1" height="21"></rect>
        <path d="M11,18.498446 L10.5,18.498446 L10.5,20.818446 C10.5,21.400446 10.083,21.870446 9.5,21.870446 C8.929,21.870446 8.509,21.400446 8.509,20.818446 L8.5,18.498446 L7.623,18.498446 C7.001,18.498446 6.499,17.997446 6.499,17.373446 L6.499,10.4964465 L11,10.4964465 M4.5,11.3444465 L4.5,15.7404465 C4.5,16.3234465 4.918,16.7924465 5.5,16.7924465 C6.082,16.7924465 6.5,16.3224465 6.5,15.7404465 L6.5,11.3444465 C6.5,10.7734465 6.074,10.3024465 5.5,10.3024465 C4.918,10.3024465 4.5,10.7734465 4.5,11.3444465 Z M11,10.498447 L6.46,10.498447 C6.46,8.87344696 7.74,7.15244648 9.181,6.41744648 L8.454,5.07944648 C8.413,5.00744648 8.433,4.91544648 8.505,4.87444648 C8.576,4.84344648 8.669,4.86344648 8.71,4.93644648 L9.445,6.28544648 C9.92772753,6.07150164 10.4522133,5.93152853 11.0046348,5.87888893" id="Shape" stroke="#000000"></path>
        <circle id="Oval" fill="#000000" cx="9.5" cy="8.5" r="1"></circle>
    </g>
</svg>