<?xml version="1.0" standalone="no"?>
<!DOCTYPE svg PUBLIC "-//W3C//DTD SVG 1.1//EN" "http://www.w3.org/Graphics/SVG/1.1/DTD/svg11.dtd" >
<svg xmlns="http://www.w3.org/2000/svg" xmlns:xlink="http://www.w3.org/1999/xlink" version="1.1">
<metadata>
Created by FontForge 20190801 at Wed Feb  7 18:15:02 2018
 By Jimmy Wärting
Copyright 2020, Kris Sowersby, Klim Type Foundry.
</metadata>
<defs>
<font id="TiemposFine-RegularItalic" horiz-adv-x="710" >
  <font-face 
    font-family="Tiempos Fine"
    font-weight="400"
    font-style="italic"
    font-stretch="normal"
    units-per-em="1000"
    panose-1="2 2 5 3 6 3 3 13 4 3"
    ascent="783"
    descent="-217"
    x-height="534"
    cap-height="702"
    bbox="-193 -222 1036 783"
    underline-thickness="30"
    underline-position="-100"
    slope="-12"
    stemh="14"
    stemv="108"
    unicode-range="U+0020-007A"
  />
<missing-glyph horiz-adv-x="960" 
d="M90 0v780h780v-780h-780zM201 714l279 -279l279 279h-558zM435 390l-275 275v-550zM525 390l275 -275v550zM480 345l-279 -279h558z" />
    <glyph glyph-name=".notdef" horiz-adv-x="960" 
d="M90 0v780h780v-780h-780zM201 714l279 -279l279 279h-558zM435 390l-275 275v-550zM525 390l275 -275v550zM480 345l-279 -279h558z" />
    <glyph glyph-name="space" unicode=" " horiz-adv-x="193" 
 />
    <glyph glyph-name="A" unicode="A" 
d="M478 94l-33 182h-259l-104 -181c-13 -21 -20 -37 -20 -49c0 -25 32 -32 87 -35l-3 -11h-203l3 11c51 7 69 14 91 51l342 584l-11 63h115l118 -642c8 -46 27 -50 64 -56l-2 -11h-280l2 11c53 2 96 6 96 57c0 7 0 16 -3 26zM197 294h245l-58 325z" />
    <glyph glyph-name="B" unicode="B" horiz-adv-x="635" 
d="M-27 0l4 11c74 9 87 15 99 70l114 540c12 59 -4 62 -70 70l3 11h289c145 0 206 -70 206 -149c0 -110 -105 -178 -226 -189c136 -12 200 -76 200 -152c0 -132 -133 -212 -295 -212h-324zM376 684h-55l-66 -312h56c109 0 191 64 191 179c0 78 -41 133 -126 133zM328 354
h-77l-57 -269c-11 -54 13 -67 78 -67h11c106 0 190 63 190 196c0 84 -48 140 -145 140z" />
    <glyph glyph-name="C" unicode="C" horiz-adv-x="651" 
d="M43 273c0 214 178 438 426 438c81 0 157 -25 203 -59l-32 -152h-9c0 128 -59 197 -162 197c-193 0 -302 -257 -302 -434c0 -166 53 -259 162 -259c114 0 198 73 268 225h10l-53 -183c-67 -35 -141 -56 -230 -56c-176 0 -281 110 -281 283z" />
    <glyph glyph-name="D" unicode="D" horiz-adv-x="717" 
d="M268 0h-295l4 12c74 9 87 14 99 70l115 539c12 59 -4 62 -70 70l2 11h250c207 0 338 -107 338 -281c0 -249 -195 -421 -443 -421zM263 18h13c176 0 311 177 311 409c0 154 -67 257 -227 257h-39l-126 -595c-12 -59 10 -71 68 -71z" />
    <glyph glyph-name="E" unicode="E" horiz-adv-x="623" 
d="M519 0h-546l3 11c74 9 87 15 99 70l116 540c12 59 -4 62 -70 70l2 11h534l-32 -173h-10c-21 126 -52 155 -136 155h-157l-67 -312h147c59 0 84 34 109 102h11l-47 -223h-12c4 68 0 103 -65 103h-147l-58 -269c-11 -54 15 -67 80 -67h80c83 0 155 53 233 187h10z" />
    <glyph glyph-name="F" unicode="F" horiz-adv-x="576" 
d="M299 0h-326l3 11c74 9 87 15 99 70l115 538c12 59 -4 62 -70 70l3 13h518l-35 -179h-9c-16 124 -51 161 -131 161h-145l-66 -312h126c60 0 84 34 109 102h12l-48 -223h-11c4 68 -1 103 -65 103h-127l-56 -262c-13 -59 12 -72 107 -79z" />
    <glyph glyph-name="G" unicode="G" horiz-adv-x="706" 
d="M168 263c0 -164 55 -257 159 -257c48 0 90 7 131 37l46 203c13 59 -4 63 -70 70l2 12h269l-2 -12c-65 -4 -77 -16 -88 -70l-40 -185c-76 -45 -145 -71 -250 -71c-176 0 -281 112 -281 283c0 216 180 439 428 439c87 0 162 -26 208 -60l-31 -152h-10
c1 128 -59 198 -167 198c-193 0 -304 -255 -304 -435z" />
    <glyph glyph-name="H" unicode="H" horiz-adv-x="786" 
d="M75 81l116 540c12 59 -4 62 -70 70l2 11h287l-2 -11c-74 -9 -88 -15 -100 -70l-53 -249h329l53 249c12 59 -4 62 -70 70l2 11h287l-2 -11c-74 -9 -88 -15 -100 -70l-115 -540c-13 -59 4 -62 69 -70l-2 -11h-287l3 11c74 9 87 15 99 70l59 273h-329l-58 -273
c-13 -59 4 -62 69 -70l-2 -11h-287l3 11c74 9 87 15 99 70z" />
    <glyph glyph-name="I" unicode="I" horiz-adv-x="341" 
d="M75 81l116 540c12 59 -4 62 -70 70l2 11h287l-2 -11c-74 -9 -88 -15 -100 -70l-115 -540c-13 -59 4 -62 69 -70l-2 -11h-287l3 11c74 9 87 15 99 70z" />
    <glyph glyph-name="J" unicode="J" horiz-adv-x="510" 
d="M274 169l95 445c13 59 -4 63 -69 70l3 18h287l-4 -18c-74 -8 -87 -14 -99 -70l-91 -422c-31 -147 -120 -202 -253 -202c-101 0 -169 44 -169 114c0 36 21 69 50 87h81c-15 -30 -24 -60 -24 -90c0 -62 27 -98 73 -98c60 0 95 48 120 166z" />
    <glyph glyph-name="K" unicode="K" horiz-adv-x="686" 
d="M649 11l-2 -11h-184c-27 27 -60 88 -91 149l-107 211l308 266c14 12 31 27 31 41c0 16 -14 21 -75 24l2 11h223l-2 -11c-56 -3 -91 -14 -135 -52l-254 -218l137 -269c52 -99 88 -136 149 -141zM75 81l116 540c12 59 -4 62 -70 70l2 11h287l-2 -11
c-74 -9 -88 -15 -100 -70l-115 -540c-13 -59 4 -62 69 -70l-2 -11h-287l3 11c74 9 87 15 99 70z" />
    <glyph glyph-name="L" unicode="L" horiz-adv-x="596" 
d="M308 621l-115 -535c-12 -54 14 -68 80 -68h64c77 0 144 52 224 191h11l-78 -209h-521l3 11c74 9 87 14 99 70l116 540c12 59 -4 62 -70 70l2 11h287l-3 -11c-74 -9 -87 -15 -99 -70z" />
    <glyph glyph-name="M" unicode="M" horiz-adv-x="906" 
d="M652 86l50 510l-328 -601h-13l-107 607l-164 -506c-20 -63 -10 -80 74 -85l-3 -11h-198l2 11c57 4 79 14 94 60l179 547c11 53 -6 69 -70 73l3 11h189c-3 -22 -1 -37 3 -59l82 -475l260 475c13 22 19 36 26 59h193l-3 -11c-64 -4 -88 -20 -100 -73l-56 -547
c-4 -47 16 -56 70 -60l-3 -11h-288l2 11c81 7 100 13 106 75z" />
    <glyph glyph-name="N" unicode="N" horiz-adv-x="731" 
d="M74 81l117 544c-25 40 -46 64 -86 66l2 11h176l304 -540l96 459c12 55 -17 65 -95 70l2 11h222l-3 -11c-74 -9 -91 -15 -103 -70l-133 -626h-16l-351 604l-109 -518c-12 -55 19 -65 97 -70l-2 -11h-223l2 11c75 9 92 15 103 70z" />
    <glyph glyph-name="O" unicode="O" 
d="M43 264c0 213 166 448 393 448c176 0 268 -124 268 -274c0 -213 -165 -448 -393 -448c-175 0 -268 124 -268 274zM579 457c0 136 -40 240 -141 240c-172 0 -270 -269 -270 -452c0 -136 40 -241 142 -241c171 0 269 269 269 453z" />
    <glyph glyph-name="P" unicode="P" horiz-adv-x="600" 
d="M123 702h270c163 0 240 -81 240 -173c0 -142 -135 -226 -323 -226h-70l-45 -213c-13 -59 10 -73 106 -79l-2 -11h-326l3 10c74 8 87 14 99 70l116 541c12 59 -4 62 -70 70zM321 684l-77 -362h56c120 0 216 72 216 206c0 85 -48 156 -153 156h-42z" />
    <glyph glyph-name="Q" unicode="Q" 
d="M43 264c0 213 166 448 393 448c176 0 268 -124 268 -274c0 -198 -143 -415 -346 -445l54 -59c36 -39 67 -72 129 -75v-3c-29 -21 -63 -38 -110 -38c-56 0 -99 27 -125 83l-41 92c-145 20 -222 135 -222 271zM579 457c0 136 -40 240 -141 240c-172 0 -270 -269 -270 -452
c0 -136 40 -241 142 -241c171 0 269 269 269 453z" />
    <glyph glyph-name="R" unicode="R" horiz-adv-x="692" 
d="M245 325l-53 -244c-12 -59 5 -62 70 -70l-2 -11h-287l3 11c74 9 87 15 99 70l116 540c12 59 -4 62 -70 70l2 11h288c162 0 220 -79 220 -158c0 -121 -115 -183 -215 -206l92 -180c55 -107 91 -144 146 -147l-2 -11h-179c-27 28 -57 83 -87 150l-82 175h-59zM377 685h-55
l-73 -341h49c123 0 211 71 211 199c0 79 -39 142 -132 142z" />
    <glyph glyph-name="S" unicode="S" horiz-adv-x="537" 
d="M206 556c0 -149 286 -143 286 -346c0 -127 -126 -220 -266 -220c-97 0 -174 40 -212 75l28 168h10c3 -150 67 -228 179 -228c90 0 151 58 151 155c0 168 -280 154 -280 350c0 105 98 202 248 202c71 0 142 -27 189 -62l-28 -148h-10c0 126 -55 196 -154 196
c-86 0 -141 -64 -141 -142z" />
    <glyph glyph-name="T" unicode="T" horiz-adv-x="653" 
d="M478 684l-128 -602c-13 -59 8 -64 80 -71l-3 -11h-306l2 11c80 9 97 15 109 71l128 602h-63c-91 0 -141 -42 -226 -201h-10l62 219h599l-32 -219h-10c-20 159 -39 201 -131 201h-71z" />
    <glyph glyph-name="U" unicode="U" horiz-adv-x="709" 
d="M599 257l78 364c12 59 -5 62 -74 70l2 11h196l-2 -11c-74 -9 -88 -15 -99 -70l-82 -382c-35 -166 -143 -249 -288 -249c-167 0 -274 104 -234 290l73 341c12 59 -4 62 -70 70l2 11h287l-2 -11c-74 -9 -88 -15 -100 -70l-72 -340c-33 -154 28 -248 142 -248
c132 0 210 68 243 224z" />
    <glyph glyph-name="V" unicode="V" horiz-adv-x="666" 
d="M680 640l-386 -649h-14l-128 644c-9 47 -27 50 -63 56l3 11h281l-3 -11c-59 -2 -98 -9 -98 -48c0 -15 2 -27 4 -40l87 -458l269 456c13 22 22 41 22 55c0 24 -25 32 -84 35l2 11h200l-2 -11c-48 -7 -66 -13 -90 -51z" />
    <glyph glyph-name="W" unicode="W" horiz-adv-x="930" 
d="M572 -9l-60 447l-249 -447h-12l-106 649c-6 36 -32 47 -61 51l2 11h277l-3 -11c-74 -4 -94 -17 -94 -51c0 -12 1 -25 2 -35l62 -458l178 323l-23 170c-4 36 -32 47 -62 51l2 11h265l-3 -11c-72 -4 -90 -17 -90 -51c0 -12 1 -25 3 -35l49 -460l253 456c9 17 20 37 20 53
c0 22 -15 34 -87 37l3 11h198l-3 -11c-40 -5 -62 -13 -87 -57l-362 -643h-12z" />
    <glyph glyph-name="X" unicode="X" horiz-adv-x="685" 
d="M420 89l-92 230l-202 -218c-24 -26 -38 -42 -38 -60c0 -21 30 -28 96 -30l-3 -11h-235l2 11c52 2 74 9 115 54l256 275l-121 303c-14 34 -34 46 -74 47l3 12h285l-3 -12c-53 0 -88 -4 -88 -32c0 -12 5 -25 16 -49l76 -191l168 182c25 26 42 46 42 62c0 21 -29 27 -96 28
l2 12h223l-3 -12c-40 -1 -69 -13 -106 -53l-222 -240l135 -337c13 -34 38 -48 76 -49l-3 -11h-288l2 11c55 2 91 5 91 36c0 9 -6 23 -14 42z" />
    <glyph glyph-name="Y" unicode="Y" horiz-adv-x="624" 
d="M419 11l-2 -11h-302l2 11c80 9 97 15 109 71l46 220l-131 348c-11 29 -26 36 -55 41l2 11h277l-2 -11c-78 -3 -100 -13 -100 -42c0 -15 3 -27 10 -45l105 -276l217 276c12 15 30 39 30 55c0 21 -23 30 -92 32l3 11h195l-2 -11c-31 -6 -52 -15 -75 -43l-267 -341l-48 -225
c-13 -59 9 -64 80 -71z" />
    <glyph glyph-name="Z" unicode="Z" horiz-adv-x="608" 
d="M571 209l-77 -209h-520l2 8l551 676h-203c-87 0 -127 -36 -200 -162h-10l44 180h507l-2 -10l-549 -674h221c81 0 150 57 227 191h9z" />
    <glyph glyph-name="a" unicode="a" horiz-adv-x="563" 
d="M534 145l6 -4c-46 -88 -111 -151 -174 -151c-38 0 -56 23 -56 59c0 32 17 100 45 189c-58 -133 -147 -248 -228 -248c-64 0 -108 57 -108 151c0 199 168 393 326 393c46 0 83 -19 104 -40l88 47h4l-36 -117l-74 -306c-5 -19 -8 -35 -8 -43c0 -12 4 -17 15 -17
c21 0 60 34 96 87zM128 151c0 -61 17 -90 50 -90c79 0 191 162 231 383c-1 38 -15 75 -58 75c-111 0 -223 -202 -223 -368z" />
    <glyph glyph-name="b" unicode="b" horiz-adv-x="548" 
d="M421 534c69 0 110 -55 110 -148c0 -202 -186 -396 -338 -396c-73 0 -149 44 -168 114l148 590l-74 41v4l200 44h4l-139 -547c57 149 162 298 257 298zM371 464c-75 0 -197 -161 -245 -381c5 -39 25 -79 67 -79c112 0 225 218 225 372c0 55 -12 88 -47 88z" />
    <glyph glyph-name="c" unicode="c" horiz-adv-x="421" 
d="M350 377c8 64 5 139 -50 139c-90 0 -170 -169 -170 -320c0 -93 33 -144 98 -144c56 0 103 38 147 100l6 -5c-43 -91 -116 -157 -200 -157c-97 0 -161 74 -161 184c0 172 144 360 303 360c69 0 112 -30 112 -82c0 -40 -35 -68 -71 -75h-14z" />
    <glyph glyph-name="d" unicode="d" horiz-adv-x="583" 
d="M548 145l6 -4c-46 -88 -112 -151 -175 -151c-37 0 -57 23 -57 59c0 16 4 35 10 61l35 137c-66 -149 -161 -257 -240 -257c-64 0 -108 57 -108 151c0 199 168 393 332 393c33 0 62 -11 81 -25l45 185l-73 41v4l199 44h4l-163 -665c-5 -19 -8 -35 -8 -43
c0 -12 4 -17 15 -17c21 0 60 34 97 87zM128 151c0 -61 17 -90 51 -90c81 0 195 162 236 383c-2 38 -15 75 -59 75c-116 0 -228 -202 -228 -368z" />
    <glyph glyph-name="e" unicode="e" horiz-adv-x="440" 
d="M396 146c-46 -92 -123 -156 -211 -156c-103 0 -165 74 -165 185c0 168 142 359 301 359c83 0 122 -45 122 -100c0 -118 -160 -165 -311 -189c-2 -16 -3 -31 -3 -46c0 -93 40 -145 106 -145c58 0 111 33 154 96zM352 457c0 34 -12 62 -47 62c-78 0 -154 -136 -172 -264
c145 34 219 99 219 202z" />
    <glyph glyph-name="f" unicode="f" horiz-adv-x="296" 
d="M236 482l-71 -313c-62 -275 -140 -379 -254 -379c-56 0 -99 25 -99 68c0 39 34 58 66 61h9c0 -68 19 -113 53 -113s54 37 83 188l94 488h-73l1 6l81 36c34 151 116 259 234 259c65 0 108 -29 108 -78c0 -34 -25 -55 -64 -64h-19c3 61 -10 126 -52 126
c-50 0 -79 -93 -94 -253h115l-14 -32h-104z" />
    <glyph glyph-name="g" unicode="g" horiz-adv-x="477" 
d="M439 -50c0 -102 -125 -172 -271 -172c-130 0 -246 53 -246 133c0 67 77 109 170 118c-24 14 -42 39 -42 68c0 43 33 71 91 98c-55 27 -86 80 -86 133c0 116 101 206 225 206c32 0 61 -7 84 -19l172 12l-15 -53h-7l-115 16c31 -28 48 -67 48 -105
c0 -117 -101 -207 -226 -207c-25 0 -48 4 -69 12c-23 -15 -37 -29 -37 -46c0 -18 20 -23 44 -30l158 -47c64 -18 122 -51 122 -117zM219 192c69 0 126 101 126 219c0 61 -17 110 -62 110c-69 0 -125 -101 -125 -220c0 -60 15 -109 61 -109zM11 -73c0 -82 66 -137 162 -137
c114 0 174 50 174 109c0 39 -26 54 -72 70l-175 57c-57 -21 -89 -56 -89 -99z" />
    <glyph glyph-name="h" unicode="h" horiz-adv-x="565" 
d="M308 783l-137 -546c67 152 180 301 280 301c49 0 68 -30 68 -78c0 -13 -3 -31 -7 -46l-79 -296c-5 -19 -8 -35 -8 -43c0 -12 4 -17 14 -17c21 0 61 34 97 87l6 -4c-46 -88 -111 -151 -174 -151c-38 0 -57 23 -57 59c0 16 3 35 10 61l82 301c3 13 5 25 5 33
c0 14 -5 21 -18 21c-57 0 -195 -142 -236 -309l-39 -156h-110l173 694l-73 41v4l199 44h4z" />
    <glyph glyph-name="i" unicode="i" horiz-adv-x="286" 
d="M298 679c0 -39 -31 -72 -72 -72c-39 0 -66 29 -66 64c0 40 31 72 72 72c39 0 66 -29 66 -64zM34 110l84 333l-65 43v4l194 44h4l-105 -416c-5 -19 -8 -35 -8 -43c0 -12 4 -17 14 -17c21 0 61 34 97 87l6 -4c-46 -88 -111 -151 -174 -151c-38 0 -57 23 -57 59
c0 16 3 35 10 61z" />
    <glyph glyph-name="j" unicode="j" horiz-adv-x="254" 
d="M300 679c0 -39 -31 -72 -72 -72c-39 0 -67 29 -67 64c0 40 32 72 72 72c39 0 67 -29 67 -64zM253 534l-88 -378c-61 -266 -142 -366 -259 -366c-56 0 -99 25 -99 68c0 39 34 58 66 61h9c0 -68 19 -113 52 -113c35 0 50 38 84 188l103 449l-67 43v4l195 44h4z" />
    <glyph glyph-name="k" unicode="k" horiz-adv-x="528" 
d="M179 694l-74 41v4l200 44h4l-194 -783h-110zM500 139l6 -3c-35 -84 -93 -146 -151 -146c-51 0 -66 38 -90 107l-66 183l158 174c53 59 80 80 118 80c43 0 64 -31 64 -63c0 -36 -27 -61 -70 -75h-2c2 28 -8 62 -47 62c-29 0 -58 -18 -145 -110l91 -222
c16 -36 26 -62 49 -62c27 0 59 31 85 75z" />
    <glyph glyph-name="l" unicode="l" horiz-adv-x="279" 
d="M27 110l145 584l-73 41v4l200 44h4l-164 -665c-5 -19 -8 -35 -8 -43c0 -12 4 -17 15 -17c21 0 60 34 97 87l6 -4c-46 -88 -112 -151 -174 -151c-38 0 -57 23 -57 59c0 16 3 35 9 61z" />
    <glyph glyph-name="m" unicode="m" horiz-adv-x="851" 
d="M519 464c0 -34 -14 -87 -51 -224c55 133 163 294 269 294c50 0 68 -28 68 -74c0 -13 -3 -31 -7 -46l-79 -296c-5 -19 -8 -35 -8 -43c0 -12 4 -17 15 -17c21 0 60 34 97 87l6 -4c-46 -88 -112 -151 -174 -151c-38 0 -57 23 -57 59c0 16 3 35 9 61l82 301c3 13 5 25 5 33
c0 14 -4 21 -17 21c-58 0 -187 -146 -228 -309l-39 -156h-109l103 411c3 13 5 25 5 33c0 14 -4 21 -17 21c-58 0 -187 -142 -228 -309l-39 -156h-109l111 443l-66 43v4l194 44h4l-76 -294c55 133 163 294 268 294c48 0 68 -28 68 -70z" />
    <glyph glyph-name="n" unicode="n" horiz-adv-x="575" 
d="M259 534l-76 -294c55 133 173 294 277 294c50 0 69 -28 69 -74c0 -13 -3 -31 -7 -46l-79 -296c-5 -19 -8 -35 -8 -43c0 -12 4 -17 15 -17c21 0 60 34 97 87l6 -4c-47 -88 -112 -151 -175 -151c-37 0 -57 23 -57 59c0 16 3 35 10 61l82 301c3 13 5 25 5 33
c0 14 -5 21 -17 21c-58 0 -196 -142 -237 -309l-39 -156h-109l111 443l-66 43v4l194 44h4z" />
    <glyph glyph-name="o" unicode="o" horiz-adv-x="500" 
d="M20 181c0 163 131 353 290 353c103 0 170 -75 170 -190c0 -164 -130 -354 -289 -354c-103 0 -171 75 -171 191zM128 150c0 -76 12 -146 63 -146c94 0 182 212 182 371c0 75 -12 145 -64 145c-94 0 -181 -212 -181 -370z" />
    <glyph glyph-name="p" unicode="p" horiz-adv-x="567" 
d="M173 -201l-2 -11h-273l2 11c51 3 69 9 78 47l149 597l-66 43v4l194 44h4l-76 -296c56 148 162 296 257 296c69 0 110 -55 110 -148c0 -202 -177 -396 -329 -396c-39 0 -69 15 -89 37l-43 -172c-3 -11 -5 -19 -5 -25c0 -24 20 -30 89 -31zM437 376c0 55 -12 88 -47 88
c-77 0 -197 -161 -245 -381c5 -39 35 -79 76 -79c111 0 216 218 216 372z" />
    <glyph glyph-name="q" unicode="q" horiz-adv-x="541" 
d="M419 -201l-3 -11h-271l3 11c66 5 92 8 103 46l108 381l8 23c-61 -142 -157 -259 -240 -259c-64 0 -108 57 -108 151c0 199 168 393 332 393c45 0 83 -19 104 -40l88 47h4l-36 -117l-148 -577c-2 -8 -3 -15 -3 -20c1 -22 19 -26 59 -28zM128 151c0 -61 17 -90 51 -90
c81 0 195 162 236 383c-2 38 -15 75 -59 75c-116 0 -228 -202 -228 -368z" />
    <glyph glyph-name="r" unicode="r" horiz-adv-x="412" 
d="M127 443l-66 43v4l194 44h4l-88 -342c66 189 152 342 231 342c35 0 56 -25 56 -58c0 -47 -35 -81 -79 -99h-2c2 24 -4 53 -31 53c-67 0 -159 -175 -223 -430h-107z" />
    <glyph glyph-name="s" unicode="s" horiz-adv-x="387" 
d="M50 171c11 -81 65 -153 130 -153c45 0 82 33 82 80c0 95 -188 156 -188 272c0 73 79 164 187 164c73 0 121 -34 121 -86c0 -31 -30 -54 -57 -62h-2c-9 66 -53 123 -111 123c-43 0 -68 -31 -68 -67c0 -85 192 -161 192 -271c0 -91 -102 -181 -204 -181
c-82 0 -141 51 -141 108c0 32 25 62 57 73h2z" />
    <glyph glyph-name="t" unicode="t" horiz-adv-x="324" 
d="M293 145c-54 -99 -122 -155 -187 -155c-48 0 -75 30 -75 76c0 21 3 43 10 72l86 344h-68l3 7c74 31 159 92 208 154h5l-32 -129h119l-14 -32h-113l-85 -345c-6 -21 -8 -37 -8 -50c0 -17 9 -27 25 -27c36 0 75 29 120 90z" />
    <glyph glyph-name="u" unicode="u" horiz-adv-x="575" 
d="M539 145l6 -4c-46 -88 -111 -151 -174 -151c-38 0 -56 23 -56 59c0 25 15 96 54 239c-37 -115 -160 -298 -259 -298c-52 0 -79 36 -79 82c0 16 3 34 8 53l81 318l-65 43v4l194 44h4l-104 -404c-5 -19 -8 -33 -8 -45c0 -17 9 -27 25 -27c65 0 177 145 218 309l38 151
l114 8l-100 -408c-5 -19 -8 -35 -8 -43c0 -12 4 -17 14 -17c21 0 61 34 97 87z" />
    <glyph glyph-name="v" unicode="v" horiz-adv-x="466" 
d="M77 449l-63 39v4l162 42h2l30 -441c159 182 183 233 183 300c0 54 -39 86 -98 79v3c17 27 53 59 99 59c59 0 81 -45 81 -88c0 -68 -49 -138 -155 -251l-191 -204h-12z" />
    <glyph glyph-name="w" unicode="w" horiz-adv-x="684" 
d="M352 -9l-21 262l-204 -262h-12l-38 458l-63 39v4l162 42h2l30 -419l121 159l-14 175l-63 39v4l161 42h3l28 -429c140 173 166 232 166 288c0 54 -40 86 -98 79v3c16 27 52 59 98 59c59 0 81 -45 81 -88c0 -68 -54 -134 -155 -251l-171 -204h-13z" />
    <glyph glyph-name="x" unicode="x" horiz-adv-x="545" 
d="M157 127l63 101l-54 215l-81 49v4l166 38h3l48 -200l66 105c37 60 71 96 116 96c41 0 65 -27 65 -63c0 -40 -35 -63 -65 -75h-2c1 36 -11 61 -43 61c-25 0 -49 -17 -79 -61l-54 -79l44 -184c12 -47 19 -69 43 -69s54 22 90 70l6 -5c-43 -81 -93 -140 -155 -140
c-47 0 -65 42 -82 111l-27 108l-73 -123c-35 -59 -69 -96 -124 -96c-38 0 -64 27 -64 65c0 44 37 66 62 77h2c-2 -45 19 -65 48 -65c23 0 51 13 81 60z" />
    <glyph glyph-name="y" unicode="y" horiz-adv-x="473" 
d="M-69 -54c-4 -58 28 -98 88 -98c41 0 83 14 145 82l-87 519l-64 39v4l161 42h2l71 -498c15 21 30 44 47 70c87 135 105 218 105 271c0 70 -43 102 -102 96v2c17 28 53 59 99 59c59 0 83 -46 83 -91c0 -69 -56 -169 -172 -343c-31 -47 -59 -87 -86 -121l-4 -7l-7 -8
c-107 -134 -183 -173 -246 -173c-49 0 -95 25 -95 78c0 36 30 67 60 77h2z" />
    <glyph glyph-name="z" unicode="z" horiz-adv-x="463" 
d="M418 172h6c-42 -132 -86 -184 -165 -184c-41 0 -77 13 -135 49l-95 60l-16 -103c-30 0 -49 13 -49 34c0 14 7 27 34 50l380 350h-206c-36 0 -45 -9 -64 -35l-27 -37h-6l72 203h5c2 -22 9 -39 40 -39h313v-4l-409 -369l80 -30c60 -23 80 -28 117 -28c45 0 92 18 125 83z
" />
    <glyph glyph-name="period" unicode="." horiz-adv-x="215" 
d="M64 -10c-42 0 -77 34 -77 77s35 77 77 77c43 0 77 -34 77 -77s-34 -77 -77 -77z" />
    <glyph glyph-name="comma" unicode="," horiz-adv-x="215" 
d="M77 0h-31c-30 6 -54 28 -54 63c0 41 30 68 69 68c49 0 74 -39 74 -82c0 -89 -84 -161 -185 -167v6c58 9 122 64 127 112z" />
    <glyph glyph-name="hyphen" unicode="-" horiz-adv-x="320" 
d="M291 282h-260l10 41h260z" />
    <glyph glyph-name="zero" unicode="0" horiz-adv-x="611" 
d="M604 451c0 -219 -147 -461 -352 -461c-134 0 -215 120 -215 261c0 219 147 461 352 461c134 0 215 -120 215 -261zM159 206c0 -110 18 -202 93 -202c134 0 231 294 231 492c0 110 -20 202 -94 202c-135 0 -230 -294 -230 -492z" />
    <glyph glyph-name="one" unicode="1" horiz-adv-x="411" 
d="M364 712h6l-129 -608c-15 -80 14 -86 105 -90l-3 -14h-360l3 14c100 6 120 11 134 72l105 494h-138l2 8l43 7c99 14 159 41 232 117z" />
    <glyph glyph-name="two" unicode="2" horiz-adv-x="536" 
d="M483 204l-66 -204h-455l2 8c361 293 439 389 439 507c0 68 -46 115 -121 115c-69 0 -134 -36 -182 -94l-6 6c52 105 150 170 256 170c101 0 173 -67 173 -172c0 -158 -193 -256 -431 -441h202c89 0 120 10 179 105h10z" />
    <glyph glyph-name="three" unicode="3" horiz-adv-x="524" 
d="M185 346l-2 9c117 30 215 94 215 193c0 52 -37 92 -99 92c-60 0 -122 -32 -168 -89l-7 5c56 107 149 156 237 156c93 0 154 -58 152 -133c-2 -98 -93 -151 -192 -181c111 -11 166 -94 166 -170c0 -143 -152 -238 -279 -238c-152 0 -210 76 -210 142c0 39 29 76 64 88h56
c-11 -25 -18 -43 -18 -76c0 -76 34 -140 111 -140c92 0 160 92 160 201c0 93 -47 149 -124 149c-21 0 -37 -3 -62 -8z" />
    <glyph glyph-name="four" unicode="4" horiz-adv-x="615" 
d="M305 84l29 140h-323l2 4l470 474h71l-99 -459h119l-4 -19h-119l-3 -15l-27 -125c-9 -56 1 -63 72 -70l-3 -14h-288l3 14c77 8 88 15 100 70zM55 243h284l78 364z" />
    <glyph glyph-name="five" unicode="5" horiz-adv-x="523" 
d="M180 590l-42 -140c192 6 338 -63 338 -225c0 -130 -118 -235 -260 -235c-133 0 -216 65 -216 141c0 44 29 76 59 89h59c-12 -24 -18 -47 -18 -78c0 -76 47 -138 122 -138c85 0 153 74 153 182c0 144 -134 176 -286 170l108 342h263c36 0 45 2 74 44h10l-56 -152h-308z
" />
    <glyph glyph-name="six" unicode="6" horiz-adv-x="564" 
d="M534 244c0 -136 -124 -254 -268 -254c-130 0 -229 102 -229 249c0 227 203 432 509 472l6 -10c-184 -46 -326 -164 -379 -337c46 45 107 74 172 74c118 0 189 -88 189 -194zM152 212c0 -118 35 -207 117 -207c84 0 150 96 150 216c0 97 -49 170 -135 170
c-39 0 -81 -14 -115 -43c-11 -43 -17 -88 -17 -136z" />
    <glyph glyph-name="seven" unicode="7" horiz-adv-x="506" 
d="M502 592h-298c-65 0 -95 -31 -131 -85h-12l84 195h434l-1 -4l-424 -698h-93z" />
    <glyph glyph-name="eight" unicode="8" horiz-adv-x="556" 
d="M503 200c0 -117 -109 -210 -247 -210c-133 0 -237 77 -237 179c0 98 83 161 191 182c-52 37 -95 84 -95 162c0 108 105 199 228 199c113 0 204 -57 204 -155c0 -90 -86 -151 -179 -169c69 -44 135 -95 135 -188zM218 553c0 -74 69 -114 140 -159c66 33 101 94 101 171
c0 71 -40 134 -117 134c-69 0 -124 -50 -124 -146zM115 170c0 -98 56 -166 142 -166c75 0 143 52 143 153c0 95 -98 131 -179 187c-77 -34 -106 -110 -106 -174z" />
    <glyph glyph-name="nine" unicode="9" horiz-adv-x="564" 
d="M60 458c0 136 124 254 268 254c130 0 229 -102 229 -249c0 -227 -203 -432 -509 -472l-6 10c184 46 326 164 379 337c-46 -45 -107 -74 -172 -74c-118 0 -189 88 -189 194zM442 490c0 118 -35 207 -117 207c-84 0 -150 -96 -150 -216c0 -97 49 -170 135 -170
c39 0 81 14 115 43c11 43 17 88 17 136z" />
    </font>
</defs>
</svg>
