<?xml version="1.0" encoding="UTF-8"?>
<svg width="25px" height="25px" viewBox="0 0 25 25" version="1.1" xmlns="http://www.w3.org/2000/svg" xmlns:xlink="http://www.w3.org/1999/xlink">
    <title>Icons/Web</title>
    <g id="Icons/Web" stroke="none" stroke-width="1" fill="none" fill-rule="evenodd">
        <rect id="Rectangle" fill="#FFFFFF" x="5" y="9" width="1" height="3"></rect>
        <line x1="19.5" y1="9.5" x2="19.5" y2="11.5" id="Line" stroke="#FFFFFF" stroke-linecap="square"></line>
        <g id="window" transform="translate(4.000000, 5.000000)" fill="#000000">
            <path d="M0,0 L0,15 L17,15 L17,0 L0,0 L0,0 Z M16,1 L16,4 L1,4 L1,1 L16,1 L16,1 Z M1,14 L1,5 L16,5 L16,14 L1,14 L1,14 Z M7,3 L6,3 L6,2 L7,2 L7,3 L7,3 Z M5,3 L4,3 L4,2 L5,2 L5,3 L5,3 Z M3,3 L2,3 L2,2 L3,2 L3,3 L3,3 Z" id="Shape"></path>
        </g>
    </g>
</svg>