<svg xmlns="http://www.w3.org/2000/svg"><defs><font horiz-adv-x="738"><font-face ascent="783" bbox="-15 -223 1008 783" cap-height="702" descent="-217" panose-1="2 2 8 3 6 3 3 6 4 3" stemh="14" stemv="185" underline-position="-100" underline-thickness="30" unicode-range="U+0020-007A" x-height="539"/><missing-glyph d="M90 0v780h780v-780h-780zM201 714l279-279 279 279h-558zM435 390l-275 275v-550zM525 390l275-275v550zM480 345l-279-279h558z" horiz-adv-x="960"/><glyph d="M90 0v780h780v-780h-780zM201 714l279-279 279 279h-558zM435 390l-275 275v-550zM525 390l275-275v550zM480 345l-279-279h558z" glyph-name=".notdef" horiz-adv-x="960"/><glyph glyph-name="space" horiz-adv-x="173" unicode="&#x20;"/><glyph d="M400 283l-111 302-108-302h219zM213 15v-15h-218v15c37 3 65 10 85 63l197 539-32 87h208l237-648c11-29 31-38 63-41v-15h-355v15c50 2 78 12 78 46 0 10-3 23-8 38l-60 162h-235l-58-162c-5-13-7-25-7-34 0-35 42-48 105-50z" glyph-name="A" horiz-adv-x="748" unicode="&#x41;"/><glyph d="M22 0v15c67 7 73 16 73 68v536c0 52-6 61-73 68v15h352c164 0 255-58 255-164 0-111-114-159-212-170 133-4 259-65 259-177 0-129-117-191-283-191h-371zM314 683h-23v-310h24c84 0 129 52 129 157 0 103-50 153-130 153zM333 352h-42v-258c0-60 30-76 73-76h5c69 0 117 56 117 171 0 106-50 163-153 163z" glyph-name="B" horiz-adv-x="692" unicode="&#x42;"/><glyph d="M411 696c-125 0-182-167-182-348 0-195 64-343 190-343 87 0 184 86 223 249h11l-17-199c-58-41-143-65-238-65-225 0-376 140-376 346 0 235 177 376 388 376 77 0 151-21 208-59l3-175h-9c-25 120-109 218-201 218z" glyph-name="C" horiz-adv-x="674" unicode="&#x43;"/><glyph d="M22 0v15c67 7 73 16 73 68v536c0 52-6 61-73 68v15h321c284 0 415-145 415-341 0-223-162-361-388-361h-348zM315 682h-24v-589c0-62 25-76 70-76h6c113 0 188 125 188 322 0 208-87 343-240 343z" glyph-name="D" horiz-adv-x="781" unicode="&#x44;"/><glyph d="M603 0h-581v15c67 7 73 16 73 68v536c0 52-6 61-73 68v15h574l5-193h-11c-51 133-104 173-197 173h-102v-310h97c73 0 89 42 97 111h13v-241h-13c-8 68-24 110-97 110h-97v-265c0-54 25-67 81-67h35c89 0 155 65 217 202h12z" glyph-name="E" horiz-adv-x="647" unicode="&#x45;"/><glyph d="M95 83v536c0 52-6 61-73 68v15h565l5-202h-11c-50 145-104 182-198 182h-92v-310h87c72 0 89 42 96 111h14v-241h-14c-7 68-24 110-96 110h-87v-268c0-53 28-63 116-69v-15h-385v15c67 7 73 16 73 68z" glyph-name="F" horiz-adv-x="605" unicode="&#x46;"/><glyph d="M473 250c0 52-6 61-73 68v15h328v-15c-67-7-72-16-72-68v-193c-69-44-165-67-259-67-237 0-375 148-375 343 0 225 174 379 394 379 81 0 157-21 214-59l3-175h-10c-25 120-106 218-202 218-128 0-192-137-192-336 0-187 59-353 183-353 24 0 42 3 61 13v230z" glyph-name="G" horiz-adv-x="734" unicode="&#x47;"/><glyph d="M363 15v-15h-341v15c67 7 73 16 73 68v536c0 52-6 61-73 68v15h341v-15c-66-7-72-16-72-68v-248h254v248c0 52-6 61-73 68v15h341v-15c-66-7-72-16-72-68v-536c0-52 6-61 72-68v-15h-341v15c67 7 73 16 73 68v266h-254v-266c0-52 6-61 72-68z" glyph-name="H" horiz-adv-x="835" unicode="&#x48;"/><glyph d="M291 619v-536c0-52 6-61 72-68v-15h-341v15c67 7 73 16 73 68v536c0 52-6 61-73 68v15h341v-15c-66-7-72-16-72-68z" glyph-name="I" horiz-adv-x="386" unicode="&#x49;"/><glyph d="M294 619c0 52-6 61-73 68v15h341v-15c-67-7-72-16-72-68v-394c0-163-105-235-268-235-139 0-231 53-231 149 0 38 21 72 50 90h125c-5-24-9-53-9-88 0-73 20-136 69-136 57 0 68 62 68 159v455z" glyph-name="J" horiz-adv-x="574" unicode="&#x4a;"/><glyph d="M401 183l-101 161 255 266c17 17 25 32 25 45 0 21-24 28-97 32v15h246v-15c-50-1-80-16-119-56l-165-171 218-335c39-61 73-107 120-110v-15h-252c-27 21-72 87-130 183zM291 619v-536c0-52 6-61 72-68v-15h-341v15c67 7 73 16 73 68v536c0 52-6 61-73 68v15h341v-15c-66-7-72-16-72-68z" glyph-name="K" horiz-adv-x="768" unicode="&#x4b;"/><glyph d="M594 0h-572v15c67 7 73 16 73 68v536c0 52-6 61-73 68v15h341v-15c-66-7-72-16-72-68v-532c0-54 25-67 81-67h26c89 0 150 58 221 218h12z" glyph-name="L" horiz-adv-x="636" unicode="&#x4c;"/><glyph d="M671 104l-58 488-196-593h-32l-217 593-57-491c-8-75 22-81 108-86v-15h-221v15c57 3 81 15 86 61l63 538c0 52-20 70-86 73v15h279c2-23 8-42 16-64l131-359 117 359c8 26 13 41 15 64h274v-15c-69-3-87-21-87-73l64-538c6-49 27-58 84-61v-15h-366v15c79 4 92 12 83 89z" glyph-name="M" horiz-adv-x="954" unicode="&#x4d;"/><glyph d="M660-10h-40l-492 593v-500c0-53 26-62 124-68v-15h-237v15c70 5 88 15 88 68v530c-40 46-67 72-97 76v13h283l346-424v341c0 53-20 62-118 68v15h231v-15c-70-5-88-15-88-68v-629z" glyph-name="N" horiz-adv-x="746" unicode="&#x4e;"/><glyph d="M378 712c214 0 338-161 338-347 0-220-157-375-356-375-214 0-338 161-338 347 0 220 158 375 356 375zM364 698c-101 0-135-171-135-335 0-197 40-359 145-359 101 0 135 171 135 335 0 197-40 359-145 359z" glyph-name="O" unicode="&#x4f;"/><glyph d="M22 702h345c194 0 286-81 286-194 0-129-103-203-301-203h-61v-221c0-53 28-63 116-69v-15h-385v15c67 7 73 16 73 68v536c0 52-6 61-73 68v15zM291 683v-358h21c97 0 149 70 149 180 0 111-58 178-149 178h-21z" glyph-name="P" horiz-adv-x="659" unicode="&#x50;"/><glyph d="M528-192c-66 0-127 37-189 123l-46 65c-173 30-271 176-271 341 0 220 158 375 356 375 214 0 338-161 338-347s-113-326-268-364l100-65c45-30 82-55 133-55v-3c-33-40-87-70-153-70zM364 698c-101 0-135-171-135-335 0-197 40-359 145-359 101 0 135 171 135 335 0 197-40 359-145 359z" glyph-name="Q" unicode="&#x51;"/><glyph d="M319 683h-28v-340h30c91 0 143 64 143 174 0 103-52 166-145 166zM22 702h358c171 0 278-70 278-185 0-94-79-145-152-166l142-228c37-58 72-105 120-108v-15h-252c-27 21-63 75-119 183l-76 141h-30v-241c0-52 6-61 72-68v-15h-341v15c67 7 73 16 73 68v536c0 52-6 61-73 68v15z" glyph-name="R" horiz-adv-x="751" unicode="&#x52;"/><glyph d="M298 696c-72 0-120-43-120-108 0-161 368-90 368-358 0-144-126-240-284-240-92 0-180 30-227 67l-11 182h11c24-112 108-233 229-233 75 0 133 41 133 115 0 201-362 113-362 365 0 139 121 226 257 226 79 0 149-22 205-59l4-163h-10c-25 120-97 206-193 206z" glyph-name="S" horiz-adv-x="570" unicode="&#x53;"/><glyph d="M26 702h648l15-251h-11c-64 184-126 231-197 231h-33v-604c0-52 16-56 82-63v-15h-361v15c66 7 83 11 83 63v604h-33c-71 0-133-47-198-231h-10z" glyph-name="T" horiz-adv-x="700" unicode="&#x54;"/><glyph d="M278 619v-345c0-133 57-215 168-215 101 0 192 62 192 216v344c0 53-21 62-119 68v15h231v-15c-70-5-87-15-87-68v-361c0-175-124-268-279-268-185 0-302 97-302 269v360c0 52-6 61-72 68v15h341v-15c-67-7-73-16-73-68z" glyph-name="U" horiz-adv-x="745" unicode="&#x55;"/><glyph d="M725 702v-15c-38-3-60-18-80-68l-257-623h-33l-291 633c-20 43-35 52-69 58v15h361v-15c-51-4-82-12-82-39 0-15 5-30 15-54l163-385 150 373c10 27 17 48 17 65 0 32-45 37-102 40v15h208z" glyph-name="V" horiz-adv-x="720" unicode="&#x56;"/><glyph d="M672-4l-167 431-156-431h-29l-256 633c-20 43-35 52-69 58v15h342v-15c-41-4-66-12-66-39 0-15 4-31 13-55l131-354 76 222-65 168c-20 43-29 52-57 58v15h343v-15c-50-4-82-12-82-39 0-15 4-31 13-55l123-355 121 344c9 28 16 48 16 65 0 32-45 37-102 40v15h207v-15c-38-3-60-18-80-68l-227-623h-29z" glyph-name="W" horiz-adv-x="1003" unicode="&#x57;"/><glyph d="M231 15v-15h-243v15c48 2 80 20 123 77l172 233-202 327c-13 21-34 33-62 35v15h356v-15c-38 0-65-8-65-29 0-14 10-26 23-47l103-166 108 143c19 24 30 44 30 62 0 30-40 35-97 37v15h224v-15c-38-2-65-21-107-76l-146-186 228-370c15-25 34-38 72-40v-15h-374v15c37 0 75 5 75 29 0 14-9 27-21 47l-132 214-122-168c-33-46-45-67-45-84 0-30 44-36 102-38z" glyph-name="X" horiz-adv-x="739" unicode="&#x58;"/><glyph d="M574 577c16 29 24 50 24 69 0 32-40 38-105 41v15h218v-15c-39-3-58-20-85-68l-172-304v-237c0-52 16-56 82-63v-15h-356v15c66 7 83 11 83 63v233l-201 318c-26 41-34 53-67 58v15h366v-15c-52-4-85-11-85-38 0-16 8-32 22-54l150-245z" glyph-name="Y" horiz-adv-x="706" unicode="&#x59;"/><glyph d="M248 682c-94 0-148-37-197-182h-12l5 202h555v-10l-376-672h156c90 0 151 58 222 218h11l-37-238h-571v9l376 673h-132z" glyph-name="Z" horiz-adv-x="623" unicode="&#x5a;"/><glyph d="M481 375v-268c0-29 14-44 38-44 13 0 23 3 29 6l4-5c-27-42-78-74-134-74-59 0-103 33-117 81-30-39-84-77-150-77-77 0-142 46-142 130 0 79 60 120 150 150l141 48v124c0 52-13 88-52 88s-56-38-56-93c0-26 5-62 11-81l-116-15c-27 9-49 34-49 70 0 85 107 134 220 134 139 0 223-44 223-174zM260 68c15 0 30 5 40 14v223l-47-19c-44-18-67-45-67-108 0-66 27-110 74-110z" glyph-name="a" horiz-adv-x="542" unicode="&#x61;"/><glyph d="M48 665l-56 56v4l236 58h4v-341c29 52 91 107 173 107 121 0 197-96 197-246 0-194-139-313-300-313-88 0-190 16-254 67v608zM302 7c73 0 113 103 113 235 0 137-48 208-124 208-21 0-41-5-59-17v-310c0-70 23-116 70-116z" glyph-name="b" horiz-adv-x="620" unicode="&#x62;"/><glyph d="M280 532c-60 0-101-92-101-191 0-150 65-229 166-229 56 0 103 21 138 70l4-2c-20-115-105-190-224-190-138 0-245 100-245 267 0 164 126 292 279 292 100 0 182-43 182-123 0-38-23-67-45-77h-98c5 22 6 39 6 57 0 58-13 126-62 126z" glyph-name="c" horiz-adv-x="496" unicode="&#x63;"/><glyph d="M387-10h-4l4 106c-28-52-81-106-167-106-117 0-203 100-203 249 0 195 127 310 289 310 31 0 63-9 81-21v137l-56 56v4l236 58h4v-695c0-35 7-50 59-51v-12zM314 531c-73 0-109-100-109-230 0-139 48-213 124-213 22 0 40 5 58 17v310c0 71-26 116-73 116z" glyph-name="d" horiz-adv-x="636" unicode="&#x64;"/><glyph d="M506 180c-21-115-111-190-232-190-142 0-256 100-256 267 0 165 123 292 268 292 144 0 218-97 218-214v-6h-322c2-140 67-217 171-217 58 0 112 21 149 70zM270 533c-57 0-85-86-88-184h163c0 106-22 184-75 184z" glyph-name="e" horiz-adv-x="518" unicode="&#x65;"/><glyph d="M255 56c0-32 25-38 79-43v-13h-320v13c40 3 56 7 56 39v439h-71v5l71 49v14c0 149 110 224 240 224 96 0 150-34 150-94 0-28-18-56-37-66h-94c3 17 5 37 5 60 0 43-5 86-36 86-30 0-43-30-43-85v-155h117v-38h-117v-435z" glyph-name="f" horiz-adv-x="363" unicode="&#x66;"/><glyph d="M260 208c45 0 60 57 60 150 0 101-23 178-69 178-45 0-60-57-60-146 0-105 23-182 69-182zM549-7c0-128-126-216-313-216-131 0-246 37-246 109 0 51 63 80 114 84-45 17-89 50-89 109 0 69 53 113 115 140-62 25-109 72-109 144 0 115 108 186 238 186 30 0 61-5 90-15l182 12v-71h-7l-106 25c42-29 71-70 71-119 0-116-107-186-237-186-37 0-77 6-112 19-17-13-30-32-30-53 0-17 11-29 34-29h221c120 0 184-45 184-139zM350-33h-238c-14-11-21-30-21-57 0-73 71-119 166-119 86 0 172 34 172 112 0 46-30 64-79 64z" glyph-name="g" horiz-adv-x="542" unicode="&#x67;"/><glyph d="M404 52v325c0 45-18 74-70 74-32 0-57-8-83-20v-379c0-32 17-36 57-39v-13h-298v13c40 3 57 7 57 39v613l-56 56v4l236 58h4v-345c31 47 104 111 188 111 96 0 150-62 150-164v-333c0-32 16-36 56-39v-13h-298v13c40 3 57 7 57 39z" glyph-name="h" horiz-adv-x="652" unicode="&#x68;"/><glyph d="M164 593c-61 0-98 43-98 93s37 92 98 92 98-42 98-92-37-93-98-93zM255 549v-497c0-32 17-36 57-39v-13h-298v13c40 3 56 7 56 39v379l-56 56v4l237 58h4z" glyph-name="i" horiz-adv-x="321" unicode="&#x69;"/><glyph d="M149 593c-61 0-98 43-98 93s37 92 98 92 98-42 98-92-37-93-98-93zM55 431l-56 56v4l237 58h4v-489c0-161-120-239-253-281l-2 3c70 78 70 166 70 255v394z" glyph-name="j" horiz-adv-x="287" unicode="&#x6a;"/><glyph d="M251 783v-731c0-32 17-36 57-39v-13h-298v13c40 3 57 7 57 39v613l-56 56v4l236 58h4zM262 275l155 150c25 24 44 39 44 61s-28 35-74 39v14h228v-14c-34-3-76-15-115-52l-101-92 239-377v-4h-203z" glyph-name="k" horiz-adv-x="626" unicode="&#x6b;"/><glyph d="M251 783v-731c0-32 17-36 57-39v-13h-298v13c40 3 57 7 57 39v613l-56 56v4l236 58h4z" glyph-name="l" horiz-adv-x="317" unicode="&#x6c;"/><glyph d="M902 52c0-32 17-36 57-39v-13h-294v13c40 3 53 7 53 39v325c0 45-17 74-65 74-28 0-52-8-74-20v-379c0-32 12-36 52-39v-13h-290v13c40 3 53 7 53 39v325c0 45-17 74-64 74-29 0-52-8-75-20v-379c0-32 13-36 53-39v-13h-294v13c40 3 56 7 56 39v379l-56 56v4l241 58h4l-4-111c30 47 97 111 181 111 75 0 126-42 142-111 30 47 98 111 181 111 92 0 143-62 143-164v-333z" glyph-name="m" horiz-adv-x="965" unicode="&#x6d;"/><glyph d="M408 52v325c0 45-18 74-70 74-32 0-58-8-83-20v-379c0-32 17-36 57-39v-13h-298v13c40 3 56 7 56 39v379l-56 56v4l241 58h4l-4-111c31 47 104 111 188 111 96 0 149-62 149-164v-333c0-32 17-36 57-39v-13h-298v13c40 3 57 7 57 39z" glyph-name="n" horiz-adv-x="655" unicode="&#x6e;"/><glyph d="M298 549c161 0 279-107 279-269 0-168-123-290-280-290-161 0-280 106-280 269 0 168 123 290 281 290zM302 4c59 0 79 86 79 227 0 183-26 304-88 304-59 0-79-87-79-227 0-183 26-304 88-304z" glyph-name="o" horiz-adv-x="595" unicode="&#x6f;"/><glyph d="M317 7c73 0 113 103 113 235 0 137-48 208-124 208-21 0-41-5-59-17v-310c0-70 23-116 70-116zM247-156c0-32 25-38 79-43v-13h-320v13c40 3 57 7 57 39v591l-56 56v4l240 58h4l-4-107c29 52 91 107 173 107 121 0 197-96 197-246 0-194-127-313-288-313-36 0-64 8-82 21v-167z" glyph-name="p" horiz-adv-x="635" unicode="&#x70;"/><glyph d="M309 549c70 0 124-31 157-61l106 61h4l-5-127v-582c0-32 17-36 57-39v-13h-320v13c54 5 79 11 79 43v252c-28-52-81-106-167-106-117 0-203 100-203 249 0 195 131 310 292 310zM314 531c-73 0-109-100-109-230 0-139 48-213 124-213 22 0 40 5 58 17v310c0 71-26 116-73 116z" glyph-name="q" horiz-adv-x="620" unicode="&#x71;"/><glyph d="M255 364c24 109 68 185 141 185 21 0 37-6 48-13v-149h-24c-64 0-122-3-165-34v-297c0-32 25-38 79-43v-13h-320v13c40 3 56 7 56 39v379l-56 56v4l241 58h4z" glyph-name="r" horiz-adv-x="452" unicode="&#x72;"/><glyph d="M217-10c-69 0-145 20-188 51l-6 154h9c25-111 98-190 187-190 54 0 92 31 92 86 0 135-285 73-285 279 0 110 99 179 213 179 67 0 121-18 164-46v-129h-10c-11 73-77 160-158 160-49 0-81-30-81-77 0-127 288-73 288-277 0-117-99-190-225-190z" glyph-name="s" horiz-adv-x="462" unicode="&#x73;"/><glyph d="M243 679v-150h124v-38h-124v-331c0-56 28-80 75-80 20 0 46 5 66 19l4-5c-36-57-98-104-178-104-92 0-153 55-153 164v337h-57v15c77 31 181 105 236 173h7z" glyph-name="t" horiz-adv-x="379" unicode="&#x74;"/><glyph d="M575 421v-333c0-35 7-50 58-51v-12l-242-35h-4l3 105c-35-50-97-105-178-105-88 0-151 53-151 168v269c0 35-7 51-54 64v10l241 47h4l-6-127v-255c0-55 23-83 73-83 27 0 51 8 71 22v322c0 35-7 51-53 64v10l239 47h4z" glyph-name="u" horiz-adv-x="641" unicode="&#x75;"/><glyph d="M583 539v-14c-36-6-52-20-72-67l-195-462h-33l-229 472c-19 40-27 49-60 57v14h321v-14c-50-5-67-15-67-33 0-8 3-18 8-29l118-280 108 270c5 12 7 23 7 32 0 28-28 37-85 40v14h179z" glyph-name="v" horiz-adv-x="577" unicode="&#x76;"/><glyph d="M561-4l-135 329-132-329h-33l-207 472c-16 38-27 49-60 57v14h285v-14c-31-5-40-15-40-34 0-8 3-17 7-28l107-267 61 158-47 114c-16 38-25 51-54 57v14h301v-14c-51-5-67-15-67-34 0-8 4-17 8-28l98-267 96 258c5 11 7 21 7 29 0 29-27 39-85 42v14h180v-14c-37-6-53-20-73-67l-184-462h-33z" glyph-name="w" horiz-adv-x="844" unicode="&#x77;"/><glyph d="M197 13v-13h-205v13c38 6 74 27 107 70l125 165-151 220c-26 37-37 50-67 57v14h319v-14c-49-3-67-16-67-33 0-9 5-19 13-31l89-129 89 120c12 17 18 30 18 42 0 20-25 29-75 31v14h192v-14c-38-6-70-27-101-68l-110-144 166-242c26-37 45-50 74-58v-13h-326v13c46 5 65 18 65 37 0 9-3 18-11 28l-104 152-104-143c-12-16-18-28-18-39 0-22 30-32 82-35z" glyph-name="x" horiz-adv-x="599" unicode="&#x78;"/><glyph d="M296-17l-242 485c-20 40-27 49-60 57v14h321v-14c-50-5-67-15-67-33 0-8 3-18 8-29l120-285 101 266c7 19 9 30 9 41 0 28-29 37-85 40v14h182v-14c-36-6-52-20-72-67l-215-525c-46-110-85-155-146-155-36 0-70 21-80 53v61c25-6 49-13 86-13 48 0 95 9 128 79z" glyph-name="y" horiz-adv-x="576" unicode="&#x79;"/><glyph d="M11 0v9l292 509h-78c-86 0-137-68-183-177h-8l14 230h6l31-33h422v-9l-286-509h101c72 0 125 55 185 179h8l-22-199h-482z" glyph-name="z" horiz-adv-x="522" unicode="&#x7a;"/><glyph d="M30 93c0 61 46 104 103 104 58 0 103-43 103-104s-45-103-103-103c-57 0-103 42-103 103z" glyph-name="period" horiz-adv-x="266" unicode="&#x2e;"/><glyph d="M149 6h-40c-42 10-73 38-73 87 0 54 42 90 96 90 65 0 106-51 106-120 0-106-98-178-209-183v8c68 11 115 63 120 118z" glyph-name="comma" horiz-adv-x="266" unicode="&#x2c;"/><glyph d="M290 278h-260v60h260v-60z" glyph-name="hyphen" horiz-adv-x="320" unicode="&#x2d;"/><glyph d="M335-10c-176 0-309 141-309 361s133 361 309 361 309-141 309-361-133-361-309-361zM335 3c84 0 103 155 103 348s-19 348-103 348-103-155-103-348 19-348 103-348z" glyph-name="zero" horiz-adv-x="670" unicode="&#x30;"/><glyph d="M409 0h-384v16c92 4 96 12 96 73v462h-98v12l39 7c104 16 196 72 246 141h8v-622c0-61 10-68 93-73v-16z" glyph-name="one" horiz-adv-x="423" unicode="&#x31;"/><glyph d="M151 156h225c66 0 89 5 139 100h10l-23-256h-497v8l192 215c76 84 115 152 115 245 0 80-45 135-126 135-58 0-108-29-142-75l-11 6c49 95 134 178 260 178 125 0 210-71 210-188 0-151-201-269-352-368z" glyph-name="two" horiz-adv-x="555" unicode="&#x32;"/><glyph d="M287 406c133-3 237-74 237-190 0-144-138-226-282-226-149 0-237 63-237 141 0 41 29 73 55 85h111c-12-20-22-47-22-86 0-65 34-124 95-124 68 0 103 57 103 151 0 109-68 185-169 185h-25l-3 10c101 36 150 85 150 153 0 61-38 101-104 101-60 0-106-34-138-80l-10 6c41 97 126 180 249 180 107 0 181-54 181-145 0-97-114-145-191-161z" glyph-name="three" horiz-adv-x="544" unicode="&#x33;"/><glyph d="M308 83v136h-302v7l343 476h150v-457h115v-26h-115v-136c0-52 9-64 78-67v-16h-348v16c69 3 79 15 79 67zM52 245h256v355z" glyph-name="four" horiz-adv-x="638" unicode="&#x34;"/><glyph d="M252 6c68 0 112 58 112 135 0 105-90 170-303 170l63 391h291c38 0 50 4 68 42h13l-38-202h-339l-13-75c249 6 410-63 410-238 0-150-129-239-271-239-148 0-236 63-236 141 0 41 29 73 55 85h112c-13-20-23-47-23-86 0-65 38-124 99-124z" glyph-name="five" horiz-adv-x="541" unicode="&#x35;"/><glyph d="M325-10c-167 0-299 134-299 315 0 220 199 399 486 407l4-12c-175-34-263-167-287-319 30 29 78 60 154 60 110 0 203-78 203-202 0-154-120-249-261-249zM327 4c58 0 84 75 84 178 0 104-47 197-141 197-16 0-30-3-43-9-3-25-5-51-5-77 0-173 39-289 105-289z" glyph-name="six" horiz-adv-x="609" unicode="&#x36;"/><glyph d="M433 518h-317c-45 0-68-25-92-91h-14l45 275h467v-6l-296-696h-108z" glyph-name="seven" horiz-adv-x="516" unicode="&#x37;"/><glyph d="M295-10c-152 0-271 72-271 175 0 81 85 127 167 139-77 36-143 85-143 192 0 119 114 216 252 216 148 0 238-67 238-159 0-76-78-117-152-123 93-37 184-85 184-211 0-137-128-229-275-229zM191 589c0-88 90-117 182-154 28 29 45 69 45 121 0 77-42 142-117 142-63 0-110-43-110-109zM299 4c70 0 124 44 124 118 0 105-117 131-220 176-28-30-41-78-41-128 0-96 54-166 137-166z" glyph-name="eight" horiz-adv-x="595" unicode="&#x38;"/><glyph d="M284 713c167 0 299-134 299-315 0-220-199-399-486-407l-4 12c175 34 263 167 287 319-30-29-78-60-154-60-110 0-203 78-203 202 0 154 120 249 261 249zM282 699c-58 0-84-75-84-178 0-104 47-197 141-197 16 0 30 3 43 9 3 25 5 51 5 77 0 173-39 289-105 289z" glyph-name="nine" horiz-adv-x="609" unicode="&#x39;"/></font>
</defs>
</svg>
