<?xml version="1.0" standalone="no"?>
<!DOCTYPE svg PUBLIC "-//W3C//DTD SVG 1.1//EN" "http://www.w3.org/Graphics/SVG/1.1/DTD/svg11.dtd" >
<svg xmlns="http://www.w3.org/2000/svg" xmlns:xlink="http://www.w3.org/1999/xlink" version="1.1">
<metadata>
Created by FontForge 20190801 at Wed Feb  7 18:14:16 2018
 By Jimmy Wärting
Copyright Klim Type Foundry 2016. All Rights Reserved.
</metadata>
<defs>
<font id="TiemposFine-Black" horiz-adv-x="748" >
  <font-face 
    font-family="Tiempos Fine"
    font-weight="900"
    font-stretch="normal"
    units-per-em="1000"
    panose-1="2 2 10 3 6 3 3 6 4 3"
    ascent="783"
    descent="-217"
    x-height="543"
    cap-height="702"
    bbox="-19 -223 1022 788"
    underline-thickness="30"
    underline-position="-100"
    stemh="14"
    stemv="206"
    unicode-range="U+0020-007A"
  />
<missing-glyph horiz-adv-x="960" 
d="M90 0v780h780v-780h-780zM201 714l279 -279l279 279h-558zM435 390l-275 275v-550zM525 390l275 -275v550zM480 345l-279 -279h558z" />
    <glyph glyph-name=".notdef" horiz-adv-x="960" 
d="M90 0v780h780v-780h-780zM201 714l279 -279l279 279h-558zM435 390l-275 275v-550zM525 390l275 -275v550zM480 345l-279 -279h558z" />
    <glyph glyph-name="space" unicode=" " horiz-adv-x="165" 
 />
    <glyph glyph-name="A" unicode="A" horiz-adv-x="760" 
d="M393 279l-109 298l-106 -298h215zM217 16v-16h-222v16c37 3 65 10 86 68l191 527l-33 91h233l232 -644c11 -30 29 -38 61 -42v-16h-375v16c46 2 76 12 76 47c0 10 -3 22 -8 37l-57 157h-230l-56 -157c-4 -12 -6 -24 -6 -33c0 -36 45 -49 108 -51z" />
    <glyph glyph-name="B" unicode="B" horiz-adv-x="708" 
d="M21 0v16c65 7 69 16 69 67v536c0 51 -4 60 -69 67v16h371c166 0 258 -59 258 -164c0 -112 -116 -159 -215 -169c134 -4 263 -64 263 -178c0 -133 -121 -191 -289 -191h-388zM322 683h-13v-310h14c79 0 122 52 122 157c0 104 -49 153 -123 153zM341 352h-32v-257
c0 -60 30 -77 68 -77h3c60 0 107 52 107 170c0 109 -49 164 -146 164z" />
    <glyph glyph-name="C" unicode="C" horiz-adv-x="685" 
d="M418 696c-117 0 -168 -169 -168 -352c0 -196 60 -339 179 -339c84 0 183 88 225 256h11l-18 -203c-58 -43 -147 -68 -243 -68c-230 0 -384 139 -384 346c0 236 181 376 397 376c77 0 152 -21 210 -59l4 -181h-10c-26 120 -111 224 -203 224z" />
    <glyph glyph-name="D" unicode="D" horiz-adv-x="797" 
d="M21 0v16c65 7 69 16 69 67v536c0 51 -4 60 -69 67v16h332c290 0 424 -143 424 -343c0 -221 -162 -359 -396 -359h-360zM322 682h-13v-589c0 -62 25 -76 66 -76h3c106 0 173 127 173 319c0 215 -88 346 -229 346z" />
    <glyph glyph-name="E" unicode="E" horiz-adv-x="654" 
d="M612 0h-591v16c65 7 69 16 69 67v536c0 51 -4 60 -69 67v16h586l5 -199h-12c-54 135 -109 179 -205 179h-86v-310h83c75 0 91 43 99 113h14v-246h-14c-8 70 -24 113 -99 113h-83v-265c0 -54 25 -67 77 -67h22c94 0 159 70 225 207h12z" />
    <glyph glyph-name="F" unicode="F" horiz-adv-x="615" 
d="M90 83v536c0 51 -4 60 -69 67v16h579l5 -209h-12c-52 148 -109 189 -205 189h-79v-310h76c75 0 91 43 99 113h14v-246h-14c-8 70 -24 113 -99 113h-76v-269c0 -51 30 -61 115 -67v-16h-403v16c65 7 69 16 69 67z" />
    <glyph glyph-name="G" unicode="G" horiz-adv-x="742" 
d="M464 251c0 51 -4 60 -69 67v16h342v-16c-65 -7 -69 -16 -69 -67v-195c-70 -44 -170 -66 -266 -66c-245 0 -382 146 -382 342c0 226 178 380 403 380c81 0 158 -21 216 -59l4 -181h-10c-26 120 -108 224 -203 224c-120 0 -180 -134 -180 -337c0 -186 55 -351 170 -351
c18 0 29 1 44 5v238z" />
    <glyph glyph-name="H" unicode="H" horiz-adv-x="850" 
d="M378 16v-16h-357v16c65 7 69 16 69 67v536c0 51 -4 60 -69 67v16h357v-16c-65 -7 -69 -16 -69 -67v-249h232v249c0 51 -4 60 -69 67v16h357v-16c-65 -7 -69 -16 -69 -67v-536c0 -51 4 -60 69 -67v-16h-357v16c65 7 69 16 69 67v265h-232v-265c0 -51 4 -60 69 -67z" />
    <glyph glyph-name="I" unicode="I" horiz-adv-x="399" 
d="M309 619v-536c0 -51 4 -60 69 -67v-16h-357v16c65 7 69 16 69 67v536c0 51 -4 60 -69 67v16h357v-16c-65 -7 -69 -16 -69 -67z" />
    <glyph glyph-name="J" unicode="J" horiz-adv-x="596" 
d="M297 619c0 51 -4 60 -69 67v16h357v-16c-65 -7 -69 -16 -69 -67v-389c0 -167 -111 -240 -283 -240c-148 0 -243 55 -243 155c0 40 23 76 55 95h139c-5 -25 -10 -56 -10 -96c0 -69 15 -138 63 -138c56 0 60 66 60 157v456z" />
    <glyph glyph-name="K" unicode="K" horiz-adv-x="791" 
d="M403 193l-86 147l255 265c18 19 25 34 25 47c0 22 -24 30 -98 34v16h252v-16c-51 -1 -81 -16 -121 -57l-152 -158l216 -345c38 -60 68 -107 113 -110v-16h-271c-25 20 -72 89 -133 193zM309 619v-536c0 -51 4 -60 69 -67v-16h-357v16c65 7 69 16 69 67v536
c0 51 -4 60 -69 67v16h357v-16c-65 -7 -69 -16 -69 -67z" />
    <glyph glyph-name="L" unicode="L" horiz-adv-x="648" 
d="M608 0h-587v16c65 7 69 16 69 67v536c0 51 -4 60 -69 67v16h357v-16c-65 -7 -69 -16 -69 -67v-532c0 -54 25 -67 77 -67h18c94 0 153 62 230 227h12z" />
    <glyph glyph-name="M" unicode="M" horiz-adv-x="968" 
d="M666 105l-58 487l-193 -592h-38l-212 591l-57 -486c-9 -79 23 -84 111 -89v-16h-224v16c58 3 80 16 85 61l64 536c0 53 -18 70 -85 73v16h302c2 -23 8 -43 16 -66l117 -325l104 326c8 26 13 42 15 65h296v-16c-67 -3 -85 -20 -85 -73l64 -536c6 -49 28 -58 85 -61v-16
h-388v16c78 4 90 10 81 89z" />
    <glyph glyph-name="N" unicode="N" horiz-adv-x="747" 
d="M666 -10h-47l-494 589v-496c0 -51 27 -61 126 -67v-16h-237v16c69 5 86 16 86 67v526c-42 48 -68 75 -97 79v14h310l328 -394v311c0 51 -20 61 -119 67v16h230v-16c-69 -5 -86 -16 -86 -67v-629z" />
    <glyph glyph-name="O" unicode="O" 
d="M384 712c217 0 344 -160 344 -347c0 -220 -161 -375 -364 -375c-217 0 -344 160 -344 347c0 220 161 375 364 375zM369 698c-94 0 -119 -175 -119 -332c0 -205 34 -362 129 -362c94 0 119 175 119 332c0 205 -34 362 -129 362z" />
    <glyph glyph-name="P" unicode="P" horiz-adv-x="677" 
d="M21 702h364c198 0 290 -79 290 -193c0 -132 -105 -204 -309 -204h-57v-222c0 -51 30 -61 115 -67v-16h-403v16c65 7 69 16 69 67v536c0 51 -4 60 -69 67v16zM309 683v-357h13c90 0 140 70 140 179c0 114 -58 178 -140 178h-13z" />
    <glyph glyph-name="Q" unicode="Q" 
d="M532 -195c-71 0 -135 41 -202 133l-44 59c-169 34 -266 177 -266 340c0 220 161 375 364 375c217 0 344 -160 344 -347c0 -185 -114 -324 -270 -364l109 -65c48 -29 81 -48 130 -48v-4c-37 -46 -94 -79 -165 -79zM369 698c-94 0 -119 -175 -119 -332
c0 -205 34 -362 129 -362c94 0 119 175 119 332c0 205 -34 362 -129 362z" />
    <glyph glyph-name="R" unicode="R" horiz-adv-x="768" 
d="M330 683h-21v-340h22c85 0 136 64 136 173c0 106 -50 167 -137 167zM21 702h379c171 0 283 -69 283 -185c0 -90 -73 -141 -146 -164l136 -227c36 -59 68 -107 113 -110v-16h-271c-25 20 -60 75 -119 193l-65 130h-22v-240c0 -51 4 -60 69 -67v-16h-357v16
c65 7 69 16 69 67v536c0 51 -4 60 -69 67v16z" />
    <glyph glyph-name="S" unicode="S" horiz-adv-x="582" 
d="M306 696c-68 0 -117 -39 -117 -102c0 -155 371 -84 371 -356c0 -149 -129 -248 -295 -248c-92 0 -182 30 -231 67l-12 185h11c25 -108 109 -236 235 -236c70 0 128 37 128 109c0 196 -363 107 -363 363c0 147 128 234 265 234c80 0 153 -21 210 -59l4 -167h-10
c-26 120 -99 210 -196 210z" />
    <glyph glyph-name="T" unicode="T" horiz-adv-x="713" 
d="M25 702h663l15 -261h-11c-69 192 -137 241 -202 241h-24v-604c0 -51 14 -55 79 -62v-16h-377v16c65 7 79 11 79 62v604h-24c-65 0 -133 -49 -202 -241h-11z" />
    <glyph glyph-name="U" unicode="U" horiz-adv-x="753" 
d="M298 619v-342c0 -130 55 -210 164 -210c97 0 187 59 187 211v341c0 51 -21 61 -120 67v16h230v-16c-69 -5 -85 -16 -85 -67v-358c0 -177 -126 -271 -285 -271c-191 0 -310 99 -310 271v358c0 51 -4 60 -69 67v16h357v-16c-65 -7 -69 -16 -69 -67z" />
    <glyph glyph-name="V" unicode="V" horiz-adv-x="728" 
d="M733 702v-16c-38 -3 -59 -20 -80 -70l-257 -619h-39l-295 631c-20 42 -34 52 -67 58v16h381v-16c-50 -4 -80 -13 -80 -39c0 -16 6 -32 16 -56l156 -362l141 348c11 28 18 50 18 68c0 33 -45 38 -103 41v16h209z" />
    <glyph glyph-name="W" unicode="W" horiz-adv-x="1017" 
d="M682 -3l-170 426l-156 -426h-34l-260 631c-20 42 -34 52 -67 58v16h358v-16c-38 -4 -60 -13 -60 -39c0 -16 4 -33 13 -58l124 -327l68 196l-68 170c-20 42 -26 52 -52 58v16h361v-16c-50 -4 -80 -13 -80 -39c0 -16 4 -33 13 -58l117 -328l111 316c10 29 17 50 17 68
c0 33 -45 38 -103 41v16h208v-16c-38 -3 -59 -20 -80 -70l-226 -619h-34z" />
    <glyph glyph-name="X" unicode="X" horiz-adv-x="753" 
d="M231 16v-16h-244v16c50 3 81 22 126 82l167 223l-206 333c-11 17 -30 29 -56 32v16h374v-16c-34 0 -61 -8 -61 -29c0 -14 11 -26 23 -46l98 -159l101 132c19 24 32 46 32 64c0 30 -39 35 -97 38v16h225v-16c-38 -3 -65 -24 -111 -82l-138 -172l233 -378
c14 -23 31 -35 69 -38v-16h-396v16c34 0 73 5 73 29c0 14 -9 27 -21 47l-129 209l-113 -155c-37 -51 -50 -73 -50 -91c0 -30 43 -36 101 -39z" />
    <glyph glyph-name="Y" unicode="Y" horiz-adv-x="724" 
d="M593 577c15 27 22 47 22 67c0 32 -38 39 -106 42v16h220v-16c-38 -3 -58 -22 -85 -70l-167 -298v-240c0 -51 14 -55 79 -62v-16h-372v16c65 7 79 11 79 62v235l-202 315c-26 41 -34 53 -66 58v16h390v-16c-50 -4 -83 -11 -83 -39c0 -16 8 -32 22 -54l147 -238z" />
    <glyph glyph-name="Z" unicode="Z" horiz-adv-x="633" 
d="M255 682c-96 0 -153 -41 -205 -189h-12l5 209h569v-10l-368 -672h138c94 0 153 62 230 227h12l-38 -247h-586v9l367 673h-112z" />
    <glyph glyph-name="a" unicode="a" horiz-adv-x="553" 
d="M498 375v-266c0 -27 13 -41 36 -41c12 0 21 3 26 5l4 -5c-27 -44 -82 -78 -142 -78c-61 0 -109 32 -125 79c-28 -39 -82 -75 -147 -75c-78 0 -146 46 -146 132c0 80 60 121 151 151l141 47v135c0 47 -10 79 -43 79c-35 0 -50 -37 -50 -91c0 -28 6 -67 12 -87l-130 -16
c-28 9 -52 35 -52 73c0 87 112 136 229 136c146 0 236 -43 236 -178zM272 74c10 0 20 3 24 7v225l-30 -12c-43 -17 -64 -43 -64 -108c0 -68 25 -112 70 -112z" />
    <glyph glyph-name="b" unicode="b" horiz-adv-x="637" 
d="M44 658l-53 61v4l255 60h4v-339c26 52 89 109 172 109c121 0 199 -96 199 -247c0 -201 -146 -316 -309 -316c-93 0 -200 16 -268 68v600zM311 7c67 0 100 102 100 233c0 141 -48 205 -115 205c-16 0 -30 -2 -46 -10v-316c0 -66 18 -112 61 -112z" />
    <glyph glyph-name="c" unicode="c" horiz-adv-x="509" 
d="M288 536c-54 0 -92 -92 -92 -186c0 -150 64 -226 165 -226c53 0 100 19 136 66l4 -2c-20 -121 -108 -198 -232 -198c-139 0 -253 97 -253 270c0 165 132 293 288 293c102 0 189 -44 189 -127c0 -41 -24 -70 -47 -80h-108c5 24 6 43 6 60c0 60 -11 130 -56 130z" />
    <glyph glyph-name="d" unicode="d" horiz-adv-x="653" 
d="M388 -10h-4l3 109c-26 -52 -79 -109 -167 -109c-116 0 -204 99 -204 250c0 201 133 313 296 313c30 0 60 -8 75 -18v123l-53 61v4l255 60h4v-694c0 -34 8 -51 55 -51v-14zM323 535c-67 0 -97 -101 -97 -229c0 -144 48 -208 115 -208c16 0 30 2 46 10v316
c0 66 -21 111 -64 111z" />
    <glyph glyph-name="e" unicode="e" horiz-adv-x="531" 
d="M520 188c-21 -121 -115 -198 -240 -198c-143 0 -264 97 -264 270c0 166 129 293 277 293c150 0 226 -99 226 -217v-6h-320c4 -134 68 -206 169 -206c56 0 110 19 147 66zM276 537c-52 0 -75 -87 -77 -186h145c0 108 -20 186 -68 186z" />
    <glyph glyph-name="f" unicode="f" horiz-adv-x="374" 
d="M272 55c0 -30 25 -36 75 -41v-14h-334v14c37 3 53 6 53 36v443h-71v6l71 53v4c0 153 119 227 254 227c102 0 160 -35 160 -99c0 -29 -19 -60 -39 -69h-103c3 18 5 40 5 64c0 45 -3 90 -33 90c-28 0 -38 -28 -38 -77v-159h114v-40h-114v-438z" />
    <glyph glyph-name="g" unicode="g" horiz-adv-x="553" 
d="M265 209c40 0 51 55 51 150c0 104 -20 181 -60 181s-51 -55 -51 -146c0 -108 20 -185 60 -185zM562 -3c0 -130 -126 -220 -322 -220c-134 0 -252 35 -252 106c0 50 65 77 116 77c-46 19 -95 52 -95 115c0 73 55 119 121 144c-64 26 -113 73 -113 146
c0 119 113 188 248 188c29 0 60 -5 90 -14l190 12v-76h-7l-106 27c42 -29 72 -70 72 -118c0 -119 -113 -188 -248 -188c-38 0 -79 6 -116 20c-14 -12 -27 -30 -27 -49c0 -15 10 -27 31 -27h228c125 0 190 -48 190 -143zM356 -43h-243c-13 -9 -19 -25 -19 -50
c0 -71 74 -116 169 -116c83 0 167 31 167 106c0 43 -28 60 -74 60z" />
    <glyph glyph-name="h" unicode="h" horiz-adv-x="669" 
d="M404 50v331c0 37 -15 65 -65 65c-28 0 -48 -5 -71 -13v-383c0 -30 16 -33 53 -36v-14h-312v14c37 3 53 6 53 36v608l-53 61v4l255 60h4v-343c29 47 104 113 189 113c97 0 153 -63 153 -164v-339c0 -30 16 -33 53 -36v-14h-312v14c37 3 53 6 53 36z" />
    <glyph glyph-name="i" unicode="i" horiz-adv-x="334" 
d="M172 590c-67 0 -106 46 -106 99s39 99 106 99c66 0 106 -46 106 -99s-40 -99 -106 -99zM272 553v-503c0 -30 16 -33 53 -36v-14h-312v14c37 3 53 6 53 36v378l-53 61v4l255 60h4z" />
    <glyph glyph-name="j" unicode="j" horiz-adv-x="297" 
d="M156 590c-67 0 -106 46 -106 99s39 99 106 99c66 0 106 -46 106 -99s-40 -99 -106 -99zM50 428l-53 61v4l255 60h4v-492c0 -166 -132 -246 -273 -282l-2 4c70 76 69 166 69 253v392z" />
    <glyph glyph-name="k" unicode="k" horiz-adv-x="648" 
d="M268 783v-733c0 -30 16 -33 53 -36v-14h-312v14c37 3 53 6 53 36v608l-53 61v4l255 60h4zM278 273l152 147c27 27 48 43 48 66s-27 39 -73 43v14h233v-14c-33 -3 -76 -15 -115 -51l-93 -85l231 -389v-4h-224z" />
    <glyph glyph-name="l" unicode="l" horiz-adv-x="330" 
d="M268 783v-733c0 -30 16 -33 53 -36v-14h-312v14c37 3 53 6 53 36v608l-53 61v4l255 60h4z" />
    <glyph glyph-name="m" unicode="m" horiz-adv-x="987" 
d="M928 50c0 -30 16 -33 53 -36v-14h-307v14c37 3 48 6 48 36v331c0 37 -14 65 -59 65c-25 0 -43 -5 -63 -13v-383c0 -30 11 -33 48 -36v-14h-302v14c37 3 48 6 48 36v331c0 37 -14 65 -59 65c-25 0 -43 -5 -63 -13v-383c0 -30 11 -33 48 -36v-14h-307v14c37 3 53 6 53 36
v378l-53 61v4l259 60h4l-4 -113c28 47 96 113 182 113c77 0 129 -44 145 -113c28 47 97 113 183 113c93 0 146 -63 146 -164v-339z" />
    <glyph glyph-name="n" unicode="n" horiz-adv-x="673" 
d="M408 50v331c0 37 -15 65 -65 65c-28 0 -48 -5 -71 -13v-383c0 -30 16 -33 53 -36v-14h-312v14c37 3 53 6 53 36v378l-53 61v4l259 60h4l-4 -113c29 47 104 113 189 113c97 0 153 -63 153 -164v-339c0 -30 16 -33 53 -36v-14h-312v14c37 3 53 6 53 36z" />
    <glyph glyph-name="o" unicode="o" horiz-adv-x="612" 
d="M306 553c166 0 290 -105 290 -272s-127 -291 -290 -291c-166 0 -290 105 -290 272s127 291 290 291zM311 4c53 0 66 84 66 223c0 195 -22 312 -76 312c-53 0 -66 -84 -66 -223c0 -195 22 -312 76 -312z" />
    <glyph glyph-name="p" unicode="p" horiz-adv-x="652" 
d="M326 7c67 0 100 102 100 233c0 141 -48 205 -115 205c-16 0 -30 -2 -46 -10v-316c0 -66 18 -112 61 -112zM265 -157c0 -30 25 -36 75 -41v-14h-334v14c37 3 53 6 53 36v590l-53 61v4l259 60h4l-4 -109c26 52 89 109 172 109c121 0 199 -96 199 -247
c0 -201 -133 -316 -296 -316c-36 0 -60 7 -75 18v-165z" />
    <glyph glyph-name="q" unicode="q" horiz-adv-x="637" 
d="M316 553c74 0 128 -31 161 -61l117 61h4l-5 -127v-588c0 -30 16 -33 53 -36v-14h-334v14c50 5 75 11 75 41v256c-26 -52 -79 -109 -167 -109c-116 0 -204 99 -204 250c0 201 137 313 300 313zM323 535c-67 0 -97 -101 -97 -229c0 -144 48 -208 115 -208c16 0 30 2 46 10
v316c0 66 -21 111 -64 111z" />
    <glyph glyph-name="r" unicode="r" horiz-adv-x="472" 
d="M272 359c19 112 65 194 142 194c22 0 39 -6 50 -13v-165h-26c-64 0 -123 -2 -166 -28v-292c0 -30 25 -36 75 -41v-14h-334v14c37 3 53 6 53 36v378l-53 61v4l259 60h4z" />
    <glyph glyph-name="s" unicode="s" horiz-adv-x="469" 
d="M220 -10c-71 0 -149 20 -194 51l-6 157h10c26 -113 100 -193 191 -193c52 0 88 30 88 81c0 134 -288 69 -288 281c0 114 104 186 222 186c69 0 126 -18 169 -46v-130h-10c-12 71 -81 161 -163 161c-47 0 -77 -28 -77 -73c0 -122 291 -68 291 -278
c0 -121 -104 -197 -233 -197z" />
    <glyph glyph-name="t" unicode="t" horiz-adv-x="391" 
d="M263 689v-156h120v-40h-120v-331c0 -53 27 -75 73 -75c18 0 43 5 62 17l4 -5c-39 -61 -105 -109 -189 -109c-96 0 -159 59 -159 168v335h-54v18c81 31 195 109 255 178h8z" />
    <glyph glyph-name="u" unicode="u" horiz-adv-x="661" 
d="M599 421v-332c0 -34 8 -51 55 -51v-14l-260 -34h-4l3 109c-34 -51 -95 -109 -180 -109c-90 0 -154 54 -154 171v263c0 35 -7 53 -50 67v10l258 52h4l-6 -132v-254c0 -51 22 -76 67 -76c25 0 44 7 61 18v315c0 35 -7 53 -50 67v10l258 52h4z" />
    <glyph glyph-name="v" unicode="v" horiz-adv-x="588" 
d="M597 543v-14c-36 -6 -52 -22 -74 -72l-197 -460h-39l-235 472c-21 42 -28 51 -61 60v14h342v-14c-50 -6 -65 -17 -65 -34c0 -8 3 -18 8 -29l115 -265l103 253c5 12 7 23 7 32c0 30 -28 40 -86 43v14h182z" />
    <glyph glyph-name="w" unicode="w" horiz-adv-x="865" 
d="M574 -3l-138 328l-133 -328h-39l-212 472c-18 40 -28 51 -61 60v14h299v-14c-26 -6 -33 -17 -33 -34c0 -8 3 -18 8 -29l104 -251l55 140l-48 114c-17 40 -26 53 -53 60v14h318v-14c-50 -6 -65 -17 -65 -34c0 -8 4 -18 8 -29l95 -251l92 240c5 12 7 22 7 31
c0 30 -28 40 -86 43v14h182v-14c-36 -6 -53 -21 -74 -72l-187 -460h-39z" />
    <glyph glyph-name="x" unicode="x" horiz-adv-x="614" 
d="M202 14v-14h-211v14c38 6 75 27 109 72l122 161l-153 223c-27 39 -37 51 -65 59v14h340v-14c-50 -4 -68 -18 -68 -35c0 -9 4 -18 11 -28l89 -129l87 118c12 17 17 30 17 41c0 21 -24 30 -75 33v14h197v-14c-38 -6 -73 -28 -106 -72l-106 -140l167 -244
c27 -39 46 -51 74 -59v-14h-349v14c46 5 66 20 66 39c0 8 -3 16 -9 24l-103 150l-102 -139c-11 -15 -17 -27 -17 -37c0 -24 31 -34 85 -37z" />
    <glyph glyph-name="y" unicode="y" horiz-adv-x="588" 
d="M303 -20l-251 489c-22 42 -28 51 -61 60v14h342v-14c-50 -6 -65 -17 -65 -34c0 -8 3 -18 8 -29l117 -269l95 246c8 20 10 32 10 43c0 30 -29 40 -87 43v14h186v-14c-36 -6 -53 -22 -74 -72l-216 -516c-49 -118 -91 -164 -154 -164c-37 0 -72 21 -82 53v69
c26 -7 53 -14 92 -14c47 0 96 7 131 77z" />
    <glyph glyph-name="z" unicode="z" horiz-adv-x="532" 
d="M6 0v10l289 512h-68c-84 0 -139 -72 -188 -183h-8l14 236h6l32 -32h439v-10l-283 -512h92c72 0 126 58 192 182h8l-24 -203h-501z" />
    <glyph glyph-name="period" unicode="." horiz-adv-x="282" 
d="M30 101c0 66 49 112 111 112s111 -46 111 -112s-49 -111 -111 -111s-111 45 -111 111z" />
    <glyph glyph-name="comma" unicode="," horiz-adv-x="282" 
d="M156 7h-42c-46 11 -79 42 -79 94c0 58 46 97 104 97c70 0 115 -54 115 -129c0 -112 -106 -186 -224 -190v9c71 10 121 63 126 119z" />
    <glyph glyph-name="hyphen" unicode="-" horiz-adv-x="320" 
d="M290 277h-260v66h260v-66z" />
    <glyph glyph-name="zero" unicode="0" horiz-adv-x="686" 
d="M343 -10c-178 0 -318 135 -318 361s140 361 318 361s318 -135 318 -361s-140 -361 -318 -361zM343 3c74 0 90 148 90 348s-16 348 -90 348s-90 -148 -90 -348s16 -348 90 -348z" />
    <glyph glyph-name="one" unicode="1" horiz-adv-x="436" 
d="M422 0h-397v16c88 4 91 11 91 72v454h-91v14l36 6c110 17 212 78 264 149h8v-623c0 -61 9 -67 89 -72v-16z" />
    <glyph glyph-name="two" unicode="2" horiz-adv-x="565" 
d="M164 172h227c62 0 83 4 134 99h10l-19 -271h-511v8l196 221c63 72 103 140 103 233c0 79 -45 133 -124 133c-54 0 -102 -27 -134 -71l-12 7c51 99 138 181 265 181c129 0 216 -71 216 -190c0 -150 -195 -259 -351 -350z" />
    <glyph glyph-name="three" unicode="3" horiz-adv-x="555" 
d="M293 408c136 -3 243 -72 243 -191c0 -146 -142 -227 -291 -227c-151 0 -240 62 -240 142c0 42 30 75 57 87h124c-14 -21 -26 -49 -26 -92c0 -60 30 -121 87 -121c62 0 94 51 94 146c0 109 -65 189 -162 189h-22l-4 11c99 36 139 87 139 147c0 61 -37 98 -100 98
c-60 0 -103 -34 -135 -77l-11 6c43 100 129 186 258 186c109 0 186 -52 186 -145c0 -97 -117 -144 -197 -159z" />
    <glyph glyph-name="four" unicode="4" horiz-adv-x="653" 
d="M303 83v135h-298v8l337 476h173v-456h113v-28h-113v-135c0 -51 8 -64 76 -67v-16h-365v16c68 3 77 16 77 67zM53 246h250v352z" />
    <glyph glyph-name="five" unicode="5" horiz-adv-x="554" 
d="M257 6c63 0 103 54 103 127c0 99 -83 164 -301 164l64 405h303c38 0 51 5 68 42h13l-41 -218h-349l-10 -56c263 9 422 -62 422 -239c0 -155 -136 -241 -279 -241c-151 0 -240 62 -240 142c0 42 30 75 57 87h124c-14 -21 -26 -49 -26 -92c0 -60 35 -121 92 -121z" />
    <glyph glyph-name="six" unicode="6" horiz-adv-x="622" 
d="M333 -10c-171 0 -308 132 -308 318c0 221 207 404 505 404l3 -12c-172 -31 -258 -163 -283 -312c29 27 75 55 148 55c111 0 202 -79 202 -203c0 -156 -121 -250 -267 -250zM335 4c51 0 71 72 71 175s-41 200 -132 200c-8 0 -17 -1 -26 -3c-4 -27 -6 -55 -6 -83
c0 -173 35 -289 93 -289z" />
    <glyph glyph-name="seven" unicode="7" horiz-adv-x="525" 
d="M434 497h-319c-45 0 -69 -25 -91 -93h-15l45 298h479v-6l-299 -696h-112z" />
    <glyph glyph-name="eight" unicode="8" horiz-adv-x="609" 
d="M301 -10c-155 0 -278 71 -278 173c0 78 85 123 167 130c-77 36 -144 87 -144 195c0 125 121 224 262 224c153 0 245 -66 245 -158c0 -74 -78 -113 -155 -114c95 -37 188 -84 188 -213c0 -144 -137 -237 -285 -237zM204 594c0 -87 90 -114 183 -150c21 28 36 65 36 113
c0 74 -41 141 -114 141c-60 0 -105 -41 -105 -104zM306 4c65 0 118 43 118 111c0 103 -117 127 -221 172c-19 -27 -30 -71 -30 -117c0 -96 52 -166 133 -166z" />
    <glyph glyph-name="nine" unicode="9" horiz-adv-x="622" 
d="M289 713c171 0 308 -132 308 -318c0 -221 -207 -404 -505 -404l-3 12c172 31 258 163 283 312c-29 -27 -75 -55 -148 -55c-111 0 -202 79 -202 203c0 156 121 250 267 250zM287 699c-51 0 -71 -72 -71 -175s41 -200 132 -200c8 0 17 1 26 3c4 27 6 55 6 83
c0 173 -35 289 -93 289z" />
    </font>
</defs>
</svg>
