<?xml version="1.0" encoding="UTF-8"?>
<svg width="30px" height="30px" viewBox="0 0 30 30" version="1.1" xmlns="http://www.w3.org/2000/svg" xmlns:xlink="http://www.w3.org/1999/xlink">
    <title>docs</title>
    <g id="Page-1" stroke="none" stroke-width="1" fill="none" fill-rule="evenodd">
        <g id="docs">
            <polygon id="Path" points="0 0 30 0 30 30 0 30"></polygon>
            <g id="Group-2" transform="translate(5.000000, 1.000000)" fill-rule="nonzero">
                <path d="M12.4995875,0 L1.87427817,0 C0.87554309,0 0,0.858565657 0,1.84132635 L0,25.1586737 C0,26.1403544 0.874443161,27 1.8753781,27 L18.1246219,27 C19.1244569,27 20,26.1414343 20,25.1586737 L20,7.36314547 L15.6255843,4.2949882 L12.4995875,0 Z" id="Path" fill="#4285F4"></path>
                <path d="M4.99917505,19.6357746 L14.9986251,19.6357746 L14.9986251,18.4089436 L5.00027498,18.4089436 L4.99917505,19.6357746 L4.99917505,19.6357746 Z M4.99917505,22.0905164 L12.4984876,22.0905164 L12.4984876,20.8636855 L4.99917505,20.8636855 L4.99917505,22.0905164 Z M4.99917505,13.49946 L4.99917505,14.7262909 L14.9986251,14.7262909 L14.9986251,13.49946 L4.99917505,13.49946 Z M4.99917505,17.1810328 L14.9986251,17.1810328 L14.9986251,15.9542018 L5.00027498,15.9542018 L4.99917505,17.1810328 L4.99917505,17.1810328 Z" id="Shape" fill="#F1F1F1"></path>
                <path d="M12.4995875,3.43725048e-14 L12.4995875,5.52289908 C12.4995875,6.50457982 13.3740307,7.36314547 14.3738657,7.36314547 L19.9989001,7.36314547 L12.4995875,3.43725048e-14 Z" id="Path" fill="#A1C2FA"></path>
            </g>
        </g>
    </g>
</svg>