<?xml version="1.0" encoding="UTF-8"?>
<svg width="30px" height="30px" viewBox="0 0 30 30" version="1.1" xmlns="http://www.w3.org/2000/svg" xmlns:xlink="http://www.w3.org/1999/xlink">
    <title>excel</title>
    <g id="Page-1" stroke="none" stroke-width="1" fill="none" fill-rule="evenodd">
        <g id="excel">
            <path d="M18.75,1.875 L8.7496875,1.875 C8.05950415,1.875 7.5,2.43450415 7.5,3.1246875 L7.5,8.4375 L18.75,15 L24.375,17.37375 L30,15 L30,8.4375 L18.75,1.875 Z" id="Path" fill="#21A366" fill-rule="nonzero"></path>
            <polygon id="Path" fill="#107C41" fill-rule="nonzero" points="7.5 8.4375 18.75 8.4375 18.75 15 7.5 15"></polygon>
            <path d="M28.7503125,1.875 L18.75,1.875 L18.75,8.4375 L30,8.4375 L30,3.1246875 C30,2.43450415 29.4404958,1.875 28.7503125,1.875 Z" id="Path" fill="#33C481" fill-rule="nonzero"></path>
            <path d="M18.75,15 L7.5,15 L7.5,26.8753125 C7.5,27.5654958 8.05950415,28.125 8.7496875,28.125 L28.7503125,28.125 C29.4404958,28.125 30,27.5654958 30,26.8753125 L30,21.5625 L18.75,15 Z" id="Path" fill="#185C37" fill-rule="nonzero"></path>
            <polygon id="Path" fill="#107C41" fill-rule="nonzero" points="18.75 15 30 15 30 21.5625 18.75 21.5625"></polygon>
            <path d="M15.6253125,6.5625 L7.5,6.5625 L7.5,24.375 L15.6253125,24.375 C16.3146411,24.3729408 16.8729408,23.8146411 16.875,23.1253125 L16.875,7.8121875 C16.8729408,7.12285892 16.3146411,6.56455925 15.6253125,6.5625 Z" id="Path" fill="#000000" fill-rule="nonzero" opacity="0.1"></path>
            <path d="M14.6878125,7.5 L7.5,7.5 L7.5,25.3125 L14.6878125,25.3125 C15.3771411,25.3104408 15.9354408,24.7521411 15.9375,24.0628125 L15.9375,8.7496875 C15.9354408,8.06035892 15.3771411,7.50205925 14.6878125,7.5 L14.6878125,7.5 Z" id="Path" fill="#000000" fill-rule="nonzero" opacity="0.2"></path>
            <path d="M14.6878125,7.5 L7.5,7.5 L7.5,23.4375 L14.6878125,23.4375 C15.3771411,23.4354408 15.9354408,22.8771411 15.9375,22.1878125 L15.9375,8.7496875 C15.9354408,8.06035892 15.3771411,7.50205925 14.6878125,7.5 L14.6878125,7.5 Z" id="Path" fill="#000000" fill-rule="nonzero" opacity="0.2"></path>
            <path d="M13.7503125,7.5 L7.5,7.5 L7.5,23.4375 L13.7503125,23.4375 C14.4396411,23.4354408 14.9979408,22.8771411 15,22.1878125 L15,8.7496875 C14.9979408,8.06035892 14.4396411,7.50205925 13.7503125,7.5 Z" id="Path" fill="#000000" fill-rule="nonzero" opacity="0.2"></path>
            <path d="M1.2496875,7.5 L13.7503125,7.5 C14.4404958,7.5 15,8.05950415 15,8.7496875 L15,21.2503125 C15,21.9404958 14.4404958,22.5 13.7503125,22.5 L1.2496875,22.5 C0.559504152,22.5 0,21.9404958 0,21.2503125 L0,8.7496875 C0,8.05950415 0.559504152,7.5 1.2496875,7.5 Z" id="Path" fill="#107C41" fill-rule="nonzero"></path>
            <path d="M3.3121875,19.6875 L6.3459375,14.986875 L3.5671875,10.3125 L5.803125,10.3125 L7.32,13.3003125 C7.459375,13.5834375 7.5553125,13.7946875 7.6078125,13.9340625 L7.6275,13.9340625 C7.7275,13.7078125 7.8321875,13.4878125 7.9415625,13.2740625 L9.5625,10.3125 L11.6146875,10.3125 L8.7646875,14.960625 L11.686875,19.6875 L9.5025,19.6875 L7.7503125,16.40625 C7.66776336,16.266483 7.59780058,16.1196552 7.54125,15.9675 L7.515,15.9675 C7.46386725,16.1163016 7.39592812,16.258785 7.3125,16.3921875 L5.5096875,19.6875 L3.3121875,19.6875 Z" id="Path" fill="#FFFFFF" fill-rule="nonzero"></path>
            <polygon id="Path" points="0 0 30 0 30 30 0 30"></polygon>
        </g>
    </g>
</svg>