<?xml version="1.0" encoding="UTF-8"?>
<svg width="30px" height="30px" viewBox="0 0 30 30" version="1.1" xmlns="http://www.w3.org/2000/svg" xmlns:xlink="http://www.w3.org/1999/xlink">
    <title>figma</title>
    <g id="Page-1" stroke="none" stroke-width="1" fill="none" fill-rule="evenodd">
        <g id="figma">
            <polygon id="Path" points="0 0 30 0 30 30 0 30"></polygon>
            <path d="M10,29 C12.76,29 15,26.8346667 15,24.1666667 L15,19.3333333 L10,19.3333333 C7.24,19.3333333 5,21.4986667 5,24.1666667 C5,26.8346667 7.24,29 10,29 Z" id="Path" fill="#0ACF83" fill-rule="nonzero"></path>
            <path d="M5,14.5 C5,11.832 7.24,9.66666667 10,9.66666667 L15,9.66666667 L15,19.3333333 L10,19.3333333 C7.24,19.3333333 5,17.168 5,14.5 Z" id="Path" fill="#A259FF" fill-rule="nonzero"></path>
            <path d="M5,4.83333333 C5,2.16533333 7.24,0 10,0 L15,0 L15,9.66666667 L10,9.66666667 C7.24,9.66666667 5,7.50133333 5,4.83333333 Z" id="Path" fill="#F24E1E" fill-rule="nonzero"></path>
            <path d="M15,0 L20,0 C22.76,0 25,2.16533333 25,4.83333333 C25,7.50133333 22.76,9.66666667 20,9.66666667 L15,9.66666667 L15,0 Z" id="Path" fill="#FF7262" fill-rule="nonzero"></path>
            <path d="M25,14.5 C25,17.168 22.76,19.3333333 20,19.3333333 C17.24,19.3333333 15,17.168 15,14.5 C15,11.832 17.24,9.66666667 20,9.66666667 C22.76,9.66666667 25,11.832 25,14.5 Z" id="Path" fill="#1ABCFE" fill-rule="nonzero"></path>
        </g>
    </g>
</svg>