<?xml version="1.0" encoding="UTF-8"?>
<svg width="30px" height="30px" viewBox="0 0 30 30" version="1.1" xmlns="http://www.w3.org/2000/svg" xmlns:xlink="http://www.w3.org/1999/xlink">
    <title>sheets</title>
    <g id="Page-1" stroke="none" stroke-width="1" fill="none" fill-rule="evenodd">
        <g id="sheets">
            <polygon id="Path" points="0 0 30 0 30 30 0 30"></polygon>
            <path d="M25,26.4697887 C24.9993064,27.3146224 24.2930309,27.9993276 23.4215822,28 L6.57967598,28 C5.70822669,28 5.00138816,27.3158413 5,26.4710079 L5,2.57288656 C4.99966646,2.16662671 5.1659888,1.77691315 5.46230786,1.48964396 C5.75862692,1.20237478 6.16061767,1.04113208 6.57967598,1.04145544 L17.388379,1.04145544 L25,8.56692558 L25,26.4697887 Z" id="Path" fill="#23A566" fill-rule="nonzero"></path>
            <path d="M18.2260095,8.37061958 L25,14.6475343 L25,8.52303107 L18.9994971,8.52303107 C18.7375271,8.52590256 18.4792633,8.46288842 18.2499058,8.34013728 L18.2260095,8.37061958 Z" id="Path" fill="#1C8F5A" fill-rule="nonzero"></path>
            <path d="M25,8.55473266 L18.9831469,8.55473266 C18.1116983,8.55406029 17.4054227,7.86935504 17.4047292,7.02452132 L17.4047292,1 L25,8.55473266 Z" id="Path" fill="#8ED1B1" fill-rule="nonzero"></path>
            <path d="M20.1842537,23.0301662 L9.77675802,23.0301662 L9.77675802,14.2817467 L20.1842537,14.2817467 L20.1842537,23.0301662 Z M15.6275942,15.5437139 L15.6275942,17.0751445 L18.9051693,17.0751445 L18.9051693,15.5461525 L15.6275942,15.5437139 Z M15.6275942,18.0396044 L15.6275942,19.5027547 L18.9051693,19.5027547 L18.9051693,18.0322887 L15.6275942,18.0396044 Z M15.6275942,20.435513 L15.6275942,21.7901463 L18.9051693,21.7901463 L18.9051693,20.4281973 L15.6275942,20.435513 Z M14.3409637,21.7828306 L14.3409637,20.4281973 L11.0646463,20.4281973 L11.0646463,21.7828306 L14.3409637,21.7828306 Z M14.3409637,19.4869039 L14.3409637,18.0322887 L11.0646463,18.0322887 L11.0646463,19.4942197 L14.3409637,19.4869039 Z M14.3409637,17.0909953 L14.3409637,15.5437139 L11.0646463,15.5437139 L11.0646463,17.0751445 L14.3409637,17.0909953 Z" id="Shape" fill="#FFFFFF"></path>
        </g>
    </g>
</svg>