<?xml version="1.0" encoding="UTF-8"?>
<svg width="30px" height="30px" viewBox="0 0 30 30" version="1.1" xmlns="http://www.w3.org/2000/svg" xmlns:xlink="http://www.w3.org/1999/xlink">
    <title>svg</title>
    <g id="Page-1" stroke="none" stroke-width="1" fill="none" fill-rule="evenodd">
        <g id="svg">
            <polygon id="Path" points="0 0 30 0 30 30 0 30"></polygon>
            <g id="Group" transform="translate(5.192262, 0.000000)" fill="#E4EAF6" fill-rule="nonzero">
                <path d="M15.057767,23.7931055 L16.0962195,23.7931055 L16.0962195,24.8275781 L15.057767,24.8275781 L15.057767,23.7931055 Z M14.1500107,20.2764844 C14.1349333,20.2422938 14.1211211,20.2075634 14.108602,20.1723633 L14.0158441,20.1723633 C14.0611349,20.2063477 14.1058375,20.2411523 14.1500107,20.2764844 L14.1500107,20.2764844 Z M5.71157692,23.7931055 L6.75002941,23.7931055 L6.75002941,24.8275781 L5.71157692,24.8275781 L5.71157692,23.7931055 Z M16.0962195,19.6551562 C16.0962195,19.3697461 15.8632367,19.1378906 15.5769638,19.1378906 C15.2906909,19.1378906 15.0577081,19.3697461 15.0577081,19.6551562 C15.0577081,19.9405664 15.2906909,20.1724219 15.5769638,20.1724219 C15.8632367,20.1724219 16.0962195,19.9405664 16.0962195,19.6551562 Z M7.6991944,20.1724219 C7.68667513,20.2075835 7.67286291,20.2422748 7.6577857,20.2764258 C7.70190683,20.2410202 7.74661557,20.2063474 7.79189341,20.1724219 L7.6991944,20.1724219 Z" id="Shape"></path>
                <path d="M17.1346719,6.20689453 C16.2743827,6.20689453 15.5769638,5.51214844 15.5769638,4.65515625 L15.5769638,0 L1.55770814,0 C0.697418928,0 0,0.694746094 0,1.55173828 L0,5.17242187 L12.9808032,5.17242187 C13.5543489,5.17242187 14.0192557,5.63560547 14.0192557,6.20689453 L14.0192557,13.4482617 C14.0192557,14.0195508 13.5543489,14.4827344 12.9808032,14.4827344 L0,14.4827344 L0,28.4482617 C0,29.3052539 0.697418928,30 1.55770814,30 L20.2500294,30 C21.1103186,30 21.8077376,29.3052539 21.8077376,28.4482617 L21.8077376,6.20689453 L17.1346719,6.20689453 Z M15.8572372,22.7586328 L16.615181,22.7586328 C16.7529057,22.7586017 16.8849986,22.8130892 16.9823847,22.9101021 C17.0797708,23.0071149 17.1344679,23.1387015 17.1344367,23.2758984 L17.1344367,25.3448437 C17.1344679,25.4820407 17.0797708,25.6136273 16.9823847,25.7106401 C16.8849986,25.807653 16.7529057,25.8621094 16.615181,25.8621094 L14.538276,25.8621094 C14.4005513,25.8621094 14.2684585,25.807653 14.1710724,25.7106401 C14.0736863,25.6136273 14.0189892,25.4820407 14.0190204,25.3448437 L14.0190204,23.2758984 C14.0189892,23.1387015 14.0736863,23.0071149 14.1710724,22.9101021 C14.2684585,22.8130892 14.4005513,22.7586017 14.538276,22.7586328 L14.7545541,22.7586328 C14.3328207,21.7238086 13.5002353,20.8943555 12.4616063,20.4741797 L12.4616063,20.6896875 C12.4616375,20.8268844 12.4069404,20.958471 12.3095543,21.0554839 C12.2121682,21.1524967 12.0800754,21.2069842 11.9423507,21.2069531 L9.8654457,21.2069531 C9.72772097,21.2069842 9.59562813,21.1524967 9.49824203,21.0554839 C9.40085594,20.958471 9.34615883,20.8268844 9.34619004,20.6896875 L9.34619004,20.4741211 C8.30767873,20.8942383 7.47503453,21.72375 7.05306579,22.7586328 L7.26928506,22.7586328 C7.40700979,22.7586017 7.53910264,22.8130892 7.63648873,22.9101021 C7.73387482,23.0071149 7.78857193,23.1387015 7.78854072,23.2758984 L7.78854072,25.3448437 C7.78857193,25.4820407 7.73387482,25.6136273 7.63648873,25.7106401 C7.53910264,25.807653 7.40700979,25.8621094 7.26928506,25.8621094 L5.19238009,25.8621094 C5.05465536,25.8621094 4.92256251,25.807653 4.82517642,25.7106401 C4.72779033,25.6136273 4.67312442,25.4820407 4.67312442,25.3448437 L4.67312442,23.2758984 C4.67312442,23.1387015 4.72779033,23.0071149 4.82517642,22.9101021 C4.92256251,22.8130892 5.05465536,22.7586017 5.19238009,22.7586328 L5.95038276,22.7586328 C6.14424803,22.146853 6.4509166,21.5764426 6.85466872,21.0766406 C6.65803865,21.1626774 6.44559467,21.2070347 6.23083257,21.2068945 C5.3718962,21.2068945 4.67312442,20.5108008 4.67312442,19.6551562 C4.67312442,18.7995117 5.3718962,18.1033594 6.23083257,18.1033594 C6.90778243,18.1033594 7.48491615,18.5358398 7.6991944,19.1378906 L9.34619004,19.1378906 L9.34619004,18.620625 C9.34615883,18.4834281 9.40085594,18.3518415 9.49824203,18.2548286 C9.59562813,18.1578158 9.72772097,18.1033594 9.8654457,18.1033594 L11.9423507,18.1033594 C12.0800754,18.1033594 12.2121682,18.1578158 12.3095543,18.2548286 C12.4069404,18.3518415 12.4616375,18.4834281 12.4616063,18.620625 L12.4616063,19.1378906 L14.108602,19.1378906 C14.322939,18.5358398 14.9000139,18.1033594 15.5769638,18.1033594 C16.4359002,18.1033594 17.1346719,18.7995117 17.1346719,19.6551562 C17.1346719,20.5108008 16.4359002,21.2068945 15.5769638,21.2068945 C15.36217,21.2070401 15.1496978,21.1626412 14.9530688,21.0765234 C15.3567873,21.5763728 15.6634158,22.1468226 15.8572372,22.7586328 L15.8572372,22.7586328 Z" id="Shape"></path>
                <path d="M10.3846425,19.1379492 L11.423095,19.1379492 L11.423095,20.1724219 L10.3846425,20.1724219 L10.3846425,19.1379492 Z M6.23083257,19.1379492 C5.94461848,19.1379492 5.71157692,19.3698047 5.71157692,19.6552148 C5.71157692,19.940625 5.94455966,20.1724805 6.23083257,20.1724805 C6.51710549,20.1724805 6.75008823,19.940625 6.75008823,19.6552148 C6.75002941,19.3698047 6.51704667,19.1379492 6.23083257,19.1379492 Z" id="Shape"></path>
            </g>
            <path d="M22.3269344,6.20689453 L27,6.20689453 L20.7692262,0 L20.7692262,4.65515625 C20.7692262,5.51214844 21.4666452,6.20689453 22.3269344,6.20689453 Z" id="Path" fill="#D2DCF0" fill-rule="nonzero"></path>
            <path d="M19.2115181,13.4482617 L19.2115181,6.20689453 C19.2115181,5.63560547 18.7466114,5.17242188 18.1730656,5.17242188 L1.03845249,5.17242188 C0.464906739,5.17242188 0,5.63560547 0,6.20689453 L0,13.4482617 C0,14.0195508 0.464906739,14.4827344 1.03845249,14.4827344 L18.1731244,14.4827344 C18.7466114,14.4827344 19.2115181,14.0195508 19.2115181,13.4482617 L19.2115181,13.4482617 Z M5.19232127,12.4137891 L2.59616063,12.4137891 C2.30941717,12.4137891 2.07690498,12.1824609 2.07690498,11.8965234 C2.07690498,11.6105859 2.30941717,11.3792578 2.59616063,11.3792578 L5.19232127,11.3792578 C5.47853536,11.3792578 5.71157692,11.1474023 5.71157692,10.8619922 C5.71157692,10.576582 5.47859418,10.3447266 5.19232127,10.3447266 L3.63461312,10.3447266 C2.77567675,10.3447266 2.07690498,9.64863281 2.07690498,8.79298828 C2.07690498,7.93734375 2.77567675,7.24124999 3.63461312,7.24124999 L5.7115181,7.24124999 C5.84924283,7.24124999 5.98133567,7.29570639 6.07872176,7.39271926 C6.17610786,7.48973212 6.23080497,7.62131872 6.23077376,7.75851563 C6.23080497,7.89571253 6.17610786,8.02729913 6.07872176,8.12431199 C5.98133567,8.22132486 5.84924283,8.27581234 5.7115181,8.27578125 L3.63461312,8.27578125 C3.34839903,8.27578125 3.11535747,8.50763672 3.11535747,8.79304688 C3.11535747,9.07845703 3.34834021,9.3103125 3.63461312,9.3103125 L5.19232127,9.3103125 C6.05125764,9.3103125 6.75002941,10.0064063 6.75002941,10.8620508 C6.75002941,11.7176953 6.05125764,12.4137891 5.19232127,12.4137891 L5.19232127,12.4137891 Z M11.9268812,7.88390625 L11.0772971,11.2691602 C10.9081332,11.9429883 10.3030015,12.4137305 9.60581787,12.4137305 C8.90863422,12.4137305 8.30344375,11.9429883 8.13433863,11.2691602 L7.28475451,7.88390625 C7.21528906,7.60710938 7.38439418,7.32626953 7.66249123,7.25707031 C7.940353,7.18734375 8.22256739,7.35556641 8.29226811,7.63335938 L9.14185224,11.0186133 C9.19508359,11.2307227 9.38601062,11.3792578 9.60575905,11.3792578 C9.82550748,11.3792578 10.0164933,11.2307227 10.0696659,11.0186133 L10.91925,7.63335938 C10.9889507,7.35550781 11.2722238,7.18734375 11.5490269,7.25707031 C11.8271239,7.32623331 11.9962907,7.60687018 11.9268812,7.88390625 Z M17.1346131,10.3448438 C17.1346131,11.4858984 16.2029174,12.4137891 15.0577081,12.4137891 L14.5384525,12.4137891 C13.3932432,12.4137891 12.4615475,11.4858398 12.4615475,10.3448438 L12.4615475,9.31037109 C12.4615475,8.16931641 13.3932432,7.24142578 14.5384525,7.24142578 L15.0577081,7.24142578 C15.6485974,7.24184921 16.2114374,7.49252576 16.6057699,7.93089844 C16.7968648,8.14391101 16.7784856,8.47089807 16.5647142,8.66132813 C16.3509653,8.85222656 16.023166,8.83359375 15.8314744,8.62089844 C15.634566,8.40148004 15.3531544,8.27600674 15.0577081,8.27589844 L14.5384525,8.27589844 C13.9657302,8.27589844 13.5,8.74013672 13.5,9.31037109 L13.5,10.3448438 C13.5,10.9150781 13.9657302,11.3793164 14.5384525,11.3793164 L15.0577081,11.3793164 C15.6304304,11.3793164 16.0961606,10.9150781 16.0961606,10.3448438 L15.0577081,10.3448438 C14.7709647,10.3448438 14.5384525,10.1135156 14.5384525,9.82757813 C14.5384525,9.54164063 14.7709647,9.3103125 15.0577081,9.3103125 L16.6154163,9.3103125 C16.753141,9.31028141 16.8852339,9.36476889 16.98262,9.46178176 C17.080006,9.55879462 17.134672,9.69038122 17.134672,9.82757813 L17.134672,10.3448438 L17.1346131,10.3448438 Z M22.3269344,19.6551563 C22.3269344,18.7995117 21.6281626,18.1033594 20.7692262,18.1033594 C20.0922764,18.1033594 19.5151427,18.5358398 19.3008644,19.1378906 L17.6538688,19.1378906 L17.6538688,18.620625 C17.6539,18.4834281 17.5992029,18.3518415 17.5018168,18.2548286 C17.4044307,18.1578158 17.2723379,18.1033594 17.1346131,18.1033594 L15.0577081,18.1033594 C14.9199834,18.1033594 14.7878906,18.1578158 14.6905045,18.2548286 C14.5931184,18.3518415 14.5384213,18.4834281 14.5384525,18.620625 L14.5384525,19.1378906 L12.8914568,19.1378906 C12.6771198,18.5358398 12.1000449,18.1033594 11.423095,18.1033594 C10.5641586,18.1033594 9.86538686,18.7995117 9.86538686,19.6551563 C9.86538686,20.5108008 10.5641586,21.2068945 11.423095,21.2068945 C11.6448433,21.2068945 11.8558277,21.1601367 12.0469312,21.0766406 C11.643179,21.5764426 11.3365105,22.146853 11.1426452,22.7586328 L10.3846425,22.7586328 C10.2469178,22.7586017 10.114825,22.8130892 10.0174389,22.9101021 C9.92005278,23.0071149 9.86538686,23.1387015 9.86538686,23.2758984 L9.86538686,25.3448438 C9.86538686,25.4820407 9.92005278,25.6136273 10.0174389,25.7106401 C10.114825,25.807653 10.2469178,25.8621094 10.3846425,25.8621094 L12.4615475,25.8621094 C12.5992722,25.8621094 12.7313651,25.807653 12.8287512,25.7106401 C12.9261373,25.6136273 12.9808344,25.4820407 12.9808032,25.3448438 L12.9808032,23.2758984 C12.9808344,23.1387015 12.9261373,23.0071149 12.8287512,22.9101021 C12.7313651,22.8130892 12.5992722,22.7586017 12.4615475,22.7586328 L12.2453282,22.7586328 C12.6671793,21.72375 13.4998824,20.8942383 14.5384525,20.4741211 L14.5384525,20.6896875 C14.5384213,20.8268844 14.5931184,20.958471 14.6905045,21.0554839 C14.7878906,21.1524967 14.9199834,21.2069842 15.0577081,21.2069531 L17.1346131,21.2069531 C17.2723379,21.2069842 17.4044307,21.1524967 17.5018168,21.0554839 C17.5992029,20.958471 17.6539,20.8268844 17.6538688,20.6896875 L17.6538688,20.4741797 C18.6924389,20.8943555 19.5250243,21.7238086 19.9468166,22.7586328 L19.7305385,22.7586328 C19.5928138,22.7586017 19.4607209,22.8130892 19.3633348,22.9101021 C19.2659487,23.0071149 19.2112516,23.1387015 19.2112828,23.2758984 L19.2112828,25.3448438 C19.2112516,25.4820407 19.2659487,25.6136273 19.3633348,25.7106401 C19.4607209,25.807653 19.5928138,25.8621094 19.7305385,25.8621094 L21.8074435,25.8621094 C21.9451682,25.8621094 22.077261,25.807653 22.1746471,25.7106401 C22.2720332,25.6136273 22.3267303,25.4820407 22.3266991,25.3448438 L22.3266991,23.2758984 C22.3267303,23.1387015 22.2720332,23.0071149 22.1746471,22.9101021 C22.077261,22.8130892 21.9451682,22.7586017 21.8074435,22.7586328 L21.0494996,22.7586328 C20.8556805,22.1468277 20.5490297,21.5763933 20.1452725,21.076582 C20.3419067,21.1626834 20.5543754,21.2070815 20.7691674,21.2069531 C21.6281626,21.2068945 22.3269344,20.5108008 22.3269344,19.6551563 L22.3269344,19.6551563 Z M11.9422919,24.8275781 L10.9038394,24.8275781 L10.9038394,23.7931055 L11.9422919,23.7931055 L11.9422919,24.8275781 Z M21.2881878,24.8275781 L20.2497353,24.8275781 L20.2497353,23.7931055 L21.2881878,23.7931055 L21.2881878,24.8275781 Z M19.3422731,20.2764844 C19.2980985,20.2410579 19.2533508,20.2063463 19.2080478,20.1723633 L19.3008056,20.1723633 C19.3134517,20.2076953 19.3272742,20.2424414 19.3422731,20.2764844 Z M12.8914568,20.1724219 L12.9841559,20.1724219 C12.9389031,20.20638 12.8941949,20.2410524 12.8500481,20.2764258 C12.8651059,20.2423828 12.8788695,20.2076953 12.8914568,20.1724219 L12.8914568,20.1724219 Z M11.423095,20.1724219 C11.1368809,20.1724219 10.9038394,19.9405664 10.9038394,19.6551563 C10.9038394,19.3697461 11.1368221,19.1378906 11.423095,19.1378906 C11.7093679,19.1378906 11.9423507,19.3697461 11.9423507,19.6551563 C11.9422919,19.9405664 11.7093091,20.1724219 11.423095,20.1724219 Z M16.6154163,20.1724219 L15.576905,20.1724219 L15.576905,19.1379492 L16.6153575,19.1379492 L16.6153575,20.1724219 L16.6154163,20.1724219 Z M20.2500294,19.6551563 C20.2500294,19.3697461 20.4830122,19.1378906 20.7692851,19.1378906 C21.055558,19.1378906 21.2885407,19.3697461 21.2885407,19.6551563 C21.2885407,19.9405664 21.055558,20.1724219 20.7692851,20.1724219 C20.4830122,20.1724219 20.2500294,19.9405664 20.2500294,19.6551563 Z" id="Shape" fill="#464655" fill-rule="nonzero"></path>
            <path d="M5.19232127,9.31037109 L3.63461312,9.31037109 C3.34839903,9.31037109 3.11535747,9.07851563 3.11535747,8.79310547 C3.11535747,8.50769531 3.34834021,8.27583984 3.63461312,8.27583984 L5.7115181,8.27583984 C5.84924283,8.27587094 5.98133567,8.22138345 6.07872176,8.12437059 C6.17610786,8.02735772 6.23080497,7.89577112 6.23077376,7.75857422 C6.23080497,7.62137732 6.17610786,7.48979071 6.07872176,7.39277785 C5.98133567,7.29576499 5.84924283,7.24130858 5.7115181,7.24130858 L3.63461312,7.24130858 C2.77567675,7.24130858 2.07690498,7.93740234 2.07690498,8.79304688 C2.07690498,9.64869141 2.77567675,10.3447852 3.63461312,10.3447852 L5.19232127,10.3447852 C5.47853536,10.3447852 5.71157692,10.5766406 5.71157692,10.8620508 C5.71157692,11.1474609 5.47859418,11.3793164 5.19232127,11.3793164 L2.59616063,11.3793164 C2.30941717,11.3793164 2.07690498,11.6106445 2.07690498,11.896582 C2.07690498,12.1825195 2.30941717,12.4138477 2.59616063,12.4138477 L5.19232127,12.4138477 C6.05125764,12.4138477 6.75002941,11.7177539 6.75002941,10.8621094 C6.75002941,10.0064648 6.05125764,9.31037109 5.19232127,9.31037109 L5.19232127,9.31037109 Z M16.6154163,9.31037109 L15.0577081,9.31037109 C14.7709647,9.31037109 14.5384525,9.54169922 14.5384525,9.82763672 C14.5384525,10.1135742 14.7709647,10.3449023 15.0577081,10.3449023 L16.0961606,10.3449023 C16.0961606,10.9151367 15.6304304,11.379375 15.0577081,11.379375 L14.5384525,11.379375 C13.9657302,11.379375 13.5,10.9151367 13.5,10.3449023 L13.5,9.31042969 C13.5,8.74019531 13.9657302,8.27595703 14.5384525,8.27595703 L15.0577081,8.27595703 C15.3528039,8.27595703 15.6350183,8.40169922 15.8314744,8.62095703 C16.0231072,8.83359375 16.3509653,8.85228516 16.5647142,8.66138672 C16.7784856,8.47095666 16.7968648,8.14396961 16.6057699,7.93095703 C16.2114464,7.49257208 15.6486006,7.24189296 15.0577081,7.24148438 L14.5384525,7.24148438 C13.3932432,7.24148438 12.4615475,8.16943359 12.4615475,9.31042969 L12.4615475,10.3449023 C12.4615475,11.485957 13.3932432,12.4138477 14.5384525,12.4138477 L15.0577081,12.4138477 C16.2029174,12.4138477 17.1346132,11.4858984 17.1346132,10.3449023 L17.1346132,9.82763672 C17.1346599,9.69044521 17.0799759,9.55885845 16.9825992,9.4618439 C16.8852224,9.36482935 16.7531356,9.31033999 16.6154163,9.31037109 Z M11.5490269,7.25701172 C11.272165,7.18728516 10.9889507,7.35550781 10.91925,7.63330078 L10.0696659,11.0185547 C10.0164345,11.2306641 9.82550748,11.3791992 9.60575905,11.3791992 C9.38601062,11.3791992 9.19502477,11.2306641 9.14185224,11.0185547 L8.29226811,7.63330078 C8.22256739,7.35544922 7.940353,7.18728516 7.66249123,7.25701172 C7.38439418,7.32621094 7.21523024,7.60705078 7.28475451,7.88384766 L8.13433863,11.2691016 C8.30338493,11.9429883 8.9085754,12.4137305 9.60575905,12.4137305 C10.3029427,12.4137305 10.9081332,11.9429883 11.0772383,11.2691602 L11.9268224,7.88390625 C11.9962879,7.60705078 11.8272416,7.32626953 11.5490269,7.25701172 L11.5490269,7.25701172 Z" id="Shape" fill="#FF9646" fill-rule="nonzero"></path>
        </g>
    </g>
</svg>