<?xml version="1.0" encoding="UTF-8"?>
<svg width="30px" height="30px" viewBox="0 0 30 30" version="1.1" xmlns="http://www.w3.org/2000/svg" xmlns:xlink="http://www.w3.org/1999/xlink">
    <title>word</title>
    <g id="Page-1" stroke="none" stroke-width="1" fill="none" fill-rule="evenodd">
        <g id="word">
            <path d="M28.7503125,1.875 L8.7496875,1.875 C8.05950415,1.875 7.5,2.43450415 7.5,3.1246875 L7.5,8.4375 L18.75,11.71875 L30,8.4375 L30,3.1246875 C30,2.43450415 29.4404958,1.875 28.7503125,1.875 Z" id="Path" fill="#41A5EE" fill-rule="nonzero"></path>
            <polygon id="Path" fill="#2B7CD3" fill-rule="nonzero" points="30 8.4375 7.5 8.4375 7.5 15 18.75 18.28125 30 15"></polygon>
            <polygon id="Path" fill="#185ABD" fill-rule="nonzero" points="30 15 7.5 15 7.5 21.5625 18.75 24.84375 30 21.5625"></polygon>
            <path d="M30,21.5625 L7.5,21.5625 L7.5,26.8753125 C7.5,27.5654958 8.05950415,28.125 8.7496875,28.125 L28.7503125,28.125 C29.4404958,28.125 30,27.5654958 30,26.8753125 L30,21.5625 Z" id="Path" fill="#103F91" fill-rule="nonzero"></path>
            <path d="M15.6253125,6.5625 L7.5,6.5625 L7.5,24.375 L15.6253125,24.375 C16.3146411,24.3729408 16.8729408,23.8146411 16.875,23.1253125 L16.875,7.8121875 C16.8729408,7.12285892 16.3146411,6.56455925 15.6253125,6.5625 Z" id="Path" fill="#000000" fill-rule="nonzero" opacity="0.1"></path>
            <path d="M14.6878125,7.5 L7.5,7.5 L7.5,25.3125 L14.6878125,25.3125 C15.3771411,25.3104408 15.9354408,24.7521411 15.9375,24.0628125 L15.9375,8.7496875 C15.9354408,8.06035892 15.3771411,7.50205925 14.6878125,7.5 L14.6878125,7.5 Z" id="Path" fill="#000000" fill-rule="nonzero" opacity="0.2"></path>
            <path d="M14.6878125,7.5 L7.5,7.5 L7.5,23.4375 L14.6878125,23.4375 C15.3771411,23.4354408 15.9354408,22.8771411 15.9375,22.1878125 L15.9375,8.7496875 C15.9354408,8.06035892 15.3771411,7.50205925 14.6878125,7.5 L14.6878125,7.5 Z" id="Path" fill="#000000" fill-rule="nonzero" opacity="0.2"></path>
            <path d="M13.7503125,7.5 L7.5,7.5 L7.5,23.4375 L13.7503125,23.4375 C14.4396411,23.4354408 14.9979408,22.8771411 15,22.1878125 L15,8.7496875 C14.9979408,8.06035892 14.4396411,7.50205925 13.7503125,7.5 Z" id="Path" fill="#000000" fill-rule="nonzero" opacity="0.2"></path>
            <path d="M1.2496875,7.5 L13.7503125,7.5 C14.4404958,7.5 15,8.05950415 15,8.7496875 L15,21.2503125 C15,21.9404958 14.4404958,22.5 13.7503125,22.5 L1.2496875,22.5 C0.559504152,22.5 0,21.9404958 0,21.2503125 L0,8.7496875 C0,8.05950415 0.559504152,7.5 1.2496875,7.5 Z" id="Path" fill="#185ABD" fill-rule="nonzero"></path>
            <polygon id="Path" fill="#FFFFFF" fill-rule="nonzero" points="11.203125 19.6875 9.515625 19.6875 7.546875 13.21875 5.484375 19.6875 3.796875 19.6875 1.921875 10.3125 3.609375 10.3125 4.921875 16.875 6.890625 10.5 8.296875 10.5 10.171875 16.875 11.484375 10.3125 13.078125 10.3125"></polygon>
            <polygon id="Path" points="0 0 30 0 30 30 0 30"></polygon>
        </g>
    </g>
</svg>