<?xml version="1.0" encoding="UTF-8"?>
<svg width="30px" height="30px" viewBox="0 0 30 30" version="1.1" xmlns="http://www.w3.org/2000/svg" xmlns:xlink="http://www.w3.org/1999/xlink">
    <title>youtube</title>
    <g id="Page-1" stroke="none" stroke-width="1" fill="none" fill-rule="evenodd">
        <g id="youtube">
            <polygon id="Path" points="0 0 30 0 30 30 0 30"></polygon>
            <path d="M19.9836529,14.1940802 C17.2329979,12.7289863 14.5992263,11.3820541 11.907013,9.97576363 L11.907013,18.3885426 C14.7400429,16.8535502 17.7261344,15.4478145 19.9953413,14.1940802 L19.9836529,14.1940802 L19.9836529,14.1940802 Z" id="Path" fill="#FFFFFF" fill-rule="nonzero"></path>
            <path d="M19.9836529,14.1940802 C17.2329979,12.7289863 11.907013,9.97576363 11.907013,9.97576363 L19.0079552,14.7327422 C19.0085118,14.7327422 17.7144461,15.4478145 19.9836529,14.1940802 Z" id="Path" fill="#E8E0E0" fill-rule="nonzero"></path>
            <path d="M12.4246393,24.9739762 C6.71126951,24.8691285 4.75987404,24.774821 3.56042817,24.5285122 C2.74892372,24.364861 2.04372747,24.0015 1.52665777,23.4744878 C1.127028,23.0756227 0.809216592,22.4670623 0.562648369,21.6227333 C0.351145152,20.9193107 0.268770215,20.3340498 0.151330271,18.9044598 C-0.0284474628,15.6780357 -0.0713046936,13.0402009 0.151330271,10.0928158 C0.335004117,8.46518023 0.424058103,6.53298707 1.64409771,5.40573571 C2.22016568,4.87816875 2.89029693,4.53866195 3.64280311,4.39831028 C4.81831572,4.17585565 9.82648925,4 15.011101,4 C20.1840244,4 25.2033297,4.17585565 26.3799555,4.39831028 C27.3200316,4.57416593 28.2016661,5.10117813 28.7192924,5.78074649 C29.8324672,7.52598901 29.8519477,9.69616978 29.964935,11.3937038 C30.0116883,12.2025289 30.0116883,16.7953015 29.964935,17.6041266 C29.7890534,20.2868961 29.6476802,21.2360728 29.2480504,22.2201987 C29.0009256,22.8415184 28.789979,23.1693754 28.4248576,23.5327365 C27.8522201,24.0919009 27.1221978,24.4638344 26.332089,24.5989654 C21.387923,24.9695382 17.1895841,25.0499769 12.4246393,24.9739762 L12.4246393,24.9739762 Z M19.9958979,14.1940802 C17.2452429,12.7289863 14.6114712,11.3704043 11.9192579,9.96411388 L11.9192579,18.3774476 C14.7522878,16.8424553 17.7389359,15.4361648 20.0075862,14.1824305 L19.9958979,14.1940802 Z" id="Shape" fill="#CD201F" fill-rule="nonzero"></path>
        </g>
    </g>
</svg>