<?xml version="1.0" standalone="no"?>
<!DOCTYPE svg PUBLIC "-//W3C//DTD SVG 1.1//EN" "http://www.w3.org/Graphics/SVG/1.1/DTD/svg11.dtd" >
<svg xmlns="http://www.w3.org/2000/svg" xmlns:xlink="http://www.w3.org/1999/xlink" version="1.1">
<metadata>
Created by FontForge 20190801 at Wed Feb  7 18:15:11 2018
 By Jimmy Wärting
Copyright 2020, Kris Sowersby, Klim Type Foundry.
</metadata>
<defs>
<font id="TiemposFine-SemiboldItalic" horiz-adv-x="741" >
  <font-face 
    font-family="Tiempos Fine"
    font-weight="600"
    font-style="italic"
    font-stretch="normal"
    units-per-em="1000"
    panose-1="2 2 7 3 6 3 3 13 4 3"
    ascent="783"
    descent="-217"
    x-height="544"
    cap-height="702"
    bbox="-217 -223 1066 783"
    underline-thickness="30"
    underline-position="-100"
    slope="-12"
    stemh="14"
    stemv="158"
    unicode-range="U+0020-007A"
  />
<missing-glyph horiz-adv-x="960" 
d="M90 0v780h780v-780h-780zM201 714l279 -279l279 279h-558zM435 390l-275 275v-550zM525 390l275 -275v550zM480 345l-279 -279h558z" />
    <glyph glyph-name=".notdef" horiz-adv-x="960" 
d="M90 0v780h780v-780h-780zM201 714l279 -279l279 279h-558zM435 390l-275 275v-550zM525 390l275 -275v550zM480 345l-279 -279h558z" />
    <glyph glyph-name="space" unicode=" " horiz-adv-x="179" 
 />
    <glyph glyph-name="A" unicode="A" 
d="M459 97l-29 169h-249l-96 -168c-11 -19 -18 -34 -18 -48c0 -28 42 -33 94 -36l-3 -14h-216l3 14c56 6 76 18 100 60l321 557l-13 75h173l112 -646c6 -36 27 -40 61 -46l-3 -14h-322l3 14c49 2 85 9 85 53c0 7 0 18 -3 30zM192 286h234l-54 313z" />
    <glyph glyph-name="B" unicode="B" horiz-adv-x="674" 
d="M-28 0l4 14c70 7 79 15 91 68l114 538c11 55 2 61 -62 68l3 14h330c150 0 214 -65 214 -147c0 -112 -110 -179 -238 -190c136 -11 214 -76 214 -154c0 -137 -136 -211 -303 -211h-367zM397 683h-33l-66 -310h34c99 0 173 71 173 185c0 75 -31 125 -108 125zM347 353h-53
l-57 -267c-11 -54 7 -68 63 -68h9c90 0 167 66 167 196c0 85 -41 139 -129 139z" />
    <glyph glyph-name="C" unicode="C" horiz-adv-x="668" 
d="M40 290c0 222 187 422 442 422c83 0 163 -27 208 -61l-33 -166h-10c-4 134 -56 211 -160 211c-178 0 -272 -271 -272 -436c0 -167 42 -255 142 -255c96 0 187 76 268 241h10l-57 -196c-67 -38 -147 -60 -232 -60c-190 0 -306 116 -306 300z" />
    <glyph glyph-name="D" unicode="D" horiz-adv-x="754" 
d="M292 0h-320l4 14c70 8 79 15 91 69l114 537c12 55 3 61 -62 68l3 14h286c202 0 344 -102 344 -280c0 -242 -201 -422 -460 -422zM292 19h10c154 0 276 211 276 423c0 154 -54 241 -190 241h-24l-126 -593c-12 -59 5 -71 54 -71z" />
    <glyph glyph-name="E" unicode="E" horiz-adv-x="644" 
d="M541 0h-569l3 14c71 7 80 15 91 68l115 538c12 55 3 61 -62 68l3 14h561l-36 -187h-11c-24 132 -52 168 -145 168h-126l-67 -311h114c63 0 89 30 116 108h13l-50 -235h-13c6 77 1 108 -71 108h-113l-58 -267c-11 -54 13 -67 71 -67h50c93 0 173 64 252 197h11z" />
    <glyph glyph-name="F" unicode="F" horiz-adv-x="604" 
d="M338 0h-366l4 14c70 7 79 15 90 68l115 537c11 55 2 61 -62 69l3 14h549l-37 -194h-11c-21 130 -43 175 -129 175h-130l-66 -311h100c65 0 89 29 116 108h13l-49 -235h-13c6 77 1 108 -71 108h-100l-57 -266c-12 -55 13 -67 104 -73z" />
    <glyph glyph-name="G" unicode="G" horiz-adv-x="727" 
d="M215 257c0 -160 50 -250 138 -250c32 0 57 4 85 20l49 222c12 55 3 61 -62 68l3 14h307l-3 -14c-66 -6 -73 -16 -84 -68l-41 -191c-78 -44 -153 -68 -260 -68c-189 0 -307 120 -307 299c0 228 194 423 448 423c87 0 169 -27 215 -61l-33 -165h-10
c-2 133 -55 211 -164 211c-180 0 -281 -265 -281 -440z" />
    <glyph glyph-name="H" unicode="H" horiz-adv-x="821" 
d="M66 82l116 538c11 55 2 61 -62 68l2 14h323l-2 -14c-70 -7 -80 -15 -91 -68l-54 -249h278l54 249c11 55 2 61 -62 68l2 14h323l-2 -14c-70 -7 -80 -15 -91 -68l-116 -538c-11 -55 -2 -61 62 -68l-3 -14h-323l3 14c71 7 80 15 91 68l58 269h-278l-58 -269
c-11 -55 -2 -61 62 -68l-3 -14h-323l3 14c71 7 80 15 91 68z" />
    <glyph glyph-name="I" unicode="I" horiz-adv-x="373" 
d="M66 82l116 538c11 55 2 61 -62 68l2 14h323l-2 -14c-70 -7 -80 -15 -91 -68l-116 -538c-11 -55 -2 -61 62 -68l-3 -14h-323l3 14c71 7 80 15 91 68z" />
    <glyph glyph-name="J" unicode="J" horiz-adv-x="556" 
d="M279 174l95 443c12 55 3 61 -62 68l4 17h323l-4 -17c-70 -8 -79 -15 -91 -68l-89 -414c-33 -157 -135 -213 -287 -213c-115 0 -195 51 -195 128c0 41 27 80 65 99h106c-17 -39 -28 -76 -28 -119c0 -53 20 -94 61 -94c53 0 79 61 102 170z" />
    <glyph glyph-name="K" unicode="K" 
d="M707 14l-3 -14h-226c-27 28 -67 114 -92 170l-80 180l310 267c18 15 34 30 34 45c0 16 -18 23 -85 26l2 14h240l-3 -14c-59 -3 -90 -15 -136 -54l-226 -194l142 -302c37 -75 67 -119 123 -124zM66 82l116 538c11 55 2 61 -62 68l2 14h323l-2 -14c-70 -7 -80 -15 -91 -68
l-116 -538c-11 -55 -2 -61 62 -68l-3 -14h-323l3 14c71 7 80 15 91 68z" />
    <glyph glyph-name="L" unicode="L" horiz-adv-x="626" 
d="M351 620l-114 -533c-12 -54 10 -68 69 -68h41c81 0 160 58 253 210h11l-84 -229h-555l3 13c71 8 80 15 91 69l116 538c11 55 2 61 -62 68l2 14h323l-3 -14c-70 -7 -79 -15 -91 -68z" />
    <glyph glyph-name="M" unicode="M" horiz-adv-x="941" 
d="M646 96l49 502l-318 -600h-25l-97 610l-172 -515c-18 -59 -4 -74 78 -79l-3 -14h-202l3 14c58 3 81 14 96 60l180 541c11 53 -4 70 -70 73l3 14h241c-3 -23 -2 -40 2 -62l67 -407l215 407c12 24 21 39 28 62h247l-3 -14c-66 -3 -89 -20 -100 -73l-55 -541
c-3 -48 17 -57 72 -60l-4 -14h-339l4 14c76 5 96 13 103 82z" />
    <glyph glyph-name="N" unicode="N" horiz-adv-x="736" 
d="M64 82l114 536c-31 49 -50 67 -84 72l3 12h230l285 -484l84 402c11 53 -19 63 -98 68l3 14h225l-3 -14c-70 -7 -91 -15 -103 -68l-133 -628h-33l-358 598l-108 -508c-12 -55 25 -63 105 -68l-4 -14h-231l3 14c71 7 92 15 103 68z" />
    <glyph glyph-name="O" unicode="O" 
d="M40 268c0 229 181 444 415 444c173 0 285 -123 285 -278c0 -229 -181 -444 -416 -444c-173 0 -284 123 -284 278zM563 495c0 117 -30 203 -110 203c-152 0 -236 -315 -236 -491c0 -117 29 -203 109 -203c152 0 237 315 237 491z" />
    <glyph glyph-name="P" unicode="P" horiz-adv-x="643" 
d="M122 702h316c161 0 246 -76 246 -172c0 -149 -143 -226 -333 -226h-68l-45 -217c-12 -55 12 -69 104 -73l-4 -14h-366l4 13c71 8 79 15 91 68l114 539c12 55 3 61 -62 68zM364 683l-76 -359h33c104 0 196 69 196 205c0 90 -41 154 -126 154h-27z" />
    <glyph glyph-name="Q" unicode="Q" 
d="M40 268c0 229 181 444 415 444c173 0 285 -123 285 -278c0 -206 -147 -401 -347 -438l68 -60c41 -37 72 -60 133 -62v-4c-33 -31 -80 -59 -143 -59c-68 0 -119 35 -151 97l-44 89c-134 28 -216 137 -216 271zM563 495c0 117 -30 203 -110 203c-152 0 -236 -315 -236 -491
c0 -117 29 -203 109 -203c152 0 237 315 237 491z" />
    <glyph glyph-name="R" unicode="R" horiz-adv-x="733" 
d="M288 324l-52 -242c-12 -55 -2 -61 62 -68l-3 -14h-323l3 14c71 7 80 15 91 68l115 538c12 55 3 61 -62 68l3 14h332c168 0 234 -79 234 -159c0 -116 -109 -182 -207 -204l88 -182c49 -99 76 -137 130 -143l-4 -14h-222c-28 33 -59 102 -86 172l-59 152h-40zM399 684h-35
l-72 -341h35c107 0 192 76 192 201c0 79 -35 140 -120 140z" />
    <glyph glyph-name="S" unicode="S" horiz-adv-x="553" 
d="M227 574c0 -141 295 -140 295 -353c0 -130 -133 -231 -293 -231c-89 0 -181 40 -227 81l30 170h11c1 -146 73 -235 195 -235c77 0 134 53 134 133c0 161 -288 147 -288 354c0 119 112 219 273 219c85 0 160 -33 206 -70l-31 -150h-10c0 125 -64 205 -168 205
c-74 0 -127 -53 -127 -123z" />
    <glyph glyph-name="T" unicode="T" horiz-adv-x="681" 
d="M517 683l-128 -603c-12 -55 6 -59 73 -66l-3 -14h-343l3 14c73 7 88 13 99 66l129 603h-43c-82 0 -145 -49 -240 -222h-11l67 241h632l-37 -241h-10c-24 171 -59 222 -141 222h-47z" />
    <glyph glyph-name="U" unicode="U" horiz-adv-x="723" 
d="M623 263l76 357c11 55 -1 62 -76 68l3 14h191l-2 -14c-70 -7 -80 -15 -92 -68l-80 -376c-35 -163 -147 -254 -305 -254c-184 0 -290 113 -251 295l72 335c12 55 3 61 -61 68l2 14h323l-2 -14c-70 -7 -80 -15 -92 -68l-72 -340c-29 -133 18 -229 134 -229
c118 0 201 66 232 212z" />
    <glyph glyph-name="V" unicode="V" horiz-adv-x="689" 
d="M699 628l-391 -634h-27l-135 648c-7 37 -24 41 -56 46l3 14h321l-3 -14c-61 -2 -90 -12 -90 -48c0 -13 2 -32 6 -48l77 -403l242 398c14 22 26 47 26 64c0 24 -21 34 -86 37l3 14h207l-4 -14c-47 -6 -65 -15 -93 -60z" />
    <glyph glyph-name="W" unicode="W" horiz-adv-x="960" 
d="M596 -6l-64 437l-248 -437h-24l-117 651c-5 28 -27 39 -56 43l4 14h305l-4 -14c-57 -4 -74 -17 -74 -52c0 -12 1 -25 3 -39l59 -395l147 262l-26 181c-3 28 -22 39 -51 43l3 14h287l-3 -14c-57 -4 -72 -17 -72 -54c0 -11 1 -24 3 -37l42 -397l212 387c11 20 24 45 24 63
c0 23 -16 35 -88 38l3 14h205l-3 -14c-44 -5 -65 -14 -93 -63l-351 -631h-23z" />
    <glyph glyph-name="X" unicode="X" horiz-adv-x="723" 
d="M412 90l-87 220l-186 -196c-29 -31 -50 -51 -50 -70c0 -21 29 -28 96 -30l-3 -14h-239l4 14c61 6 79 14 124 61l245 257l-125 317c-10 25 -32 36 -64 39l3 14h325l-3 -14c-46 0 -74 -8 -74 -33c0 -12 5 -25 13 -45l67 -173l142 151c30 31 51 52 51 71c0 21 -28 27 -96 29
l4 14h225l-3 -14c-43 -4 -71 -16 -114 -61l-200 -212l139 -356c12 -32 35 -42 70 -45l-3 -14h-338l3 14c49 2 87 5 87 35c0 10 -5 23 -13 41z" />
    <glyph glyph-name="Y" unicode="Y" horiz-adv-x="663" 
d="M461 14l-3 -14h-338l3 14c73 7 88 13 100 66l47 227l-124 331c-14 36 -26 45 -57 50l2 14h325l-3 -14c-70 -3 -94 -15 -94 -45c0 -15 4 -30 11 -50l100 -253l197 256c16 20 33 44 33 62c0 19 -24 28 -97 30l3 14h202l-3 -14c-37 -6 -56 -22 -83 -57l-245 -319l-49 -232
c-12 -55 6 -59 73 -66z" />
    <glyph glyph-name="Z" unicode="Z" horiz-adv-x="619" 
d="M592 229l-84 -229h-546l1 9l528 674h-151c-102 0 -151 -44 -227 -176h-11l47 195h534l-2 -10l-528 -673h167c90 0 168 53 262 210h10z" />
    <glyph glyph-name="a" unicode="a" horiz-adv-x="616" 
d="M591 161l6 -5c-44 -95 -124 -166 -202 -166c-52 0 -74 29 -74 71c0 31 13 87 41 180c-63 -145 -147 -251 -232 -251c-70 0 -117 59 -117 154c0 193 165 400 351 400c53 0 92 -22 115 -47l119 50h4l-38 -128l-70 -285c-4 -18 -7 -33 -7 -41c0 -11 4 -16 14 -16
c21 0 57 34 90 84zM172 157c0 -47 12 -72 38 -72c73 0 174 179 215 380c0 33 -12 62 -45 62c-104 0 -208 -225 -208 -370z" />
    <glyph glyph-name="b" unicode="b" horiz-adv-x="594" 
d="M468 544c74 0 114 -55 114 -153c0 -208 -183 -401 -359 -401c-79 0 -178 45 -208 117l141 572l-66 53v4l244 47h4l-133 -529c59 149 160 290 263 290zM380 446c-65 0 -179 -159 -215 -360c1 -36 16 -81 55 -81c100 0 199 236 199 372c0 42 -10 69 -39 69z" />
    <glyph glyph-name="c" unicode="c" horiz-adv-x="453" 
d="M359 370c17 63 21 159 -29 159c-78 0 -155 -171 -155 -318c0 -89 32 -135 92 -135c52 0 96 31 136 88l6 -5c-44 -102 -124 -169 -218 -169c-104 0 -174 75 -174 193c0 175 152 361 330 361c73 0 125 -31 125 -91c0 -40 -33 -73 -72 -83h-41z" />
    <glyph glyph-name="d" unicode="d" horiz-adv-x="629" 
d="M601 161l5 -5c-44 -95 -123 -166 -201 -166c-53 0 -75 29 -75 71c0 17 4 36 9 59l36 134c-71 -163 -160 -264 -245 -264c-68 0 -117 59 -117 154c0 193 165 400 354 400c29 0 56 -9 76 -19l37 154l-66 53v4l244 47h4l-158 -649c-5 -18 -8 -33 -8 -41c0 -11 5 -16 15 -16
c21 0 56 34 90 84zM172 157c0 -47 12 -72 39 -72c77 0 176 177 217 380c0 33 -12 62 -46 62c-106 0 -210 -225 -210 -370z" />
    <glyph glyph-name="e" unicode="e" horiz-adv-x="476" 
d="M438 162c-47 -101 -137 -172 -240 -172c-108 0 -181 77 -181 196c0 175 148 358 328 358c91 0 140 -48 140 -109c0 -113 -149 -158 -310 -177c-1 -13 -2 -25 -2 -37c0 -91 41 -142 108 -142c55 0 110 29 151 89zM368 473c0 34 -11 56 -38 56c-67 0 -138 -138 -154 -260
c129 28 192 102 192 204z" />
    <glyph glyph-name="f" unicode="f" horiz-adv-x="335" 
d="M281 485l-64 -286c-67 -299 -165 -416 -296 -416c-69 0 -125 31 -125 80c0 45 39 67 78 71h25c-6 -72 3 -137 36 -137c32 0 50 47 80 200l96 488h-70l1 6l81 44c42 148 127 248 257 248c69 0 126 -27 126 -87c0 -34 -22 -59 -59 -69h-58c11 61 11 141 -28 141
c-48 0 -70 -122 -77 -246h111l-17 -37h-97z" />
    <glyph glyph-name="g" unicode="g" horiz-adv-x="507" 
d="M469 -34c0 -106 -140 -189 -301 -189c-133 0 -257 44 -257 123c0 58 70 97 164 103c-38 25 -53 56 -52 88c1 55 45 89 113 116c-57 28 -93 79 -93 136c0 119 112 201 251 201c33 0 63 -7 89 -18l187 13l-21 -68h-7l-114 27c35 -29 56 -68 56 -107
c0 -122 -113 -205 -252 -205c-32 0 -61 6 -86 17c-18 -13 -28 -25 -28 -39c0 -18 16 -24 35 -29l175 -43c83 -20 141 -56 141 -126zM231 201c56 0 108 114 108 237c0 50 -11 93 -44 93c-55 0 -107 -114 -107 -238c0 -49 11 -92 43 -92zM16 -86c0 -77 63 -124 158 -124
c99 0 162 44 162 101c0 30 -23 43 -64 55l-186 52c-44 -17 -70 -47 -70 -84z" />
    <glyph glyph-name="h" unicode="h" horiz-adv-x="610" 
d="M345 783l-131 -535c72 172 180 298 281 298c52 0 78 -32 78 -83c0 -13 -2 -31 -8 -52l-75 -277c-5 -18 -8 -33 -8 -41c0 -11 4 -16 14 -16c21 0 57 34 91 84l5 -5c-44 -95 -124 -166 -202 -166c-52 0 -74 29 -74 71c0 17 3 36 9 59l79 275c3 11 6 24 6 32
c0 12 -4 19 -17 19c-48 0 -160 -135 -192 -265l-47 -181h-159l168 679l-66 53v4l244 47h4z" />
    <glyph glyph-name="i" unicode="i" horiz-adv-x="317" 
d="M332 687c0 -48 -36 -90 -92 -90c-52 0 -85 37 -85 80c0 48 36 90 92 90c52 0 85 -36 85 -80zM25 120l82 321l-59 52v4l241 47h4l-104 -410c-5 -18 -8 -33 -8 -41c0 -11 5 -16 15 -16c21 0 56 34 90 84l5 -5c-44 -95 -123 -166 -201 -166c-53 0 -75 29 -75 71
c0 17 4 36 10 59z" />
    <glyph glyph-name="j" unicode="j" horiz-adv-x="285" 
d="M333 687c0 -48 -36 -90 -92 -90c-52 0 -86 37 -86 80c0 48 37 90 93 90c52 0 85 -36 85 -80zM294 544l-95 -387c-65 -266 -158 -374 -291 -374c-69 0 -125 31 -125 80c0 45 39 67 78 71h25c-6 -72 3 -137 36 -137c32 0 46 48 82 200l105 444l-61 52v4l242 47h4z" />
    <glyph glyph-name="k" unicode="k" horiz-adv-x="582" 
d="M163 679l-66 53v4l244 47h4l-191 -783h-159zM561 160l6 -4c-40 -93 -108 -166 -180 -166c-53 0 -76 35 -99 108l-56 176l162 185c51 59 83 85 127 85c50 0 75 -36 75 -76c0 -44 -34 -76 -83 -91h-2c4 39 -11 75 -61 75c-26 0 -54 -13 -114 -72l100 -231
c16 -35 24 -57 47 -57s54 29 78 68z" />
    <glyph glyph-name="l" unicode="l" horiz-adv-x="307" 
d="M17 120l141 559l-66 53v4l244 47h4l-158 -649c-5 -18 -8 -33 -8 -41c0 -11 5 -16 15 -16c21 0 56 34 90 84l5 -5c-44 -95 -123 -166 -201 -166c-53 0 -75 29 -75 71c0 17 4 36 9 59z" />
    <glyph glyph-name="m" unicode="m" horiz-adv-x="916" 
d="M574 465c0 -23 -8 -58 -48 -215c67 162 170 294 274 294c53 0 79 -31 79 -81c0 -13 -3 -31 -8 -52l-76 -277c-5 -18 -8 -33 -8 -41c0 -11 5 -16 15 -16c21 0 56 34 90 84l5 -5c-44 -95 -123 -166 -201 -166c-53 0 -75 29 -75 71c0 17 3 36 10 59l78 275c3 11 6 24 6 32
c0 12 -4 19 -16 19c-48 0 -154 -137 -187 -265l-47 -181h-158l99 395c3 11 6 24 6 32c0 12 -4 19 -17 19c-46 0 -153 -135 -186 -265l-47 -181h-158l110 441l-59 52v4l241 47h4l-77 -294c67 162 170 294 273 294c52 0 78 -31 78 -79z" />
    <glyph glyph-name="n" unicode="n" horiz-adv-x="619" 
d="M300 544l-77 -294c67 162 177 294 280 294c53 0 79 -31 79 -81c0 -13 -3 -31 -8 -52l-76 -277c-5 -18 -8 -33 -8 -41c0 -11 5 -16 15 -16c21 0 56 34 90 84l5 -5c-43 -95 -123 -166 -201 -166c-52 0 -75 29 -75 71c0 17 3 36 10 59l78 275c3 11 7 24 7 32
c0 12 -5 19 -17 19c-48 0 -160 -135 -193 -265l-47 -181h-158l110 441l-59 52v4l241 47h4z" />
    <glyph glyph-name="o" unicode="o" horiz-adv-x="546" 
d="M17 196c0 172 139 348 315 348c112 0 198 -76 198 -206c0 -172 -139 -348 -315 -348c-113 0 -198 76 -198 206zM168 116c0 -58 9 -111 47 -111c79 0 164 256 164 413c0 58 -10 111 -47 111c-80 0 -164 -256 -164 -413z" />
    <glyph glyph-name="p" unicode="p" horiz-adv-x="611" 
d="M201 -200l-3 -12h-304l3 12c43 3 59 9 67 42l151 599l-60 52v4l241 47h4l-76 -284c60 147 159 284 261 284c74 0 114 -55 114 -153c0 -206 -179 -401 -352 -401c-31 0 -60 14 -78 34l-45 -173c-2 -9 -4 -16 -4 -21c0 -23 22 -27 81 -30zM436 377c0 42 -10 69 -39 69
c-66 0 -179 -159 -215 -360c1 -36 21 -81 61 -81c98 0 193 236 193 372z" />
    <glyph glyph-name="q" unicode="q" horiz-adv-x="589" 
d="M473 -200l-3 -12h-301l3 12c57 5 81 8 90 42l108 404c-69 -156 -156 -256 -240 -256c-69 0 -117 59 -117 154c0 193 165 400 354 400c51 0 93 -23 118 -47l117 50h4l-38 -128l-145 -572c-2 -7 -3 -14 -3 -19c1 -22 17 -26 53 -28zM172 157c0 -47 12 -72 39 -72
c77 0 176 177 217 380c0 33 -12 62 -46 62c-106 0 -210 -225 -210 -370z" />
    <glyph glyph-name="r" unicode="r" horiz-adv-x="464" 
d="M114 441l-59 52v4l241 47h4l-90 -344c74 215 145 344 229 344c42 0 67 -29 67 -71c0 -56 -44 -106 -95 -126h-2c2 26 -6 54 -38 54c-80 0 -152 -161 -210 -401h-157z" />
    <glyph glyph-name="s" unicode="s" horiz-adv-x="419" 
d="M61 187c11 -90 63 -175 134 -175c38 0 68 27 68 68c0 93 -200 154 -200 279c0 85 91 185 212 185c83 0 141 -32 141 -89c0 -39 -37 -64 -75 -72h-2c-8 70 -50 138 -113 138c-36 0 -60 -24 -60 -58c0 -81 211 -162 211 -281c0 -101 -113 -192 -224 -192
c-89 0 -167 48 -167 114c0 41 33 72 73 83h2z" />
    <glyph glyph-name="t" unicode="t" horiz-adv-x="356" 
d="M331 159c-55 -105 -140 -169 -224 -169c-58 0 -85 33 -85 79c0 19 3 40 9 64l88 352h-64l4 13c83 28 201 102 254 167h7l-35 -143h114l-17 -37h-106l-83 -331c-5 -23 -8 -38 -8 -50c0 -17 9 -28 26 -28c31 0 67 25 115 88z" />
    <glyph glyph-name="u" unicode="u" horiz-adv-x="620" 
d="M590 161l5 -5c-44 -95 -124 -166 -202 -166c-52 0 -74 29 -74 71c0 24 8 69 47 208c-49 -132 -156 -279 -253 -279c-56 0 -89 42 -89 94c0 17 3 36 8 57l76 300l-60 52v4l242 47h4l-101 -396c-5 -19 -8 -33 -8 -43c0 -14 6 -22 20 -22c54 0 150 144 190 306l35 137l163 9
l-100 -401c-5 -18 -8 -33 -8 -41c0 -11 4 -16 14 -16c21 0 57 34 91 84z" />
    <glyph glyph-name="v" unicode="v" horiz-adv-x="495" 
d="M72 448l-59 50v4l206 42h3l29 -426c136 150 153 211 153 267s-41 91 -97 88v3c19 33 61 68 113 68c64 0 90 -46 90 -95c0 -74 -60 -148 -183 -269l-187 -186h-25z" />
    <glyph glyph-name="w" unicode="w" 
d="M380 -6l-24 269l-216 -269h-25l-43 454l-59 50v4l204 42h4l32 -389l101 129l-15 164l-59 50v4l203 42h3l28 -411c120 140 136 203 136 252c0 56 -41 91 -97 88v3c20 33 61 68 114 68c63 0 89 -46 89 -95c0 -74 -66 -143 -183 -269l-167 -186h-26z" />
    <glyph glyph-name="x" unicode="x" horiz-adv-x="554" 
d="M167 146l41 67l-58 220l-79 67v4l208 40h3l47 -187l48 81c40 67 73 107 125 107c46 0 71 -32 71 -70c0 -51 -50 -78 -88 -89h-2c3 36 -7 62 -43 62c-25 0 -51 -21 -75 -59l-31 -49l44 -176c12 -50 22 -73 45 -73s52 26 82 68l5 -5c-43 -91 -104 -164 -177 -164
c-51 0 -75 37 -95 110l-25 95l-53 -97c-38 -69 -76 -108 -134 -108c-45 0 -70 32 -70 71c0 52 51 79 87 90h2c-4 -41 10 -64 45 -64c25 0 52 17 77 59z" />
    <glyph glyph-name="y" unicode="y" horiz-adv-x="509" 
d="M-55 -38c-4 -65 36 -113 109 -113c36 0 73 12 120 52l-107 547l-59 50v4l202 42h3l84 -496c4 6 9 12 13 18c75 109 104 207 104 283c0 91 -48 129 -104 126v2c20 34 59 67 112 67c64 0 97 -49 97 -104c0 -90 -72 -207 -196 -379c-144 -202 -253 -278 -351 -278
c-58 0 -105 30 -105 87c0 44 35 81 76 92h2z" />
    <glyph glyph-name="z" unicode="z" horiz-adv-x="489" 
d="M462 202l6 -2c-45 -153 -106 -215 -195 -215c-48 0 -92 17 -157 59l-86 57l-16 -102c-32 -3 -53 11 -53 32c0 14 7 28 36 53l366 315h-199c-45 0 -54 -8 -74 -36l-20 -29h-7l78 235h6c3 -24 12 -39 43 -39h352v-4l-399 -341l93 -35c39 -15 65 -24 102 -24
c38 0 86 10 124 76z" />
    <glyph glyph-name="period" unicode="." horiz-adv-x="250" 
d="M88 -10c-53 0 -95 40 -95 95s42 95 95 95c52 0 94 -40 94 -95s-42 -95 -94 -95z" />
    <glyph glyph-name="comma" unicode="," horiz-adv-x="250" 
d="M98 3h-36c-40 9 -67 37 -67 79c0 48 37 83 87 83c60 0 92 -45 92 -97c0 -105 -100 -187 -218 -189v8c65 7 136 64 142 116z" />
    <glyph glyph-name="hyphen" unicode="-" horiz-adv-x="320" 
d="M288 279h-260l13 54h260z" />
    <glyph glyph-name="zero" unicode="0" horiz-adv-x="645" 
d="M645 441c0 -217 -150 -451 -372 -451c-141 0 -237 123 -237 271c0 217 150 451 372 451c141 0 237 -123 237 -271zM204 153c0 -83 13 -150 69 -150c117 0 204 367 204 546c0 83 -13 150 -69 150c-118 0 -204 -367 -204 -546z" />
    <glyph glyph-name="one" unicode="1" horiz-adv-x="430" 
d="M401 711h7l-131 -614c-14 -72 5 -80 92 -82l-4 -15h-381l3 15c95 4 104 11 118 72l101 473h-120l2 12l45 6c107 16 190 53 268 133z" />
    <glyph glyph-name="two" unicode="2" horiz-adv-x="546" 
d="M510 239l-79 -239h-472l2 8c329 274 410 387 410 495c0 65 -46 109 -117 109c-59 0 -114 -30 -155 -77l-8 6c57 107 159 171 265 171c115 0 186 -68 186 -173c0 -149 -183 -248 -415 -402h195c89 0 115 9 178 102h10z" />
    <glyph glyph-name="three" unicode="3" horiz-adv-x="540" 
d="M179 345l-4 14c118 32 205 91 205 177c0 46 -33 84 -91 84c-56 0 -109 -29 -152 -77l-7 7c51 98 146 162 247 162s164 -57 164 -135c-2 -98 -104 -157 -217 -178c118 -13 186 -89 186 -176c0 -135 -146 -233 -299 -233c-146 0 -216 70 -216 143c0 41 31 78 67 90h82
c-11 -23 -20 -41 -20 -85c0 -62 26 -133 90 -133c84 0 134 116 134 206c0 94 -44 142 -114 142c-18 0 -34 -3 -55 -8z" />
    <glyph glyph-name="four" unicode="4" horiz-adv-x="636" 
d="M290 83l30 140h-308l1 6l451 473h124l-98 -458h115l-5 -21h-114l-30 -140c-10 -54 -2 -63 67 -68l-3 -15h-328l3 15c73 6 84 15 95 68zM57 244h268l76 361z" />
    <glyph glyph-name="five" unicode="5" horiz-adv-x="535" 
d="M179 557l-30 -96c203 2 351 -65 351 -235c0 -138 -124 -236 -277 -236c-134 0 -224 62 -224 142c0 41 29 79 62 90h80c-9 -25 -16 -45 -16 -85c0 -70 41 -132 109 -132c72 0 126 63 126 153c0 129 -120 171 -276 169l124 373h287c35 0 44 3 71 43h11l-67 -186h-331z" />
    <glyph glyph-name="six" unicode="6" horiz-adv-x="594" 
d="M575 258c0 -149 -135 -268 -295 -268c-141 0 -244 107 -244 247c0 248 231 455 551 475l6 -12c-185 -34 -311 -152 -366 -319c47 40 104 63 159 63c115 0 189 -81 189 -186zM197 178c0 -92 22 -174 87 -174c74 0 133 111 133 231c0 90 -37 157 -113 157
c-26 0 -53 -8 -81 -26c-17 -58 -26 -121 -26 -188z" />
    <glyph glyph-name="seven" unicode="7" horiz-adv-x="522" 
d="M499 544h-305c-54 0 -82 -23 -118 -82h-14l94 240h453l-1 -5l-431 -697h-103z" />
    <glyph glyph-name="eight" unicode="8" horiz-adv-x="580" 
d="M537 217c0 -124 -123 -227 -271 -227c-140 0 -252 75 -252 178c0 92 80 151 184 163c-50 38 -90 87 -90 167c0 116 118 214 255 214c124 0 216 -63 216 -156c0 -84 -81 -137 -174 -150c68 -43 132 -93 132 -189zM246 572c0 -76 74 -114 147 -159c58 37 80 98 80 155
c0 74 -42 130 -114 130c-64 0 -113 -46 -113 -126zM132 160c0 -91 54 -156 138 -156c73 0 131 49 131 132c0 95 -107 128 -191 187c-57 -34 -78 -106 -78 -163z" />
    <glyph glyph-name="nine" unicode="9" horiz-adv-x="594" 
d="M56 444c0 149 135 268 295 268c141 0 244 -107 244 -247c0 -248 -231 -455 -551 -475l-6 12c185 34 311 152 366 319c-47 -40 -104 -63 -159 -63c-115 0 -189 81 -189 186zM434 524c0 92 -22 174 -87 174c-74 0 -133 -111 -133 -231c0 -90 37 -157 113 -157
c26 0 53 8 81 26c17 58 26 121 26 188z" />
    </font>
</defs>
</svg>
