<?xml version="1.0" standalone="no"?>
<!DOCTYPE svg PUBLIC "-//W3C//DTD SVG 1.1//EN" "http://www.w3.org/Graphics/SVG/1.1/DTD/svg11.dtd" >
<svg xmlns="http://www.w3.org/2000/svg" xmlns:xlink="http://www.w3.org/1999/xlink" version="1.1">
<metadata>
Created by FontForge 20190801 at Tue Mar 28 13:33:31 2017
 By Jimmy Wärting
Copyright \(c\) 2016 by Mateusz Machalski. All rights reserved.
</metadata>
<defs>
<font id="NocturneSerif-SemiBold" horiz-adv-x="0" >
  <font-face 
    font-family="Nocturne Serif SemiBold"
    font-weight="600"
    font-stretch="normal"
    units-per-em="1000"
    panose-1="0 0 7 0 0 0 0 0 0 0"
    ascent="760"
    descent="-240"
    x-height="499"
    cap-height="700"
    bbox="-587 -377 1327 1001"
    underline-thickness="50"
    underline-position="-100"
    stemh="51"
    stemv="151"
    unicode-range="U+0020-25CA"
  />
<missing-glyph horiz-adv-x="791" 
d="M395 700c196 0 355 -159 355 -355s-159 -355 -355 -355s-355 159 -355 355s159 355 355 355zM573 430l26 10c-36 86 -119 136 -204 136s-168 -50 -204 -136l26 -10c41 83 111 111 178 111s137 -28 178 -111zM288 164c30 0 53 40 53 89c0 47 -23 87 -53 87
c-29 0 -53 -40 -53 -87c0 -49 24 -89 53 -89zM501 164c30 0 53 40 53 89c0 47 -23 87 -53 87c-29 0 -53 -40 -53 -87c0 -49 24 -89 53 -89z" />
    <glyph glyph-name="T_T" unicode="TT" horiz-adv-x="1353" 
d="M1239 700l88 20v-223l-101 149h-144v-587l63 -59h-285l61 59v587h-194l-52 -149l-49 149h-194v-587l62 -59h-285l62 59v587h-144l-101 -149v223l88 -20h475l88 20l88 -20h474z" />
    <glyph glyph-name="f_b" unicode="fb" horiz-adv-x="991" 
d="M739 509c103 0 216 -76 216 -241c0 -188 -148 -278 -289 -278c-45 0 -116 9 -162 31l-70 -31v674l-73 76c-57 -15 -109 -86 -109 -195v-46h125l-31 -68h-94v-371l63 -60h-276l62 59v372h-95l95 83v19c0 190 170 255 284 255c61 0 152 -13 200 -60v-218l-15 -77l5 -5
c33 44 93 81 164 81zM673 34c72 0 125 74 125 201c0 125 -49 190 -121 190c-31 0 -66 -12 -92 -36v-275c0 -49 41 -80 88 -80z" />
    <glyph glyph-name="f_f" unicode="ff" horiz-adv-x="719" 
d="M669 740c-57 -15 -84 -86 -84 -195v-46h160l-31 -68h-129v-360l99 -71h-312l62 59v372h-182v-371l63 -60h-276l62 59v372h-95l95 83v6c0 179 160 240 279 240c43 0 95 -7 139 -28c47 39 108 56 163 56c60 0 120 -13 168 -60l-100 -79zM252 499h182v28c0 40 6 74 16 104
l-71 81c-78 -15 -127 -81 -127 -179v-34z" />
    <glyph glyph-name="f_f_b" unicode="ffb" horiz-adv-x="1324" 
d="M1072 509c103 0 216 -76 216 -241c0 -188 -148 -278 -289 -278c-45 0 -116 9 -162 31l-70 -31v674l-73 76c-57 -15 -109 -86 -109 -195v-46h125l-31 -68h-94v-371l63 -60h-276l62 59v372h-182v-371l63 -60h-276l62 59v372h-95l95 83v6c0 179 160 240 279 240
c46 0 102 -8 148 -32c58 43 131 60 190 60c61 0 152 -13 200 -60v-218l-15 -77l5 -5c33 44 93 81 164 81zM434 499v34c0 37 6 69 17 97l-72 82c-78 -15 -127 -81 -127 -179v-34h182zM1006 34c72 0 125 74 125 201c0 125 -49 190 -121 190c-31 0 -66 -12 -92 -36v-275
c0 -49 41 -80 88 -80z" />
    <glyph glyph-name="f_f_f" unicode="fff" horiz-adv-x="1044" 
d="M995 740c-58 -15 -85 -86 -85 -195v-46h160l-30 -68h-130v-360l99 -71h-312l62 59v372h-178v-371l63 -60h-276l62 59v372h-178v-371l63 -60h-276l62 59v372h-95l95 83c0 179 175 240 294 240c43 0 95 -7 138 -28c53 35 117 48 172 48c47 0 104 -8 150 -33
c45 33 101 47 152 47c61 0 120 -13 168 -60l-100 -79zM581 499h178v28c0 45 7 83 20 115l-75 84c-78 -16 -123 -82 -123 -193v-34zM252 499h178v21c0 46 9 85 24 117l-60 69c-78 -16 -142 -82 -142 -179v-28z" />
    <glyph glyph-name="f_f_h" unicode="ffh" horiz-adv-x="1335" 
d="M1041 0l62 60v270c0 70 -31 89 -79 89c-26 0 -64 -7 -106 -38v-321l63 -60h-277l63 60v604l-73 76c-58 -15 -109 -86 -109 -195v-46h124l-30 -68h-94v-371l63 -60h-276l62 59v372h-182v-371l63 -60h-276l62 59v372h-95l95 83v6c0 179 160 240 279 240
c46 0 102 -8 148 -32c58 43 131 60 190 60c60 0 151 -13 200 -60v-222l-15 -85l5 -5c49 51 107 93 200 93c74 0 146 -33 146 -147v-302l63 -60h-276zM434 499v34c0 37 6 69 17 97l-72 82c-78 -15 -127 -81 -127 -179v-34h182z" />
    <glyph glyph-name="f_f_i" unicode="ffi" horiz-adv-x="999" 
d="M918 60l63 -60h-277l63 60v371h-182v-371l63 -60h-276l62 59v372h-182v-371l63 -60h-276l62 59v372h-95l95 83v6c0 179 160 240 279 240c46 0 101 -7 146 -31c57 42 131 59 198 59c61 0 132 -13 180 -60l-100 -79l-81 91c-81 -15 -138 -86 -138 -195v-46h333v-439z
M252 499h182v34c0 37 6 69 17 97l-72 82c-78 -15 -127 -81 -127 -179v-34z" />
    <glyph glyph-name="f_f_j" unicode="ffj" horiz-adv-x="983" 
d="M585 499h333v-498c-1 -138 -84 -219 -216 -261l-5 5c53 68 70 141 70 255v431h-182v-371l63 -60h-276l62 59v372h-182v-371l63 -60h-276l62 59v372h-95l95 83v6c0 179 160 240 279 240c46 0 101 -7 146 -31c57 42 131 59 198 59c61 0 132 -13 180 -60l-100 -79l-81 91
c-81 -15 -138 -86 -138 -195v-46zM252 499h182v34c0 37 6 69 17 97l-72 82c-78 -15 -127 -81 -127 -179v-34z" />
    <glyph glyph-name="f_f_k" unicode="ffk" horiz-adv-x="1307" 
d="M918 728v-668l63 -60h-277l63 60v604l-73 76c-57 -15 -109 -86 -109 -195v-46h125l-31 -68h-94v-371l63 -60h-276l62 59v372h-182v-371l63 -60h-276l62 59v372h-95l95 83v6c0 179 160 240 279 240c46 0 102 -8 148 -32c58 43 131 60 190 60c61 0 152 -13 200 -60z
M434 499v34c0 37 6 69 17 97l-72 82c-78 -15 -127 -81 -127 -179v-34h182zM1083 309c81 -152 136 -253 237 -309v-10c-180 -20 -256 23 -370 268l174 160l-88 81h241z" />
    <glyph glyph-name="f_f_l" unicode="ffl" horiz-adv-x="999" 
d="M918 60l63 -60h-277l63 60v604l-73 76c-57 -15 -109 -86 -109 -195v-46h125l-31 -68h-94v-371l63 -60h-276l62 59v372h-182v-371l63 -60h-276l62 59v372h-95l95 83v6c0 179 160 240 279 240c46 0 102 -8 148 -32c58 43 131 60 190 60c61 0 152 -13 200 -60v-668zM434 499
v34c0 37 6 69 17 97l-72 82c-78 -15 -127 -81 -127 -179v-34h182z" />
    <glyph glyph-name="f_h" unicode="fh" horiz-adv-x="1002" 
d="M707 0l62 60v270c0 70 -31 89 -79 89c-26 0 -64 -7 -105 -37v-322l63 -60h-277l63 60v604l-73 76c-57 -15 -109 -86 -109 -195v-46h125l-31 -68h-94v-371l63 -60h-276l62 59v372h-95l95 83v19c0 190 170 255 284 255c61 0 152 -13 200 -60v-222l-15 -85l4 -4
c49 50 107 92 200 92c74 0 146 -33 146 -147v-302l63 -60h-276z" />
    <glyph glyph-name="f_i" unicode="fi" horiz-adv-x="666" 
d="M585 60l63 -60h-277l63 60v371h-182v-371l63 -60h-276l62 59v372h-95l95 83v19c0 190 166 255 290 255c61 0 132 -13 180 -60l-100 -79l-81 91c-75 -15 -138 -86 -138 -195v-46h333v-439z" />
    <glyph glyph-name="f_j" unicode="fj" horiz-adv-x="651" 
d="M252 499h333v-498c-1 -138 -84 -219 -216 -261l-5 5c53 68 70 141 70 255v431h-182v-371l63 -60h-276l62 59v372h-95l95 83v19c0 190 166 255 290 255c61 0 132 -13 180 -60l-100 -79l-81 91c-75 -15 -138 -86 -138 -195v-46z" />
    <glyph glyph-name="f_k" unicode="fk" horiz-adv-x="974" 
d="M585 728v-668l63 -60h-277l63 60v604l-73 76c-57 -15 -109 -86 -109 -195v-46h125l-31 -68h-94v-371l63 -60h-276l62 59v372h-95l95 83v19c0 190 170 255 284 255c61 0 152 -13 200 -60zM750 309c82 -152 136 -253 237 -309v-10c-180 -20 -256 23 -370 268l175 160
l-89 81h241z" />
    <glyph glyph-name="f_l" unicode="fl" horiz-adv-x="666" 
d="M585 60l63 -60h-277l63 60v604l-73 76c-57 -15 -109 -86 -109 -195v-46h125l-31 -68h-94v-371l63 -60h-276l62 59v372h-95l95 83v19c0 190 170 255 284 255c61 0 152 -13 200 -60v-668z" />
    <glyph glyph-name="f_v" unicode="fv" horiz-adv-x="957" 
d="M762 499h203l-70 -60l-220 -469h-6l-239 461h-178v-360l99 -71h-312l62 59v372h-95l95 83v19c0 190 134 255 248 255c61 0 120 -13 168 -60l-100 -79l-80 91c-58 -15 -85 -86 -85 -195v-46h414l-63 -60l113 -241l115 241z" />
    <glyph glyph-name="f_w" unicode="fw" horiz-adv-x="1237" 
d="M1043 499h202l-70 -60l-196 -469h-6l-177 351l-165 -351h-6l-230 461h-143v-360l99 -71h-312l62 59v372h-95l95 83v19c0 190 134 255 248 255c61 0 120 -13 168 -60l-100 -79l-80 91c-58 -15 -85 -86 -85 -195v-46h377l-63 -60l110 -240l88 188l-57 112h237l-35 -60
l110 -234l93 234z" />
    <glyph glyph-name="f_y" unicode="fy" horiz-adv-x="954" 
d="M891 439l-253 -571l122 -108h-241l132 277l-218 394h-181v-360l99 -71h-312l62 59v372h-95l95 83v19c0 190 134 255 248 255c61 0 120 -13 168 -60l-100 -79l-80 91c-58 -15 -85 -86 -85 -195v-46h414l-63 -60l125 -233l100 233l-69 60h203z" />
    <glyph glyph-name="t_t" unicode="tt" horiz-adv-x="839" 
d="M733 106c33 0 68 11 106 41l5 -5c-25 -103 -92 -152 -179 -152c-104 0 -165 72 -165 164v277h-252v-229c0 -51 15 -96 82 -96c33 0 68 11 106 41l5 -5c-25 -103 -92 -152 -179 -152c-104 0 -165 72 -165 164v277h-102l253 180v-112h198l-2 -5l31 -8l176 125v-112h198
l-30 -68h-168v-229c0 -51 15 -96 82 -96z" />
    <glyph glyph-name=".notdef" horiz-adv-x="791" 
d="M395 700c196 0 355 -159 355 -355s-159 -355 -355 -355s-355 159 -355 355s159 355 355 355zM573 430l26 10c-36 86 -119 136 -204 136s-168 -50 -204 -136l26 -10c41 83 111 111 178 111s137 -28 178 -111zM288 164c30 0 53 40 53 89c0 47 -23 87 -53 87
c-29 0 -53 -40 -53 -87c0 -49 24 -89 53 -89zM501 164c30 0 53 40 53 89c0 47 -23 87 -53 87c-29 0 -53 -40 -53 -87c0 -49 24 -89 53 -89z" />
    <glyph glyph-name="A" unicode="A" horiz-adv-x="733" 
d="M687 54l64 -54h-308l62 59v1l-75 171h-234l-71 -160v-1l98 -70h-198l338 741h6zM220 285h187l-93 213z" />
    <glyph glyph-name="Aacute" unicode="&#xc1;" horiz-adv-x="733" 
d="M595 930l-276 -168l-5 5l119 163h162zM687 54l64 -54h-308l62 59v1l-75 171h-234l-71 -160v-1l98 -70h-198l338 741h6zM220 285h187l-93 213z" />
    <glyph glyph-name="Abreve" unicode="&#x102;" horiz-adv-x="733" 
d="M362 759c-89 0 -161 69 -166 165l5 5c49 -62 98 -81 161 -81s112 19 162 81l5 -5c-5 -96 -77 -165 -167 -165zM687 54l64 -54h-308l62 59v1l-75 171h-234l-71 -160v-1l98 -70h-198l338 741h6zM220 285h187l-93 213z" />
    <glyph glyph-name="Acircumflex" unicode="&#xc2;" horiz-adv-x="733" 
d="M362 839l-171 -77l-5 5l176 188l177 -188l-5 -5zM687 54l64 -54h-308l62 59v1l-75 171h-234l-71 -160v-1l98 -70h-198l338 741h6zM220 285h187l-93 213z" />
    <glyph glyph-name="Adieresis" unicode="&#xc4;" horiz-adv-x="733" 
d="M248 771c-39 0 -73 33 -73 72s34 72 73 72s72 -33 72 -72s-33 -72 -72 -72zM479 771c-39 0 -73 33 -73 72s34 72 73 72s72 -33 72 -72s-33 -72 -72 -72zM687 54l64 -54h-308l62 59v1l-75 171h-234l-71 -160v-1l98 -70h-198l338 741h6zM220 285h187l-93 213z" />
    <glyph glyph-name="Agrave" unicode="&#xc0;" horiz-adv-x="733" 
d="M410 767l-5 -5l-276 168h162zM687 54l64 -54h-308l62 59v1l-75 171h-234l-71 -160v-1l98 -70h-198l338 741h6zM220 285h187l-93 213z" />
    <glyph glyph-name="Amacron" unicode="&#x100;" horiz-adv-x="733" 
d="M547 883v-85h-370v85h370zM687 54l64 -54h-308l62 59v1l-75 171h-234l-71 -160v-1l98 -70h-198l338 741h6zM220 285h187l-93 213z" />
    <glyph glyph-name="Aogonek" unicode="&#x104;" horiz-adv-x="757" 
d="M687 54l64 -54h-215c-47 -35 -60 -74 -60 -109c0 -47 22 -61 53 -61c21 0 39 6 60 22l5 -5c-17 -57 -58 -97 -117 -97c-63 0 -102 44 -102 103c0 56 31 129 146 187l-85 191h-241l-72 -160l99 -71h-197l338 741h6zM220 285h191l-95 213z" />
    <glyph glyph-name="Aring" unicode="&#xc5;" horiz-adv-x="733" 
d="M687 54l64 -54h-308l62 59v1l-75 171h-234l-71 -160v-1l98 -70h-198l321 703c-63 9 -113 64 -113 127c0 70 59 129 130 129c70 0 129 -59 129 -129c0 -61 -47 -115 -106 -126zM276 830c0 -49 37 -87 87 -87c49 0 87 38 87 87c0 50 -38 88 -87 88c-50 0 -87 -38 -87 -88z
M220 285h187l-93 213z" />
    <glyph glyph-name="Atilde" unicode="&#xc3;" horiz-adv-x="733" 
d="M288 803c-73 0 -116 64 -119 152h5c25 -48 57 -59 84 -59c65 0 109 59 178 59c72 0 116 -64 119 -152h-5c-26 49 -58 59 -84 59c-65 0 -110 -59 -178 -59zM687 54l64 -54h-308l62 59v1l-75 171h-234l-71 -160v-1l98 -70h-198l338 741h6zM220 285h187l-93 213z" />
    <glyph glyph-name="AE" unicode="&#xc6;" horiz-adv-x="957" 
d="M816 54l102 150v-204h-498v254h-203l-114 -183v-1l98 -70h-219l412 648l-73 52h567v-204l-102 150h-205v-263h143l81 99v-248l-81 95h-143v-275h235zM251 307h169v271z" />
    <glyph glyph-name="B" unicode="B" horiz-adv-x="715" 
d="M514 362c104 -22 166 -75 166 -166c0 -120 -113 -196 -292 -196h-355l63 60v580l-63 60h352c159 0 258 -67 258 -176c0 -78 -48 -135 -129 -162zM351 646h-94v-261h94c94 0 132 59 132 130c0 72 -38 131 -132 131zM350 54c114 0 162 56 162 136c0 85 -48 141 -162 141
h-93v-277h93z" />
    <glyph glyph-name="C" unicode="C" horiz-adv-x="712" 
d="M676 195l5 -5c-59 -147 -174 -200 -289 -200c-182 0 -352 138 -352 353c0 233 192 367 398 367c52 0 111 -9 165 -27l55 23v-123s-1 0 -1 1v-130l-128 191c-28 8 -55 11 -79 11c-138 0 -240 -97 -240 -276c0 -173 98 -276 241 -276c66 0 148 22 225 91z" />
    <glyph glyph-name="Cacute" unicode="&#x106;" horiz-adv-x="712" 
d="M647 930l-276 -168l-5 5l119 163h162zM676 195l5 -5c-59 -147 -174 -200 -289 -200c-182 0 -352 138 -352 353c0 233 192 367 398 367c52 0 111 -9 165 -27l55 23v-123s-1 0 -1 1v-130l-128 191c-28 8 -55 11 -79 11c-138 0 -240 -97 -240 -276c0 -173 98 -276 241 -276
c66 0 148 22 225 91z" />
    <glyph glyph-name="Ccaron" unicode="&#x10c;" horiz-adv-x="712" 
d="M591 930l-177 -188l-176 188l5 5l171 -77l172 77zM676 195l5 -5c-59 -147 -174 -200 -289 -200c-182 0 -352 138 -352 353c0 233 192 367 398 367c52 0 111 -9 165 -27l55 23v-123s-1 0 -1 1v-130l-128 191c-28 8 -55 11 -79 11c-138 0 -240 -97 -240 -276
c0 -173 98 -276 241 -276c66 0 148 22 225 91z" />
    <glyph glyph-name="Ccedilla" unicode="&#xc7;" horiz-adv-x="712" 
d="M681 190c-51 -128 -145 -185 -244 -197l-24 -57c69 -21 101 -56 101 -99c0 -56 -45 -87 -104 -87c-60 0 -103 36 -120 93l5 5c18 -13 43 -28 72 -28c28 0 45 13 45 41c0 23 -11 39 -53 58l31 71c-181 1 -350 139 -350 353c0 233 192 367 398 367c52 0 111 -9 165 -27
l55 23v-123s-1 0 -1 1v-130l-128 191c-28 8 -55 11 -79 11c-138 0 -240 -97 -240 -276c0 -173 98 -276 241 -276c66 0 148 22 225 91z" />
    <glyph glyph-name="Cdotaccent" unicode="&#x10a;" horiz-adv-x="712" 
d="M413 764c-45 0 -84 39 -84 84s39 83 84 83s84 -38 84 -83s-39 -84 -84 -84zM676 195l5 -5c-59 -147 -174 -200 -289 -200c-182 0 -352 138 -352 353c0 233 192 367 398 367c52 0 111 -9 165 -27l55 23v-123s-1 0 -1 1v-130l-128 191c-28 8 -55 11 -79 11
c-138 0 -240 -97 -240 -276c0 -173 98 -276 241 -276c66 0 148 22 225 91z" />
    <glyph glyph-name="D" unicode="D" horiz-adv-x="804" 
d="M396 700c194 0 367 -96 367 -333c0 -227 -173 -367 -367 -367h-363l63 60v580l-63 60h363zM378 54c130 0 214 108 214 299c0 201 -84 293 -214 293h-121v-592h121z" />
    <glyph glyph-name="Eth" unicode="&#xd0;" horiz-adv-x="804" 
d="M396 700c194 0 367 -96 367 -333c0 -227 -173 -367 -367 -367h-363l63 60v286h-85v49h85v245l-63 60h363zM378 54c130 0 214 108 214 299c0 201 -84 293 -214 293h-121v-251h129v-49h-129v-292h121z" />
    <glyph glyph-name="Dcaron" unicode="&#x10e;" horiz-adv-x="804" 
d="M569 930l-177 -188l-176 188l5 5l171 -77l172 77zM396 700c194 0 367 -96 367 -333c0 -227 -173 -367 -367 -367h-363l63 60v580l-63 60h363zM378 54c130 0 214 108 214 299c0 201 -84 293 -214 293h-121v-592h121z" />
    <glyph glyph-name="Dcroat" unicode="&#x110;" horiz-adv-x="804" 
d="M396 700c194 0 367 -96 367 -333c0 -227 -173 -367 -367 -367h-363l63 60v286h-85v49h85v245l-63 60h363zM378 54c130 0 214 108 214 299c0 201 -84 293 -214 293h-121v-251h129v-49h-129v-292h121z" />
    <glyph glyph-name="E" unicode="E" horiz-adv-x="630" 
d="M489 54l102 150v-150h-1v-54h-557l63 60v580l-63 60h531v-204l-102 150h-205v-259h143l81 95v-240l-81 91h-143v-279h232z" />
    <glyph glyph-name="Eacute" unicode="&#xc9;" horiz-adv-x="630" 
d="M554 930l-276 -168l-5 5l119 163h162zM489 54l102 150v-150h-1v-54h-557l63 60v580l-63 60h531v-204l-102 150h-205v-259h143l81 95v-240l-81 91h-143v-279h232z" />
    <glyph glyph-name="Ecaron" unicode="&#x11a;" horiz-adv-x="630" 
d="M498 930l-177 -188l-176 188l5 5l171 -77l172 77zM489 54l102 150v-150h-1v-54h-557l63 60v580l-63 60h531v-204l-102 150h-205v-259h143l81 95v-240l-81 91h-143v-279h232z" />
    <glyph glyph-name="Ecircumflex" unicode="&#xca;" horiz-adv-x="630" 
d="M321 839l-171 -77l-5 5l176 188l177 -188l-5 -5zM489 54l102 150v-150h-1v-54h-557l63 60v580l-63 60h531v-204l-102 150h-205v-259h143l81 95v-240l-81 91h-143v-279h232z" />
    <glyph glyph-name="Edieresis" unicode="&#xcb;" horiz-adv-x="630" 
d="M207 771c-39 0 -73 33 -73 72s34 72 73 72s72 -33 72 -72s-33 -72 -72 -72zM438 771c-39 0 -73 33 -73 72s34 72 73 72s72 -33 72 -72s-33 -72 -72 -72zM489 54l102 150v-150h-1v-54h-557l63 60v580l-63 60h531v-204l-102 150h-205v-259h143l81 95v-240l-81 91h-143v-279
h232z" />
    <glyph glyph-name="Edotaccent" unicode="&#x116;" horiz-adv-x="630" 
d="M320 764c-45 0 -84 39 -84 84s39 83 84 83s84 -38 84 -83s-39 -84 -84 -84zM489 54l102 150v-150h-1v-54h-557l63 60v580l-63 60h531v-204l-102 150h-205v-259h143l81 95v-240l-81 91h-143v-279h232z" />
    <glyph glyph-name="Egrave" unicode="&#xc8;" horiz-adv-x="630" 
d="M369 767l-5 -5l-276 168h162zM489 54l102 150v-150h-1v-54h-557l63 60v580l-63 60h531v-204l-102 150h-205v-259h143l81 95v-240l-81 91h-143v-279h232z" />
    <glyph glyph-name="Emacron" unicode="&#x112;" horiz-adv-x="630" 
d="M506 883v-85h-370v85h370zM489 54l102 150v-150h-1v-54h-557l63 60v580l-63 60h531v-204l-102 150h-205v-259h143l81 95v-240l-81 91h-143v-279h232z" />
    <glyph glyph-name="Eogonek" unicode="&#x118;" horiz-adv-x="630" 
d="M618 -148l5 -5c-16 -56 -56 -97 -120 -97c-57 0 -99 37 -99 95c0 53 26 105 118 155h-489l63 60v580l-63 60h531v-204l-102 150h-205v-259h143l81 95v-240l-81 91h-143v-279h232l102 150v-150h-1v-54c-55 -39 -84 -74 -84 -116c0 -39 23 -54 53 -54c20 0 39 6 59 22z" />
    <glyph glyph-name="F" unicode="F" horiz-adv-x="578" 
d="M554 700v-204l-102 150h-195v-293h177l83 102v-257l-83 101h-177v-228l99 -71h-323l63 60v580l-63 60h521z" />
    <glyph glyph-name="G" unicode="G" horiz-adv-x="760" 
d="M697 338v-342l-62 36c-64 -30 -140 -42 -207 -42c-221 0 -388 127 -388 352c0 243 194 368 400 368c55 0 120 -9 177 -28l55 28v-238l-112 168c-37 12 -71 16 -100 16c-147 0 -249 -96 -249 -280c0 -183 101 -307 246 -307c27 0 62 4 100 16v165l-159 88h299z" />
    <glyph glyph-name="Gbreve" unicode="&#x11e;" horiz-adv-x="760" 
d="M410 759c-89 0 -161 69 -166 165l5 5c49 -62 98 -81 161 -81s112 19 162 81l5 -5c-5 -96 -77 -165 -167 -165zM697 338v-342l-62 36c-64 -30 -140 -42 -207 -42c-221 0 -388 127 -388 352c0 243 194 368 400 368c55 0 120 -9 177 -28l55 28v-238l-112 168
c-37 12 -71 16 -100 16c-147 0 -249 -96 -249 -280c0 -183 101 -307 246 -307c27 0 62 4 100 16v165l-159 88h299z" />
    <glyph glyph-name="Gcommaaccent" unicode="&#x122;" horiz-adv-x="760" 
d="M697 338v-342l-62 36c-64 -30 -140 -42 -207 -42c-221 0 -388 127 -388 352c0 243 194 368 400 368c55 0 120 -9 177 -28l55 28v-238l-112 168c-37 12 -71 16 -100 16c-147 0 -249 -96 -249 -280c0 -183 101 -307 246 -307c27 0 62 4 100 16v165l-159 88h299zM414 -52
c35 0 65 -21 65 -75c0 -69 -60 -133 -150 -157l-2 4c38 23 63 61 63 97c0 27 -13 53 -39 71c0 32 26 60 63 60z" />
    <glyph glyph-name="Gdotaccent" unicode="&#x120;" horiz-adv-x="760" 
d="M409 764c-45 0 -84 39 -84 84s39 83 84 83s84 -38 84 -83s-39 -84 -84 -84zM697 338v-342l-62 36c-64 -30 -140 -42 -207 -42c-221 0 -388 127 -388 352c0 243 194 368 400 368c55 0 120 -9 177 -28l55 28v-238l-112 168c-37 12 -71 16 -100 16
c-147 0 -249 -96 -249 -280c0 -183 101 -307 246 -307c27 0 62 4 100 16v165l-159 88h299z" />
    <glyph glyph-name="H" unicode="H" horiz-adv-x="857" 
d="M761 640v-580l63 -60h-287l63 60v281h-343v-281l63 -60h-287l63 60v580l-63 60h287l-63 -60v-245h343v245l-63 60h287z" />
    <glyph glyph-name="Hbar" unicode="&#x126;" horiz-adv-x="857" 
d="M838 505h-77v-445l63 -60h-287l63 60v281h-343v-281l63 -60h-287l63 60v445h-77v54h77v81l-63 60h287l-63 -60v-81h343v81l-63 60h287l-63 -60v-81h77v-54zM600 395v110h-343v-110h343z" />
    <glyph glyph-name="I" unicode="I" horiz-adv-x="363" 
d="M262 640v-580l63 -60h-287l63 60v580l-63 60h287z" />
    <glyph glyph-name="Iacute" unicode="&#xcd;" horiz-adv-x="363" 
d="M414 930l-276 -168l-5 5l119 163h162zM325 700l-63 -60v-580l63 -60h-287l63 60v580l-63 60h287z" />
    <glyph glyph-name="Icircumflex" unicode="&#xce;" horiz-adv-x="363" 
d="M181 955l177 -188l-5 -5l-172 77l-171 -77l-5 5zM325 700l-63 -60v-580l63 -60h-287l63 60v580l-63 60h287z" />
    <glyph glyph-name="Idieresis" unicode="&#xcf;" horiz-adv-x="363" 
d="M139 843c0 -39 -33 -72 -72 -72s-73 33 -73 72s34 72 73 72s72 -33 72 -72zM298 915c39 0 72 -33 72 -72s-33 -72 -72 -72s-73 33 -73 72s34 72 73 72zM325 700l-63 -60v-580l63 -60h-287l63 60v580l-63 60h287z" />
    <glyph glyph-name="Idotaccent" unicode="&#x130;" horiz-adv-x="363" 
d="M180 764c-45 0 -84 39 -84 84s39 83 84 83s84 -38 84 -83s-39 -84 -84 -84zM262 640v-580l63 -60h-287l63 60v580l-63 60h287z" />
    <glyph glyph-name="Igrave" unicode="&#xcc;" horiz-adv-x="363" 
d="M229 767l-5 -5l-276 168h162zM262 640v-580l63 -60h-287l63 60v580l-63 60h287z" />
    <glyph glyph-name="Imacron" unicode="&#x12a;" horiz-adv-x="363" 
d="M-4 883h370v-85h-370v85zM325 700l-63 -60v-580l63 -60h-287l63 60v580l-63 60h287z" />
    <glyph glyph-name="Iogonek" unicode="&#x12e;" horiz-adv-x="363" 
d="M262 640v-580l63 -60h-112c-55 -39 -84 -74 -84 -116c0 -39 23 -54 53 -54c20 0 39 6 59 22l5 -5c-16 -56 -56 -97 -120 -97c-57 0 -99 37 -99 95c0 53 26 105 118 155h-107l63 60v580l-63 60h287z" />
    <glyph glyph-name="J" unicode="J" horiz-adv-x="360" 
d="M332 700l-63 -60v-606c-1 -157 -81 -239 -236 -274l-5 5c53 68 80 131 80 245v630l-63 60h287z" />
    <glyph glyph-name="K" unicode="K" horiz-adv-x="752" 
d="M257 640v-580l63 -60h-287l63 60v580l-63 60h287zM451 417c130 -222 195 -359 332 -417v-5c-221 -20 -310 34 -482 362l268 264l-87 79h252z" />
    <glyph glyph-name="Kcommaaccent" unicode="&#x136;" horiz-adv-x="752" 
d="M257 60l63 -60h-287l63 60v580l-63 60h287l-63 -60v-580zM451 417c130 -222 195 -359 332 -417v-5c-221 -20 -310 34 -482 362l268 264l-87 79h252zM390 -52c35 0 65 -21 65 -75c0 -69 -60 -133 -150 -157l-2 4c38 23 63 61 63 97c0 27 -13 53 -39 71c0 32 26 60 63 60z
" />
    <glyph glyph-name="L" unicode="L" horiz-adv-x="616" 
d="M485 54l105 156v-210h-557l63 60v580l-63 60h286l-62 -59v-587h228z" />
    <glyph glyph-name="Lacute" unicode="&#x139;" horiz-adv-x="616" 
d="M409 930l-276 -168l-5 5l119 163h162zM485 54l105 156v-210h-557l63 60v580l-63 60h286l-62 -59v-587h228z" />
    <glyph glyph-name="Lcaron" unicode="&#x13d;" horiz-adv-x="630" 
d="M404 463c42 26 69 67 69 107c0 30 -14 58 -43 78c0 35 29 67 70 67c39 0 71 -23 71 -83c0 -76 -66 -146 -165 -173zM485 54l105 156v-210h-557l63 60v580l-63 60h286l-62 -59v-587h228z" />
    <glyph glyph-name="Lcommaaccent" unicode="&#x13b;" horiz-adv-x="616" 
d="M485 54l105 156v-210h-557l63 60v580l-63 60h286l-62 -59v-587h228zM349 -58c35 0 65 -21 65 -75c0 -69 -60 -133 -150 -157l-2 4c38 23 63 61 63 97c0 27 -13 53 -39 71c0 32 26 60 63 60z" />
    <glyph glyph-name="Lslash" unicode="&#x141;" horiz-adv-x="640" 
d="M509 54l105 156v-210h-557l63 60v188l-96 -63v64l96 63v328l-63 60h286l-62 -59v-235l163 107v-64l-163 -107v-288h228z" />
    <glyph glyph-name="M" unicode="M" horiz-adv-x="932" 
d="M836 60l63 -60h-287l63 60v451l-251 -390l-261 385v-435l99 -71h-229l63 60v580l-63 60h180l262 -385l246 385h177l-62 -59v-581z" />
    <glyph glyph-name="N" unicode="N" horiz-adv-x="795" 
d="M772 700l-63 -60v-678h-6l-540 520v-411l99 -71h-229l63 60v580l-63 60h126l483 -467v396l-99 71h229z" />
    <glyph glyph-name="Nacute" unicode="&#x143;" horiz-adv-x="795" 
d="M637 930l-276 -168l-5 5l119 163h162zM772 700l-63 -60v-678h-6l-540 520v-411l99 -71h-229l63 60v580l-63 60h126l483 -467v396l-99 71h229z" />
    <glyph glyph-name="Ncaron" unicode="&#x147;" horiz-adv-x="795" 
d="M581 930l-177 -188l-176 188l5 5l171 -77l172 77zM772 700l-63 -60v-678h-6l-540 520v-411l99 -71h-229l63 60v580l-63 60h126l483 -467v396l-99 71h229z" />
    <glyph glyph-name="Ncommaaccent" unicode="&#x145;" horiz-adv-x="795" 
d="M772 700l-63 -60v-678h-6l-540 520v-411l99 -71h-229l63 60v580l-63 60h126l483 -467v396l-99 71h229zM408 -52c35 0 65 -21 65 -75c0 -69 -60 -133 -150 -157l-2 4c38 23 63 61 63 97c0 27 -13 53 -39 71c0 32 26 60 63 60z" />
    <glyph glyph-name="Eng" unicode="&#x14a;" horiz-adv-x="795" 
d="M772 700l-63 -60v-601c0 -162 -71 -244 -192 -279l-5 5c83 62 122 128 128 253l-477 464v-411l99 -71h-229l63 60v580l-63 60h126l483 -467v396l-99 71h229z" />
    <glyph glyph-name="Ntilde" unicode="&#xd1;" horiz-adv-x="795" 
d="M320 767c-73 0 -116 64 -119 152h5c25 -49 57 -59 84 -59c65 0 129 59 198 59c72 0 116 -64 119 -152h-5c-26 48 -58 59 -84 59c-65 0 -130 -59 -198 -59zM772 700l-63 -60v-678h-6l-540 520v-411l99 -71h-229l63 60v580l-63 60h126l483 -467v396l-99 71h229z" />
    <glyph glyph-name="O" unicode="O" horiz-adv-x="811" 
d="M408 710c186 0 363 -122 363 -357s-177 -363 -368 -363c-185 0 -363 122 -363 357s178 363 368 363zM420 44c118 0 180 108 180 288c0 218 -91 324 -209 324c-117 0 -180 -108 -180 -288c0 -218 91 -324 209 -324z" />
    <glyph glyph-name="Oacute" unicode="&#xd3;" horiz-adv-x="811" 
d="M363 762l-5 5l119 163h162zM408 710c186 0 363 -122 363 -357s-177 -363 -368 -363c-185 0 -363 122 -363 357s178 363 368 363zM420 44c118 0 180 108 180 288c0 218 -91 324 -209 324c-117 0 -180 -108 -180 -288c0 -218 91 -324 209 -324z" />
    <glyph glyph-name="Ocircumflex" unicode="&#xd4;" horiz-adv-x="811" 
d="M406 839l-171 -77l-5 5l176 188l177 -188l-5 -5zM408 710c186 0 363 -122 363 -357s-177 -363 -368 -363c-185 0 -363 122 -363 357s178 363 368 363zM420 44c118 0 180 108 180 288c0 218 -91 324 -209 324c-117 0 -180 -108 -180 -288c0 -218 91 -324 209 -324z" />
    <glyph glyph-name="Odieresis" unicode="&#xd6;" horiz-adv-x="811" 
d="M292 771c-39 0 -73 33 -73 72s34 72 73 72s72 -33 72 -72s-33 -72 -72 -72zM523 771c-39 0 -73 33 -73 72s34 72 73 72s72 -33 72 -72s-33 -72 -72 -72zM408 710c186 0 363 -122 363 -357s-177 -363 -368 -363c-185 0 -363 122 -363 357s178 363 368 363zM420 44
c118 0 180 108 180 288c0 218 -91 324 -209 324c-117 0 -180 -108 -180 -288c0 -218 91 -324 209 -324z" />
    <glyph glyph-name="Ograve" unicode="&#xd2;" horiz-adv-x="811" 
d="M449 762l-276 168h162l119 -163zM408 710c186 0 363 -122 363 -357s-177 -363 -368 -363c-185 0 -363 122 -363 357s178 363 368 363zM420 44c118 0 180 108 180 288c0 218 -91 324 -209 324c-117 0 -180 -108 -180 -288c0 -218 91 -324 209 -324z" />
    <glyph glyph-name="Ohungarumlaut" unicode="&#x150;" horiz-adv-x="811" 
d="M289 762l-5 5l90 163h143zM490 762l-5 5l90 163h143zM408 710c186 0 363 -122 363 -357s-177 -363 -368 -363c-185 0 -363 122 -363 357s178 363 368 363zM420 44c118 0 180 108 180 288c0 218 -91 324 -209 324c-117 0 -180 -108 -180 -288c0 -218 91 -324 209 -324z
" />
    <glyph glyph-name="Omacron" unicode="&#x14c;" horiz-adv-x="811" 
d="M221 883h370v-85h-370v85zM408 710c186 0 363 -122 363 -357s-177 -363 -368 -363c-185 0 -363 122 -363 357s178 363 368 363zM420 44c118 0 180 108 180 288c0 218 -91 324 -209 324c-117 0 -180 -108 -180 -288c0 -218 91 -324 209 -324z" />
    <glyph glyph-name="Oslash" unicode="&#xd8;" horiz-adv-x="811" 
d="M635 639c81 -59 136 -155 136 -286c0 -235 -177 -363 -368 -363c-67 0 -133 16 -190 48l-48 -69l-39 27l47 67c-79 60 -133 155 -133 284c0 235 178 363 368 363c66 0 130 -15 186 -45l41 58l38 -29zM211 368c0 -83 13 -149 36 -200l289 413c-37 50 -88 75 -145 75
c-117 0 -180 -108 -180 -288zM420 44c118 0 180 108 180 288c0 85 -14 153 -38 204l-289 -414c37 -52 89 -78 147 -78z" />
    <glyph glyph-name="Otilde" unicode="&#xd5;" horiz-adv-x="811" 
d="M490 919c72 0 116 -64 119 -152h-5c-26 48 -58 59 -84 59c-65 0 -130 -59 -198 -59c-73 0 -116 64 -119 152h5c25 -49 57 -59 84 -59c65 0 129 59 198 59zM408 710c186 0 363 -122 363 -357s-177 -363 -368 -363c-185 0 -363 122 -363 357s178 363 368 363zM420 44
c118 0 180 108 180 288c0 218 -91 324 -209 324c-117 0 -180 -108 -180 -288c0 -218 91 -324 209 -324z" />
    <glyph glyph-name="OE" unicode="&#x152;" horiz-adv-x="1046" 
d="M905 54l102 150v-150h-1v-54h-598c-195 0 -368 133 -368 360c0 237 173 340 368 340h568v-54h1v-150l-102 150h-206v-259h144l80 99v-248l-80 95h-144v-279h236zM508 54v592h-83c-130 0 -214 -95 -214 -296c0 -191 84 -296 214 -296h83z" />
    <glyph glyph-name="P" unicode="P" horiz-adv-x="656" 
d="M352 279h-95v-208l99 -71h-323l63 60v580l-63 60h319c166 0 287 -58 287 -196c0 -137 -121 -225 -287 -225zM257 646v-314h73c90 0 145 59 145 160c0 102 -55 154 -145 154h-73z" />
    <glyph glyph-name="Thorn" unicode="&#xde;" horiz-adv-x="709" 
d="M369 598c173 0 300 -73 300 -234c0 -162 -127 -248 -300 -248h-112v-56l63 -60h-287l63 60v580l-63 60h287l-63 -60v-42h112zM348 170c96 0 157 61 157 187c0 125 -61 187 -157 187h-91v-374h91z" />
    <glyph glyph-name="Q" unicode="Q" horiz-adv-x="811" 
d="M504 2c29 -78 112 -155 220 -183v-5c-164 -10 -298 41 -384 181c-161 25 -300 144 -300 352c0 235 178 363 368 363c186 0 363 -122 363 -357c0 -193 -119 -314 -267 -351zM211 368c0 -218 91 -324 209 -324s180 108 180 288c0 218 -91 324 -209 324
c-117 0 -180 -108 -180 -288z" />
    <glyph glyph-name="R" unicode="R" horiz-adv-x="727" 
d="M484 349c78 -157 155 -285 274 -349v-5c-241 -20 -318 95 -453 364c128 15 168 78 168 153c0 86 -55 134 -135 134h-81v-586l63 -60h-287l63 60v580l-63 60h327c157 0 277 -53 277 -174c0 -86 -61 -145 -153 -177z" />
    <glyph glyph-name="Racute" unicode="&#x154;" horiz-adv-x="727" 
d="M588 930l-276 -168l-5 5l119 163h162zM484 349c78 -157 155 -285 274 -349v-5c-241 -20 -318 95 -453 364c128 15 168 78 168 153c0 86 -55 134 -135 134h-81v-586l63 -60h-287l63 60v580l-63 60h327c157 0 277 -53 277 -174c0 -86 -61 -145 -153 -177z" />
    <glyph glyph-name="Rcaron" unicode="&#x158;" horiz-adv-x="727" 
d="M532 930l-177 -188l-176 188l5 5l171 -77l172 77zM484 349c78 -157 155 -285 274 -349v-5c-241 -20 -318 95 -453 364c128 15 168 78 168 153c0 86 -55 134 -135 134h-81v-586l63 -60h-287l63 60v580l-63 60h327c157 0 277 -53 277 -174c0 -86 -61 -145 -153 -177z" />
    <glyph glyph-name="Rcommaaccent" unicode="&#x156;" horiz-adv-x="727" 
d="M484 349c78 -157 155 -285 274 -349v-5c-241 -20 -318 95 -453 364c128 15 168 78 168 153c0 86 -55 134 -135 134h-81v-586l63 -60h-287l63 60v580l-63 60h327c157 0 277 -53 277 -174c0 -86 -61 -145 -153 -177zM375 -52c35 0 65 -21 65 -75c0 -69 -60 -133 -150 -157
l-2 4c38 23 63 61 63 97c0 27 -13 53 -39 71c0 32 26 60 63 60z" />
    <glyph glyph-name="S" unicode="S" horiz-adv-x="595" 
d="M208 551c0 -146 349 -114 349 -357c0 -146 -126 -204 -257 -204c-63 0 -118 13 -170 33l-69 -32v238l113 -155c34 -18 69 -28 108 -28c97 0 124 57 124 105c0 170 -343 136 -343 360c0 123 103 199 251 199c54 0 101 -10 145 -27l61 27v-235l-123 169
c-21 8 -43 12 -66 12c-99 0 -123 -65 -123 -105z" />
    <glyph glyph-name="Sacute" unicode="&#x15a;" horiz-adv-x="595" 
d="M537 930l-276 -168l-5 5l119 163h162zM208 551c0 -146 349 -114 349 -357c0 -146 -126 -204 -257 -204c-63 0 -118 13 -170 33l-69 -32v238l113 -155c34 -18 69 -28 108 -28c97 0 124 57 124 105c0 170 -343 136 -343 360c0 123 103 199 251 199c54 0 101 -10 145 -27
l61 27v-235l-123 169c-21 8 -43 12 -66 12c-99 0 -123 -65 -123 -105z" />
    <glyph glyph-name="Scaron" unicode="&#x160;" horiz-adv-x="595" 
d="M481 930l-177 -188l-176 188l5 5l171 -77l172 77zM208 551c0 -146 349 -114 349 -357c0 -146 -126 -204 -257 -204c-63 0 -118 13 -170 33l-69 -32v238l113 -155c34 -18 69 -28 108 -28c97 0 124 57 124 105c0 170 -343 136 -343 360c0 123 103 199 251 199
c54 0 101 -10 145 -27l61 27v-235l-123 169c-21 8 -43 12 -66 12c-99 0 -123 -65 -123 -105z" />
    <glyph glyph-name="Scedilla" unicode="&#x15e;" horiz-adv-x="595" 
d="M557 194c0 -136 -110 -196 -231 -203l-23 -55c69 -21 101 -56 101 -99c0 -56 -45 -87 -104 -87c-60 0 -103 36 -120 93l5 5c18 -13 43 -28 72 -28c28 0 45 13 45 41c0 23 -11 39 -53 58l31 71c-55 3 -103 15 -150 33l-69 -32v238l113 -155c34 -18 69 -28 108 -28
c97 0 124 57 124 105c0 170 -343 136 -343 360c0 123 103 199 251 199c54 0 101 -10 145 -27l61 27v-235l-123 169c-21 8 -43 12 -66 12c-99 0 -123 -65 -123 -105c0 -146 349 -114 349 -357z" />
    <glyph glyph-name="Scommaaccent" unicode="&#x218;" horiz-adv-x="595" 
d="M208 551c0 -146 349 -114 349 -357c0 -146 -126 -204 -257 -204c-63 0 -118 13 -170 33l-69 -32v238l113 -155c34 -18 69 -28 108 -28c97 0 124 57 124 105c0 170 -343 136 -343 360c0 123 103 199 251 199c54 0 101 -10 145 -27l61 27v-235l-123 169
c-21 8 -43 12 -66 12c-99 0 -123 -65 -123 -105zM308 -52c35 0 65 -21 65 -75c0 -69 -60 -133 -150 -157l-2 4c38 23 63 61 63 97c0 27 -13 53 -39 71c0 32 26 60 63 60z" />
    <glyph glyph-name="uni1E9E" unicode="&#x1e9e;" horiz-adv-x="757" 
d="M483 458c154 -29 239 -127 239 -244c0 -133 -111 -224 -255 -224c-79 0 -132 23 -171 60l66 79l104 -85c56 13 98 74 98 146c0 87 -58 150 -147 174l-39 -57l-52 37l211 302h-299v-646h-228l63 60v640h578z" />
    <glyph glyph-name="T" unicode="T" horiz-adv-x="703" 
d="M589 700l88 20v-224l-102 150h-143v-587l62 -59h-285l62 59v587h-143l-102 -150v224l88 -20h475z" />
    <glyph glyph-name="Tbar" unicode="&#x166;" horiz-adv-x="703" 
d="M589 700l88 20v-224l-102 150h-143v-247h163v-54h-163v-286l62 -59h-285l62 59v286h-163v54h163v247h-143l-102 -150v224l88 -20h475z" />
    <glyph glyph-name="Tcaron" unicode="&#x164;" horiz-adv-x="703" 
d="M528 930l-177 -188l-176 188l5 5l171 -77l172 77zM589 700l88 20v-224l-102 150h-143v-587l62 -59h-285l62 59v587h-143l-102 -150v224l88 -20h475z" />
    <glyph glyph-name="uni0162" unicode="&#x162;" horiz-adv-x="703" 
d="M589 700l88 20v-224l-102 150h-143v-587l62 -59h-117l-27 -64c69 -21 101 -56 101 -99c0 -56 -45 -87 -104 -87c-60 0 -103 36 -120 93l5 5c18 -13 43 -28 72 -28c28 0 45 13 45 41c0 23 -11 39 -53 58l35 81h-122l62 59v587h-143l-102 -150v224l88 -20h475z" />
    <glyph glyph-name="uni021A" unicode="&#x21a;" horiz-adv-x="703" 
d="M589 700l88 20v-224l-102 150h-143v-587l62 -59h-285l62 59v587h-143l-102 -150v224l88 -20h475zM355 -52c35 0 65 -21 65 -75c0 -69 -60 -133 -150 -157l-2 4c38 23 63 61 63 97c0 27 -13 53 -39 71c0 32 26 60 63 60z" />
    <glyph glyph-name="U" unicode="U" horiz-adv-x="764" 
d="M754 700l-63 -60v-348c0 -202 -103 -302 -285 -302c-177 0 -325 93 -325 292v358l-63 60h287l-63 -60v-348c0 -155 68 -239 192 -239c123 0 190 84 190 239v337l-99 71h229z" />
    <glyph glyph-name="Uacute" unicode="&#xda;" horiz-adv-x="764" 
d="M654 930l-276 -168l-5 5l119 163h162zM754 700l-63 -60v-348c0 -202 -103 -302 -285 -302c-177 0 -325 93 -325 292v358l-63 60h287l-63 -60v-348c0 -155 68 -239 192 -239c123 0 190 84 190 239v337l-99 71h229z" />
    <glyph glyph-name="Ucircumflex" unicode="&#xdb;" horiz-adv-x="764" 
d="M421 839l-171 -77l-5 5l176 188l177 -188l-5 -5zM754 700l-63 -60v-348c0 -202 -103 -302 -285 -302c-177 0 -325 93 -325 292v358l-63 60h287l-63 -60v-348c0 -155 68 -239 192 -239c123 0 190 84 190 239v337l-99 71h229z" />
    <glyph glyph-name="Udieresis" unicode="&#xdc;" horiz-adv-x="764" 
d="M307 771c-39 0 -73 33 -73 72s34 72 73 72s72 -33 72 -72s-33 -72 -72 -72zM538 771c-39 0 -73 33 -73 72s34 72 73 72s72 -33 72 -72s-33 -72 -72 -72zM754 700l-63 -60v-348c0 -202 -103 -302 -285 -302c-177 0 -325 93 -325 292v358l-63 60h287l-63 -60v-348
c0 -155 68 -239 192 -239c123 0 190 84 190 239v337l-99 71h229z" />
    <glyph glyph-name="Ugrave" unicode="&#xd9;" horiz-adv-x="764" 
d="M469 767l-5 -5l-276 168h162zM754 700l-63 -60v-348c0 -202 -103 -302 -285 -302c-177 0 -325 93 -325 292v358l-63 60h287l-63 -60v-348c0 -155 68 -239 192 -239c123 0 190 84 190 239v337l-99 71h229z" />
    <glyph glyph-name="Uhungarumlaut" unicode="&#x170;" horiz-adv-x="764" 
d="M532 930l-228 -168l-5 5l90 163h143zM505 762l-5 5l90 163h143zM754 700l-63 -60v-348c0 -202 -103 -302 -285 -302c-177 0 -325 93 -325 292v358l-63 60h287l-63 -60v-348c0 -155 68 -239 192 -239c123 0 190 84 190 239v337l-99 71h229z" />
    <glyph glyph-name="Umacron" unicode="&#x16a;" horiz-adv-x="764" 
d="M606 883v-85h-370v85h370zM754 700l-63 -60v-348c0 -202 -103 -302 -285 -302c-177 0 -325 93 -325 292v358l-63 60h287l-63 -60v-348c0 -155 68 -239 192 -239c123 0 190 84 190 239v337l-99 71h229z" />
    <glyph glyph-name="Uogonek" unicode="&#x172;" horiz-adv-x="764" 
d="M754 700l-63 -60v-348c0 -165 -69 -262 -193 -292h9c-55 -39 -84 -74 -84 -116c0 -39 23 -54 53 -54c20 0 39 6 59 22l5 -5c-16 -56 -56 -97 -120 -97c-57 0 -99 37 -99 95c0 50 23 98 101 145h-16c-177 0 -325 93 -325 292v358l-63 60h287l-63 -60v-348
c0 -155 68 -239 192 -239c123 0 190 84 190 239v337l-99 71h229z" />
    <glyph glyph-name="Uring" unicode="&#x16e;" horiz-adv-x="764" 
d="M421 725c-71 0 -130 59 -130 128c0 70 59 129 130 129c70 0 129 -59 129 -129c0 -69 -59 -128 -129 -128zM421 941c-50 0 -87 -38 -87 -88c0 -49 37 -87 87 -87c49 0 87 38 87 87c0 50 -38 88 -87 88zM754 700l-63 -60v-348c0 -202 -103 -302 -285 -302
c-177 0 -325 93 -325 292v358l-63 60h287l-63 -60v-348c0 -155 68 -239 192 -239c123 0 190 84 190 239v337l-99 71h229z" />
    <glyph glyph-name="V" unicode="V" horiz-adv-x="756" 
d="M764 700l-70 -59v-1l-293 -674h-6l-324 676l-69 58h317l-63 -60l191 -423l173 412l-99 71h243z" />
    <glyph glyph-name="W" unicode="W" horiz-adv-x="1077" 
d="M1085 700l-71 -60l-232 -674h-6l-224 521l-205 -521h-6l-277 681l-62 53h311l-63 -60l148 -393l120 319l-58 134h219l-20 -60l159 -393l125 382l-99 71h241z" />
    <glyph glyph-name="Wacute" unicode="&#x1e82;" horiz-adv-x="1077" 
d="M779 930l-276 -168l-5 5l119 163h162zM1085 700l-71 -60l-232 -674h-6l-224 521l-205 -521h-6l-277 681l-62 53h311l-63 -60l148 -393l120 319l-58 134h219l-20 -60l159 -393l125 382l-99 71h241z" />
    <glyph glyph-name="Wcircumflex" unicode="&#x174;" horiz-adv-x="1077" 
d="M546 839l-171 -77l-5 5l176 188l177 -188l-5 -5zM1085 700l-71 -60l-232 -674h-6l-224 521l-205 -521h-6l-277 681l-62 53h311l-63 -60l148 -393l120 319l-58 134h219l-20 -60l159 -393l125 382l-99 71h241z" />
    <glyph glyph-name="Wdieresis" unicode="&#x1e84;" horiz-adv-x="1077" 
d="M432 771c-39 0 -73 33 -73 72s34 72 73 72s72 -33 72 -72s-33 -72 -72 -72zM663 771c-39 0 -73 33 -73 72s34 72 73 72s72 -33 72 -72s-33 -72 -72 -72zM1085 700l-71 -60l-232 -674h-6l-224 521l-205 -521h-6l-277 681l-62 53h311l-63 -60l148 -393l120 319l-58 134h219
l-20 -60l159 -393l125 382l-99 71h241z" />
    <glyph glyph-name="Wgrave" unicode="&#x1e80;" horiz-adv-x="1077" 
d="M594 767l-5 -5l-276 168h162zM1085 700l-71 -60l-232 -674h-6l-224 521l-205 -521h-6l-277 681l-62 53h311l-63 -60l148 -393l120 319l-58 134h219l-20 -60l159 -393l125 382l-99 71h241z" />
    <glyph glyph-name="X" unicode="X" horiz-adv-x="719" 
d="M677 53l63 -53h-323l63 60l-166 238l-165 -238v-1l69 -59h-216l71 60l203 293l-207 298l-58 49h320l-63 -60l151 -217l156 217l-70 60h216l-71 -60l-194 -270z" />
    <glyph glyph-name="Y" unicode="Y" horiz-adv-x="725" 
d="M670 640l-216 -332v-248l63 -60h-286l62 59v248l-227 339l-64 54h312l-63 -60l172 -263l167 252l-99 71h242z" />
    <glyph glyph-name="Yacute" unicode="&#xdd;" horiz-adv-x="725" 
d="M640 930l-276 -168l-5 5l119 163h162zM670 640l-216 -332v-248l63 -60h-286l62 59v248l-227 339l-64 54h312l-63 -60l172 -263l167 252l-99 71h242z" />
    <glyph glyph-name="Ycircumflex" unicode="&#x176;" horiz-adv-x="725" 
d="M407 885l-171 -116l-5 5l176 227l177 -227l-5 -5zM670 640l-216 -332v-248l63 -60h-286l62 59v248l-227 339l-64 54h312l-63 -60l172 -263l167 252l-99 71h242z" />
    <glyph glyph-name="Ydieresis" unicode="&#x178;" horiz-adv-x="725" 
d="M293 808c-39 0 -73 33 -73 72s34 72 73 72s72 -33 72 -72s-33 -72 -72 -72zM524 808c-39 0 -73 33 -73 72s34 72 73 72s72 -33 72 -72s-33 -72 -72 -72zM670 640l-216 -332v-248l63 -60h-286l62 59v248l-227 339l-64 54h312l-63 -60l172 -263l167 252l-99 71h242z" />
    <glyph glyph-name="Ygrave" unicode="&#x1ef2;" horiz-adv-x="725" 
d="M454 780l-5 -5l-229 207h152zM670 640l-216 -332v-248l63 -60h-286l62 59v248l-227 339l-64 54h312l-63 -60l172 -263l167 252l-99 71h242z" />
    <glyph glyph-name="Z" unicode="Z" horiz-adv-x="694" 
d="M238 54h315l102 150v-150h-1v-54h-635l420 646h-264l-102 -150v150h1v74l88 -20h496z" />
    <glyph glyph-name="Zacute" unicode="&#x179;" horiz-adv-x="694" 
d="M599 930l-276 -168l-5 5l119 163h162zM238 54h315l102 150v-150h-1v-54h-635l420 646h-264l-102 -150v150h1v74l88 -20h496z" />
    <glyph glyph-name="Zcaron" unicode="&#x17d;" horiz-adv-x="694" 
d="M543 930l-177 -188l-176 188l5 5l171 -77l172 77zM238 54h315l102 150v-150h-1v-54h-635l420 646h-264l-102 -150v150h1v74l88 -20h496z" />
    <glyph glyph-name="Zdotaccent" unicode="&#x17b;" horiz-adv-x="694" 
d="M365 764c-45 0 -84 39 -84 84s39 83 84 83s84 -38 84 -83s-39 -84 -84 -84zM238 54h315l102 150v-150h-1v-54h-635l420 646h-264l-102 -150v150h1v74l88 -20h496z" />
    <glyph glyph-name="a" unicode="a" horiz-adv-x="568" 
d="M564 95l5 -5c-24 -72 -71 -100 -127 -100c-52 0 -90 25 -109 72h-5c-32 -43 -81 -72 -147 -72c-85 0 -141 47 -141 123c0 59 34 101 75 124h208v65c0 79 -35 105 -101 105c-46 0 -95 -12 -152 -50l-5 5c46 87 128 147 237 147c108 0 170 -58 170 -160v-221
c0 -41 18 -52 42 -52c16 0 31 5 50 19zM241 65c27 0 54 13 82 39v94h-120c-17 -18 -26 -41 -26 -66c0 -46 29 -67 64 -67z" />
    <glyph glyph-name="aacute" unicode="&#xe1;" horiz-adv-x="568" 
d="M480 781l-229 -207l-5 5l82 202h152zM564 95l5 -5c-24 -72 -71 -100 -127 -100c-52 0 -90 25 -109 72h-5c-32 -43 -81 -72 -147 -72c-85 0 -141 47 -141 123c0 59 34 101 75 124h208v65c0 79 -35 105 -101 105c-46 0 -95 -12 -152 -50l-5 5c46 87 128 147 237 147
c108 0 170 -58 170 -160v-221c0 -41 18 -52 42 -52c16 0 31 5 50 19zM241 65c27 0 54 13 82 39v94h-120c-17 -18 -26 -41 -26 -66c0 -46 29 -67 64 -67z" />
    <glyph glyph-name="abreve" unicode="&#x103;" horiz-adv-x="568" 
d="M294 592c-83 0 -161 73 -166 195l5 5c46 -88 101 -111 161 -111c61 0 116 23 162 111l5 -5c-5 -122 -83 -195 -167 -195zM564 95l5 -5c-24 -72 -71 -100 -127 -100c-52 0 -90 25 -109 72h-5c-32 -43 -81 -72 -147 -72c-85 0 -141 47 -141 123c0 59 34 101 75 124h208v65
c0 79 -35 105 -101 105c-46 0 -95 -12 -152 -50l-5 5c46 87 128 147 237 147c108 0 170 -58 170 -160v-221c0 -41 18 -52 42 -52c16 0 31 5 50 19zM241 65c27 0 54 13 82 39v94h-120c-17 -18 -26 -41 -26 -66c0 -46 29 -67 64 -67z" />
    <glyph glyph-name="acircumflex" unicode="&#xe2;" horiz-adv-x="568" 
d="M294 684l-171 -116l-5 5l176 227l177 -227l-5 -5zM564 95l5 -5c-24 -72 -71 -100 -127 -100c-52 0 -90 25 -109 72h-5c-32 -43 -81 -72 -147 -72c-85 0 -141 47 -141 123c0 59 34 101 75 124h208v65c0 79 -35 105 -101 105c-46 0 -95 -12 -152 -50l-5 5
c46 87 128 147 237 147c108 0 170 -58 170 -160v-221c0 -41 18 -52 42 -52c16 0 31 5 50 19zM241 65c27 0 54 13 82 39v94h-120c-17 -18 -26 -41 -26 -66c0 -46 29 -67 64 -67z" />
    <glyph glyph-name="adieresis" unicode="&#xe4;" horiz-adv-x="568" 
d="M180 607c-39 0 -73 33 -73 72s34 72 73 72s72 -33 72 -72s-33 -72 -72 -72zM411 607c-39 0 -73 33 -73 72s34 72 73 72s72 -33 72 -72s-33 -72 -72 -72zM564 95l5 -5c-24 -72 -71 -100 -127 -100c-52 0 -90 25 -109 72h-5c-32 -43 -81 -72 -147 -72
c-85 0 -141 47 -141 123c0 59 34 101 75 124h208v65c0 79 -35 105 -101 105c-46 0 -95 -12 -152 -50l-5 5c46 87 128 147 237 147c108 0 170 -58 170 -160v-221c0 -41 18 -52 42 -52c16 0 31 5 50 19zM241 65c27 0 54 13 82 39v94h-120c-17 -18 -26 -41 -26 -66
c0 -46 29 -67 64 -67z" />
    <glyph glyph-name="agrave" unicode="&#xe0;" horiz-adv-x="568" 
d="M341 579l-5 -5l-229 207h152zM564 95l5 -5c-24 -72 -71 -100 -127 -100c-52 0 -90 25 -109 72h-5c-32 -43 -81 -72 -147 -72c-85 0 -141 47 -141 123c0 59 34 101 75 124h208v65c0 79 -35 105 -101 105c-46 0 -95 -12 -152 -50l-5 5c46 87 128 147 237 147
c108 0 170 -58 170 -160v-221c0 -41 18 -52 42 -52c16 0 31 5 50 19zM241 65c27 0 54 13 82 39v94h-120c-17 -18 -26 -41 -26 -66c0 -46 29 -67 64 -67z" />
    <glyph glyph-name="amacron" unicode="&#x101;" horiz-adv-x="568" 
d="M467 708v-84h-344v84h344zM564 95l5 -5c-24 -72 -71 -100 -127 -100c-52 0 -90 25 -109 72h-5c-32 -43 -81 -72 -147 -72c-85 0 -141 47 -141 123c0 59 34 101 75 124h208v65c0 79 -35 105 -101 105c-46 0 -95 -12 -152 -50l-5 5c46 87 128 147 237 147
c108 0 170 -58 170 -160v-221c0 -41 18 -52 42 -52c16 0 31 5 50 19zM241 65c27 0 54 13 82 39v94h-120c-17 -18 -26 -41 -26 -66c0 -46 29 -67 64 -67z" />
    <glyph glyph-name="aogonek" unicode="&#x105;" horiz-adv-x="568" 
d="M502 -164c21 0 39 6 60 22l5 -5c-17 -56 -58 -97 -122 -97c-61 0 -103 37 -103 98c0 46 31 94 94 136c-49 2 -85 27 -103 72h-5c-32 -43 -81 -72 -147 -72c-85 0 -141 47 -141 123c0 59 34 101 75 124h208v65c0 79 -35 105 -101 105c-46 0 -95 -12 -152 -50l-5 5
c46 87 128 147 237 147c108 0 170 -58 170 -160v-221c0 -41 18 -52 42 -52c16 0 31 5 50 19l5 -5c-15 -44 -38 -72 -67 -87c-37 -36 -58 -76 -58 -108c0 -46 28 -59 58 -59zM241 65c27 0 54 13 82 39v94h-120c-17 -18 -26 -41 -26 -66c0 -46 29 -67 64 -67z" />
    <glyph glyph-name="aring" unicode="&#xe5;" horiz-adv-x="568" 
d="M294 567c-71 0 -130 58 -130 127c0 71 59 130 130 130c70 0 129 -59 129 -130c0 -69 -59 -127 -129 -127zM294 784c-50 0 -86 -39 -86 -90c0 -49 36 -88 86 -88c49 0 85 39 85 88c0 51 -36 90 -85 90zM564 95l5 -5c-24 -72 -71 -100 -127 -100c-52 0 -90 25 -109 72h-5
c-32 -43 -81 -72 -147 -72c-85 0 -141 47 -141 123c0 59 34 101 75 124h208v65c0 79 -35 105 -101 105c-46 0 -95 -12 -152 -50l-5 5c46 87 128 147 237 147c108 0 170 -58 170 -160v-221c0 -41 18 -52 42 -52c16 0 31 5 50 19zM241 65c27 0 54 13 82 39v94h-120
c-17 -18 -26 -41 -26 -66c0 -46 29 -67 64 -67z" />
    <glyph glyph-name="atilde" unicode="&#xe3;" horiz-adv-x="568" 
d="M220 602c-73 0 -116 64 -119 152h5c25 -48 57 -59 84 -59c65 0 109 59 178 59c72 0 116 -64 119 -152h-5c-26 49 -58 59 -84 59c-65 0 -110 -59 -178 -59zM564 95l5 -5c-24 -72 -71 -100 -127 -100c-52 0 -90 25 -109 72h-5c-32 -43 -81 -72 -147 -72
c-85 0 -141 47 -141 123c0 59 34 101 75 124h208v65c0 79 -35 105 -101 105c-46 0 -95 -12 -152 -50l-5 5c46 87 128 147 237 147c108 0 170 -58 170 -160v-221c0 -41 18 -52 42 -52c16 0 31 5 50 19zM241 65c27 0 54 13 82 39v94h-120c-17 -18 -26 -41 -26 -66
c0 -46 29 -67 64 -67z" />
    <glyph glyph-name="ae" unicode="&#xe6;" horiz-adv-x="843" 
d="M641 106c42 0 103 11 160 55l5 -5c-36 -118 -116 -166 -217 -166c-102 0 -182 51 -224 130c-26 -85 -89 -130 -172 -130c-94 0 -153 47 -153 123c0 59 34 101 75 124h218v65c0 79 -35 105 -105 105c-46 0 -94 -12 -152 -50l-5 5c47 87 128 147 237 147
c57 0 100 -16 128 -46c44 30 99 46 159 46c124 0 208 -70 217 -204h-334v-2c0 -123 54 -197 163 -197zM583 467c-54 0 -93 -44 -103 -123h181c0 75 -21 123 -78 123zM238 65c38 0 88 37 94 133h-129c-16 -17 -26 -39 -26 -66c0 -47 29 -67 61 -67z" />
    <glyph glyph-name="b" unicode="b" horiz-adv-x="617" 
d="M365 509c103 0 216 -76 216 -241c0 -188 -148 -278 -289 -278c-45 0 -116 9 -162 31l-70 -31v652l-57 55l208 91v-278l-15 -77l5 -5c33 44 93 81 164 81zM299 34c72 0 125 74 125 201c0 125 -49 190 -121 190c-31 0 -66 -12 -92 -36v-275c0 -49 41 -80 88 -80z" />
    <glyph glyph-name="c" unicode="c" horiz-adv-x="524" 
d="M345 106c39 0 92 11 149 55l5 -5c-36 -117 -115 -166 -214 -166c-148 0 -250 114 -250 261c0 173 138 258 272 258c86 0 152 -28 192 -80l-98 -78l-93 114c-66 -4 -120 -67 -120 -176c0 -110 57 -183 157 -183z" />
    <glyph glyph-name="cacute" unicode="&#x107;" horiz-adv-x="524" 
d="M474 781l-229 -207l-5 5l82 202h152zM345 106c39 0 92 11 149 55l5 -5c-36 -117 -115 -166 -214 -166c-148 0 -250 114 -250 261c0 173 138 258 272 258c86 0 152 -28 192 -80l-98 -78l-93 114c-66 -4 -120 -67 -120 -176c0 -110 57 -183 157 -183z" />
    <glyph glyph-name="ccaron" unicode="&#x10d;" horiz-adv-x="524" 
d="M467 795l-177 -227l-176 227l5 5l171 -116l172 116zM345 106c39 0 92 11 149 55l5 -5c-36 -117 -115 -166 -214 -166c-148 0 -250 114 -250 261c0 173 138 258 272 258c86 0 152 -28 192 -80l-98 -78l-93 114c-66 -4 -120 -67 -120 -176c0 -110 57 -183 157 -183z" />
    <glyph glyph-name="ccedilla" unicode="&#xe7;" horiz-adv-x="524" 
d="M345 106c39 0 92 11 149 55l5 -5c-33 -107 -102 -157 -189 -165l-23 -55c69 -21 101 -56 101 -99c0 -56 -45 -87 -104 -87c-60 0 -103 36 -120 93l5 5c18 -13 43 -28 72 -28c28 0 45 13 45 41c0 23 -11 39 -53 58l31 72c-137 10 -229 120 -229 260c0 173 138 258 272 258
c86 0 152 -28 192 -80l-98 -78l-93 114c-66 -4 -120 -67 -120 -176c0 -110 57 -183 157 -183z" />
    <glyph glyph-name="cdotaccent" unicode="&#x10b;" horiz-adv-x="524" 
d="M287 585c-45 0 -84 39 -84 84s39 83 84 83s84 -38 84 -83s-39 -84 -84 -84zM345 106c39 0 92 11 149 55l5 -5c-36 -117 -115 -166 -214 -166c-148 0 -250 114 -250 261c0 173 138 258 272 258c86 0 152 -28 192 -80l-98 -78l-93 114c-66 -4 -120 -67 -120 -176
c0 -110 57 -183 157 -183z" />
    <glyph glyph-name="d" unicode="d" horiz-adv-x="642" 
d="M557 111l66 -55l-164 -71l-38 86h-5c-33 -44 -93 -81 -164 -81c-103 0 -217 76 -217 241c0 188 149 278 290 278c23 0 52 -2 81 -7v140l-56 55l207 91v-677zM314 75c31 0 66 11 92 35v275c0 49 -41 80 -88 80c-72 0 -125 -74 -125 -201c0 -125 49 -189 121 -189z" />
    <glyph glyph-name="eth" unicode="&#xf0;" horiz-adv-x="614" 
d="M380 687c132 -93 199 -240 199 -424c0 -196 -130 -273 -270 -273s-274 87 -274 250c0 162 134 249 274 249c33 0 65 -4 95 -12c-21 64 -54 113 -97 154l-116 -90l-30 39l106 82c-44 32 -98 57 -160 78l17 48c82 -15 152 -39 212 -73l106 82l30 -38zM320 34
c75 0 97 84 97 184c0 132 -35 227 -119 227c-75 0 -98 -84 -98 -184c0 -132 48 -227 120 -227z" />
    <glyph glyph-name="dcaron" unicode="&#x10f;" horiz-adv-x="793" 
d="M557 788v-677l66 -55l-164 -71l-38 86h-5c-33 -44 -93 -81 -164 -81c-103 0 -217 76 -217 241c0 188 149 278 290 278c23 0 52 -2 81 -7v140l-56 55zM620 788h149l-71 -299h-5zM314 75c31 0 66 11 92 35v275c0 49 -41 80 -88 80c-72 0 -125 -74 -125 -201
c0 -125 49 -189 121 -189z" />
    <glyph glyph-name="dcroat" unicode="&#x111;" horiz-adv-x="642" 
d="M643 565h-86v-454l66 -55l-164 -71l-38 86h-5c-33 -44 -93 -81 -164 -81c-103 0 -217 76 -217 241c0 188 149 278 290 278c23 0 52 -2 81 -7v63h-138v49h138v28l-56 55l207 91v-174h86v-49zM314 75c31 0 66 11 92 35v275c0 49 -41 80 -88 80c-72 0 -125 -74 -125 -201
c0 -125 49 -189 121 -189z" />
    <glyph glyph-name="e" unicode="e" horiz-adv-x="545" 
d="M346 106c42 0 101 11 157 55l5 -5c-35 -118 -116 -166 -216 -166c-154 0 -257 114 -257 264c0 161 117 255 265 255c125 0 213 -66 215 -204h-336v-1c0 -126 60 -198 167 -198zM284 467c-54 0 -93 -45 -103 -123h181c0 75 -28 123 -78 123z" />
    <glyph glyph-name="e_breve" horiz-adv-x="545" 
d="M294 592c-83 0 -161 73 -166 195l5 5c46 -88 101 -111 161 -111c61 0 116 23 162 111l5 -5c-5 -122 -83 -195 -167 -195zM346 106c42 0 101 11 157 55l5 -5c-35 -118 -116 -166 -216 -166c-154 0 -257 114 -257 264c0 161 117 255 265 255c125 0 213 -66 215 -204h-336
v-1c0 -126 60 -198 167 -198zM284 467c-54 0 -93 -45 -103 -123h181c0 75 -28 123 -78 123z" />
    <glyph glyph-name="eacute" unicode="&#xe9;" horiz-adv-x="545" 
d="M480 781l-229 -207l-5 5l82 202h152zM346 106c42 0 101 11 157 55l5 -5c-35 -118 -116 -166 -216 -166c-154 0 -257 114 -257 264c0 161 117 255 265 255c125 0 213 -66 215 -204h-336v-1c0 -126 60 -198 167 -198zM284 467c-54 0 -93 -45 -103 -123h181
c0 75 -28 123 -78 123z" />
    <glyph glyph-name="ecaron" unicode="&#x11b;" horiz-adv-x="545" 
d="M473 795l-177 -227l-176 227l5 5l171 -116l172 116zM346 106c42 0 101 11 157 55l5 -5c-35 -118 -116 -166 -216 -166c-154 0 -257 114 -257 264c0 161 117 255 265 255c125 0 213 -66 215 -204h-336v-1c0 -126 60 -198 167 -198zM284 467c-54 0 -93 -45 -103 -123h181
c0 75 -28 123 -78 123z" />
    <glyph glyph-name="ecircumflex" unicode="&#xea;" horiz-adv-x="545" 
d="M294 684l-171 -116l-5 5l176 227l177 -227l-5 -5zM346 106c42 0 101 11 157 55l5 -5c-35 -118 -116 -166 -216 -166c-154 0 -257 114 -257 264c0 161 117 255 265 255c125 0 213 -66 215 -204h-336v-1c0 -126 60 -198 167 -198zM284 467c-54 0 -93 -45 -103 -123h181
c0 75 -28 123 -78 123z" />
    <glyph glyph-name="edieresis" unicode="&#xeb;" horiz-adv-x="545" 
d="M180 607c-39 0 -73 33 -73 72s34 72 73 72s72 -33 72 -72s-33 -72 -72 -72zM411 607c-39 0 -73 33 -73 72s34 72 73 72s72 -33 72 -72s-33 -72 -72 -72zM346 106c42 0 101 11 157 55l5 -5c-35 -118 -116 -166 -216 -166c-154 0 -257 114 -257 264c0 161 117 255 265 255
c125 0 213 -66 215 -204h-336v-1c0 -126 60 -198 167 -198zM284 467c-54 0 -93 -45 -103 -123h181c0 75 -28 123 -78 123z" />
    <glyph glyph-name="edotaccent" unicode="&#x117;" horiz-adv-x="545" 
d="M293 585c-45 0 -84 39 -84 84s39 83 84 83s84 -38 84 -83s-39 -84 -84 -84zM346 106c42 0 101 11 157 55l5 -5c-35 -118 -116 -166 -216 -166c-154 0 -257 114 -257 264c0 161 117 255 265 255c125 0 213 -66 215 -204h-336v-1c0 -126 60 -198 167 -198zM284 467
c-54 0 -93 -45 -103 -123h181c0 75 -28 123 -78 123z" />
    <glyph glyph-name="egrave" unicode="&#xe8;" horiz-adv-x="545" 
d="M341 579l-5 -5l-229 207h152zM346 106c42 0 101 11 157 55l5 -5c-35 -118 -116 -166 -216 -166c-154 0 -257 114 -257 264c0 161 117 255 265 255c125 0 213 -66 215 -204h-336v-1c0 -126 60 -198 167 -198zM284 467c-54 0 -93 -45 -103 -123h181c0 75 -28 123 -78 123z
" />
    <glyph glyph-name="emacron" unicode="&#x113;" horiz-adv-x="545" 
d="M467 708v-84h-344v84h344zM346 106c42 0 101 11 157 55l5 -5c-35 -118 -116 -166 -216 -166c-154 0 -257 114 -257 264c0 161 117 255 265 255c125 0 213 -66 215 -204h-336v-1c0 -126 60 -198 167 -198zM284 467c-54 0 -93 -45 -103 -123h181c0 75 -28 123 -78 123z" />
    <glyph glyph-name="eogonek" unicode="&#x119;" horiz-adv-x="545" 
d="M346 106c42 0 101 11 157 55l5 -5c-21 -72 -60 -118 -110 -143c-47 -40 -75 -87 -75 -124c0 -46 28 -59 58 -59c21 0 39 6 60 22l5 -5c-17 -56 -58 -97 -122 -97c-61 0 -103 37 -103 98c0 49 35 100 106 144c-11 -1 -23 -2 -35 -2c-154 0 -257 114 -257 264
c0 161 117 255 265 255c125 0 213 -66 215 -204h-336v-1c0 -126 60 -198 167 -198zM284 467c-54 0 -93 -45 -103 -123h181c0 75 -28 123 -78 123z" />
    <glyph glyph-name="f" unicode="f" horiz-adv-x="386" 
d="M337 740c-58 -15 -85 -86 -85 -195v-46h160l-30 -68h-130v-360l99 -71h-312l62 59v372h-95l95 83v19c0 190 134 255 248 255c61 0 120 -13 168 -60l-100 -79z" />
    <glyph glyph-name="g" unicode="g" horiz-adv-x="575" 
d="M568 506v-93l-112 40c30 -27 50 -63 50 -112c0 -119 -121 -167 -225 -167c-38 0 -79 7 -116 21c-24 -20 -34 -39 -34 -59c0 -24 15 -40 44 -40h306c51 -27 87 -78 87 -144c0 -107 -99 -202 -319 -202c-145 0 -227 46 -227 122c0 40 23 76 77 104c-38 25 -57 64 -57 108
c0 56 32 100 83 132c-41 26 -70 67 -70 125c0 120 122 168 226 168c36 0 73 -6 108 -18zM288 215c46 0 71 50 71 113c0 76 -36 140 -87 140c-46 0 -71 -50 -71 -114c0 -75 36 -139 87 -139zM346 -29h-184c-18 -21 -29 -47 -29 -78c0 -59 43 -99 136 -99
c103 0 151 47 151 108c0 43 -23 69 -74 69z" />
    <glyph glyph-name="gbreve" unicode="&#x11f;" horiz-adv-x="575" 
d="M291 592c-83 0 -161 73 -166 195l5 5c46 -88 101 -111 161 -111c61 0 116 23 162 111l5 -5c-5 -122 -83 -195 -167 -195zM568 506v-93l-112 40c30 -27 50 -63 50 -112c0 -119 -121 -167 -225 -167c-38 0 -79 7 -116 21c-24 -20 -34 -39 -34 -59c0 -24 15 -40 44 -40h306
c51 -27 87 -78 87 -144c0 -107 -99 -202 -319 -202c-145 0 -227 46 -227 122c0 40 23 76 77 104c-38 25 -57 64 -57 108c0 56 32 100 83 132c-41 26 -70 67 -70 125c0 120 122 168 226 168c36 0 73 -6 108 -18zM288 215c46 0 71 50 71 113c0 76 -36 140 -87 140
c-46 0 -71 -50 -71 -114c0 -75 36 -139 87 -139zM346 -29h-184c-18 -21 -29 -47 -29 -78c0 -59 43 -99 136 -99c103 0 151 47 151 108c0 43 -23 69 -74 69z" />
    <glyph glyph-name="gcommaaccent" unicode="&#x123;" horiz-adv-x="575" 
d="M276 588c-35 0 -65 21 -65 75c0 69 60 133 150 157l2 -4c-38 -23 -63 -61 -63 -97c0 -27 13 -53 39 -71c0 -32 -26 -60 -63 -60zM568 506v-93l-112 40c30 -27 50 -63 50 -112c0 -119 -121 -167 -225 -167c-38 0 -79 7 -116 21c-24 -20 -34 -39 -34 -59
c0 -24 15 -40 44 -40h306c51 -27 87 -78 87 -144c0 -107 -99 -202 -319 -202c-145 0 -227 46 -227 122c0 40 23 76 77 104c-38 25 -57 64 -57 108c0 56 32 100 83 132c-41 26 -70 67 -70 125c0 120 122 168 226 168c36 0 73 -6 108 -18zM288 215c46 0 71 50 71 113
c0 76 -36 140 -87 140c-46 0 -71 -50 -71 -114c0 -75 36 -139 87 -139zM346 -29h-184c-18 -21 -29 -47 -29 -78c0 -59 43 -99 136 -99c103 0 151 47 151 108c0 43 -23 69 -74 69z" />
    <glyph glyph-name="gdotaccent" unicode="&#x121;" horiz-adv-x="575" 
d="M290 585c-45 0 -84 39 -84 84s39 83 84 83s84 -38 84 -83s-39 -84 -84 -84zM568 506v-93l-112 40c30 -27 50 -63 50 -112c0 -119 -121 -167 -225 -167c-38 0 -79 7 -116 21c-24 -20 -34 -39 -34 -59c0 -24 15 -40 44 -40h306c51 -27 87 -78 87 -144
c0 -107 -99 -202 -319 -202c-145 0 -227 46 -227 122c0 40 23 76 77 104c-38 25 -57 64 -57 108c0 56 32 100 83 132c-41 26 -70 67 -70 125c0 120 122 168 226 168c36 0 73 -6 108 -18zM288 215c46 0 71 50 71 113c0 76 -36 140 -87 140c-46 0 -71 -50 -71 -114
c0 -75 36 -139 87 -139zM346 -29h-184c-18 -21 -29 -47 -29 -78c0 -59 43 -99 136 -99c103 0 151 47 151 108c0 43 -23 69 -74 69z" />
    <glyph glyph-name="h" unicode="h" horiz-adv-x="654" 
d="M23 0l63 60v582l-57 55l208 91v-282l-15 -85l5 -5c49 51 107 93 200 93c74 0 146 -33 146 -147v-302l63 -60h-276l62 60v270c0 70 -31 89 -79 89c-26 0 -64 -7 -106 -38v-321l63 -60h-277z" />
    <glyph glyph-name="hbar" unicode="&#x127;" horiz-adv-x="654" 
d="M360 0l62 60v270c0 70 -31 89 -79 89c-26 0 -64 -7 -106 -38v-321l63 -60h-277l63 60v505h-86v49h86v28l-57 55l208 91v-174h138v-49h-138v-59l-15 -85l5 -5c49 51 107 93 200 93c74 0 146 -33 146 -147v-302l63 -60h-276z" />
    <glyph glyph-name="i" unicode="i" horiz-adv-x="318" 
d="M156 575c-47 0 -86 39 -86 86c0 48 39 87 86 87c48 0 87 -39 87 -87c0 -47 -39 -86 -87 -86zM237 60l63 -60h-277l63 60v307l-57 55l208 91v-453z" />
    <glyph glyph-name="dotlessi" unicode="&#x131;" horiz-adv-x="318" 
d="M237 60l63 -60h-277l63 60v307l-57 55l208 91v-453z" />
    <glyph glyph-name="iacute" unicode="&#xed;" horiz-adv-x="318" 
d="M117 574l-5 5l82 202h152zM237 60l63 -60h-277l63 60v307l-57 55l208 91v-453z" />
    <glyph glyph-name="icircumflex" unicode="&#xee;" horiz-adv-x="318" 
d="M160 800l177 -227l-5 -5l-172 116l-171 -116l-5 5zM237 60l63 -60h-277l63 60v307l-57 55l208 91v-453z" />
    <glyph glyph-name="idieresis" unicode="&#xef;" horiz-adv-x="318" 
d="M46 607c-39 0 -73 33 -73 72s34 72 73 72s72 -33 72 -72s-33 -72 -72 -72zM277 607c-39 0 -73 33 -73 72s34 72 73 72s72 -33 72 -72s-33 -72 -72 -72zM237 60l63 -60h-277l63 60v307l-57 55l208 91v-453z" />
    <glyph glyph-name="i.loclTRK" horiz-adv-x="318" 
d="M159 585c-45 0 -84 39 -84 84s39 83 84 83s84 -38 84 -83s-39 -84 -84 -84zM237 60l63 -60h-277l63 60v307l-57 55l208 91v-453z" />
    <glyph glyph-name="igrave" unicode="&#xec;" horiz-adv-x="318" 
d="M202 574l-229 207h152l82 -202zM237 60l63 -60h-277l63 60v307l-57 55l208 91v-453z" />
    <glyph glyph-name="imacron" unicode="&#x12b;" horiz-adv-x="318" 
d="M-25 682h370v-85h-370v85zM237 60l63 -60h-277l63 60v307l-57 55l208 91v-453z" />
    <glyph glyph-name="iogonek" unicode="&#x12f;" horiz-adv-x="318" 
d="M159 563c-45 0 -84 39 -84 84s39 83 84 83s84 -38 84 -83s-39 -84 -84 -84zM187 -164c21 0 39 6 60 22l5 -5c-17 -56 -58 -97 -122 -97c-61 0 -103 37 -103 98c0 50 36 101 109 146h-113l63 60v307l-57 55l208 91v-453l63 -60h-116c-35 -35 -55 -74 -55 -105
c0 -46 28 -59 58 -59z" />
    <glyph glyph-name="j" unicode="j" horiz-adv-x="309" 
d="M156 575c-47 0 -86 39 -86 86c0 48 39 87 86 87c48 0 87 -39 87 -87c0 -47 -39 -86 -87 -86zM86 367l-57 55l208 91v-512c-1 -138 -84 -219 -216 -261l-5 5c53 68 70 141 70 255v367z" />
    <glyph glyph-name="k" unicode="k" horiz-adv-x="626" 
d="M237 60l63 -60h-277l63 60v582l-57 55l208 91v-728zM402 305c81 -152 136 -249 237 -305v-5c-180 -20 -256 18 -370 263l174 162l-88 79h241z" />
    <glyph glyph-name="kcommaaccent" unicode="&#x137;" horiz-adv-x="626" 
d="M237 60l63 -60h-277l63 60v582l-57 55l208 91v-728zM402 305c81 -152 136 -249 237 -305v-5c-180 -20 -256 18 -370 263l174 162l-88 79h241zM321 -52c35 0 65 -21 65 -75c0 -69 -60 -133 -150 -157l-2 4c38 23 63 61 63 97c0 27 -13 53 -39 71c0 32 26 60 63 60z" />
    <glyph glyph-name="l" unicode="l" horiz-adv-x="318" 
d="M237 60l63 -60h-277l63 60v582l-57 55l208 91v-728z" />
    <glyph glyph-name="lacute" unicode="&#x13a;" horiz-adv-x="318" 
d="M116 796l-5 5l119 163h162zM237 60l63 -60h-277l63 60v582l-57 55l208 91v-728z" />
    <glyph glyph-name="lcaron" unicode="&#x13e;" horiz-adv-x="473" 
d="M237 60l63 -60h-277l63 60v582l-57 55l208 91v-728zM372 489l-73 299h149l-71 -299h-5z" />
    <glyph glyph-name="lcommaaccent" unicode="&#x13c;" horiz-adv-x="318" 
d="M237 60l63 -60h-277l63 60v582l-57 55l208 91v-728zM165 -52c35 0 65 -21 65 -75c0 -69 -60 -133 -150 -157l-2 4c38 23 63 61 63 97c0 27 -13 53 -39 71c0 32 26 60 63 60z" />
    <glyph glyph-name="lslash" unicode="&#x142;" horiz-adv-x="333" 
d="M315 458l-87 -61v-337l63 -60h-277l63 60v239l-88 -62v66l88 62v277l-57 55l208 91v-325l87 60v-65z" />
    <glyph glyph-name="m" unicode="m" horiz-adv-x="958" 
d="M877 60l63 -60h-276l62 59v271c0 69 -23 89 -69 89c-29 0 -58 -7 -100 -38v-321l63 -60h-277l63 60v270c0 69 -23 89 -70 89c-28 0 -57 -7 -99 -38v-321l63 -60h-277l63 60v307l-57 55l208 91l-15 -92l5 -5c46 48 107 93 193 93c59 0 112 -21 130 -90
c46 47 106 90 191 90c73 0 136 -32 136 -147v-302z" />
    <glyph glyph-name="n" unicode="n" horiz-adv-x="654" 
d="M360 0l62 60v270c0 70 -31 89 -79 89c-26 0 -64 -7 -106 -38v-321l63 -60h-277l63 60v307l-57 55l208 91l-15 -92l5 -5c49 51 107 93 200 93c74 0 146 -33 146 -147v-302l63 -60h-276z" />
    <glyph glyph-name="nacute" unicode="&#x144;" horiz-adv-x="654" 
d="M541 781l-229 -207l-5 5l82 202h152zM360 0l62 60v270c0 70 -31 89 -79 89c-26 0 -64 -7 -106 -38v-321l63 -60h-277l63 60v307l-57 55l208 91l-15 -92l5 -5c49 51 107 93 200 93c74 0 146 -33 146 -147v-302l63 -60h-276z" />
    <glyph glyph-name="ncaron" unicode="&#x148;" horiz-adv-x="654" 
d="M534 795l-177 -227l-176 227l5 5l171 -116l172 116zM360 0l62 60v270c0 70 -31 89 -79 89c-26 0 -64 -7 -106 -38v-321l63 -60h-277l63 60v307l-57 55l208 91l-15 -92l5 -5c49 51 107 93 200 93c74 0 146 -33 146 -147v-302l63 -60h-276z" />
    <glyph glyph-name="ncommaaccent" unicode="&#x146;" horiz-adv-x="654" 
d="M237 60l63 -60h-277l63 60v307l-57 55l208 91l-15 -92l5 -5c49 51 107 93 200 93c74 0 146 -33 146 -147v-302l63 -60h-276l62 60v270c0 70 -31 89 -79 89c-26 0 -64 -7 -106 -38v-321zM331 -52c35 0 65 -21 65 -75c0 -69 -60 -133 -150 -157l-2 4c38 23 63 61 63 97
c0 27 -13 53 -39 71c0 32 26 60 63 60z" />
    <glyph glyph-name="eng" unicode="&#x14b;" horiz-adv-x="639" 
d="M429 509c76 0 144 -32 144 -147v-361c-1 -138 -84 -219 -216 -261l-5 5c53 68 70 141 70 255v330c0 69 -31 89 -78 89c-28 0 -65 -7 -107 -38v-321l63 -60h-277l63 60v307l-57 55l208 91l-15 -92l5 -5c30 34 112 93 202 93z" />
    <glyph glyph-name="ntilde" unicode="&#xf1;" horiz-adv-x="654" 
d="M281 602c-73 0 -116 64 -119 152h5c25 -48 57 -59 84 -59c65 0 109 59 178 59c72 0 116 -64 119 -152h-5c-26 49 -58 59 -84 59c-65 0 -110 -59 -178 -59zM360 0l62 60v270c0 70 -31 89 -79 89c-26 0 -64 -7 -106 -38v-321l63 -60h-277l63 60v307l-57 55l208 91l-15 -92
l5 -5c49 51 107 93 200 93c74 0 146 -33 146 -147v-302l63 -60h-276z" />
    <glyph glyph-name="o" unicode="o" horiz-adv-x="618" 
d="M309 -10c-140 0 -274 87 -274 260c0 172 134 259 274 259s274 -87 274 -259c0 -173 -134 -260 -274 -260zM320 34c75 0 97 84 97 194c0 142 -47 237 -119 237c-75 0 -98 -84 -98 -194c0 -142 48 -237 120 -237z" />
    <glyph glyph-name="oacute" unicode="&#xf3;" horiz-adv-x="618" 
d="M266 574l-5 5l82 202h152zM309 -10c-140 0 -274 87 -274 260c0 172 134 259 274 259s274 -87 274 -259c0 -173 -134 -260 -274 -260zM320 34c75 0 97 84 97 194c0 142 -47 237 -119 237c-75 0 -98 -84 -98 -194c0 -142 48 -237 120 -237z" />
    <glyph glyph-name="ocircumflex" unicode="&#xf4;" horiz-adv-x="618" 
d="M309 800l177 -227l-5 -5l-172 116l-171 -116l-5 5zM309 -10c-140 0 -274 87 -274 260c0 172 134 259 274 259s274 -87 274 -259c0 -173 -134 -260 -274 -260zM320 34c75 0 97 84 97 194c0 142 -47 237 -119 237c-75 0 -98 -84 -98 -194c0 -142 48 -237 120 -237z" />
    <glyph glyph-name="odieresis" unicode="&#xf6;" horiz-adv-x="618" 
d="M195 607c-39 0 -73 33 -73 72s34 72 73 72s72 -33 72 -72s-33 -72 -72 -72zM426 607c-39 0 -73 33 -73 72s34 72 73 72s72 -33 72 -72s-33 -72 -72 -72zM309 -10c-140 0 -274 87 -274 260c0 172 134 259 274 259s274 -87 274 -259c0 -173 -134 -260 -274 -260zM320 34
c75 0 97 84 97 194c0 142 -47 237 -119 237c-75 0 -98 -84 -98 -194c0 -142 48 -237 120 -237z" />
    <glyph glyph-name="ograve" unicode="&#xf2;" horiz-adv-x="618" 
d="M351 574l-229 207h152l82 -202zM309 -10c-140 0 -274 87 -274 260c0 172 134 259 274 259s274 -87 274 -259c0 -173 -134 -260 -274 -260zM320 34c75 0 97 84 97 194c0 142 -47 237 -119 237c-75 0 -98 -84 -98 -194c0 -142 48 -237 120 -237z" />
    <glyph glyph-name="ohungarumlaut" unicode="&#x151;" horiz-adv-x="618" 
d="M210 574l-5 5l59 202h130zM391 574l-5 5l59 202h131zM309 -10c-140 0 -274 87 -274 260c0 172 134 259 274 259s274 -87 274 -259c0 -173 -134 -260 -274 -260zM320 34c75 0 97 84 97 194c0 142 -47 237 -119 237c-75 0 -98 -84 -98 -194c0 -142 48 -237 120 -237z" />
    <glyph glyph-name="omacron" unicode="&#x14d;" horiz-adv-x="618" 
d="M138 708h344v-84h-344v84zM309 -10c-140 0 -274 87 -274 260c0 172 134 259 274 259s274 -87 274 -259c0 -173 -134 -260 -274 -260zM320 34c75 0 97 84 97 194c0 142 -47 237 -119 237c-75 0 -98 -84 -98 -194c0 -142 48 -237 120 -237z" />
    <glyph glyph-name="oslash" unicode="&#xf8;" horiz-adv-x="618" 
d="M481 457c61 -42 102 -112 102 -207c0 -173 -134 -260 -274 -260c-47 0 -94 10 -135 30l-45 -65l-38 26l44 62c-60 43 -100 112 -100 207c0 172 134 259 274 259c47 0 93 -10 133 -29l34 48l36 -27zM200 271c0 -44 5 -83 13 -117l172 245c-21 42 -51 66 -87 66
c-75 0 -98 -84 -98 -194zM320 34c75 0 97 84 97 194c0 45 -5 85 -13 119l-172 -245c21 -43 51 -68 88 -68z" />
    <glyph glyph-name="otilde" unicode="&#xf5;" horiz-adv-x="618" 
d="M383 754c72 0 116 -64 119 -152h-5c-26 49 -58 59 -84 59c-65 0 -110 -59 -178 -59c-73 0 -116 64 -119 152h5c25 -48 57 -59 84 -59c65 0 109 59 178 59zM309 -10c-140 0 -274 87 -274 260c0 172 134 259 274 259s274 -87 274 -259c0 -173 -134 -260 -274 -260zM320 34
c75 0 97 84 97 194c0 142 -47 237 -119 237c-75 0 -98 -84 -98 -194c0 -142 48 -237 120 -237z" />
    <glyph glyph-name="oe" unicode="&#x153;" horiz-adv-x="955" 
d="M756 106c42 0 101 11 157 55l5 -5c-35 -118 -116 -166 -216 -166c-79 0 -144 30 -189 79c-52 -53 -127 -79 -204 -79c-140 0 -274 87 -274 260c0 172 134 259 274 259c76 0 151 -26 203 -77c48 50 119 77 198 77c125 0 213 -66 215 -204h-336v-1c0 -126 60 -198 167 -198
zM694 467c-54 0 -93 -45 -103 -123h181c0 75 -28 123 -78 123zM320 34c75 0 97 84 97 194c0 142 -47 237 -119 237c-75 0 -98 -84 -98 -194c0 -142 48 -237 120 -237z" />
    <glyph glyph-name="p" unicode="p" horiz-adv-x="628" 
d="M8 -240l63 60v547l-57 55l208 91l-15 -80l5 -5c33 44 93 81 164 81c103 0 217 -76 217 -241c0 -188 -149 -278 -290 -278c-22 0 -53 3 -81 10v-169l98 -71h-312zM310 34c73 0 125 74 125 201c0 125 -49 190 -121 190c-31 0 -66 -12 -92 -36v-275c0 -49 41 -80 88 -80z
" />
    <glyph glyph-name="thorn" unicode="&#xfe;" horiz-adv-x="643" 
d="M318 -10c-23 0 -52 2 -81 7v-167l98 -70h-312l63 60v822l-57 55l208 91v-348c34 39 90 69 154 69c103 0 216 -76 216 -241c0 -188 -148 -278 -289 -278zM329 425c-31 0 -66 -12 -92 -36v-275c0 -49 41 -80 88 -80c72 0 125 74 125 201c0 125 -49 190 -121 190z" />
    <glyph glyph-name="q" unicode="q" horiz-adv-x="632" 
d="M406 -268v257l15 77l-5 5c-33 -44 -93 -81 -164 -81c-103 0 -217 76 -217 241c0 188 149 278 290 278c45 0 116 -9 162 -31l70 31v-631l57 -55zM314 75c31 0 66 11 92 35v275c0 49 -41 80 -88 80c-72 0 -125 -74 -125 -201c0 -125 49 -189 121 -189z" />
    <glyph glyph-name="r" unicode="r" horiz-adv-x="439" 
d="M379 345c-55 21 -112 19 -142 -16v-258l99 -71h-313l63 60v307l-57 55l208 91l-24 -149l5 -2c34 96 108 161 213 137z" />
    <glyph glyph-name="racute" unicode="&#x155;" horiz-adv-x="439" 
d="M415 781l-229 -207l-5 5l82 202h152zM379 345c-55 21 -112 19 -142 -16v-258l99 -71h-313l63 60v307l-57 55l208 91l-24 -149l5 -2c34 96 108 161 213 137z" />
    <glyph glyph-name="rcaron" unicode="&#x159;" horiz-adv-x="439" 
d="M408 795l-177 -227l-176 227l5 5l171 -116l172 116zM379 345c-55 21 -112 19 -142 -16v-258l99 -71h-313l63 60v307l-57 55l208 91l-24 -149l5 -2c34 96 108 161 213 137z" />
    <glyph glyph-name="rcommaaccent" unicode="&#x157;" horiz-adv-x="439" 
d="M379 345c-55 21 -112 19 -142 -16v-258l99 -71h-313l63 60v307l-57 55l208 91l-24 -149l5 -2c34 96 108 161 213 137zM179 -52c35 0 65 -21 65 -75c0 -69 -60 -133 -150 -157l-2 4c38 23 63 61 63 97c0 27 -13 53 -39 71c0 32 26 60 63 60z" />
    <glyph glyph-name="s" unicode="s" horiz-adv-x="494" 
d="M189 397c0 -95 260 -72 260 -242c0 -96 -84 -165 -211 -165c-48 0 -92 11 -128 25l-65 -29v194l100 -128c24 -9 47 -14 68 -14c59 0 87 33 87 67c0 103 -255 82 -255 246c0 102 98 158 212 158c42 0 79 -7 111 -20l57 24v-183l-104 126c-14 3 -27 5 -41 5
c-61 0 -91 -32 -91 -64z" />
    <glyph glyph-name="sacute" unicode="&#x15b;" horiz-adv-x="494" 
d="M433 781l-229 -207l-5 5l82 202h152zM189 397c0 -95 260 -72 260 -242c0 -96 -84 -165 -211 -165c-48 0 -92 11 -128 25l-65 -29v194l100 -128c24 -9 47 -14 68 -14c59 0 87 33 87 67c0 103 -255 82 -255 246c0 102 98 158 212 158c42 0 79 -7 111 -20l57 24v-183
l-104 126c-14 3 -27 5 -41 5c-61 0 -91 -32 -91 -64z" />
    <glyph glyph-name="scaron" unicode="&#x161;" horiz-adv-x="494" 
d="M426 795l-177 -227l-176 227l5 5l171 -116l172 116zM189 397c0 -95 260 -72 260 -242c0 -96 -84 -165 -211 -165c-48 0 -92 11 -128 25l-65 -29v194l100 -128c24 -9 47 -14 68 -14c59 0 87 33 87 67c0 103 -255 82 -255 246c0 102 98 158 212 158c42 0 79 -7 111 -20
l57 24v-183l-104 126c-14 3 -27 5 -41 5c-61 0 -91 -32 -91 -64z" />
    <glyph glyph-name="scedilla" unicode="&#x15f;" horiz-adv-x="494" 
d="M449 155c0 -88 -70 -153 -180 -164l-23 -55c69 -21 101 -56 101 -99c0 -56 -45 -87 -104 -87c-60 0 -103 36 -120 93l5 5c18 -13 43 -28 72 -28c28 0 45 13 45 41c0 23 -11 39 -53 58l31 71c-42 2 -81 12 -113 25l-65 -29v194l100 -128c24 -9 47 -14 68 -14
c59 0 87 33 87 67c0 103 -255 82 -255 246c0 102 98 158 212 158c42 0 79 -7 111 -20l57 24v-183l-104 126c-14 3 -27 5 -41 5c-61 0 -91 -32 -91 -64c0 -95 260 -72 260 -242z" />
    <glyph glyph-name="scommaaccent" unicode="&#x219;" horiz-adv-x="494" 
d="M189 397c0 -95 260 -72 260 -242c0 -96 -84 -165 -211 -165c-48 0 -92 11 -128 25l-65 -29v194l100 -128c24 -9 47 -14 68 -14c59 0 87 33 87 67c0 103 -255 82 -255 246c0 102 98 158 212 158c42 0 79 -7 111 -20l57 24v-183l-104 126c-14 3 -27 5 -41 5
c-61 0 -91 -32 -91 -64zM251 -52c35 0 65 -21 65 -75c0 -69 -60 -133 -150 -157l-2 4c38 23 63 61 63 97c0 27 -13 53 -39 71c0 32 26 60 63 60z" />
    <glyph glyph-name="germandbls" unicode="&#xdf;" horiz-adv-x="701" 
d="M481 463c0 -158 217 -140 217 -308c0 -96 -72 -165 -206 -165c-59 0 -108 13 -145 36v116l132 -104c32 12 62 37 62 85c0 104 -194 104 -194 279c0 70 32 128 102 179c0 92 -25 159 -92 159c-69 0 -109 -68 -109 -177v-503l63 -60h-272l62 59v372h-95l95 83v19
c0 190 153 255 270 255c118 0 192 -65 218 -179c-96 -47 -108 -107 -108 -146z" />
    <glyph glyph-name="t" unicode="t" horiz-adv-x="436" 
d="M262 -10c-104 0 -165 72 -165 164v277h-102l253 180v-112h198l-30 -68h-168v-229c0 -51 15 -96 82 -96c33 0 68 11 106 41l5 -5c-25 -103 -92 -152 -179 -152z" />
    <glyph glyph-name="tbar" unicode="&#x167;" horiz-adv-x="436" 
d="M330 106c33 0 68 11 106 41l5 -5c-25 -103 -92 -152 -179 -152c-104 0 -165 72 -165 164v131h-72v49h72v97h-102l253 180v-112h198l-30 -68h-168v-97h152v-49h-152v-83c0 -51 15 -96 82 -96z" />
    <glyph glyph-name="tcaron" unicode="&#x165;" horiz-adv-x="487" 
d="M436 547l-59 241h121l-58 -241h-4zM262 -10c-104 0 -165 72 -165 164v277h-102l253 180v-112h198l-30 -68h-168v-229c0 -51 15 -96 82 -96c33 0 68 11 106 41l5 -5c-25 -103 -92 -152 -179 -152z" />
    <glyph glyph-name="uni0163" unicode="&#x163;" horiz-adv-x="436" 
d="M330 106c33 0 68 11 106 41l5 -5c-23 -94 -80 -143 -156 -151l-23 -55c69 -21 101 -56 101 -99c0 -56 -45 -87 -104 -87c-60 0 -103 36 -120 93l5 5c18 -13 43 -28 72 -28c28 0 45 13 45 41c0 23 -11 39 -53 58l31 72c-90 10 -142 78 -142 163v277h-102l253 180v-112h198
l-30 -68h-168v-229c0 -51 15 -96 82 -96z" />
    <glyph glyph-name="uni021B" unicode="&#x21b;" horiz-adv-x="436" 
d="M262 -10c-104 0 -165 72 -165 164v277h-102l253 180v-112h198l-30 -68h-168v-229c0 -51 15 -96 82 -96c33 0 68 11 106 41l5 -5c-25 -103 -92 -152 -179 -152zM267 -52c35 0 65 -21 65 -75c0 -69 -60 -133 -150 -157l-2 4c38 23 63 61 63 97c0 27 -13 53 -39 71
c0 32 26 60 63 60z" />
    <glyph glyph-name="u" unicode="u" horiz-adv-x="627" 
d="M542 111l66 -55l-159 -69l-43 96h-5c-30 -34 -108 -93 -198 -93c-70 0 -138 32 -138 147v230l-57 55l208 91v-344c0 -69 31 -89 70 -89c26 0 64 7 105 38v249l-56 55l207 91v-402z" />
    <glyph glyph-name="uacute" unicode="&#xfa;" horiz-adv-x="627" 
d="M263 574l-5 5l82 202h152zM542 111l66 -55l-159 -69l-43 96h-5c-30 -34 -108 -93 -198 -93c-70 0 -138 32 -138 147v230l-57 55l208 91v-344c0 -69 31 -89 70 -89c26 0 64 7 105 38v249l-56 55l207 91v-402z" />
    <glyph glyph-name="ucircumflex" unicode="&#xfb;" horiz-adv-x="627" 
d="M306 800l177 -227l-5 -5l-172 116l-171 -116l-5 5zM542 111l66 -55l-159 -69l-43 96h-5c-30 -34 -108 -93 -198 -93c-70 0 -138 32 -138 147v230l-57 55l208 91v-344c0 -69 31 -89 70 -89c26 0 64 7 105 38v249l-56 55l207 91v-402z" />
    <glyph glyph-name="udieresis" unicode="&#xfc;" horiz-adv-x="627" 
d="M192 607c-39 0 -73 33 -73 72s34 72 73 72s72 -33 72 -72s-33 -72 -72 -72zM423 607c-39 0 -73 33 -73 72s34 72 73 72s72 -33 72 -72s-33 -72 -72 -72zM542 111l66 -55l-159 -69l-43 96h-5c-30 -34 -108 -93 -198 -93c-70 0 -138 32 -138 147v230l-57 55l208 91v-344
c0 -69 31 -89 70 -89c26 0 64 7 105 38v249l-56 55l207 91v-402z" />
    <glyph glyph-name="ugrave" unicode="&#xf9;" horiz-adv-x="627" 
d="M348 574l-229 207h152l82 -202zM542 111l66 -55l-159 -69l-43 96h-5c-30 -34 -108 -93 -198 -93c-70 0 -138 32 -138 147v230l-57 55l208 91v-344c0 -69 31 -89 70 -89c26 0 64 7 105 38v249l-56 55l207 91v-402z" />
    <glyph glyph-name="uhungarumlaut" unicode="&#x171;" horiz-adv-x="627" 
d="M207 574l-5 5l59 202h130zM388 574l-5 5l59 202h131zM542 111l66 -55l-159 -69l-43 96h-5c-30 -34 -108 -93 -198 -93c-70 0 -138 32 -138 147v230l-57 55l208 91v-344c0 -69 31 -89 70 -89c26 0 64 7 105 38v249l-56 55l207 91v-402z" />
    <glyph glyph-name="umacron" unicode="&#x16b;" horiz-adv-x="627" 
d="M135 708h344v-84h-344v84zM542 111l66 -55l-159 -69l-43 96h-5c-30 -34 -108 -93 -198 -93c-70 0 -138 32 -138 147v230l-57 55l208 91v-344c0 -69 31 -89 70 -89c26 0 64 7 105 38v249l-56 55l207 91v-402z" />
    <glyph glyph-name="uogonek" unicode="&#x173;" horiz-adv-x="627" 
d="M493 -170c19 0 38 6 59 22l5 -5c-16 -56 -56 -97 -120 -97c-57 0 -99 37 -99 95c0 50 28 99 109 147l-41 91h-5c-30 -34 -108 -93 -198 -93c-70 0 -138 32 -138 147v230l-57 55l208 91v-344c0 -69 31 -89 70 -89c26 0 64 7 105 38v249l-56 55l207 91v-402l66 -55
c-138 -66 -168 -130 -168 -172c0 -39 23 -54 53 -54z" />
    <glyph glyph-name="uring" unicode="&#x16f;" horiz-adv-x="627" 
d="M306 567c-71 0 -130 58 -130 127c0 71 59 130 130 130c70 0 129 -59 129 -130c0 -69 -59 -127 -129 -127zM306 606c49 0 85 39 85 88c0 51 -36 90 -85 90c-50 0 -86 -39 -86 -90c0 -49 36 -88 86 -88zM542 111l66 -55l-159 -69l-43 96h-5c-30 -34 -108 -93 -198 -93
c-70 0 -138 32 -138 147v230l-57 55l208 91v-344c0 -69 31 -89 70 -89c26 0 64 7 105 38v249l-56 55l207 91v-402z" />
    <glyph glyph-name="v" unicode="v" horiz-adv-x="581" 
d="M386 499h203l-70 -60l-220 -469h-6l-247 476l-61 53h305l-63 -60l113 -241l115 241z" />
    <glyph glyph-name="w" unicode="w" horiz-adv-x="897" 
d="M702 499h202l-70 -60l-196 -469h-6l-177 351l-165 -351h-6l-239 478l-60 51h303l-63 -60l110 -240l88 188l-57 112h237l-35 -60l110 -234l93 234z" />
    <glyph glyph-name="wacute" unicode="&#x1e83;" horiz-adv-x="897" 
d="M648 781l-229 -207l-5 5l82 202h152zM702 499h202l-70 -60l-196 -469h-6l-177 351l-165 -351h-6l-239 478l-60 51h303l-63 -60l110 -240l88 188l-57 112h237l-35 -60l110 -234l93 234z" />
    <glyph glyph-name="wcircumflex" unicode="&#x175;" horiz-adv-x="897" 
d="M462 638l-171 -77l-5 5l176 188l177 -188l-5 -5zM702 499h202l-70 -60l-196 -469h-6l-177 351l-165 -351h-6l-239 478l-60 51h303l-63 -60l110 -240l88 188l-57 112h237l-35 -60l110 -234l93 234z" />
    <glyph glyph-name="wdieresis" unicode="&#x1e85;" horiz-adv-x="897" 
d="M348 570c-39 0 -73 33 -73 72s34 72 73 72s72 -33 72 -72s-33 -72 -72 -72zM579 570c-39 0 -73 33 -73 72s34 72 73 72s72 -33 72 -72s-33 -72 -72 -72zM702 499h202l-70 -60l-196 -469h-6l-177 351l-165 -351h-6l-239 478l-60 51h303l-63 -60l110 -240l88 188l-57 112
h237l-35 -60l110 -234l93 234z" />
    <glyph glyph-name="wgrave" unicode="&#x1e81;" horiz-adv-x="897" 
d="M509 579l-5 -5l-229 207h152zM702 499h202l-70 -60l-196 -469h-6l-177 351l-165 -351h-6l-239 478l-60 51h303l-63 -60l110 -240l88 188l-57 112h237l-35 -60l110 -234l93 234z" />
    <glyph glyph-name="x" unicode="x" horiz-adv-x="597" 
d="M536 53l63 -53h-311l63 60l-104 139l-105 -139v-1l69 -59h-212l71 60l142 185l-149 199l-65 55h311l-63 -60l98 -130l100 130l-70 60h211l-71 -60l-136 -175z" />
    <glyph glyph-name="y" unicode="y" horiz-adv-x="578" 
d="M515 439l-253 -571l122 -108h-241l132 277l-226 408l-64 54h305l-63 -60l125 -233l100 233l-69 60h203z" />
    <glyph glyph-name="yacute" unicode="&#xfd;" horiz-adv-x="578" 
d="M492 781l-229 -207l-5 5l82 202h152zM515 439l-253 -571l122 -108h-241l132 277l-226 408l-64 54h305l-63 -60l125 -233l100 233l-69 60h203z" />
    <glyph glyph-name="ycircumflex" unicode="&#x177;" horiz-adv-x="578" 
d="M306 684l-171 -116l-5 5l176 227l177 -227l-5 -5zM515 439l-253 -571l122 -108h-241l132 277l-226 408l-64 54h305l-63 -60l125 -233l100 233l-69 60h203z" />
    <glyph glyph-name="ydieresis" unicode="&#xff;" horiz-adv-x="578" 
d="M192 607c-39 0 -73 33 -73 72s34 72 73 72s72 -33 72 -72s-33 -72 -72 -72zM423 607c-39 0 -73 33 -73 72s34 72 73 72s72 -33 72 -72s-33 -72 -72 -72zM515 439l-253 -571l122 -108h-241l132 277l-226 408l-64 54h305l-63 -60l125 -233l100 233l-69 60h203z" />
    <glyph glyph-name="ygrave" unicode="&#x1ef3;" horiz-adv-x="578" 
d="M353 579l-5 -5l-229 207h152zM515 439l-253 -571l122 -108h-241l132 277l-226 408l-64 54h305l-63 -60l125 -233l100 233l-69 60h203z" />
    <glyph glyph-name="z" unicode="z" horiz-adv-x="529" 
d="M207 51h205l102 150v-150h-1v-51h-518l316 448h-169l-102 -150v221l88 -20h394z" />
    <glyph glyph-name="zacute" unicode="&#x17a;" horiz-adv-x="529" 
d="M476 781l-229 -207l-5 5l82 202h152zM207 51h205l102 150v-150h-1v-51h-518l316 448h-169l-102 -150v221l88 -20h394z" />
    <glyph glyph-name="zcaron" unicode="&#x17e;" horiz-adv-x="529" 
d="M469 795l-177 -227l-176 227l5 5l171 -116l172 116zM207 51h205l102 150v-150h-1v-51h-518l316 448h-169l-102 -150v221l88 -20h394z" />
    <glyph glyph-name="zdotaccent" unicode="&#x17c;" horiz-adv-x="529" 
d="M289 585c-45 0 -84 39 -84 84s39 83 84 83s84 -38 84 -83s-39 -84 -84 -84zM207 51h205l102 150v-150h-1v-51h-518l316 448h-169l-102 -150v221l88 -20h394z" />
    <glyph glyph-name="a.sc" horiz-adv-x="649" 
d="M610 48l57 -48h-289l62 59l-55 112h-216l-47 -101l98 -70h-195l298 612h6zM193 222h167l-85 174z" />
    <glyph glyph-name="aacute.sc" horiz-adv-x="649" 
d="M509 855l-229 -207l-5 5l82 202h152zM610 48l57 -48h-289l62 59l-55 112h-216l-47 -101l98 -70h-195l298 612h6zM193 222h167l-85 174z" />
    <glyph glyph-name="abreve.sc" horiz-adv-x="649" 
d="M323 666c-83 0 -161 73 -166 195l5 5c46 -88 101 -111 161 -111c61 0 116 23 162 111l5 -5c-5 -122 -83 -195 -167 -195zM610 48l57 -48h-289l62 59l-55 112h-216l-47 -101l98 -70h-195l298 612h6zM193 222h167l-85 174z" />
    <glyph glyph-name="acircumflex.sc" horiz-adv-x="649" 
d="M323 758l-171 -116l-5 5l176 227l177 -227l-5 -5zM610 48l57 -48h-289l62 59l-55 112h-216l-47 -101l98 -70h-195l298 612h6zM193 222h167l-85 174z" />
    <glyph glyph-name="adieresis.sc" horiz-adv-x="649" 
d="M209 681c-39 0 -73 33 -73 72s34 72 73 72s72 -33 72 -72s-33 -72 -72 -72zM440 681c-39 0 -73 33 -73 72s34 72 73 72s72 -33 72 -72s-33 -72 -72 -72zM610 48l57 -48h-289l62 59l-55 112h-216l-47 -101l98 -70h-195l298 612h6zM193 222h167l-85 174z" />
    <glyph glyph-name="agrave.sc" horiz-adv-x="649" 
d="M370 653l-5 -5l-229 207h152zM610 48l57 -48h-289l62 59l-55 112h-216l-47 -101l98 -70h-195l298 612h6zM193 222h167l-85 174z" />
    <glyph glyph-name="amacron.sc" horiz-adv-x="649" 
d="M496 782v-84h-344v84h344zM610 48l57 -48h-289l62 59l-55 112h-216l-47 -101l98 -70h-195l298 612h6zM193 222h167l-85 174z" />
    <glyph glyph-name="aogonek.sc" horiz-adv-x="649" 
d="M610 48l57 -48h-202c-48 -35 -60 -74 -60 -109c0 -47 22 -61 53 -61c20 0 39 6 60 22l5 -5c-17 -57 -58 -97 -117 -97c-63 0 -102 44 -102 103c0 56 31 129 146 187l-64 131h-217l-47 -101l98 -70h-195l298 612h6zM193 222h168l-86 174z" />
    <glyph glyph-name="aring.sc" horiz-adv-x="649" 
d="M610 48l57 -48h-289l62 59l-55 112h-216l-47 -101l98 -70h-195l283 580c-63 9 -113 63 -113 126c0 71 59 130 130 130c70 0 129 -59 129 -130c0 -62 -48 -116 -109 -125zM239 706c0 -49 36 -88 86 -88c49 0 85 39 85 88c0 51 -36 90 -85 90c-50 0 -86 -39 -86 -90z
M193 222h167l-85 174z" />
    <glyph glyph-name="atilde.sc" horiz-adv-x="649" 
d="M249 676c-73 0 -116 64 -119 152h5c25 -48 57 -59 84 -59c65 0 109 59 178 59c72 0 116 -64 119 -152h-5c-26 49 -58 59 -84 59c-65 0 -110 -59 -178 -59zM610 48l57 -48h-289l62 59l-55 112h-216l-47 -101l98 -70h-195l298 612h6zM193 222h167l-85 174z" />
    <glyph glyph-name="ae.sc" horiz-adv-x="885" 
d="M760 49l85 130v-179h-439v204h-174l-90 -133l99 -71h-216l358 525l-57 48h497v-179l-85 131h-176v-203h118l72 79v-203l-72 75h-118v-224h198zM266 253h140v207z" />
    <glyph glyph-name="b.sc" horiz-adv-x="644" 
d="M466 294c93 -17 147 -61 147 -134c0 -98 -96 -160 -252 -160h-338l63 60v453l-63 60h337c137 0 225 -55 225 -142c0 -68 -44 -115 -119 -137zM320 525h-78v-208h78c79 0 113 44 113 106c0 58 -34 102 -113 102zM317 49c96 0 137 41 137 107c0 67 -42 112 -137 112h-75
v-219h75z" />
    <glyph glyph-name="c.sc" horiz-adv-x="622" 
d="M592 167l5 -5c-51 -119 -149 -172 -257 -172c-158 0 -305 113 -305 290c0 188 167 303 349 303c46 0 99 -7 146 -23l45 19v-213l-105 159c-26 7 -50 10 -71 10c-116 0 -201 -81 -201 -222c0 -140 84 -214 206 -214c54 0 122 16 188 68z" />
    <glyph glyph-name="cacute.sc" horiz-adv-x="622" 
d="M547 855l-229 -207l-5 5l82 202h152zM592 167l5 -5c-51 -119 -149 -172 -257 -172c-158 0 -305 113 -305 290c0 188 167 303 349 303c46 0 99 -7 146 -23l45 19v-213l-105 159c-26 7 -50 10 -71 10c-116 0 -201 -81 -201 -222c0 -140 84 -214 206 -214
c54 0 122 16 188 68z" />
    <glyph glyph-name="ccaron.sc" horiz-adv-x="622" 
d="M540 869l-177 -227l-176 227l5 5l171 -116l172 116zM592 167l5 -5c-51 -119 -149 -172 -257 -172c-158 0 -305 113 -305 290c0 188 167 303 349 303c46 0 99 -7 146 -23l45 19v-213l-105 159c-26 7 -50 10 -71 10c-116 0 -201 -81 -201 -222c0 -140 84 -214 206 -214
c54 0 122 16 188 68z" />
    <glyph glyph-name="ccedilla.sc" horiz-adv-x="622" 
d="M597 162c-44 -103 -123 -156 -213 -169l-24 -57c69 -21 101 -56 101 -99c0 -56 -45 -87 -104 -87c-60 0 -103 36 -120 93l5 5c18 -13 43 -28 72 -28c28 0 45 13 45 41c0 23 -11 39 -53 58l31 71c-157 2 -302 114 -302 290c0 188 167 303 349 303c46 0 99 -7 146 -23
l45 19v-213l-105 159c-26 7 -50 10 -71 10c-116 0 -201 -81 -201 -222c0 -140 84 -214 206 -214c54 0 122 16 188 68z" />
    <glyph glyph-name="cdotaccent.sc" horiz-adv-x="622" 
d="M360 659c-45 0 -84 39 -84 84s39 83 84 83s84 -38 84 -83s-39 -84 -84 -84zM592 167l5 -5c-51 -119 -149 -172 -257 -172c-158 0 -305 113 -305 290c0 188 167 303 349 303c46 0 99 -7 146 -23l45 19v-213l-105 159c-26 7 -50 10 -71 10c-116 0 -201 -81 -201 -222
c0 -140 84 -214 206 -214c54 0 122 16 188 68z" />
    <glyph glyph-name="d.sc" horiz-adv-x="713" 
d="M358 573c174 0 324 -78 324 -272c0 -186 -150 -301 -324 -301h-335l63 60v453l-63 60h335zM341 49c109 0 178 86 178 239c0 162 -69 237 -178 237h-99v-476h99z" />
    <glyph glyph-name="eth.sc" horiz-adv-x="713" 
d="M358 573c174 0 324 -78 324 -272c0 -186 -150 -301 -324 -301h-335l63 60v219h-84v49h84v185l-63 60h335zM341 49c109 0 178 86 178 239c0 162 -69 237 -178 237h-99v-197h135v-49h-135v-230h99z" />
    <glyph glyph-name="dcaron.sc" horiz-adv-x="713" 
d="M544 869l-177 -227l-176 227l5 5l171 -116l172 116zM358 573c174 0 324 -78 324 -272c0 -186 -150 -301 -324 -301h-335l63 60v453l-63 60h335zM341 49c109 0 178 86 178 239c0 162 -69 237 -178 237h-99v-476h99z" />
    <glyph glyph-name="dcroat.sc" horiz-adv-x="713" 
d="M358 573c174 0 324 -78 324 -272c0 -186 -150 -301 -324 -301h-335l63 60v219h-84v49h84v185l-63 60h335zM341 49c109 0 178 86 178 239c0 162 -69 237 -178 237h-99v-197h135v-49h-135v-230h99z" />
    <glyph glyph-name="e.sc" horiz-adv-x="565" 
d="M440 49l85 130v-179h-502l63 60v453l-63 60h481v-179l-86 131h-176v-203h119l71 79v-203l-71 75h-119v-224h198z" />
    <glyph glyph-name="e.sc_breve" horiz-adv-x="565" 
d="M290 666c-83 0 -161 73 -166 195l5 5c46 -88 101 -111 161 -111c61 0 116 23 162 111l5 -5c-5 -122 -83 -195 -167 -195zM440 49l85 130v-179h-502l63 60v453l-63 60h481v-179l-86 131h-176v-203h119l71 79v-203l-71 75h-119v-224h198z" />
    <glyph glyph-name="eacute.sc" horiz-adv-x="565" 
d="M476 855l-229 -207l-5 5l82 202h152zM440 49l85 130v-179h-502l63 60v453l-63 60h481v-179l-86 131h-176v-203h119l71 79v-203l-71 75h-119v-224h198z" />
    <glyph glyph-name="ecaron.sc" horiz-adv-x="565" 
d="M469 869l-177 -227l-176 227l5 5l171 -116l172 116zM440 49l85 130v-179h-502l63 60v453l-63 60h481v-179l-86 131h-176v-203h119l71 79v-203l-71 75h-119v-224h198z" />
    <glyph glyph-name="ecircumflex.sc" horiz-adv-x="565" 
d="M290 758l-171 -116l-5 5l176 227l177 -227l-5 -5zM440 49l85 130v-179h-502l63 60v453l-63 60h481v-179l-86 131h-176v-203h119l71 79v-203l-71 75h-119v-224h198z" />
    <glyph glyph-name="edieresis.sc" horiz-adv-x="565" 
d="M176 681c-39 0 -73 33 -73 72s34 72 73 72s72 -33 72 -72s-33 -72 -72 -72zM407 681c-39 0 -73 33 -73 72s34 72 73 72s72 -33 72 -72s-33 -72 -72 -72zM440 49l85 130v-179h-502l63 60v453l-63 60h481v-179l-86 131h-176v-203h119l71 79v-203l-71 75h-119v-224h198z" />
    <glyph glyph-name="edotaccent.sc" horiz-adv-x="565" 
d="M289 659c-45 0 -84 39 -84 84s39 83 84 83s84 -38 84 -83s-39 -84 -84 -84zM440 49l85 130v-179h-502l63 60v453l-63 60h481v-179l-86 131h-176v-203h119l71 79v-203l-71 75h-119v-224h198z" />
    <glyph glyph-name="egrave.sc" horiz-adv-x="565" 
d="M337 653l-5 -5l-229 207h152zM440 49l85 130v-179h-502l63 60v453l-63 60h481v-179l-86 131h-176v-203h119l71 79v-203l-71 75h-119v-224h198z" />
    <glyph glyph-name="emacron.sc" horiz-adv-x="565" 
d="M463 782v-84h-344v84h344zM440 49l85 130v-179h-502l63 60v453l-63 60h481v-179l-86 131h-176v-203h119l71 79v-203l-71 75h-119v-224h198z" />
    <glyph glyph-name="eogonek.sc" horiz-adv-x="565" 
d="M553 -148l5 -5c-16 -56 -56 -97 -120 -97c-57 0 -99 37 -99 95c0 53 26 105 118 155h-434l63 60v453l-63 60h481v-179l-86 131h-176v-203h119l71 79v-203l-71 75h-119v-224h198l85 130v-179c-55 -39 -84 -74 -84 -116c0 -39 23 -54 53 -54c20 0 39 6 59 22z" />
    <glyph glyph-name="f.sc" horiz-adv-x="524" 
d="M495 573v-179l-85 131h-168v-233h148l72 84v-216l-72 84h-148v-173l99 -71h-318l63 60v453l-63 60h472z" />
    <glyph glyph-name="g.sc" horiz-adv-x="654" 
d="M611 278v-285l-54 32c-56 -25 -125 -35 -185 -35c-192 0 -342 106 -342 292c0 197 171 301 351 301c50 0 107 -8 156 -23l51 22v-195l-107 138c-30 8 -56 10 -77 10c-124 0 -211 -77 -211 -228c0 -146 90 -245 210 -245c20 0 45 3 73 10v137l-133 69h268z" />
    <glyph glyph-name="gbreve.sc" horiz-adv-x="654" 
d="M354 666c-83 0 -161 73 -166 195l5 5c46 -88 101 -111 161 -111c61 0 116 23 162 111l5 -5c-5 -122 -83 -195 -167 -195zM611 278v-285l-54 32c-56 -25 -125 -35 -185 -35c-192 0 -342 106 -342 292c0 197 171 301 351 301c50 0 107 -8 156 -23l51 22v-195l-107 138
c-30 8 -56 10 -77 10c-124 0 -211 -77 -211 -228c0 -146 90 -245 210 -245c20 0 45 3 73 10v137l-133 69h268z" />
    <glyph glyph-name="gcommaaccent.sc" horiz-adv-x="654" 
d="M611 278v-285l-54 32c-56 -25 -125 -35 -185 -35c-192 0 -342 106 -342 292c0 197 171 301 351 301c50 0 107 -8 156 -23l51 22v-195l-107 138c-30 8 -56 10 -77 10c-124 0 -211 -77 -211 -228c0 -146 90 -245 210 -245c20 0 45 3 73 10v137l-133 69h268zM358 -52
c35 0 65 -21 65 -75c0 -69 -60 -133 -150 -157l-2 4c38 23 63 61 63 97c0 27 -13 53 -39 71c0 32 26 60 63 60z" />
    <glyph glyph-name="gdotaccent.sc" horiz-adv-x="654" 
d="M353 659c-45 0 -84 39 -84 84s39 83 84 83s84 -38 84 -83s-39 -84 -84 -84zM611 278v-285l-54 32c-56 -25 -125 -35 -185 -35c-192 0 -342 106 -342 292c0 197 171 301 351 301c50 0 107 -8 156 -23l51 22v-195l-107 138c-30 8 -56 10 -77 10c-124 0 -211 -77 -211 -228
c0 -146 90 -245 210 -245c20 0 45 3 73 10v137l-133 69h268z" />
    <glyph glyph-name="h.sc" horiz-adv-x="753" 
d="M667 513v-453l63 -60h-282l63 60v228h-269v-228l63 -60h-282l63 60v453l-63 60h282l-63 -60v-176h269v176l-63 60h282z" />
    <glyph glyph-name="hbar.sc" horiz-adv-x="766" 
d="M673 402v-342l63 -60h-282l63 60v228h-269v-228l63 -60h-282l63 60v342h-58v48h58v63l-63 60h282l-63 -60v-63h269v63l-63 60h282l-63 -60v-63h57v-48h-57zM248 337h269v65h-269v-65z" />
    <glyph glyph-name="i.sc" horiz-adv-x="338" 
d="M247 513v-453l63 -60h-282l63 60v453l-63 60h282z" />
    <glyph glyph-name="dotlessi.sc" horiz-adv-x="338" 
d="M247 513v-453l63 -60h-282l63 60v453l-63 60h282z" />
    <glyph glyph-name="iacute.sc" horiz-adv-x="338" 
d="M355 855l-229 -207l-5 5l82 202h152zM310 573l-63 -60v-453l63 -60h-282l63 60v453l-63 60h282z" />
    <glyph glyph-name="icircumflex.sc" horiz-adv-x="338" 
d="M169 874l177 -227l-5 -5l-172 116l-171 -116l-5 5zM310 573l-63 -60v-453l63 -60h-282l63 60v453l-63 60h282z" />
    <glyph glyph-name="idieresis.sc" horiz-adv-x="338" 
d="M127 753c0 -39 -33 -72 -72 -72s-73 33 -73 72s34 72 73 72s72 -33 72 -72zM286 825c39 0 72 -33 72 -72s-33 -72 -72 -72s-73 33 -73 72s34 72 73 72zM310 573l-63 -60v-453l63 -60h-282l63 60v453l-63 60h282z" />
    <glyph glyph-name="i.sc.loclTRK" horiz-adv-x="338" 
d="M168 659c-45 0 -84 39 -84 84s39 83 84 83s84 -38 84 -83s-39 -84 -84 -84zM247 513v-453l63 -60h-282l63 60v453l-63 60h282z" />
    <glyph glyph-name="igrave.sc" horiz-adv-x="338" 
d="M216 653l-5 -5l-229 207h152zM247 513v-453l63 -60h-282l63 60v453l-63 60h282z" />
    <glyph glyph-name="imacron.sc" horiz-adv-x="338" 
d="M-2 782h344v-84h-344v84zM310 573l-63 -60v-453l63 -60h-282l63 60v453l-63 60h282z" />
    <glyph glyph-name="iogonek.sc" horiz-adv-x="338" 
d="M199 0c-39 -37 -61 -78 -61 -111c0 -46 28 -59 58 -59c21 0 39 6 60 22l5 -5c-17 -56 -58 -97 -122 -97c-61 0 -103 37 -103 98c0 52 40 105 119 152h-127l63 60v453l-63 60h282l-63 -60v-453l63 -60h-111z" />
    <glyph glyph-name="j.sc" horiz-adv-x="322" 
d="M304 573l-63 -60v-470c0 -144 -75 -213 -221 -240l-4 4c46 56 69 108 69 201v505l-63 60h282z" />
    <glyph glyph-name="k.sc" horiz-adv-x="677" 
d="M242 513v-453l63 -60h-282l63 60v453l-63 60h282zM431 349c107 -183 161 -303 277 -349v-5c-193 -16 -277 20 -421 296l226 211l-64 71h216z" />
    <glyph glyph-name="kcommaaccent.sc" horiz-adv-x="677" 
d="M242 60l63 -60h-282l63 60v453l-63 60h282l-63 -60v-453zM431 349c107 -183 161 -303 277 -349v-5c-193 -16 -277 20 -421 296l226 211l-64 71h216zM378 -52c35 0 65 -21 65 -75c0 -69 -60 -133 -150 -157l-2 4c38 23 63 61 63 97c0 27 -13 53 -39 71c0 32 26 60 63 60z
" />
    <glyph glyph-name="l.sc" horiz-adv-x="551" 
d="M434 49l91 139v-188h-502l63 60v453l-63 60h282l-63 -60v-464h192z" />
    <glyph glyph-name="lacute.sc" horiz-adv-x="551" 
d="M367 855l-229 -207l-5 5l82 202h152zM434 49l91 139v-188h-502l63 60v453l-63 60h282l-63 -60v-464h192z" />
    <glyph glyph-name="lcaron.sc" horiz-adv-x="570" 
d="M384 378c42 26 69 67 69 107c0 30 -14 58 -43 78c0 35 29 67 70 67c39 0 71 -23 71 -83c0 -76 -66 -146 -165 -173zM242 49h192l91 139v-188h-502l63 60v453l-63 60h282l-63 -60v-464z" />
    <glyph glyph-name="lcommaaccent.sc" horiz-adv-x="551" 
d="M434 49l91 139v-188h-502l63 60v453l-63 60h282l-63 -60v-464h192zM313 -55c35 0 65 -21 65 -75c0 -69 -60 -133 -150 -157l-2 4c38 23 63 61 63 97c0 27 -13 53 -39 71c0 32 26 60 63 60z" />
    <glyph glyph-name="lslash.sc" horiz-adv-x="583" 
d="M465 49l91 139v-188h-502l63 60v124l-93 -61v64l93 61v265l-63 60h282l-63 -60v-175l171 112v-64l-171 -111v-226h192z" />
    <glyph glyph-name="m.sc" horiz-adv-x="831" 
d="M746 514v-455l62 -59h-281l63 60v351l-216 -320l-226 321v-341l99 -71h-224l63 60v453l-63 60h191l211 -297l202 297h181z" />
    <glyph glyph-name="n.sc" horiz-adv-x="728" 
d="M705 573l-63 -60v-547h-5l-479 404v-299l99 -71h-224l63 60v453l-63 60h121l427 -361v290l-99 71h223z" />
    <glyph glyph-name="nacute.sc" horiz-adv-x="728" 
d="M557 855l-229 -207l-5 5l82 202h152zM705 573l-63 -60v-547h-5l-479 404v-299l99 -71h-224l63 60v453l-63 60h121l427 -361v290l-99 71h223z" />
    <glyph glyph-name="ncaron.sc" horiz-adv-x="728" 
d="M550 869l-177 -227l-176 227l5 5l171 -116l172 116zM705 573l-63 -60v-547h-5l-479 404v-299l99 -71h-224l63 60v453l-63 60h121l427 -361v290l-99 71h223z" />
    <glyph glyph-name="ncommaaccent.sc" horiz-adv-x="728" 
d="M705 573l-63 -60v-547h-5l-479 404v-299l99 -71h-224l63 60v453l-63 60h121l427 -361v290l-99 71h223zM375 -52c35 0 65 -21 65 -75c0 -69 -60 -133 -150 -157l-2 4c38 23 63 61 63 97c0 27 -13 53 -39 71c0 32 26 60 63 60z" />
    <glyph glyph-name="eng.sc" horiz-adv-x="715" 
d="M705 573l-63 -60v-473c0 -141 -61 -210 -167 -237l-4 4c74 49 105 105 112 203l-425 360v-299l99 -71h-224l63 60v453l-63 60h121l427 -361v290l-99 71h223z" />
    <glyph glyph-name="ntilde.sc" horiz-adv-x="728" 
d="M297 676c-73 0 -116 64 -119 152h5c25 -48 57 -59 84 -59c65 0 109 59 178 59c72 0 116 -64 119 -152h-5c-26 49 -58 59 -84 59c-65 0 -110 -59 -178 -59zM705 573l-63 -60v-547h-5l-479 404v-299l99 -71h-224l63 60v453l-63 60h121l427 -361v290l-99 71h223z" />
    <glyph glyph-name="o.sc" horiz-adv-x="702" 
d="M354 583c163 0 318 -98 318 -294c0 -197 -155 -299 -323 -299c-163 0 -319 98 -319 294c0 197 156 299 324 299zM360 39c97 0 146 85 146 232c0 188 -72 264 -164 264c-96 0 -146 -85 -146 -232c0 -188 72 -264 164 -264z" />
    <glyph glyph-name="oacute.sc" horiz-adv-x="702" 
d="M308 648l-5 5l82 202h152zM354 583c163 0 318 -98 318 -294c0 -197 -155 -299 -323 -299c-163 0 -319 98 -319 294c0 197 156 299 324 299zM360 39c97 0 146 85 146 232c0 188 -72 264 -164 264c-96 0 -146 -85 -146 -232c0 -188 72 -264 164 -264z" />
    <glyph glyph-name="ocircumflex.sc" horiz-adv-x="702" 
d="M351 874l177 -227l-5 -5l-172 116l-171 -116l-5 5zM354 583c163 0 318 -98 318 -294c0 -197 -155 -299 -323 -299c-163 0 -319 98 -319 294c0 197 156 299 324 299zM360 39c97 0 146 85 146 232c0 188 -72 264 -164 264c-96 0 -146 -85 -146 -232
c0 -188 72 -264 164 -264z" />
    <glyph glyph-name="odieresis.sc" horiz-adv-x="702" 
d="M237 681c-39 0 -73 33 -73 72s34 72 73 72s72 -33 72 -72s-33 -72 -72 -72zM468 681c-39 0 -73 33 -73 72s34 72 73 72s72 -33 72 -72s-33 -72 -72 -72zM354 583c163 0 318 -98 318 -294c0 -197 -155 -299 -323 -299c-163 0 -319 98 -319 294c0 197 156 299 324 299z
M360 39c97 0 146 85 146 232c0 188 -72 264 -164 264c-96 0 -146 -85 -146 -232c0 -188 72 -264 164 -264z" />
    <glyph glyph-name="ograve.sc" horiz-adv-x="702" 
d="M393 648l-229 207h152l82 -202zM354 583c163 0 318 -98 318 -294c0 -197 -155 -299 -323 -299c-163 0 -319 98 -319 294c0 197 156 299 324 299zM360 39c97 0 146 85 146 232c0 188 -72 264 -164 264c-96 0 -146 -85 -146 -232c0 -188 72 -264 164 -264z" />
    <glyph glyph-name="ohungarumlaut.sc" horiz-adv-x="702" 
d="M252 648l-5 5l59 202h130zM433 648l-5 5l59 202h131zM354 583c163 0 318 -98 318 -294c0 -197 -155 -299 -323 -299c-163 0 -319 98 -319 294c0 197 156 299 324 299zM360 39c97 0 146 85 146 232c0 188 -72 264 -164 264c-96 0 -146 -85 -146 -232
c0 -188 72 -264 164 -264z" />
    <glyph glyph-name="omacron.sc" horiz-adv-x="702" 
d="M180 782h344v-84h-344v84zM354 583c163 0 318 -98 318 -294c0 -197 -155 -299 -323 -299c-163 0 -319 98 -319 294c0 197 156 299 324 299zM360 39c97 0 146 85 146 232c0 188 -72 264 -164 264c-96 0 -146 -85 -146 -232c0 -188 72 -264 164 -264z" />
    <glyph glyph-name="oslash.sc" horiz-adv-x="702" 
d="M554 525c70 -49 118 -127 118 -236c0 -197 -155 -299 -323 -299c-57 0 -114 12 -163 36l-42 -57l-40 28l40 54c-68 49 -114 127 -114 233c0 197 156 299 324 299c56 0 111 -11 158 -34l40 53l38 -29zM196 303c0 -63 8 -113 22 -152l240 324c-30 41 -70 60 -116 60
c-96 0 -146 -85 -146 -232zM360 39c97 0 146 85 146 232c0 65 -9 117 -24 156l-240 -325c30 -43 71 -63 118 -63z" />
    <glyph glyph-name="otilde.sc" horiz-adv-x="702" 
d="M425 828c72 0 116 -64 119 -152h-5c-26 49 -58 59 -84 59c-65 0 -110 -59 -178 -59c-73 0 -116 64 -119 152h5c25 -48 57 -59 84 -59c65 0 109 59 178 59zM354 583c163 0 318 -98 318 -294c0 -197 -155 -299 -323 -299c-163 0 -319 98 -319 294c0 197 156 299 324 299z
M360 39c97 0 146 85 146 232c0 188 -72 264 -164 264c-96 0 -146 -85 -146 -232c0 -188 72 -264 164 -264z" />
    <glyph glyph-name="oe.sc" horiz-adv-x="919" 
d="M794 49l86 130v-179h-526c-173 0 -324 109 -324 294c0 194 151 279 324 279h504v-179l-86 131h-176v-203h119l71 79v-203l-71 75h-119v-224h198zM440 49v476h-69c-108 0 -180 -77 -180 -238c0 -154 72 -238 180 -238h69z" />
    <glyph glyph-name="p.sc" horiz-adv-x="603" 
d="M331 224h-79v-153l99 -71h-318l63 60v453l-63 60h298c147 0 254 -49 254 -163c0 -115 -107 -186 -254 -186zM252 528v-259h58c73 0 120 46 120 131c0 86 -47 128 -120 128h-58z" />
    <glyph glyph-name="thorn.sc" horiz-adv-x="650" 
d="M357 493c151 0 263 -58 263 -194c0 -137 -112 -206 -263 -206h-105v-33l63 -60h-282l63 60v453l-63 60h282l-63 -60v-20h105zM336 143c78 0 130 47 130 150c0 104 -52 151 -130 151h-84v-301h84z" />
    <glyph glyph-name="q.sc" horiz-adv-x="702" 
d="M461 6c24 -62 91 -130 187 -154v-4c-140 -10 -259 29 -334 143c-149 13 -284 111 -284 293c0 197 156 299 324 299c163 0 318 -98 318 -294c0 -152 -92 -247 -211 -283zM196 303c0 -188 72 -264 164 -264c97 0 146 85 146 232c0 188 -72 264 -164 264
c-96 0 -146 -85 -146 -232z" />
    <glyph glyph-name="r.sc" horiz-adv-x="648" 
d="M452 275c64 -131 127 -224 227 -275v-5c-214 -16 -292 54 -394 285l11 2c92 14 125 59 125 128c0 79 -46 115 -112 115h-67v-465l63 -60h-282l63 60v453l-63 60h309c137 0 244 -40 244 -147c0 -72 -49 -123 -124 -151z" />
    <glyph glyph-name="racute.sc" horiz-adv-x="648" 
d="M511 855l-229 -207l-5 5l82 202h152zM452 275c64 -131 127 -224 227 -275v-5c-214 -16 -292 54 -394 285l11 2c92 14 125 59 125 128c0 79 -46 115 -112 115h-67v-465l63 -60h-282l63 60v453l-63 60h309c137 0 244 -40 244 -147c0 -72 -49 -123 -124 -151z" />
    <glyph glyph-name="rcaron.sc" horiz-adv-x="648" 
d="M504 869l-177 -227l-176 227l5 5l171 -116l172 116zM452 275c64 -131 127 -224 227 -275v-5c-214 -16 -292 54 -394 285l11 2c92 14 125 59 125 128c0 79 -46 115 -112 115h-67v-465l63 -60h-282l63 60v453l-63 60h309c137 0 244 -40 244 -147c0 -72 -49 -123 -124 -151z
" />
    <glyph glyph-name="rcommaaccent.sc" horiz-adv-x="648" 
d="M452 275c64 -131 127 -224 227 -275v-5c-214 -16 -292 54 -394 285l11 2c92 14 125 59 125 128c0 79 -46 115 -112 115h-67v-465l63 -60h-282l63 60v453l-63 60h309c137 0 244 -40 244 -147c0 -72 -49 -123 -124 -151zM368 -52c35 0 65 -21 65 -75
c0 -69 -60 -133 -150 -157l-2 4c38 23 63 61 63 97c0 27 -13 53 -39 71c0 32 26 60 63 60z" />
    <glyph glyph-name="s.sc" horiz-adv-x="531" 
d="M208 456c0 -119 295 -89 295 -291c0 -126 -117 -175 -230 -175c-56 0 -105 11 -152 30l-60 -27v201l89 -122c33 -18 66 -29 103 -29c77 0 101 47 101 83c0 126 -291 100 -291 286c0 104 93 171 222 171c49 0 90 -10 128 -24l56 23v-198l-98 135c-22 9 -43 13 -67 13
c-80 0 -96 -48 -96 -76z" />
    <glyph glyph-name="sacute.sc" horiz-adv-x="531" 
d="M463 855l-229 -207l-5 5l82 202h152zM208 456c0 -119 295 -89 295 -291c0 -126 -117 -175 -230 -175c-56 0 -105 11 -152 30l-60 -27v201l89 -122c33 -18 66 -29 103 -29c77 0 101 47 101 83c0 126 -291 100 -291 286c0 104 93 171 222 171c49 0 90 -10 128 -24l56 23
v-198l-98 135c-22 9 -43 13 -67 13c-80 0 -96 -48 -96 -76z" />
    <glyph glyph-name="scaron.sc" horiz-adv-x="531" 
d="M456 869l-177 -227l-176 227l5 5l171 -116l172 116zM208 456c0 -119 295 -89 295 -291c0 -126 -117 -175 -230 -175c-56 0 -105 11 -152 30l-60 -27v201l89 -122c33 -18 66 -29 103 -29c77 0 101 47 101 83c0 126 -291 100 -291 286c0 104 93 171 222 171
c49 0 90 -10 128 -24l56 23v-198l-98 135c-22 9 -43 13 -67 13c-80 0 -96 -48 -96 -76z" />
    <glyph glyph-name="scedilla.sc" horiz-adv-x="531" 
d="M503 165c0 -116 -100 -167 -204 -174l-23 -55c69 -21 101 -56 101 -99c0 -56 -45 -87 -104 -87c-60 0 -103 36 -120 93l5 5c18 -13 43 -28 72 -28c28 0 45 13 45 41c0 23 -11 39 -53 58l31 71c-48 3 -90 13 -132 30l-60 -27v201l89 -122c33 -18 66 -29 103 -29
c77 0 101 47 101 83c0 126 -291 100 -291 286c0 104 93 171 222 171c49 0 90 -10 128 -24l56 23v-198l-98 135c-22 9 -43 13 -67 13c-80 0 -96 -48 -96 -76c0 -119 295 -89 295 -291z" />
    <glyph glyph-name="scommaaccent.sc" horiz-adv-x="531" 
d="M208 456c0 -119 295 -89 295 -291c0 -126 -117 -175 -230 -175c-56 0 -105 11 -152 30l-60 -27v201l89 -122c33 -18 66 -29 103 -29c77 0 101 47 101 83c0 126 -291 100 -291 286c0 104 93 171 222 171c49 0 90 -10 128 -24l56 23v-198l-98 135c-22 9 -43 13 -67 13
c-80 0 -96 -48 -96 -76zM281 -52c35 0 65 -21 65 -75c0 -69 -60 -133 -150 -157l-2 4c38 23 63 61 63 97c0 27 -13 53 -39 71c0 32 26 60 63 60z" />
    <glyph glyph-name="germandbls.sc" horiz-adv-x="635" 
d="M440 373c122 -29 185 -106 185 -198c0 -111 -94 -184 -202 -184c-46 0 -103 13 -135 31v102l115 -90c44 16 70 68 70 122c0 57 -30 102 -98 127l-32 -45l-52 37l182 250h-256v-465l63 -60h-282l63 60v453l-63 60h587z" />
    <glyph glyph-name="t.sc" horiz-adv-x="617" 
d="M522 573l73 16v-195l-86 131h-123v-465l63 -60h-282l63 60v465h-123l-86 -131v195l74 -16h427z" />
    <glyph glyph-name="tbar.sc" horiz-adv-x="627" 
d="M527 573l73 16v-195l-86 131h-123v-211h110v-49h-110v-205l63 -60h-282l63 60v205h-109v49h109v211h-123l-86 -131v195l74 -16h427z" />
    <glyph glyph-name="tcaron.sc" horiz-adv-x="617" 
d="M487 869l-177 -227l-176 227l5 5l171 -116l172 116zM522 573l73 16v-195l-86 131h-123v-465l63 -60h-282l63 60v465h-123l-86 -131v195l74 -16h427z" />
    <glyph glyph-name="uni0163.sc" horiz-adv-x="617" 
d="M522 573l73 16v-195l-86 131h-123v-465l63 -60h-115l-27 -64c69 -21 101 -56 101 -99c0 -56 -45 -87 -104 -87c-60 0 -103 36 -120 93l5 5c18 -13 43 -28 72 -28c28 0 45 13 45 41c0 23 -11 39 -53 58l35 81h-121l63 60v465h-123l-86 -131v195l74 -16h427z" />
    <glyph glyph-name="uni021B.sc" horiz-adv-x="617" 
d="M522 573l73 16v-195l-86 131h-123v-465l63 -60h-282l63 60v465h-123l-86 -131v195l74 -16h427zM312 -52c35 0 65 -21 65 -75c0 -69 -60 -133 -150 -157l-2 4c38 23 63 61 63 97c0 27 -13 53 -39 71c0 32 26 60 63 60z" />
    <glyph glyph-name="u.sc" horiz-adv-x="679" 
d="M674 573l-63 -60v-277c0 -164 -88 -246 -248 -246c-156 0 -287 79 -287 237v286l-63 60h282l-63 -60v-277c0 -127 58 -192 160 -192s157 65 157 192v266l-99 71h224z" />
    <glyph glyph-name="uacute.sc" horiz-adv-x="679" 
d="M560 855l-229 -207l-5 5l82 202h152zM674 573l-63 -60v-277c0 -164 -88 -246 -248 -246c-156 0 -287 79 -287 237v286l-63 60h282l-63 -60v-277c0 -127 58 -192 160 -192s157 65 157 192v266l-99 71h224z" />
    <glyph glyph-name="ucircumflex.sc" horiz-adv-x="679" 
d="M374 758l-171 -116l-5 5l176 227l177 -227l-5 -5zM674 573l-63 -60v-277c0 -164 -88 -246 -248 -246c-156 0 -287 79 -287 237v286l-63 60h282l-63 -60v-277c0 -127 58 -192 160 -192s157 65 157 192v266l-99 71h224z" />
    <glyph glyph-name="udieresis.sc" horiz-adv-x="679" 
d="M260 681c-39 0 -73 33 -73 72s34 72 73 72s72 -33 72 -72s-33 -72 -72 -72zM491 681c-39 0 -73 33 -73 72s34 72 73 72s72 -33 72 -72s-33 -72 -72 -72zM674 573l-63 -60v-277c0 -164 -88 -246 -248 -246c-156 0 -287 79 -287 237v286l-63 60h282l-63 -60v-277
c0 -127 58 -192 160 -192s157 65 157 192v266l-99 71h224z" />
    <glyph glyph-name="ugrave.sc" horiz-adv-x="679" 
d="M421 653l-5 -5l-229 207h152zM674 573l-63 -60v-277c0 -164 -88 -246 -248 -246c-156 0 -287 79 -287 237v286l-63 60h282l-63 -60v-277c0 -127 58 -192 160 -192s157 65 157 192v266l-99 71h224z" />
    <glyph glyph-name="uhungarumlaut.sc" horiz-adv-x="679" 
d="M459 855l-184 -207l-5 5l59 202h130zM456 648l-5 5l59 202h131zM674 573l-63 -60v-277c0 -164 -88 -246 -248 -246c-156 0 -287 79 -287 237v286l-63 60h282l-63 -60v-277c0 -127 58 -192 160 -192s157 65 157 192v266l-99 71h224z" />
    <glyph glyph-name="umacron.sc" horiz-adv-x="679" 
d="M547 782v-84h-344v84h344zM674 573l-63 -60v-277c0 -164 -88 -246 -248 -246c-156 0 -287 79 -287 237v286l-63 60h282l-63 -60v-277c0 -127 58 -192 160 -192s157 65 157 192v266l-99 71h224z" />
    <glyph glyph-name="uogonek.sc" horiz-adv-x="679" 
d="M674 573l-63 -60v-277c0 -139 -64 -220 -181 -240c-36 -36 -56 -75 -56 -107c0 -46 28 -59 58 -59c21 0 39 6 60 22l5 -5c-17 -56 -58 -97 -122 -97c-61 0 -103 37 -103 98c0 49 34 98 103 142h-12c-156 0 -287 79 -287 237v286l-63 60h282l-63 -60v-277
c0 -127 58 -192 160 -192s157 65 157 192v266l-99 71h224z" />
    <glyph glyph-name="uring.sc" horiz-adv-x="679" 
d="M374 641c-71 0 -130 58 -130 127c0 71 59 130 130 130c70 0 129 -59 129 -130c0 -69 -59 -127 -129 -127zM374 858c-50 0 -86 -39 -86 -90c0 -49 36 -88 86 -88c49 0 85 39 85 88c0 51 -36 90 -85 90zM674 573l-63 -60v-277c0 -164 -88 -246 -248 -246
c-156 0 -287 79 -287 237v286l-63 60h282l-63 -60v-277c0 -127 58 -192 160 -192s157 65 157 192v266l-99 71h224z" />
    <glyph glyph-name="v.sc" horiz-adv-x="651" 
d="M664 573l-60 -50l-259 -552h-5l-288 555l-55 47h293l-59 -56l159 -315l146 306l-91 65h219z" />
    <glyph glyph-name="w.sc" horiz-adv-x="939" 
d="M951 573l-65 -55l-205 -547h-5l-196 423l-178 -423h-5l-247 557l-53 45h294l-59 -56l120 -290l96 237l-50 109h205l-17 -47l132 -299l104 283l-88 63h217z" />
    <glyph glyph-name="wacute.sc" horiz-adv-x="939" 
d="M662 855l-229 -207l-5 5l82 202h152zM951 573l-65 -55l-205 -547h-5l-196 423l-178 -423h-5l-247 557l-53 45h294l-59 -56l120 -290l96 237l-50 109h205l-17 -47l132 -299l104 283l-88 63h217z" />
    <glyph glyph-name="wcircumflex.sc" horiz-adv-x="939" 
d="M476 758l-171 -116l-5 5l176 227l177 -227l-5 -5zM951 573l-65 -55l-205 -547h-5l-196 423l-178 -423h-5l-247 557l-53 45h294l-59 -56l120 -290l96 237l-50 109h205l-17 -47l132 -299l104 283l-88 63h217z" />
    <glyph glyph-name="wdieresis.sc" horiz-adv-x="939" 
d="M362 681c-39 0 -73 33 -73 72s34 72 73 72s72 -33 72 -72s-33 -72 -72 -72zM593 681c-39 0 -73 33 -73 72s34 72 73 72s72 -33 72 -72s-33 -72 -72 -72zM951 573l-65 -55l-205 -547h-5l-196 423l-178 -423h-5l-247 557l-53 45h294l-59 -56l120 -290l96 237l-50 109h205
l-17 -47l132 -299l104 283l-88 63h217z" />
    <glyph glyph-name="wgrave.sc" horiz-adv-x="939" 
d="M523 653l-5 -5l-229 207h152zM951 573l-65 -55l-205 -547h-5l-196 423l-178 -423h-5l-247 557l-53 45h294l-59 -56l120 -290l96 237l-50 109h205l-17 -47l132 -299l104 283l-88 63h217z" />
    <glyph glyph-name="x.sc" horiz-adv-x="624" 
d="M584 56l66 -56h-306l57 55l-133 185l-131 -185l64 -55h-204l67 56l166 236l-164 227l-64 54h305l-57 -54l122 -169l5 31l103 145l-55 47h70v-27l30 27l32 -14v14h71l-71 -60v20l-47 -97l-117 -115z" />
    <glyph glyph-name="y.sc" horiz-adv-x="636" 
d="M405 250v-190l63 -60h-282l63 60v187l-189 273l-63 53h292l-58 -55l146 -207l134 200l-86 62h224l-68 -57z" />
    <glyph glyph-name="yacute.sc" horiz-adv-x="636" 
d="M526 855l-229 -207l-5 5l82 202h152zM405 250v-190l63 -60h-282l63 60v187l-189 273l-63 53h292l-58 -55l146 -207l134 200l-86 62h224l-68 -57z" />
    <glyph glyph-name="ycircumflex.sc" horiz-adv-x="636" 
d="M340 758l-171 -116l-5 5l176 227l177 -227l-5 -5zM405 250v-190l63 -60h-282l63 60v187l-189 273l-63 53h292l-58 -55l146 -207l134 200l-86 62h224l-68 -57z" />
    <glyph glyph-name="ydieresis.sc" horiz-adv-x="636" 
d="M226 681c-39 0 -73 33 -73 72s34 72 73 72s72 -33 72 -72s-33 -72 -72 -72zM457 681c-39 0 -73 33 -73 72s34 72 73 72s72 -33 72 -72s-33 -72 -72 -72zM405 250v-190l63 -60h-282l63 60v187l-189 273l-63 53h292l-58 -55l146 -207l134 200l-86 62h224l-68 -57z" />
    <glyph glyph-name="ygrave.sc" horiz-adv-x="636" 
d="M387 653l-5 -5l-229 207h152zM405 250v-190l63 -60h-282l63 60v187l-189 273l-63 53h292l-58 -55l146 -207l134 200l-86 62h224l-68 -57z" />
    <glyph glyph-name="z.sc" horiz-adv-x="608" 
d="M226 51h245l102 150v-150h-1v-51h-558l352 523h-203l-102 -150v150h1v66l73 -16h443z" />
    <glyph glyph-name="zacute.sc" horiz-adv-x="608" 
d="M501 855l-229 -207l-5 5l82 202h152zM226 51h245l102 150v-150h-1v-51h-558l352 523h-203l-102 -150v150h1v66l73 -16h443z" />
    <glyph glyph-name="zcaron.sc" horiz-adv-x="608" 
d="M494 869l-177 -227l-176 227l5 5l171 -116l172 116zM226 51h245l102 150v-150h-1v-51h-558l352 523h-203l-102 -150v150h1v66l73 -16h443z" />
    <glyph glyph-name="zdotaccent.sc" horiz-adv-x="608" 
d="M314 659c-45 0 -84 39 -84 84s39 83 84 83s84 -38 84 -83s-39 -84 -84 -84zM226 51h245l102 150v-150h-1v-51h-558l352 523h-203l-102 -150v150h1v66l73 -16h443z" />
    <glyph glyph-name="a.subs" horiz-adv-x="393" 
d="M390 -134l3 -3c-14 -47 -51 -69 -94 -69c-33 0 -59 14 -75 45h-3c-22 -25 -56 -45 -100 -45c-56 0 -92 31 -92 82c0 41 23 68 50 85h139v34c0 53 -26 68 -67 68c-31 0 -61 -8 -102 -33l-3 3c29 53 80 104 168 104c78 0 124 -39 124 -109v-141c0 -25 10 -33 24 -33
c10 0 18 4 28 12zM172 -154c17 0 33 7 46 20v69h-67c-13 -12 -20 -29 -20 -45c0 -28 17 -44 41 -44z" />
    <glyph glyph-name="b.subs" horiz-adv-x="422" 
d="M254 137c68 0 143 -47 143 -157c0 -128 -105 -186 -202 -186c-33 0 -80 6 -114 20l-49 -19l1 419l-31 34l152 64v-172l-8 -47l3 -3c24 29 63 47 105 47zM199 -178c43 0 75 49 75 133c0 89 -33 128 -72 128c-16 0 -33 -6 -48 -19v-201c0 -22 20 -41 45 -41z" />
    <glyph glyph-name="c.subs" horiz-adv-x="368" 
d="M346 -84l4 -3c-25 -79 -75 -119 -154 -119c-108 0 -171 78 -171 172c0 112 87 171 186 171c62 0 111 -22 137 -67l-77 -42l-49 80c-37 -2 -73 -45 -73 -114c0 -73 37 -116 98 -116c26 0 64 9 99 38z" />
    <glyph glyph-name="d.subs" horiz-adv-x="440" 
d="M390 -119l37 -39l-124 -53l-26 52h-4c-24 -28 -63 -47 -105 -47c-68 0 -143 47 -143 156c0 129 105 187 202 187c12 0 26 -1 41 -3v80l-30 34l152 64v-431zM220 -151c16 0 34 5 48 18v201c0 23 -21 41 -45 41c-43 0 -75 -49 -75 -134c0 -88 33 -126 72 -126z" />
    <glyph glyph-name="e.subs" horiz-adv-x="384" 
d="M247 -122c30 0 74 9 110 38l3 -3c-24 -79 -76 -119 -158 -119c-113 0 -177 78 -177 174c0 105 75 169 184 169c96 0 150 -50 152 -142h-223c4 -79 44 -117 109 -117zM198 110c-34 0 -57 -33 -60 -90h108c-1 58 -16 90 -48 90z" />
    <glyph glyph-name="f.subs" horiz-adv-x="271" 
d="M185 144v-13h109l-18 -44h-91v-238l55 -49h-210l33 35v252h-59l59 53v8c0 127 100 164 174 164c43 0 87 -9 126 -54l-78 -42l-48 63c-35 -13 -52 -58 -52 -135z" />
    <glyph glyph-name="g.subs" horiz-adv-x="401" 
d="M396 136v-61l-71 23c19 -17 32 -41 32 -73c0 -86 -91 -112 -160 -112c-29 0 -61 5 -90 16c-14 -11 -19 -22 -19 -34c0 -17 10 -26 29 -26h224c32 -19 55 -51 55 -94c0 -71 -66 -137 -226 -137c-92 0 -154 26 -154 76c0 27 17 49 49 65c-25 17 -39 43 -39 74
c0 39 21 68 55 90c-26 18 -44 44 -44 82c0 86 92 112 160 112c26 0 55 -4 81 -13zM200 -60c27 0 44 32 44 75c0 51 -23 95 -52 95c-26 0 -43 -31 -43 -75c0 -51 22 -95 51 -95zM281 -267c0 24 -15 41 -45 41h-121c-15 -14 -21 -30 -21 -48c0 -36 24 -60 87 -60
c65 0 100 28 100 67z" />
    <glyph glyph-name="h.subs" horiz-adv-x="442" 
d="M396 -165l33 -35h-187l32 35v193c0 36 -16 48 -43 48c-17 0 -37 -5 -59 -21v-220l32 -35h-187l33 35v379l-31 34l153 64v-177l-10 -55l4 -3c32 32 71 60 134 60c50 0 96 -22 96 -99v-203z" />
    <glyph glyph-name="i.subs" horiz-adv-x="217" 
d="M107 170c-35 0 -66 29 -66 65s31 66 66 66s66 -30 66 -66s-31 -65 -66 -65zM172 -165l32 -35h-187l33 35v208l-31 33l153 65v-306z" />
    <glyph glyph-name="j.subs" horiz-adv-x="228" 
d="M115 170c-36 0 -66 29 -66 65s30 66 66 66s66 -30 66 -66s-30 -65 -66 -65zM58 43l-31 33l153 65v-335c-1 -97 -72 -153 -166 -175l-3 3c35 44 47 91 47 165v244z" />
    <glyph glyph-name="k.subs" horiz-adv-x="436" 
d="M172 312v-477l32 -35h-187l33 35v379l-30 34zM294 11c51 -103 90 -180 151 -211v-3c-122 -12 -187 4 -250 172l115 106l-46 56h149z" />
    <glyph glyph-name="l.subs" horiz-adv-x="217" 
d="M172 -165l32 -35h-187l33 35v379l-31 34l153 64v-477z" />
    <glyph glyph-name="m.subs" horiz-adv-x="650" 
d="M604 -165l33 -35h-187l32 35v193c0 36 -12 48 -37 48c-19 0 -34 -5 -57 -21v-220l33 -35h-155l1 228h-1c0 36 -12 48 -38 48c-18 0 -34 -5 -56 -21v-220l32 -35h-187l33 35v208l-30 34l152 64l-9 -61l3 -3c33 31 72 60 131 60c40 0 74 -13 86 -59c34 31 73 59 131 59
c50 0 90 -21 90 -99v-203zM234 -200l32 35v-35h-32z" />
    <glyph glyph-name="n.subs" horiz-adv-x="442" 
d="M396 -165l33 -35h-187l32 35v193c0 36 -16 48 -43 48c-17 0 -37 -5 -59 -21v-220l32 -35h-187l33 35v208l-31 34l153 64l-10 -61l4 -3c32 32 71 60 134 60c50 0 96 -22 96 -99v-203z" />
    <glyph glyph-name="o.subs" horiz-adv-x="427" 
d="M213 -206c-92 0 -188 53 -188 172c0 118 96 171 188 171c93 0 189 -53 189 -171c0 -119 -96 -172 -189 -172zM217 -178c42 0 57 53 57 132c0 95 -22 155 -65 155c-41 0 -56 -53 -56 -132c0 -94 22 -155 64 -155z" />
    <glyph glyph-name="p.subs" horiz-adv-x="429" 
d="M201 -206c-12 0 -26 1 -40 3v-104l54 -49h-209l33 35v364l-30 34l152 64l-9 -48l4 -3c24 29 62 47 105 47c68 0 143 -47 143 -157c0 -128 -105 -186 -203 -186zM209 83c-16 0 -34 -6 -48 -19v-201c0 -22 20 -41 45 -41c43 0 75 49 75 133c0 89 -33 128 -72 128z" />
    <glyph glyph-name="q.subs" horiz-adv-x="433" 
d="M268 -377v168l9 47l-4 3c-24 -28 -63 -47 -105 -47c-68 0 -143 47 -143 156c0 129 105 187 202 187c33 0 81 -6 113 -20l50 20v-416l30 -33zM220 -151c16 0 34 5 48 18v201c0 23 -21 41 -45 41c-43 0 -75 -49 -75 -134c0 -88 33 -126 72 -126z" />
    <glyph glyph-name="r.subs" horiz-adv-x="308" 
d="M262 10c-31 13 -70 18 -90 -12v-149l54 -49h-209l33 35v208l-31 33l153 65l-17 -116l3 -1c21 76 68 123 145 107z" />
    <glyph glyph-name="s.subs" horiz-adv-x="355" 
d="M154 66c0 -60 169 -49 169 -162c0 -60 -49 -110 -150 -110c-41 0 -74 8 -99 18l-42 -23v139l66 -89c17 -8 34 -12 50 -12c39 0 57 18 57 39c0 62 -166 56 -166 164c0 65 60 107 150 107c31 0 58 -5 80 -13l37 17v-125l-70 86c-8 2 -16 3 -24 3c-37 0 -58 -18 -58 -39z
" />
    <glyph glyph-name="t.subs" horiz-adv-x="299" 
d="M167 -209c-81 0 -116 49 -116 116v177h-63l184 131v-84h124l-19 -47h-105v-150c0 -35 13 -60 53 -60c20 0 42 6 67 25l3 -4c-16 -74 -68 -104 -128 -104z" />
    <glyph glyph-name="u.subs" horiz-adv-x="426" 
d="M376 -118l37 -40l-117 -51l-33 64h-3c-22 -25 -72 -61 -131 -61c-52 0 -93 21 -93 100v149l-30 33l152 65v-237c0 -37 16 -49 37 -49c17 0 36 5 59 21v167l-30 33l152 65v-259z" />
    <glyph glyph-name="v.subs" horiz-adv-x="386" 
d="M392 131l-41 -36v1l-151 -314h-4l-170 317l-36 32h213l-32 -36l70 -148l71 148l-35 36h115z" />
    <glyph glyph-name="w.subs" horiz-adv-x="609" 
d="M615 131l-41 -36l-138 -313h-4l-123 244l-112 -244h-4l-168 318l-35 31h210l-33 -36l69 -147l52 119l-32 64h175l-24 -36l68 -145l59 145l-34 36h115z" />
    <glyph glyph-name="x.subs" horiz-adv-x="410" 
d="M372 -167l39 -33h-216l32 35l-71 99l-71 -99l35 -35h-121l41 35l94 129l-95 134l-38 33h216l-33 -36l64 -89l67 89l-35 36h120l-40 -35l-91 -119z" />
    <glyph glyph-name="z.subs" horiz-adv-x="362" 
d="M158 -167h131l60 107v-140h-352l198 298h-107l-61 -107v152l51 -12h279z" />
    <glyph glyph-name="a.sups" horiz-adv-x="393" 
d="M390 313l3 -3c-14 -48 -51 -69 -94 -69c-33 0 -59 14 -75 45h-3c-22 -26 -56 -45 -100 -45c-56 0 -92 31 -92 82c0 41 23 68 50 85h139v34c0 53 -26 68 -67 68c-31 0 -61 -8 -102 -34l-3 3c29 54 80 105 168 105c78 0 124 -40 124 -109v-141c0 -26 10 -33 24 -33
c10 0 18 4 28 12zM172 293c17 0 33 7 46 20v69h-67c-13 -12 -20 -30 -20 -46c0 -27 17 -43 41 -43z" />
    <glyph glyph-name="b.sups" horiz-adv-x="422" 
d="M254 584c68 0 143 -48 143 -157c0 -128 -105 -186 -202 -186c-33 0 -80 6 -113 20l-50 -20l1 419l-31 34l152 64v-171l-8 -47l3 -4c24 29 63 48 105 48zM199 269c43 0 75 49 75 133c0 88 -33 127 -72 127c-16 0 -33 -6 -48 -18v-201c0 -23 20 -41 45 -41z" />
    <glyph glyph-name="c.sups" horiz-adv-x="368" 
d="M346 363l4 -3c-25 -79 -75 -119 -154 -119c-108 0 -171 77 -171 172c0 111 87 171 186 171c62 0 111 -22 137 -68l-77 -41l-49 80c-37 -2 -73 -45 -73 -115c0 -72 37 -115 98 -115c26 0 64 8 99 38z" />
    <glyph glyph-name="d.sups" horiz-adv-x="440" 
d="M390 328l37 -39l-124 -54l-26 53h-4c-24 -29 -63 -47 -105 -47c-68 0 -143 47 -143 156c0 129 105 187 202 187c12 0 26 -1 41 -3v79l-30 34l152 64v-430zM220 295c16 0 34 6 48 19v200c0 23 -21 42 -45 42c-43 0 -75 -49 -75 -134c0 -88 33 -127 72 -127z" />
    <glyph glyph-name="e.sups" horiz-adv-x="384" 
d="M247 325c30 0 74 8 110 38l3 -3c-24 -79 -76 -119 -158 -119c-113 0 -177 78 -177 174c0 105 75 169 184 169c96 0 150 -50 152 -142h-223c4 -79 44 -117 109 -117zM198 556c-34 0 -57 -32 -60 -89h108c-1 58 -16 89 -48 89z" />
    <glyph glyph-name="f.sups" horiz-adv-x="271" 
d="M185 591v-13h109l-18 -44h-91v-239l55 -48h-210l33 35v252h-59l59 53v8c0 127 100 163 174 163c43 0 87 -9 126 -53l-78 -42l-48 63c-35 -14 -52 -58 -52 -135z" />
    <glyph glyph-name="g.sups" horiz-adv-x="401" 
d="M396 583v-61l-70 22c19 -17 31 -41 31 -72c0 -86 -91 -112 -160 -112c-28 0 -61 5 -89 16c-14 -11 -20 -21 -20 -34c0 -17 10 -27 29 -27h224c32 -18 55 -50 55 -93c0 -72 -66 -138 -226 -138c-92 0 -154 26 -154 77c0 26 17 48 49 64c-25 18 -39 44 -39 74
c0 39 21 69 55 91c-26 17 -44 44 -44 82c0 86 92 112 160 112c26 0 55 -4 81 -13zM200 387c27 0 44 32 44 75c0 51 -23 95 -52 95c-26 0 -43 -32 -43 -75c0 -51 22 -95 51 -95zM281 180c0 24 -15 40 -45 40h-122c-14 -14 -20 -30 -20 -48c0 -36 24 -59 87 -59
c65 0 100 28 100 67z" />
    <glyph glyph-name="h.sups" horiz-adv-x="442" 
d="M396 282l33 -35h-187l32 35v192c0 36 -16 49 -43 49c-17 0 -37 -6 -59 -21v-220l32 -35h-187l33 35v378l-31 34l153 64v-176l-10 -56l4 -3c32 33 71 61 134 61c50 0 96 -22 96 -100v-202z" />
    <glyph glyph-name="i.sups" horiz-adv-x="217" 
d="M107 616c-35 0 -66 30 -66 66c0 35 31 66 66 66s66 -31 66 -66c0 -36 -31 -66 -66 -66zM172 282l32 -35h-187l33 35v208l-31 33l153 65v-306z" />
    <glyph glyph-name="j.sups" horiz-adv-x="228" 
d="M115 616c-36 0 -66 30 -66 66c0 35 30 66 66 66s66 -31 66 -66c0 -36 -30 -66 -66 -66zM58 490l-31 33l153 65v-335c-1 -97 -72 -153 -166 -175l-3 3c35 44 47 90 47 165v244z" />
    <glyph glyph-name="k.sups" horiz-adv-x="436" 
d="M172 758v-476l32 -35h-187l33 35v378l-30 34zM294 457c51 -103 90 -179 151 -210v-3c-122 -12 -187 4 -250 171l115 106l-46 57h149z" />
    <glyph glyph-name="l.sups" horiz-adv-x="217" 
d="M172 282l32 -35h-187l33 35v378l-31 34l153 64v-476z" />
    <glyph glyph-name="m.sups" horiz-adv-x="650" 
d="M604 282l33 -35h-187l32 35v192c0 36 -12 49 -37 49c-19 0 -34 -6 -57 -21v-220l33 -35h-187l32 35v192c0 36 -12 49 -38 49c-18 0 -34 -6 -56 -21v-220l32 -35h-187l33 35v208l-30 34l152 64l-9 -62l3 -3c33 31 72 61 131 61c40 0 74 -14 86 -59c34 30 73 59 131 59
c50 0 90 -22 90 -100v-202z" />
    <glyph glyph-name="n.sups" horiz-adv-x="442" 
d="M396 282l33 -35h-187l32 35v192c0 36 -16 49 -43 49c-17 0 -37 -6 -59 -21v-220l32 -35h-187l33 35v208l-31 34l153 64l-10 -62l4 -3c32 33 71 61 134 61c50 0 96 -22 96 -100v-202z" />
    <glyph glyph-name="o.sups" horiz-adv-x="427" 
d="M213 241c-92 0 -188 53 -188 171c0 119 96 172 188 172c93 0 189 -53 189 -172c0 -118 -96 -171 -189 -171zM217 269c42 0 57 52 57 132c0 94 -22 155 -65 155c-41 0 -56 -53 -56 -132c0 -95 22 -155 64 -155z" />
    <glyph glyph-name="p.sups" horiz-adv-x="429" 
d="M201 241c-12 0 -26 1 -40 3v-105l54 -48h-209l33 35v364l-30 34l152 64l-9 -48l4 -4c24 29 62 48 105 48c68 0 143 -48 143 -157c0 -128 -105 -186 -203 -186zM209 529c-16 0 -34 -6 -48 -18v-201c0 -23 20 -41 45 -41c43 0 75 49 75 133c0 88 -33 127 -72 127z" />
    <glyph glyph-name="q.sups" horiz-adv-x="433" 
d="M268 70v167l9 48l-4 3c-24 -29 -63 -47 -105 -47c-68 0 -143 47 -143 156c0 129 105 187 202 187c33 0 80 -7 113 -20l50 20v-416l30 -34zM220 295c16 0 34 6 48 19v200c0 23 -21 42 -45 42c-43 0 -75 -49 -75 -134c0 -88 33 -127 72 -127z" />
    <glyph glyph-name="r.sups" horiz-adv-x="308" 
d="M262 457c-31 13 -70 18 -90 -12v-150l54 -48h-209l33 35v208l-31 33l153 65l-17 -117l3 -1c21 77 68 124 145 108z" />
    <glyph glyph-name="s.sups" horiz-adv-x="355" 
d="M154 513c0 -60 169 -50 169 -163c0 -60 -49 -109 -150 -109c-41 0 -73 8 -98 18l-43 -23v139l66 -90c17 -8 34 -12 50 -12c39 0 57 19 57 40c0 62 -166 56 -166 163c0 65 60 108 150 108c31 0 58 -5 80 -13l37 17v-125l-69 85c-8 2 -16 3 -25 3c-37 0 -58 -18 -58 -38z
" />
    <glyph glyph-name="t.sups" horiz-adv-x="299" 
d="M176 238c-80 0 -116 48 -116 116v176h-63l185 132v-84h123l-19 -48h-104v-149c0 -35 12 -60 52 -60c20 0 43 6 67 24l3 -3c-16 -74 -68 -104 -128 -104z" />
    <glyph glyph-name="u.sups" horiz-adv-x="426" 
d="M376 328l37 -39l-117 -51l-33 64h-3c-22 -26 -72 -61 -131 -61c-52 0 -93 21 -93 99v150l-30 33l152 65v-238c0 -36 16 -48 37 -48c17 0 36 5 59 20v168l-30 33l152 65v-260z" />
    <glyph glyph-name="v.sups" horiz-adv-x="386" 
d="M392 578l-41 -36v1l-151 -315h-4l-170 319l-36 31h213l-32 -36l70 -148l71 148l-35 36h115z" />
    <glyph glyph-name="w.sups" horiz-adv-x="609" 
d="M615 578l-41 -36l-138 -314h-4l-123 244l-112 -244h-4l-168 319l-35 31h210l-33 -36l69 -147l52 119l-32 64h175l-24 -36l68 -146l59 146l-34 36h115z" />
    <glyph glyph-name="x.sups" horiz-adv-x="410" 
d="M372 280l39 -33h-216l32 35l-71 99l-71 -99l35 -35h-121l41 35l95 129l-96 134l-38 33h216l-33 -36l64 -89l67 89l-35 36h120l-40 -35l-91 -120z" />
    <glyph glyph-name="z.sups" horiz-adv-x="362" 
d="M158 280h131l60 106v-139h-352l198 297h-107l-61 -106v152l51 -12h279z" />
    <glyph glyph-name="uni0410" unicode="&#x410;" horiz-adv-x="733" 
d="M687 54l64 -54h-308l62 59v1l-75 171h-234l-71 -160v-1l98 -70h-198l338 741h6zM220 285h187l-93 213z" />
    <glyph glyph-name="uni0411" unicode="&#x411;" horiz-adv-x="691" 
d="M368 421c167 0 287 -66 287 -203c0 -138 -120 -218 -287 -218h-335l63 60v580l-63 60h563v-204l-102 150h-241v-225h115zM347 54c89 0 145 55 145 157c0 101 -56 157 -145 157h-94v-314h94z" />
    <glyph glyph-name="uni0412" unicode="&#x412;" horiz-adv-x="715" 
d="M514 362c104 -22 166 -75 166 -166c0 -120 -113 -196 -292 -196h-355l63 60v580l-63 60h352c159 0 258 -67 258 -176c0 -78 -48 -135 -129 -162zM351 646h-94v-261h94c94 0 132 59 132 130c0 72 -38 131 -132 131zM350 54c114 0 162 56 162 136c0 85 -48 141 -162 141
h-93v-277h93z" />
    <glyph glyph-name="uni0413" unicode="&#x413;" horiz-adv-x="590" 
d="M564 700v-204l-102 150h-205v-575l99 -71h-323l63 60v580l-63 60h531z" />
    <glyph glyph-name="uni0414" unicode="&#x414;" horiz-adv-x="750" 
d="M646 54h71v-262l-133 208h-449l-133 -208v262h67c90 102 142 348 150 587l-62 59h548l-59 -56v-590zM205 54h280v592h-201c-2 -256 -21 -464 -79 -592z" />
    <glyph glyph-name="uni0415" unicode="&#x415;" horiz-adv-x="630" 
d="M489 54l102 150v-150h-1v-54h-557l63 60v580l-63 60h531v-204l-102 150h-205v-259h143l81 95v-240l-81 91h-143v-279h232z" />
    <glyph glyph-name="uni0401" unicode="&#x401;" horiz-adv-x="630" 
d="M207 771c-39 0 -73 33 -73 72s34 72 73 72s72 -33 72 -72s-33 -72 -72 -72zM438 771c-39 0 -73 33 -73 72s34 72 73 72s72 -33 72 -72s-33 -72 -72 -72zM489 54l102 150v-150h-1v-54h-557l63 60v580l-63 60h531v-204l-102 150h-205v-259h143l81 95v-240l-81 91h-143v-279
h232z" />
    <glyph glyph-name="uni0416" unicode="&#x416;" horiz-adv-x="1022" 
d="M181 615l236 -258c-148 -309 -227 -382 -448 -362v5c137 58 199 199 302 420l-249 280h249zM584 640v-580l63 -60h-273l63 60v580l-63 60h273zM751 420c103 -221 165 -362 302 -420v-5c-221 -20 -300 53 -448 362l236 258l-90 85h249z" />
    <glyph glyph-name="uni0417" unicode="&#x417;" horiz-adv-x="592" 
d="M404 376c88 -25 153 -93 153 -186c0 -132 -128 -200 -265 -200c-135 0 -231 65 -272 214l5 5c76 -85 153 -108 220 -108c96 0 146 47 146 112c0 78 -74 149 -193 126v84c123 -26 183 41 183 116c0 60 -39 119 -129 119c-25 0 -50 -5 -75 -14l-121 -167v235l63 -28
c50 17 103 26 162 26c163 0 259 -69 259 -176c0 -70 -42 -128 -136 -158z" />
    <glyph glyph-name="uni0418" unicode="&#x418;" horiz-adv-x="853" 
d="M757 640v-580l63 -60h-287l63 60v514l-339 -574h-224l63 60v580l-63 60h287l-63 -60v-514l339 574h224z" />
    <glyph glyph-name="uni0419" unicode="&#x419;" horiz-adv-x="853" 
d="M426 759c-89 0 -161 69 -166 165l5 5c49 -62 98 -81 161 -81s112 19 162 81l5 -5c-5 -96 -77 -165 -167 -165zM757 640v-580l63 -60h-287l63 60v514l-339 -574h-224l63 60v580l-63 60h287l-63 -60v-514l339 574h224z" />
    <glyph glyph-name="uni041A" unicode="&#x41a;" horiz-adv-x="752" 
d="M257 640v-580l63 -60h-287l63 60v580l-63 60h287zM451 417c130 -222 195 -359 332 -417v-5c-221 -20 -310 34 -482 362l268 264l-87 79h252z" />
    <glyph glyph-name="uni041B" unicode="&#x41b;" horiz-adv-x="705" 
d="M609 640v-580l63 -60h-286l62 59v587h-208c-7 -485 -31 -654 -215 -656v156c99 6 143 111 151 496l-61 58h557z" />
    <glyph glyph-name="uni041C" unicode="&#x41c;" horiz-adv-x="932" 
d="M836 60l63 -60h-287l63 60v451l-251 -390l-261 385v-435l99 -71h-229l63 60v580l-63 60h180l262 -385l246 385h177l-62 -59v-581z" />
    <glyph glyph-name="uni041D" unicode="&#x41d;" horiz-adv-x="857" 
d="M761 640v-580l63 -60h-287l63 60v281h-343v-281l63 -60h-287l63 60v580l-63 60h287l-63 -60v-245h343v245l-63 60h287z" />
    <glyph glyph-name="uni041E" unicode="&#x41e;" horiz-adv-x="811" 
d="M408 710c186 0 363 -122 363 -357s-177 -363 -368 -363c-185 0 -363 122 -363 357s178 363 368 363zM420 44c118 0 180 108 180 288c0 218 -91 324 -209 324c-117 0 -180 -108 -180 -288c0 -218 91 -324 209 -324z" />
    <glyph glyph-name="uni041F" unicode="&#x41f;" horiz-adv-x="833" 
d="M737 640v-580l63 -60h-287l63 60v586h-319v-586l63 -60h-287l63 60v580l-63 60h767z" />
    <glyph glyph-name="uni0420" unicode="&#x420;" horiz-adv-x="656" 
d="M352 279h-95v-208l99 -71h-323l63 60v580l-63 60h319c166 0 287 -58 287 -196c0 -137 -121 -225 -287 -225zM257 646v-314h73c90 0 145 59 145 160c0 102 -55 154 -145 154h-73z" />
    <glyph glyph-name="uni0421" unicode="&#x421;" horiz-adv-x="712" 
d="M676 195l5 -5c-59 -147 -174 -200 -289 -200c-182 0 -352 138 -352 353c0 233 192 367 398 367c52 0 111 -9 165 -27l55 23v-123s-1 0 -1 1v-130l-128 191c-28 8 -55 11 -79 11c-138 0 -240 -97 -240 -276c0 -173 98 -276 241 -276c66 0 148 22 225 91z" />
    <glyph glyph-name="uni0422" unicode="&#x422;" horiz-adv-x="703" 
d="M589 700l88 20v-224l-102 150h-143v-587l62 -59h-285l62 59v587h-143l-102 -150v224l88 -20h475z" />
    <glyph glyph-name="uni0423" unicode="&#x423;" horiz-adv-x="718" 
d="M722 700l-63 -60l-260 -485c-75 -124 -141 -167 -248 -165v133c83 8 141 17 204 89l-297 441l-56 47h306l-63 -60l183 -296l151 285l-99 71h242z" />
    <glyph glyph-name="uni0424" unicode="&#x424;" horiz-adv-x="881" 
d="M584 601c167 0 280 -90 280 -244s-113 -258 -280 -258h-74v-53l63 -60h-265l63 60v53h-74c-167 0 -280 90 -280 244s113 258 280 258h74v53l-63 60h265l-63 -60v-53h74zM371 153v394h-57c-86 0 -141 -79 -141 -197s55 -197 141 -197h57zM567 153c86 0 141 79 141 197
s-55 197 -141 197h-57v-394h57z" />
    <glyph glyph-name="uni0425" unicode="&#x425;" horiz-adv-x="719" 
d="M677 53l63 -53h-323l63 60l-166 238l-165 -238v-1l69 -59h-216l71 60l203 293l-207 298l-58 49h320l-63 -60l151 -217l156 217l-70 60h216l-71 -60l-194 -270z" />
    <glyph glyph-name="uni0427" unicode="&#x427;" horiz-adv-x="771" 
d="M676 641v-582l62 -59h-319l99 71v219c-57 -18 -108 -28 -171 -28c-171 0 -267 62 -267 212v166l-63 60h283l-63 -60v-160c0 -114 36 -164 142 -164c46 0 94 11 139 26v299l-62 59h282z" />
    <glyph glyph-name="uni0426" unicode="&#x426;" horiz-adv-x="806" 
d="M702 54h70v-262l-133 208h-621l63 60v580l-63 60h287l-63 -60v-586h299v586l-63 60h287l-63 -60v-586z" />
    <glyph glyph-name="uni0428" unicode="&#x428;" horiz-adv-x="1121" 
d="M1025 640v-580l62 -60h-1054l63 60v580l-63 60h287l-63 -60v-586h223v586l-63 60h287l-63 -60v-586h223v586l-63 60h286z" />
    <glyph glyph-name="uni0429" unicode="&#x429;" horiz-adv-x="1128" 
d="M1095 -208l-132 208h-930l63 60v580l-63 60h287l-63 -60v-586h223v586l-63 60h287l-63 -60v-586h223v586l-63 60h286l-62 -60v-586h70v-262z" />
    <glyph glyph-name="uni042C" unicode="&#x42c;" horiz-adv-x="672" 
d="M368 421c167 0 287 -66 287 -203c0 -138 -120 -218 -287 -218h-335l63 60v580l-63 60h319l-99 -71v-208h115zM347 54c89 0 145 55 145 157c0 101 -56 157 -145 157h-94v-314h94z" />
    <glyph glyph-name="uni042A" unicode="&#x42a;" horiz-adv-x="841" 
d="M537 421c166 0 287 -66 287 -203c0 -138 -121 -218 -287 -218h-335l63 60v586h-137l-102 -150v204h495l-99 -71v-208h115zM515 54c90 0 145 55 145 157c0 101 -55 157 -145 157h-93v-314h93z" />
    <glyph glyph-name="uni042B" unicode="&#x42b;" horiz-adv-x="1007" 
d="M348 421c167 0 287 -66 287 -203c0 -138 -120 -218 -287 -218h-315l63 60v580l-63 60h319l-99 -71v-208h95zM906 640v-580l63 -60h-287l63 60v580l-63 60h287zM327 54c89 0 145 55 145 157c0 101 -56 157 -145 157h-74v-314h74z" />
    <glyph glyph-name="uni042D" unicode="&#x42d;" horiz-adv-x="718" 
d="M303 710c207 0 375 -125 375 -355c0 -225 -161 -365 -349 -365c-108 0 -241 47 -299 183l5 5c78 -64 165 -85 236 -85c132 0 232 73 243 246h-324v54h325c-7 159 -86 263 -228 263c-29 0 -64 -4 -101 -14l-125 -188v130c0 -1 -1 -1 -1 -1v123l55 -24c60 19 132 28 188 28
z" />
    <glyph glyph-name="uni042E" unicode="&#x42e;" horiz-adv-x="1081" 
d="M710 710c165 0 333 -122 333 -357s-168 -363 -338 -363c-161 0 -325 116 -333 341h-115v-271l63 -60h-287l63 60v580l-63 60h287l-63 -60v-255h117c17 211 175 325 336 325zM722 44c97 0 150 108 150 286c0 220 -81 326 -179 326c-97 0 -150 -108 -150 -286
c0 -220 81 -326 179 -326z" />
    <glyph glyph-name="uni042F" unicode="&#x42f;" horiz-adv-x="727" 
d="M631 640v-580l63 -60h-287l63 60v586h-81c-80 0 -136 -38 -136 -124c0 -75 41 -148 169 -163c-135 -269 -212 -384 -453 -364v5c117 64 194 190 272 345c-91 28 -151 84 -151 170c0 123 121 185 277 185h327z" />
    <glyph glyph-name="uni0430" unicode="&#x430;" horiz-adv-x="568" 
d="M564 95l5 -5c-24 -72 -71 -100 -127 -100c-52 0 -90 25 -109 72h-5c-32 -43 -81 -72 -147 -72c-85 0 -141 47 -141 123c0 59 34 101 75 124h208v65c0 79 -35 105 -101 105c-46 0 -95 -12 -152 -50l-5 5c46 87 128 147 237 147c108 0 170 -58 170 -160v-221
c0 -41 18 -52 42 -52c16 0 31 5 50 19zM241 65c27 0 54 13 82 39v94h-120c-17 -18 -26 -41 -26 -66c0 -46 29 -67 64 -67z" />
    <glyph glyph-name="uni0431" unicode="&#x431;" horiz-adv-x="610" 
d="M306 481c140 0 274 -87 274 -245c0 -159 -134 -246 -274 -246s-271 87 -271 246c0 291 61 422 131 510h280c50 0 74 14 87 42h5c13 -34 15 -61 15 -76c0 -76 -48 -97 -117 -97h-201c-63 0 -116 -81 -138 -216c52 54 129 82 209 82zM319 34c71 0 95 84 95 180
c0 128 -46 224 -121 224c-71 0 -97 -85 -97 -181c0 -128 48 -223 123 -223z" />
    <glyph glyph-name="uni0432" unicode="&#x432;" horiz-adv-x="622" 
d="M476 259c73 -15 110 -52 110 -111c0 -86 -79 -148 -223 -148h-340l63 60v379l-63 60h320c144 0 223 -46 223 -131c0 -52 -30 -89 -90 -109zM233 448v-170h83c67 0 97 33 97 85c0 53 -30 85 -97 85h-83zM336 51c67 0 97 34 97 88c0 55 -30 89 -97 89h-103v-177h103z" />
    <glyph glyph-name="uni0433" unicode="&#x433;" horiz-adv-x="500" 
d="M482 499v-201l-102 150h-143v-378l98 -70h-312l63 60v379l-63 60h459z" />
    <glyph glyph-name="uni0434" unicode="&#x434;" horiz-adv-x="618" 
d="M529 54h71v-262l-133 208h-325l-133 -208v262h53c64 84 107 226 115 386l-61 59h476l-63 -60v-385zM184 54h194v391h-144c-2 -157 -14 -279 -50 -391z" />
    <glyph glyph-name="uni0435" unicode="&#x435;" horiz-adv-x="545" 
d="M346 106c42 0 101 11 157 55l5 -5c-35 -118 -116 -166 -216 -166c-154 0 -257 114 -257 264c0 161 117 255 265 255c125 0 213 -66 215 -204h-336v-1c0 -126 60 -198 167 -198zM284 467c-54 0 -93 -45 -103 -123h181c0 75 -28 123 -78 123z" />
    <glyph glyph-name="uni0451" unicode="&#x451;" horiz-adv-x="545" 
d="M180 607c-39 0 -73 33 -73 72s34 72 73 72s72 -33 72 -72s-33 -72 -72 -72zM411 607c-39 0 -73 33 -73 72s34 72 73 72s72 -33 72 -72s-33 -72 -72 -72zM346 106c42 0 101 11 157 55l5 -5c-35 -118 -116 -166 -216 -166c-154 0 -257 114 -257 264c0 161 117 255 265 255
c125 0 213 -66 215 -204h-336v-1c0 -126 60 -198 167 -198zM284 467c-54 0 -93 -45 -103 -123h181c0 75 -28 123 -78 123z" />
    <glyph glyph-name="uni0436" unicode="&#x436;" horiz-adv-x="881" 
d="M179 414l162 -162c-108 -234 -174 -277 -354 -257v5c98 56 150 152 228 304l-185 195h216zM505 439v-379l63 -60h-255l63 60v379l-63 60h255zM666 304c78 -152 130 -248 228 -304v-5c-180 -20 -246 23 -354 257l162 162l-67 85h216z" />
    <glyph glyph-name="uni0437" unicode="&#x437;" horiz-adv-x="491" 
d="M332 262c78 -19 124 -70 124 -131c0 -94 -111 -141 -220 -141c-97 0 -180 40 -221 175l5 5c63 -57 110 -79 171 -79c65 0 101 30 101 76c0 48 -40 82 -141 71v64c98 -10 134 34 134 82s-37 77 -98 77l-87 -85l-82 71c44 38 109 62 207 62c136 0 218 -52 218 -132
c0 -61 -47 -98 -111 -115z" />
    <glyph glyph-name="uni0438" unicode="&#x438;" horiz-adv-x="681" 
d="M595 439v-379l63 -60h-277l63 60v309l-207 -369h-214l63 60v379l-63 60h277l-63 -60v-308l207 368h214z" />
    <glyph glyph-name="uni0439" unicode="&#x439;" horiz-adv-x="681" 
d="M341 592c-83 0 -161 73 -166 195l5 5c46 -88 101 -111 161 -111c61 0 116 23 162 111l5 -5c-5 -122 -83 -195 -167 -195zM595 439v-379l63 -60h-277l63 60v309l-207 -369h-214l63 60v379l-63 60h277l-63 -60v-308l207 368h214z" />
    <glyph glyph-name="uni043A" unicode="&#x43a;" horiz-adv-x="626" 
d="M237 439v-379l63 -60h-277l63 60v379l-63 60h277zM402 309c81 -152 136 -253 237 -309v-5c-180 -20 -256 18 -370 263l170 156l-84 85h241z" />
    <glyph glyph-name="uni043B" unicode="&#x43b;" horiz-adv-x="585" 
d="M499 439v-379l63 -60h-276l62 59v386h-126c-8 -242 -27 -453 -199 -455v143c95 21 133 110 142 309l-60 57h457z" />
    <glyph glyph-name="uni043C" unicode="&#x43c;" horiz-adv-x="765" 
d="M679 439v-379l63 -60h-283l63 60v282l-182 -246l-189 228v-253l99 -71h-227l63 60v379l-63 60h179l190 -239l176 239h174z" />
    <glyph glyph-name="uni043D" unicode="&#x43d;" horiz-adv-x="673" 
d="M587 439v-379l63 -60h-277l63 60v180h-199v-180l63 -60h-277l63 60v379l-63 60h277l-63 -60v-146h199v146l-63 60h277z" />
    <glyph glyph-name="uni043E" unicode="&#x43e;" horiz-adv-x="618" 
d="M309 -10c-140 0 -274 87 -274 260c0 172 134 259 274 259s274 -87 274 -259c0 -173 -134 -260 -274 -260zM320 34c75 0 97 84 97 194c0 142 -47 237 -119 237c-75 0 -98 -84 -98 -194c0 -142 48 -237 120 -237z" />
    <glyph glyph-name="uni043F" unicode="&#x43f;" horiz-adv-x="653" 
d="M567 439v-379l63 -60h-277l63 60v385h-179v-385l63 -60h-277l63 60v379l-63 60h607z" />
    <glyph glyph-name="uni0440" unicode="&#x440;" horiz-adv-x="628" 
d="M8 -240l63 60v547l-57 55l208 91l-15 -80l5 -5c33 44 93 81 164 81c103 0 217 -76 217 -241c0 -188 -149 -278 -290 -278c-22 0 -53 3 -81 10v-169l98 -71h-312zM310 34c73 0 125 74 125 201c0 125 -49 190 -121 190c-31 0 -66 -12 -92 -36v-275c0 -49 41 -80 88 -80z
" />
    <glyph glyph-name="uni0441" unicode="&#x441;" horiz-adv-x="524" 
d="M345 106c39 0 92 11 149 55l5 -5c-36 -117 -115 -166 -214 -166c-148 0 -250 114 -250 261c0 173 138 258 272 258c86 0 152 -28 192 -80l-98 -78l-93 114c-66 -4 -120 -67 -120 -176c0 -110 57 -183 157 -183z" />
    <glyph glyph-name="uni0442" unicode="&#x442;" horiz-adv-x="552" 
d="M534 499v-201l-102 150h-81v-388l63 -60h-276l62 59v389h-80l-102 -150v201h516z" />
    <glyph glyph-name="uni0443" unicode="&#x443;" horiz-adv-x="578" 
d="M515 439l-253 -571l122 -108h-241l132 277l-226 408l-64 54h305l-63 -60l125 -233l100 233l-69 60h203z" />
    <glyph glyph-name="uni0444" unicode="&#x444;" horiz-adv-x="883" 
d="M650 509c98 0 198 -64 198 -251c0 -184 -103 -268 -205 -268c-48 0 -101 20 -137 60v-230l63 -60h-255l63 60v231c-35 -39 -88 -61 -144 -61c-97 0 -198 64 -198 251c0 184 104 268 205 268c49 0 102 -20 137 -60v202l-57 55l186 82v-340c35 39 88 61 144 61zM292 66
c27 0 59 12 85 36v295c-26 24 -58 36 -85 36c-62 0 -103 -56 -103 -182c0 -127 42 -185 103 -185zM592 66c62 0 103 56 103 182c0 127 -42 185 -104 185c-27 0 -59 -12 -85 -36v-295c26 -24 58 -36 86 -36z" />
    <glyph glyph-name="uni0445" unicode="&#x445;" horiz-adv-x="597" 
d="M536 53l63 -53h-311l63 60l-104 139l-105 -139v-1l69 -59h-212l71 60l142 185l-149 199l-65 55h311l-63 -60l98 -130l100 130l-70 60h211l-71 -60l-136 -175z" />
    <glyph glyph-name="uni0447" unicode="&#x447;" horiz-adv-x="644" 
d="M558 439v-379l63 -60h-277l63 60v165c-36 -35 -110 -83 -191 -83c-77 0 -145 32 -145 147v150l-63 60h277l-63 -60v-118c0 -69 31 -89 78 -89c28 0 66 7 107 38v169l-63 60h277z" />
    <glyph glyph-name="uni0446" unicode="&#x446;" horiz-adv-x="661" 
d="M567 54h71v-262l-133 208h-482l63 60v379l-63 60h277l-63 -60v-385h179v385l-63 60h277l-63 -60v-385z" />
    <glyph glyph-name="uni0448" unicode="&#x448;" horiz-adv-x="950" 
d="M864 440v-381l62 -59h-903l63 60v379l-63 60h277l-63 -60v-385h162v385l-63 60h277l-63 -60v-385h163v385l-63 60h276z" />
    <glyph glyph-name="uni0449" unicode="&#x449;" horiz-adv-x="957" 
d="M864 54h70v-262l-133 208h-778l63 60v379l-63 60h277l-63 -60v-385h162v385l-63 60h277l-63 -60v-385h163v385l-63 60h276l-62 -59v-386z" />
    <glyph glyph-name="uni044C" unicode="&#x44c;" horiz-adv-x="646" 
d="M386 305c133 0 224 -50 224 -145s-91 -160 -224 -160h-363l63 60v379l-63 60h277l-63 -60v-134h149zM340 51c73 0 113 36 113 102c0 65 -40 102 -113 102h-103v-204h103z" />
    <glyph glyph-name="uni044A" unicode="&#x44a;" horiz-adv-x="760" 
d="M501 305c132 0 224 -50 224 -145s-92 -160 -224 -160h-363l62 59v389h-80l-102 -150v201h396l-63 -60v-134h150zM454 51c73 0 114 36 114 102c0 65 -41 102 -114 102h-103v-204h103z" />
    <glyph glyph-name="uni044B" unicode="&#x44b;" horiz-adv-x="926" 
d="M376 305c133 0 224 -50 224 -145s-91 -160 -224 -160h-353l63 60v379l-63 60h277l-63 -60v-134h139zM840 439v-379l63 -60h-277l63 60v379l-63 60h277zM330 51c73 0 113 36 113 102c0 65 -40 102 -113 102h-93v-204h93z" />
    <glyph glyph-name="uni044D" unicode="&#x44d;" horiz-adv-x="536" 
d="M240 509c146 0 261 -95 261 -254c0 -152 -103 -265 -256 -265c-101 0 -184 48 -220 166l5 5c56 -44 120 -59 167 -59c98 0 146 64 156 153h-203v46h205c-3 106 -51 160 -139 160c-37 0 -64 -9 -87 -22l-93 -113v183l68 -28c37 16 86 28 136 28z" />
    <glyph glyph-name="uni044E" unicode="&#x44e;" horiz-adv-x="867" 
d="M568 511c130 0 264 -87 264 -259s-134 -260 -264 -260c-125 0 -253 81 -263 240h-79v-172l63 -60h-266l63 60v379l-63 60h266l-63 -60v-153h80c16 149 141 225 262 225zM581 36c66 0 96 86 96 190c0 149 -54 242 -122 242c-65 0 -97 -84 -97 -192
c0 -148 56 -240 123 -240z" />
    <glyph glyph-name="uni044F" unicode="&#x44f;" horiz-adv-x="630" 
d="M544 439v-379l63 -60h-277l63 60v154h-91c-77 -203 -150 -238 -313 -219l-2 5c73 44 126 121 171 227c-73 20 -118 63 -118 128c0 91 91 144 224 144h343zM393 265v183h-86c-70 0 -110 -26 -110 -92c0 -65 40 -91 110 -91h86z" />
    <glyph glyph-name="uni0430.sc" horiz-adv-x="649" 
d="M610 48l57 -48h-289l62 59l-55 112h-216l-47 -101l98 -70h-195l298 612h6zM193 222h167l-85 174z" />
    <glyph glyph-name="uni0431.sc" horiz-adv-x="623" 
d="M339 350c146 0 254 -55 254 -169c0 -115 -108 -181 -254 -181h-316l63 60v453l-63 60h515v-174l-85 125h-211v-174h97zM317 49c74 0 120 40 120 126c0 85 -46 125 -120 125h-75v-251h75z" />
    <glyph glyph-name="uni0432.sc" horiz-adv-x="644" 
d="M466 294c93 -17 147 -61 147 -134c0 -98 -96 -160 -252 -160h-338l63 60v453l-63 60h337c137 0 225 -55 225 -142c0 -68 -44 -115 -119 -137zM320 525h-78v-208h78c79 0 113 44 113 106c0 58 -34 102 -113 102zM317 49c96 0 137 41 137 107c0 67 -42 112 -137 112h-75
v-219h75z" />
    <glyph glyph-name="uni0433.sc" horiz-adv-x="516" 
d="M495 573v-179l-85 131h-168v-454l99 -71h-318l63 60v453l-63 60h472z" />
    <glyph glyph-name="uni0434.sc" horiz-adv-x="689" 
d="M597 513v-465h59v-220l-122 172h-387l-122 -172v220h62c73 82 113 268 119 473l-54 52h508zM192 48h256v477h-184c-2 -213 -26 -377 -72 -477z" />
    <glyph glyph-name="uni0435.sc" horiz-adv-x="565" 
d="M440 49l85 130v-179h-502l63 60v453l-63 60h481v-179l-86 131h-176v-203h119l71 79v-203l-71 75h-119v-224h198z" />
    <glyph glyph-name="uni0451.sc" horiz-adv-x="565" 
d="M176 681c-39 0 -73 33 -73 72s34 72 73 72s72 -33 72 -72s-33 -72 -72 -72zM407 681c-39 0 -73 33 -73 72s34 72 73 72s72 -33 72 -72s-33 -72 -72 -72zM440 49l85 130v-179h-502l63 60v453l-63 60h481v-179l-86 131h-176v-203h119l71 79v-203l-71 75h-119v-224h198z" />
    <glyph glyph-name="uni0436.sc" horiz-adv-x="897" 
d="M168 502l190 -201c-116 -259 -196 -322 -389 -306v5c115 46 169 172 255 354l-208 219h222zM520 514v-455l62 -59h-267l62 59v455l-62 59h267zM673 354c86 -182 140 -308 255 -354v-5c-193 -16 -273 47 -390 306l191 201l-69 71h221z" />
    <glyph glyph-name="uni0437.sc" horiz-adv-x="520" 
d="M358 307c80 -23 132 -77 132 -152c0 -110 -110 -165 -225 -165c-131 0 -218 70 -250 185l5 5c66 -67 132 -85 190 -85c81 0 122 34 122 86c0 58 -52 113 -163 102v68c108 -19 157 32 157 93c0 50 -34 89 -108 89c-26 0 -51 -5 -76 -15l-97 -146v212l58 -24
c42 14 89 22 142 22c143 0 229 -56 229 -145c0 -55 -33 -104 -116 -130z" />
    <glyph glyph-name="uni0438.sc" horiz-adv-x="764" 
d="M678 513v-453l63 -60h-282l63 60v398l-280 -458h-219l63 60v453l-63 60h282l-63 -60v-397l280 457h219z" />
    <glyph glyph-name="uni0439.sc" horiz-adv-x="764" 
d="M391 632c-89 0 -161 69 -166 165l5 5c49 -62 98 -81 161 -81s112 19 162 81l5 -5c-5 -96 -77 -165 -167 -165zM678 513v-453l63 -60h-282l63 60v398l-280 -458h-219l63 60v453l-63 60h282l-63 -60v-397l280 457h219z" />
    <glyph glyph-name="uni043A.sc" horiz-adv-x="677" 
d="M242 513v-453l63 -60h-282l63 60v453l-63 60h282zM431 349c107 -183 161 -303 277 -349v-5c-193 -16 -277 20 -421 296l226 211l-64 71h216z" />
    <glyph glyph-name="uni043B.sc" horiz-adv-x="633" 
d="M547 513v-453l63 -60h-282l63 60v469h-178c-7 -408 -33 -538 -188 -539v143c87 4 127 90 134 388l-55 52h506z" />
    <glyph glyph-name="uni043C.sc" horiz-adv-x="831" 
d="M746 514v-455l62 -59h-281l63 60v351l-216 -320l-226 321v-341l99 -71h-224l63 60v453l-63 60h191l211 -297l202 297h181z" />
    <glyph glyph-name="uni043D.sc" horiz-adv-x="753" 
d="M667 513v-453l63 -60h-282l63 60v228h-269v-228l63 -60h-282l63 60v453l-63 60h282l-63 -60v-176h269v176l-63 60h282z" />
    <glyph glyph-name="uni043E.sc" horiz-adv-x="702" 
d="M354 583c163 0 318 -98 318 -294c0 -197 -155 -299 -323 -299c-163 0 -319 98 -319 294c0 197 156 299 324 299zM360 39c97 0 146 85 146 232c0 188 -72 264 -164 264c-96 0 -146 -85 -146 -232c0 -188 72 -264 164 -264z" />
    <glyph glyph-name="uni043F.sc" horiz-adv-x="747" 
d="M661 513v-453l63 -60h-282l63 60v465h-263v-465l63 -60h-282l63 60v453l-63 60h701z" />
    <glyph glyph-name="uni0440.sc" horiz-adv-x="603" 
d="M331 224h-79v-153l99 -71h-318l63 60v453l-63 60h298c147 0 254 -49 254 -163c0 -115 -107 -186 -254 -186zM252 528v-259h58c73 0 120 46 120 131c0 86 -47 128 -120 128h-58z" />
    <glyph glyph-name="uni0441.sc" horiz-adv-x="622" 
d="M592 167l5 -5c-51 -119 -149 -172 -257 -172c-158 0 -305 113 -305 290c0 188 167 303 349 303c46 0 99 -7 146 -23l45 19v-213l-105 159c-26 7 -50 10 -71 10c-116 0 -201 -81 -201 -222c0 -140 84 -214 206 -214c54 0 122 16 188 68z" />
    <glyph glyph-name="uni0442.sc" horiz-adv-x="617" 
d="M522 573l73 16v-195l-86 131h-123v-465l63 -60h-282l63 60v465h-123l-86 -131v195l74 -16h427z" />
    <glyph glyph-name="uni0443.sc" horiz-adv-x="617" 
d="M630 573l-64 -54l-226 -397c-68 -108 -130 -134 -218 -130v115c75 3 126 11 180 63l-240 348l-65 55h285l-55 -53l144 -226l127 214l-91 65h223z" />
    <glyph glyph-name="uni0444.sc" horiz-adv-x="791" 
d="M529 495c146 0 245 -76 245 -203c0 -126 -99 -214 -245 -214h-67v-32l63 -60h-259l63 60v32h-66c-148 0 -246 77 -246 203s98 214 246 214h66v32l-63 60h259l-63 -60v-32h67zM329 123v327h-45c-78 0 -123 -65 -123 -163c0 -99 45 -164 123 -164h45zM508 123
c77 0 123 65 123 164c0 98 -46 163 -123 163h-46v-327h46z" />
    <glyph glyph-name="uni0445.sc" horiz-adv-x="624" 
d="M584 56l66 -56h-306l57 55l-133 185l-131 -185l64 -55h-204l67 56l166 236l-164 227l-64 54h305l-57 -54l122 -169l5 31l103 145l-55 47h70v-27l30 27l32 -14v14h71l-71 -60v20l-47 -97l-117 -115z" />
    <glyph glyph-name="uni0447.sc" horiz-adv-x="689" 
d="M603 513v-454l62 -59h-317l99 71v164c-48 -17 -93 -23 -145 -23c-145 0 -242 47 -242 170v131l-63 60h282l-63 -60v-123c0 -95 34 -129 117 -129c38 0 78 7 114 19v233l-63 60h282z" />
    <glyph glyph-name="uni0446.sc" horiz-adv-x="701" 
d="M634 513v-464h57v-221l-122 172h-556l63 60v453l-63 60h282l-63 -60v-464h246v464l-63 60h282z" />
    <glyph glyph-name="uni0448.sc" horiz-adv-x="1000" 
d="M915 514v-455l62 -59h-954l63 60v453l-63 60h282l-63 -60v-464h180v464l-63 60h282l-63 -60v-464h181v464l-63 60h281z" />
    <glyph glyph-name="uni0449.sc" horiz-adv-x="1006" 
d="M915 514v-466h59v-220l-123 172h-828l63 60v453l-63 60h282l-63 -60v-465h180v465l-63 60h282l-63 -60v-465h181v465l-63 60h281z" />
    <glyph glyph-name="uni044C.sc" horiz-adv-x="610" 
d="M339 350c146 0 254 -55 254 -169c0 -115 -108 -181 -254 -181h-316l63 60v453l-63 60h318l-99 -71v-152h97zM317 49c74 0 120 40 120 126c0 85 -46 125 -120 125h-75v-251h75z" />
    <glyph glyph-name="uni044A.sc" horiz-adv-x="749" 
d="M477 350c147 0 254 -55 254 -169c0 -115 -107 -181 -254 -181h-315l62 59v466h-117l-86 -131v179h458l-99 -71v-152h97zM456 49c73 0 120 40 120 126c0 85 -47 125 -120 125h-76v-251h76z" />
    <glyph glyph-name="uni044B.sc" horiz-adv-x="948" 
d="M339 350c146 0 254 -55 254 -169c0 -115 -108 -181 -254 -181h-316l63 60v453l-63 60h318l-99 -71v-152h97zM857 513v-453l63 -60h-282l63 60v453l-63 60h282zM317 49c74 0 120 40 120 126c0 85 -46 125 -120 125h-75v-251h75z" />
    <glyph glyph-name="uni044D.sc" horiz-adv-x="617" 
d="M253 582c182 0 328 -101 328 -290c0 -182 -136 -300 -299 -300c-111 0 -216 54 -267 170l5 5c69 -51 141 -66 199 -66c111 0 194 50 205 184h-270v48h271c-6 127 -73 200 -188 200c-28 0 -60 -4 -94 -14l-101 -153v213l49 -20c51 15 114 23 162 23z" />
    <glyph glyph-name="uni044E.sc" horiz-adv-x="952" 
d="M632 583c146 0 292 -99 292 -294s-146 -299 -297 -299c-144 0 -289 98 -292 288h-93v-218l63 -60h-282l63 60v453l-63 60h282l-63 -60v-186h95c20 167 156 256 295 256zM640 39c81 0 122 86 122 235c0 183 -64 260 -143 260c-81 0 -121 -86 -121 -234
c0 -184 63 -261 142 -261z" />
    <glyph glyph-name="uni044F.sc" horiz-adv-x="648" 
d="M562 513v-453l63 -60h-282l63 60v465h-67c-66 0 -112 -29 -112 -109c0 -69 35 -121 127 -135l9 -1c-102 -231 -180 -301 -394 -285v5c100 50 162 141 225 270c-74 24 -122 71 -122 143c0 109 106 160 245 160h308z" />
    <glyph glyph-name="zero" unicode="0" horiz-adv-x="619" 
d="M309 710c145 0 269 -125 269 -360s-124 -360 -269 -360c-144 0 -269 125 -269 360s125 360 269 360zM309 44c74 0 102 111 102 306s-28 306 -102 306s-101 -111 -101 -306s27 -306 101 -306z" />
    <glyph glyph-name="one" unicode="1" horiz-adv-x="521" 
d="M346 71l135 -71h-431l135 71v479l-128 58l289 112v-649z" />
    <glyph glyph-name="two" unicode="2" horiz-adv-x="604" 
d="M473 132l69 102v-234h-523c236 220 347 355 347 472c0 79 -46 117 -119 117c-70 0 -140 -35 -194 -118l-5 5c33 151 132 234 269 234c124 0 201 -66 201 -178c0 -135 -109 -256 -279 -400h234z" />
    <glyph glyph-name="three" unicode="3" horiz-adv-x="578" 
d="M410 418c75 -38 122 -100 122 -184c0 -151 -150 -244 -320 -244c-83 0 -136 23 -173 60l67 79l106 -85c97 2 175 67 175 158c0 58 -33 117 -109 145c-26 -10 -53 -19 -82 -29l-16 47c129 46 163 100 163 154c0 50 -30 87 -97 87c-54 0 -120 -24 -189 -97l-5 5
c54 132 138 196 256 196c120 0 178 -67 178 -152c0 -57 -26 -102 -76 -140z" />
    <glyph glyph-name="four" unicode="4" horiz-adv-x="658" 
d="M598 166h-89v-106l63 -60h-302l99 71v95h-299l-46 39l345 484l140 31v-432h113zM155 288h214v307z" />
    <glyph glyph-name="five" unicode="5" horiz-adv-x="581" 
d="M161 487c247 -17 366 -115 366 -258c0 -163 -156 -239 -321 -239c-85 0 -144 28 -184 65l76 85l107 -96c95 2 176 50 176 141c0 92 -87 165 -308 182l67 333h383l-24 -120h-320z" />
    <glyph glyph-name="six" unicode="6" horiz-adv-x="590" 
d="M239 397c172 57 316 -32 316 -184c0 -137 -118 -223 -256 -223c-133 0 -259 81 -259 277c0 219 155 411 451 473l17 -48c-212 -66 -311 -177 -311 -412c0 -164 57 -236 114 -236c65 0 95 89 95 169c0 121 -69 158 -158 136z" />
    <glyph glyph-name="seven" unicode="7" horiz-adv-x="575" 
d="M36 700h531c-162 -273 -221 -465 -229 -700h-166c19 218 128 410 252 568h-305l-83 -122v254z" />
    <glyph glyph-name="eight" unicode="8" horiz-adv-x="622" 
d="M423 389c78 -37 149 -87 149 -194c0 -147 -134 -205 -269 -205c-153 0 -253 68 -253 178c0 88 64 146 141 181c-64 35 -117 81 -117 167c0 124 105 194 244 194c143 0 225 -72 225 -165c0 -73 -49 -123 -120 -156zM313 656c-70 0 -94 -56 -94 -101c0 -67 56 -99 123 -130
c44 33 64 77 64 123c0 47 -21 108 -93 108zM311 44c72 0 104 62 104 115c0 85 -76 121 -157 158c-43 -39 -62 -89 -62 -140c0 -71 39 -133 115 -133z" />
    <glyph glyph-name="nine" unicode="9" horiz-adv-x="591" 
d="M352 293c-174 -57 -317 31 -317 185c0 139 115 232 261 232c135 0 255 -77 255 -277c0 -222 -156 -411 -451 -473l-18 48c211 66 312 176 312 412c0 164 -51 236 -108 236c-65 0 -100 -89 -100 -172c0 -126 66 -165 157 -143z" />
    <glyph glyph-name="zero.osf" horiz-adv-x="618" 
d="M309 -10c-140 0 -274 87 -274 260c0 172 134 259 274 259s274 -87 274 -259c0 -173 -134 -260 -274 -260zM320 34c75 0 97 84 97 194c0 142 -47 237 -119 237c-75 0 -98 -84 -98 -194c0 -142 48 -237 120 -237z" />
    <glyph glyph-name="one.osf" horiz-adv-x="398" 
d="M277 439v-379l63 -60h-277l63 60v379l-63 60h277z" />
    <glyph glyph-name="two.osf" horiz-adv-x="516" 
d="M259 114h250l-22 -114h-468c224 163 296 251 296 321c0 49 -29 78 -89 78c-64 0 -122 -34 -183 -99l-5 5c35 128 121 204 249 204c110 0 175 -57 175 -149c0 -101 -91 -181 -203 -246z" />
    <glyph glyph-name="three.osf" horiz-adv-x="551" 
d="M378 217c79 -38 127 -101 127 -189c0 -148 -147 -239 -314 -239c-83 0 -137 23 -176 60l66 79l109 -85c94 2 170 66 170 155c0 59 -34 119 -112 148c-25 -10 -52 -20 -81 -29l-18 47c126 45 160 99 160 151s-30 90 -99 90c-54 0 -119 -24 -187 -97l-5 5
c50 132 133 196 251 196c122 0 182 -69 182 -155c0 -55 -25 -99 -73 -137z" />
    <glyph glyph-name="four.osf" horiz-adv-x="581" 
d="M571 111l-22 -111h-91v-201h-139v201h-290l-44 36l334 465l139 32v-422h113zM108 111h211v296z" />
    <glyph glyph-name="five.osf" horiz-adv-x="532" 
d="M146 286c246 -20 368 -117 368 -257c0 -159 -152 -240 -317 -240c-85 0 -144 28 -184 65l75 85l108 -96c95 3 176 50 176 141c0 92 -94 158 -315 179l67 336h376l-24 -120h-312z" />
    <glyph glyph-name="six.osf" horiz-adv-x="585" 
d="M234 397c172 57 316 -32 316 -184c0 -137 -118 -223 -256 -223c-133 0 -259 81 -259 277c0 219 155 411 451 473l17 -48c-212 -66 -311 -177 -311 -412c0 -164 57 -236 114 -236c65 0 95 89 95 169c0 121 -69 158 -158 136z" />
    <glyph glyph-name="seven.osf" horiz-adv-x="518" 
d="M5 499h521c-162 -273 -217 -464 -225 -700h-166c19 218 124 414 248 572h-292l-86 -126v254z" />
    <glyph glyph-name="eight.osf" horiz-adv-x="572" 
d="M391 388c76 -38 145 -87 145 -195c0 -144 -127 -203 -257 -203c-149 0 -244 68 -244 178c0 89 61 148 137 183c-62 34 -114 80 -114 166c0 123 100 193 235 193c137 0 216 -71 216 -166c0 -73 -48 -124 -118 -156zM288 658c-68 0 -93 -57 -93 -105
c0 -68 55 -101 122 -131c43 33 63 77 63 125c0 50 -22 111 -92 111zM286 42c70 0 104 62 104 118c0 88 -76 123 -155 160c-44 -39 -63 -90 -63 -142c0 -73 40 -136 114 -136z" />
    <glyph glyph-name="nine.osf" horiz-adv-x="586" 
d="M352 92c-174 -57 -317 31 -317 185c0 139 115 232 261 232c135 0 255 -77 255 -277c0 -222 -156 -411 -451 -473l-18 48c211 66 312 176 312 412c0 164 -51 236 -108 236c-65 0 -100 -89 -100 -172c0 -126 66 -165 157 -143z" />
    <glyph glyph-name="zero.subs" horiz-adv-x="486" 
d="M243 260c112 0 202 -80 202 -234c0 -156 -90 -236 -202 -236s-203 80 -203 236c0 154 91 234 203 234zM243 -163c50 0 66 59 66 189c0 122 -16 187 -66 187s-67 -65 -67 -187c0 -130 17 -189 67 -189z" />
    <glyph glyph-name="one.subs" horiz-adv-x="379" 
d="M260 -151l79 -49h-289l79 49v308l-76 35l207 81v-424z" />
    <glyph glyph-name="two.subs" horiz-adv-x="413" 
d="M339 -98l46 65v-167h-373c149 123 226 210 226 290c0 50 -29 76 -79 76c-45 0 -86 -22 -126 -74l-4 3c26 108 97 165 198 165c89 0 139 -44 139 -122c0 -88 -68 -158 -174 -236h147z" />
    <glyph glyph-name="three.subs" horiz-adv-x="435" 
d="M308 65c53 -26 81 -68 81 -119c0 -94 -92 -156 -219 -156c-65 0 -105 21 -131 45l51 66l67 -70c65 2 107 42 107 99c0 33 -15 65 -53 85c-18 -7 -39 -14 -60 -20l-11 41c70 23 98 49 98 89c0 33 -19 53 -63 53c-41 0 -79 -18 -122 -60l-3 3c34 90 93 139 183 139
c83 0 126 -42 126 -101c0 -38 -19 -68 -51 -94z" />
    <glyph glyph-name="four.subs" horiz-adv-x="483" 
d="M428 -96h-61v-69l36 -35h-207l58 49v55h-194l-36 28l230 317l113 22v-270h80zM129 1h125v177z" />
    <glyph glyph-name="five.subs" horiz-adv-x="400" 
d="M110 107c180 -7 256 -69 256 -162c0 -100 -92 -155 -217 -155c-65 0 -105 21 -132 45l49 66l69 -70c62 -1 102 29 102 79c0 56 -55 99 -197 108l49 237h275l-18 -93h-225z" />
    <glyph glyph-name="six.subs" horiz-adv-x="445" 
d="M198 70c127 29 211 -34 211 -127c0 -97 -91 -153 -183 -153c-88 0 -186 51 -186 188c0 134 93 262 319 301l12 -43c-145 -42 -204 -105 -204 -261c0 -92 28 -138 64 -138c40 0 58 53 58 105c0 71 -31 97 -88 89z" />
    <glyph glyph-name="seven.subs" horiz-adv-x="418" 
d="M36 255h373c-112 -177 -145 -303 -156 -455h-133c16 131 77 251 176 353h-207l-53 -88v190z" />
    <glyph glyph-name="eight.subs" horiz-adv-x="475" 
d="M325 55c53 -26 100 -60 100 -130c0 -99 -95 -135 -194 -135c-113 0 -181 46 -181 116c0 55 40 94 94 114c-43 23 -78 54 -78 111c0 79 69 129 178 129c102 0 159 -46 159 -108c0 -45 -31 -78 -78 -97zM238 218c-39 0 -55 -25 -55 -53c0 -41 36 -63 80 -83
c22 23 31 48 31 75c0 33 -14 61 -56 61zM235 -166c40 0 68 25 68 63c0 51 -50 73 -104 97c-22 -22 -35 -50 -35 -84c0 -47 26 -76 71 -76z" />
    <glyph glyph-name="nine.subs" horiz-adv-x="444" 
d="M246 -20c-126 -30 -211 34 -211 129c0 97 87 151 189 151c86 0 179 -40 179 -178c0 -144 -101 -267 -318 -307l-12 42c143 47 204 106 204 264c0 91 -27 132 -63 132c-39 0 -58 -48 -58 -100c0 -79 33 -102 87 -94z" />
    <glyph glyph-name="zero.dnom" horiz-adv-x="486" 
d="M243 460c112 0 202 -80 202 -234c0 -156 -90 -236 -202 -236s-203 80 -203 236c0 154 91 234 203 234zM243 37c50 0 66 59 66 189c0 122 -16 187 -66 187s-67 -65 -67 -187c0 -130 17 -189 67 -189z" />
    <glyph glyph-name="one.dnom" horiz-adv-x="379" 
d="M260 49l79 -49h-289l79 49v308l-76 35l207 81v-424z" />
    <glyph glyph-name="two.dnom" horiz-adv-x="413" 
d="M339 102l46 65v-167h-373c149 123 226 210 226 290c0 50 -29 76 -79 76c-45 0 -86 -22 -126 -74l-4 3c26 108 97 165 198 165c89 0 139 -44 139 -122c0 -88 -68 -158 -174 -236h147z" />
    <glyph glyph-name="three.dnom" horiz-adv-x="435" 
d="M308 265c53 -26 81 -68 81 -119c0 -94 -92 -156 -219 -156c-65 0 -105 21 -131 45l51 66l67 -70c65 2 107 42 107 99c0 33 -15 65 -53 85c-18 -7 -39 -14 -60 -20l-11 41c70 23 98 49 98 89c0 33 -19 53 -63 53c-41 0 -79 -18 -122 -60l-3 3c34 90 93 139 183 139
c83 0 126 -42 126 -101c0 -38 -19 -68 -51 -94z" />
    <glyph glyph-name="four.dnom" horiz-adv-x="483" 
d="M428 104h-61v-69l36 -35h-207l58 49v55h-194l-36 28l230 317l113 22v-270h80zM129 201h125v177z" />
    <glyph glyph-name="five.dnom" horiz-adv-x="400" 
d="M110 307c180 -7 256 -69 256 -162c0 -100 -92 -155 -217 -155c-65 0 -105 21 -132 45l49 66l69 -70c62 -1 102 29 102 79c0 56 -55 99 -197 108l49 237h275l-18 -93h-225z" />
    <glyph glyph-name="six.dnom" horiz-adv-x="445" 
d="M198 270c127 29 211 -34 211 -127c0 -97 -91 -153 -183 -153c-88 0 -186 51 -186 188c0 134 93 262 319 301l12 -43c-145 -42 -204 -105 -204 -261c0 -92 28 -138 64 -138c40 0 58 53 58 105c0 71 -31 97 -88 89z" />
    <glyph glyph-name="seven.dnom" horiz-adv-x="418" 
d="M36 455h373c-112 -177 -145 -303 -156 -455h-133c16 131 77 251 176 353h-207l-53 -88v190z" />
    <glyph glyph-name="eight.dnom" horiz-adv-x="475" 
d="M325 255c53 -26 100 -60 100 -130c0 -99 -95 -135 -194 -135c-113 0 -181 46 -181 116c0 55 40 94 94 114c-43 23 -78 54 -78 111c0 79 69 129 178 129c102 0 159 -46 159 -108c0 -45 -31 -78 -78 -97zM238 418c-39 0 -55 -25 -55 -53c0 -41 36 -63 80 -83
c22 23 31 48 31 75c0 33 -14 61 -56 61zM235 34c40 0 68 25 68 63c0 51 -50 73 -104 97c-22 -22 -35 -50 -35 -84c0 -47 26 -76 71 -76z" />
    <glyph glyph-name="nine.dnom" horiz-adv-x="444" 
d="M246 180c-126 -30 -211 34 -211 129c0 97 87 151 189 151c86 0 179 -40 179 -178c0 -144 -101 -267 -318 -307l-12 42c143 47 204 106 204 264c0 91 -27 132 -63 132c-39 0 -58 -48 -58 -100c0 -79 33 -102 87 -94z" />
    <glyph glyph-name="zero.numr" horiz-adv-x="486" 
d="M243 710c112 0 202 -80 202 -234c0 -156 -90 -236 -202 -236s-203 80 -203 236c0 154 91 234 203 234zM243 287c50 0 66 59 66 189c0 122 -16 187 -66 187s-67 -65 -67 -187c0 -130 17 -189 67 -189z" />
    <glyph glyph-name="one.numr" horiz-adv-x="379" 
d="M260 299l79 -49h-289l79 49v308l-76 35l207 81v-424z" />
    <glyph glyph-name="two.numr" horiz-adv-x="413" 
d="M339 352l46 65v-167h-373c149 123 226 210 226 290c0 50 -29 76 -79 76c-45 0 -86 -22 -126 -74l-4 3c26 108 97 165 198 165c89 0 139 -44 139 -122c0 -88 -68 -158 -174 -236h147z" />
    <glyph glyph-name="three.numr" horiz-adv-x="435" 
d="M308 515c53 -26 81 -68 81 -119c0 -94 -92 -156 -219 -156c-65 0 -105 21 -131 45l51 66l67 -70c65 2 107 42 107 99c0 33 -15 65 -53 85c-18 -7 -39 -14 -60 -20l-11 41c70 23 98 49 98 89c0 33 -19 53 -63 53c-41 0 -79 -18 -122 -60l-3 3c34 90 93 139 183 139
c83 0 126 -42 126 -101c0 -38 -19 -68 -51 -94z" />
    <glyph glyph-name="four.numr" horiz-adv-x="483" 
d="M428 354h-61v-69l36 -35h-207l58 49v55h-194l-36 28l230 317l113 22v-270h80zM129 451h125v177z" />
    <glyph glyph-name="five.numr" horiz-adv-x="400" 
d="M110 557c180 -7 256 -69 256 -162c0 -100 -92 -155 -217 -155c-65 0 -105 21 -132 45l49 66l69 -70c62 -1 102 29 102 79c0 56 -55 99 -197 108l49 237h275l-18 -93h-225z" />
    <glyph glyph-name="six.numr" horiz-adv-x="445" 
d="M198 520c127 29 211 -34 211 -127c0 -97 -91 -153 -183 -153c-88 0 -186 51 -186 188c0 134 93 262 319 301l12 -43c-145 -42 -204 -105 -204 -261c0 -92 28 -138 64 -138c40 0 58 53 58 105c0 71 -31 97 -88 89z" />
    <glyph glyph-name="seven.numr" horiz-adv-x="418" 
d="M36 705h373c-112 -177 -145 -303 -156 -455h-133c16 131 77 251 176 353h-207l-53 -88v190z" />
    <glyph glyph-name="eight.numr" horiz-adv-x="475" 
d="M325 505c53 -26 100 -60 100 -130c0 -99 -95 -135 -194 -135c-113 0 -181 46 -181 116c0 55 40 94 94 114c-43 23 -78 54 -78 111c0 79 69 129 178 129c102 0 159 -46 159 -108c0 -45 -31 -78 -78 -97zM238 668c-39 0 -55 -25 -55 -53c0 -41 36 -63 80 -83
c22 23 31 48 31 75c0 33 -14 61 -56 61zM235 284c40 0 68 25 68 63c0 51 -50 73 -104 97c-22 -22 -35 -50 -35 -84c0 -47 26 -76 71 -76z" />
    <glyph glyph-name="nine.numr" horiz-adv-x="444" 
d="M246 430c-126 -30 -211 34 -211 129c0 97 87 151 189 151c86 0 179 -40 179 -178c0 -144 -101 -267 -318 -307l-12 42c143 47 204 106 204 264c0 91 -27 132 -63 132c-39 0 -58 -48 -58 -100c0 -79 33 -102 87 -94z" />
    <glyph glyph-name="zero.sups" horiz-adv-x="486" 
d="M243 710c112 0 202 -80 202 -234c0 -156 -90 -236 -202 -236s-203 80 -203 236c0 154 91 234 203 234zM243 287c50 0 66 59 66 189c0 122 -16 187 -66 187s-67 -65 -67 -187c0 -130 17 -189 67 -189z" />
    <glyph glyph-name="one.sups" horiz-adv-x="379" 
d="M260 299l79 -49h-289l79 49v308l-76 35l207 81v-424z" />
    <glyph glyph-name="two.sups" horiz-adv-x="413" 
d="M339 352l46 65v-167h-373c149 123 226 210 226 290c0 50 -29 76 -79 76c-45 0 -86 -22 -126 -74l-4 3c26 108 97 165 198 165c89 0 139 -44 139 -122c0 -88 -68 -158 -174 -236h147z" />
    <glyph glyph-name="three.sups" horiz-adv-x="435" 
d="M308 515c53 -26 81 -68 81 -119c0 -94 -92 -156 -219 -156c-65 0 -105 21 -131 45l51 66l67 -70c65 2 107 42 107 99c0 33 -15 65 -53 85c-18 -7 -39 -14 -60 -20l-11 41c70 23 98 49 98 89c0 33 -19 53 -63 53c-41 0 -79 -18 -122 -60l-3 3c34 90 93 139 183 139
c83 0 126 -42 126 -101c0 -38 -19 -68 -51 -94z" />
    <glyph glyph-name="four.sups" horiz-adv-x="483" 
d="M428 354h-61v-69l36 -35h-207l58 49v55h-194l-36 28l230 317l113 22v-270h80zM129 451h125v177z" />
    <glyph glyph-name="five.sups" horiz-adv-x="400" 
d="M110 557c180 -7 256 -69 256 -162c0 -100 -92 -155 -217 -155c-65 0 -105 21 -132 45l49 66l69 -70c62 -1 102 29 102 79c0 56 -55 99 -197 108l49 237h275l-18 -93h-225z" />
    <glyph glyph-name="six.sups" horiz-adv-x="445" 
d="M198 520c127 29 211 -34 211 -127c0 -97 -91 -153 -183 -153c-88 0 -186 51 -186 188c0 134 93 262 319 301l12 -43c-145 -42 -204 -105 -204 -261c0 -92 28 -138 64 -138c40 0 58 53 58 105c0 71 -31 97 -88 89z" />
    <glyph glyph-name="seven.sups" horiz-adv-x="418" 
d="M36 705h373c-112 -177 -145 -303 -156 -455h-133c16 131 77 251 176 353h-207l-53 -88v190z" />
    <glyph glyph-name="eight.sups" horiz-adv-x="475" 
d="M325 505c53 -26 100 -60 100 -130c0 -99 -95 -135 -194 -135c-113 0 -181 46 -181 116c0 55 40 94 94 114c-43 23 -78 54 -78 111c0 79 69 129 178 129c102 0 159 -46 159 -108c0 -45 -31 -78 -78 -97zM238 668c-39 0 -55 -25 -55 -53c0 -41 36 -63 80 -83
c22 23 31 48 31 75c0 33 -14 61 -56 61zM235 284c40 0 68 25 68 63c0 51 -50 73 -104 97c-22 -22 -35 -50 -35 -84c0 -47 26 -76 71 -76z" />
    <glyph glyph-name="nine.sups" horiz-adv-x="444" 
d="M246 430c-126 -30 -211 34 -211 129c0 97 87 151 189 151c86 0 179 -40 179 -178c0 -144 -101 -267 -318 -307l-12 42c143 47 204 106 204 264c0 91 -27 132 -63 132c-39 0 -58 -48 -58 -100c0 -79 33 -102 87 -94z" />
    <glyph glyph-name="fraction" unicode="&#x2044;" horiz-adv-x="389" 
d="M389 740l-315 -800h-56l315 800h56z" />
    <glyph glyph-name="onehalf" unicode="&#xbd;" horiz-adv-x="1006" 
d="M617 740h56l-315 -800h-56zM260 299l79 -49h-289l79 49v308l-76 35l207 81v-424zM920 102l46 65v-167h-373c149 123 226 210 226 290c0 50 -29 76 -79 76c-45 0 -86 -22 -126 -74l-4 3c26 108 97 165 198 165c89 0 139 -44 139 -122c0 -88 -68 -158 -174 -236h147z" />
    <glyph glyph-name="onequarter" unicode="&#xbc;" horiz-adv-x="1032" 
d="M617 740h56l-315 -800h-56zM260 299l79 -49h-289l79 49v308l-76 35l207 81v-424zM973 104h-61v-69l36 -35h-207l58 49v55h-194l-36 28l230 317l113 22v-270h80zM674 201h125v177z" />
    <glyph glyph-name="threequarters" unicode="&#xbe;" horiz-adv-x="1074" 
d="M653 740h56l-315 -800h-56zM389 396c0 -94 -92 -156 -219 -156c-65 0 -105 21 -131 45l51 66l67 -70c65 2 107 42 107 99c0 33 -15 65 -53 85c-18 -7 -39 -14 -60 -20l-11 41c70 23 98 49 98 89c0 33 -19 53 -63 53c-41 0 -79 -18 -122 -60l-3 3c34 90 93 139 183 139
c83 0 126 -42 126 -101c0 -38 -19 -68 -51 -94c53 -26 81 -68 81 -119zM1009 104h-61v-69l36 -35h-207l58 49v55h-194l-36 28l230 317l113 22v-270h80zM710 201h125v177z" />
    <glyph glyph-name="oneeighth" unicode="&#x215b;" horiz-adv-x="1034" 
d="M617 740h56l-315 -800h-56zM260 299l79 -49h-289l79 49v308l-76 35l207 81v-424zM894 255c53 -26 100 -60 100 -130c0 -99 -95 -135 -194 -135c-113 0 -181 46 -181 116c0 55 40 94 94 114c-43 23 -78 54 -78 111c0 79 69 129 178 129c102 0 159 -46 159 -108
c0 -45 -31 -78 -78 -97zM807 418c-39 0 -55 -25 -55 -53c0 -41 36 -63 80 -83c22 23 31 48 31 75c0 33 -14 61 -56 61zM804 34c40 0 68 25 68 63c0 51 -50 73 -104 97c-22 -22 -35 -50 -35 -84c0 -47 26 -76 71 -76z" />
    <glyph glyph-name="threeeighths" unicode="&#x215c;" horiz-adv-x="1075" 
d="M653 740h56l-315 -800h-56zM389 396c0 -94 -92 -156 -219 -156c-65 0 -105 21 -131 45l51 66l67 -70c65 2 107 42 107 99c0 33 -15 65 -53 85c-18 -7 -39 -14 -60 -20l-11 41c70 23 98 49 98 89c0 33 -19 53 -63 53c-41 0 -79 -18 -122 -60l-3 3c34 90 93 139 183 139
c83 0 126 -42 126 -101c0 -38 -19 -68 -51 -94c53 -26 81 -68 81 -119zM930 255c53 -26 100 -60 100 -130c0 -99 -95 -135 -194 -135c-113 0 -181 46 -181 116c0 55 40 94 94 114c-43 23 -78 54 -78 111c0 79 69 129 178 129c102 0 159 -46 159 -108c0 -45 -31 -78 -78 -97z
M843 418c-39 0 -55 -25 -55 -53c0 -41 36 -63 80 -83c22 23 31 48 31 75c0 33 -14 61 -56 61zM840 34c40 0 68 25 68 63c0 51 -50 73 -104 97c-22 -22 -35 -50 -35 -84c0 -47 26 -76 71 -76z" />
    <glyph glyph-name="fiveeighths" unicode="&#x215d;" horiz-adv-x="1050" 
d="M623 740h56l-315 -800h-56zM366 395c0 -100 -92 -155 -217 -155c-65 0 -105 21 -132 45l49 66l69 -70c62 -1 102 29 102 79c0 56 -55 99 -197 108l49 237h275l-18 -93h-225l-11 -55c180 -7 256 -69 256 -162zM900 255c53 -26 100 -60 100 -130c0 -99 -95 -135 -194 -135
c-113 0 -181 46 -181 116c0 55 40 94 94 114c-43 23 -78 54 -78 111c0 79 69 129 178 129c102 0 159 -46 159 -108c0 -45 -31 -78 -78 -97zM813 418c-39 0 -55 -25 -55 -53c0 -41 36 -63 80 -83c22 23 31 48 31 75c0 33 -14 61 -56 61zM810 34c40 0 68 25 68 63
c0 51 -50 73 -104 97c-22 -22 -35 -50 -35 -84c0 -47 26 -76 71 -76z" />
    <glyph glyph-name="seveneighths" unicode="&#x215e;" horiz-adv-x="972" 
d="M587 740h56l-315 -800h-56zM36 705h373c-112 -177 -145 -303 -156 -455h-133c16 131 77 251 176 353h-207l-53 -88v190zM864 255c53 -26 100 -60 100 -130c0 -99 -95 -135 -194 -135c-113 0 -181 46 -181 116c0 55 40 94 94 114c-43 23 -78 54 -78 111
c0 79 69 129 178 129c102 0 159 -46 159 -108c0 -45 -31 -78 -78 -97zM777 418c-39 0 -55 -25 -55 -53c0 -41 36 -63 80 -83c22 23 31 48 31 75c0 33 -14 61 -56 61zM774 34c40 0 68 25 68 63c0 51 -50 73 -104 97c-22 -22 -35 -50 -35 -84c0 -47 26 -76 71 -76z" />
    <glyph glyph-name="zero.sc" horiz-adv-x="560" 
d="M280 583c129 0 239 -100 239 -296c0 -197 -110 -297 -239 -297c-128 0 -240 100 -240 297c0 196 112 296 240 296zM280 39c59 0 85 88 85 248c0 159 -26 248 -85 248c-60 0 -85 -89 -85 -248c0 -160 25 -248 85 -248z" />
    <glyph glyph-name="one.sc" horiz-adv-x="462" 
d="M313 62l109 -62h-372l109 62v381l-103 46l257 100v-527z" />
    <glyph glyph-name="two.sc" horiz-adv-x="546" 
d="M425 122l60 90v-212h-466c205 175 299 285 299 378c0 62 -40 92 -101 92c-60 0 -117 -28 -165 -94l-5 4c29 128 109 203 237 203c108 0 177 -54 177 -151c0 -105 -82 -201 -231 -310h195z" />
    <glyph glyph-name="three.sc" horiz-adv-x="524" 
d="M383 344c59 -36 96 -90 96 -157c0 -121 -121 -197 -273 -197c-77 0 -131 24 -167 62l64 67l96 -84c76 2 145 43 145 115c0 48 -31 96 -98 126c-19 -6 -39 -13 -60 -19l-16 41c106 32 136 76 136 119c0 41 -26 71 -85 71c-49 0 -103 -21 -161 -78l-5 4
c43 112 117 169 223 169c108 0 161 -59 161 -131c0 -44 -20 -79 -56 -108z" />
    <glyph glyph-name="four.sc" horiz-adv-x="588" 
d="M530 132h-77v-85l50 -47h-269l80 62v70h-252l-38 29l290 398l139 30v-350h99zM140 239h174v240z" />
    <glyph glyph-name="five.sc" horiz-adv-x="516" 
d="M145 393c218 -17 317 -96 317 -211c0 -123 -112 -194 -262 -194c-81 0 -141 28 -178 66l72 68l93 -89c83 3 144 44 144 109c0 74 -83 123 -267 141l60 288h335l-22 -110h-277z" />
    <glyph glyph-name="six.sc" horiz-adv-x="536" 
d="M226 333c156 42 275 -27 275 -155c0 -121 -106 -188 -230 -188c-117 0 -231 68 -231 228c0 190 139 339 397 387l15 -41c-183 -56 -264 -143 -264 -338c0 -121 43 -187 91 -187c52 0 77 75 77 140c0 95 -52 127 -124 113z" />
    <glyph glyph-name="seven.sc" horiz-adv-x="512" 
d="M36 573h467c-141 -223 -183 -381 -193 -573h-158c18 171 95 328 219 455h-263l-72 -110v228z" />
    <glyph glyph-name="eight.sc" horiz-adv-x="567" 
d="M393 317c66 -30 123 -72 123 -158c0 -123 -118 -168 -240 -168c-141 0 -226 66 -226 155c0 66 47 112 111 139c-51 28 -90 67 -90 135c0 104 92 162 218 162c133 0 200 -69 200 -144c0 -53 -36 -93 -96 -121zM283 533c-57 0 -77 -40 -77 -75c0 -57 52 -84 113 -109
c30 27 44 67 44 99c0 42 -21 85 -80 85zM283 40c59 0 86 42 86 84c0 66 -63 94 -130 123c-31 -32 -45 -64 -45 -103c0 -58 29 -104 89 -104z" />
    <glyph glyph-name="nine.sc" horiz-adv-x="536" 
d="M310 232c-157 -43 -275 26 -275 159c0 123 105 192 231 192c116 0 230 -59 230 -233c0 -184 -136 -334 -398 -382l-15 41c184 57 265 143 265 338c0 122 -33 188 -87 188c-56 0 -80 -76 -80 -142c0 -101 51 -133 123 -120z" />
    <glyph glyph-name="asterisk" unicode="*" horiz-adv-x="435" 
d="M150 426l-70 74l122 114l-182 19l48 89l145 -80l-37 183l99 -18l-34 -165l161 88l13 -101l-163 -15l134 -128l-90 -44l-69 154z" />
    <glyph glyph-name="backslash" unicode="\" horiz-adv-x="449" 
d="M30 740h64l325 -880h-64z" />
    <glyph glyph-name="periodcentered" unicode="&#xb7;" horiz-adv-x="266" 
d="M133 191c-47 0 -87 40 -87 87s40 86 87 86s87 -39 87 -86s-40 -87 -87 -87z" />
    <glyph glyph-name="bullet" unicode="&#x2022;" horiz-adv-x="360" 
d="M183 223c-74 0 -137 63 -137 137s63 135 137 135s137 -61 137 -135s-63 -137 -137 -137z" />
    <glyph glyph-name="colon" unicode=":" horiz-adv-x="257" 
d="M130 344c-45 0 -84 39 -84 84c0 46 39 83 84 83c46 0 84 -37 84 -83c0 -45 -38 -84 -84 -84zM130 -10c-45 0 -84 39 -84 84c0 46 39 83 84 83c46 0 84 -37 84 -83c0 -45 -38 -84 -84 -84z" />
    <glyph glyph-name="comma" unicode="," horiz-adv-x="274" 
d="M136 163c50 0 92 -30 92 -107c0 -99 -86 -190 -214 -224l-2 5c54 33 89 87 89 139c0 38 -18 75 -55 101c0 45 37 86 90 86z" />
    <glyph glyph-name="ellipsis" unicode="&#x2026;" horiz-adv-x="797" 
d="M133 -10c-47 0 -87 40 -87 87s40 86 87 86s87 -39 87 -86s-40 -87 -87 -87zM399 -10c-47 0 -87 40 -87 87s40 86 87 86s87 -39 87 -86s-40 -87 -87 -87zM665 -10c-47 0 -87 40 -87 87s40 86 87 86s87 -39 87 -86s-40 -87 -87 -87z" />
    <glyph glyph-name="exclam" unicode="!" horiz-adv-x="374" 
d="M270 754l-61 -515h-44l-60 515h165zM190 -9c-44 0 -81 37 -81 81s37 80 81 80s81 -36 81 -80s-37 -81 -81 -81z" />
    <glyph glyph-name="exclamdown" unicode="&#xa1;" horiz-adv-x="374" 
d="M190 508c44 0 81 -37 81 -81s-37 -80 -81 -80s-81 36 -81 80s37 81 81 81zM270 -255h-165l60 515h44z" />
    <glyph glyph-name="numbersign" unicode="#" horiz-adv-x="662" 
d="M625 476h-111l-21 -252h109l-4 -54h-110l-15 -170h-67l15 170h-211l-15 -170h-67l15 170h-110l4 54h111l21 252h-109l4 54h110l15 170h67l-15 -170h211l15 170h67l-15 -170h110zM426 224l21 252h-211l-21 -252h211z" />
    <glyph glyph-name="period" unicode="." horiz-adv-x="266" 
d="M133 -10c-47 0 -87 40 -87 87s40 86 87 86s87 -39 87 -86s-40 -87 -87 -87z" />
    <glyph glyph-name="question" unicode="?" horiz-adv-x="539" 
d="M219 239c-43 176 118 227 118 358c0 57 -34 111 -104 123l-107 -115l-97 78c54 53 133 81 232 81c127 0 230 -50 230 -161c0 -163 -228 -195 -228 -364h-44zM247 -9c-44 0 -81 37 -81 81s37 80 81 80s81 -36 81 -80s-37 -81 -81 -81z" />
    <glyph glyph-name="questiondown" unicode="&#xbf;" horiz-adv-x="470" 
d="M269 508c44 0 81 -37 81 -81s-37 -80 -81 -80s-81 36 -81 80s37 81 81 81zM297 260c43 -176 -118 -227 -118 -358c0 -57 34 -111 104 -123l107 115l97 -78c-54 -53 -133 -81 -232 -81c-127 0 -230 50 -230 161c0 163 228 195 228 364h44z" />
    <glyph glyph-name="quotedbl" unicode="&#x22;" horiz-adv-x="332" 
d="M78 485l-76 310h155l-74 -310h-5zM260 485l-76 310h155l-74 -310h-5z" />
    <glyph glyph-name="quotesingle" unicode="'" horiz-adv-x="232" 
d="M114 485l-76 310h155l-74 -310h-5z" />
    <glyph glyph-name="semicolon" unicode=";" horiz-adv-x="263" 
d="M131 344c-45 0 -84 39 -84 84c0 46 39 83 84 83c46 0 84 -37 84 -83c0 -45 -38 -84 -84 -84zM131 157c48 0 89 -29 89 -103c0 -95 -83 -183 -206 -216l-2 5c52 32 85 84 85 134c0 37 -17 72 -53 97c0 44 36 83 87 83z" />
    <glyph glyph-name="slash" unicode="/" horiz-adv-x="449" 
d="M419 740l-325 -880h-64l325 880h64z" />
    <glyph glyph-name="underscore" unicode="_" horiz-adv-x="465" 
d="M20 0h425v-54h-425v54z" />
    <glyph glyph-name="braceleft" unicode="{" horiz-adv-x="321" 
d="M288 830c-70 -25 -93 -92 -93 -156c0 -73 27 -138 27 -210c0 -58 -18 -100 -78 -113c60 -13 78 -54 78 -113c0 -72 -27 -137 -27 -210c0 -64 23 -131 93 -156v-5c-155 9 -218 84 -218 180c0 63 26 122 26 193c0 40 -9 95 -56 108v5c47 14 56 69 56 109
c0 71 -26 130 -26 193c0 96 63 171 218 180v-5z" />
    <glyph glyph-name="braceright" unicode="}" horiz-adv-x="321" 
d="M33 830v5c155 -9 218 -84 218 -180c0 -63 -26 -122 -26 -193c0 -40 9 -95 56 -109v-5c-47 -13 -56 -68 -56 -108c0 -71 26 -130 26 -193c0 -96 -63 -171 -218 -180v5c70 25 93 92 93 156c0 73 -27 138 -27 210c0 59 18 100 78 113c-60 13 -78 55 -78 113
c0 72 27 137 27 210c0 64 -23 131 -93 156z" />
    <glyph glyph-name="bracketleft" unicode="[" horiz-adv-x="350" 
d="M358 813l-146 -61v-794l146 -61v-5h-271v926h271v-5z" />
    <glyph glyph-name="bracketright" unicode="]" horiz-adv-x="350" 
d="M263 818v-926h-271v5l146 61v794l-146 61v5h271z" />
    <glyph glyph-name="parenleft" unicode="(" horiz-adv-x="357" 
d="M324 832c-113 -137 -149 -303 -149 -477s36 -340 149 -477l-5 -4c-179 120 -279 279 -279 481s100 361 279 481z" />
    <glyph glyph-name="parenright" unicode=")" horiz-adv-x="357" 
d="M38 836c179 -120 279 -279 279 -481s-100 -361 -279 -481l-5 4c113 137 149 303 149 477s-36 340 -149 477z" />
    <glyph glyph-name="emdash" unicode="&#x2014;" horiz-adv-x="797" 
d="M20 306h757v-53h-757v53z" />
    <glyph glyph-name="endash" unicode="&#x2013;" horiz-adv-x="565" 
d="M20 306h525v-53h-525v53z" />
    <glyph glyph-name="hyphen" unicode="-" horiz-adv-x="430" 
d="M30 296l364 30l6 -67l-364 -30z" />
    <glyph glyph-name="guillemotleft" unicode="&#xab;" horiz-adv-x="483" 
d="M267 485l-110 -215l110 -216l-5 -5l-239 221l239 220zM465 485l-110 -215l110 -216l-5 -5l-239 221l239 220z" />
    <glyph glyph-name="guillemotright" unicode="&#xbb;" horiz-adv-x="483" 
d="M23 490l239 -220l-239 -221l-5 5l110 216l-110 215zM221 490l239 -220l-239 -221l-5 5l110 216l-110 215z" />
    <glyph glyph-name="guilsinglleft" unicode="&#x2039;" horiz-adv-x="285" 
d="M267 485l-110 -215l110 -216l-5 -5l-239 221l239 220z" />
    <glyph glyph-name="guilsinglright" unicode="&#x203a;" horiz-adv-x="285" 
d="M23 490l239 -220l-239 -221l-5 5l110 216l-110 215z" />
    <glyph glyph-name="quotedblbase" unicode="&#x201e;" horiz-adv-x="500" 
d="M136 163c50 0 92 -30 92 -107c0 -99 -86 -190 -214 -224l-2 5c54 33 89 87 89 139c0 38 -18 75 -55 101c0 45 37 86 90 86zM362 163c50 0 92 -30 92 -107c0 -99 -86 -190 -214 -224l-2 5c54 33 89 87 89 139c0 38 -18 75 -55 101c0 45 37 86 90 86z" />
    <glyph glyph-name="quotedblleft" unicode="&#x201c;" horiz-adv-x="500" 
d="M138 474c-50 0 -92 30 -92 107c0 99 86 190 214 224l2 -5c-54 -33 -89 -87 -89 -139c0 -38 18 -75 55 -101c0 -45 -37 -86 -90 -86zM364 474c-50 0 -92 30 -92 107c0 99 86 190 214 224l2 -5c-54 -33 -89 -87 -89 -139c0 -38 18 -75 55 -101c0 -45 -37 -86 -90 -86z" />
    <glyph glyph-name="quotedblright" unicode="&#x201d;" horiz-adv-x="500" 
d="M136 809c50 0 92 -30 92 -107c0 -99 -86 -190 -214 -224l-2 5c54 33 89 87 89 139c0 38 -18 75 -55 101c0 45 37 86 90 86zM362 809c50 0 92 -30 92 -107c0 -99 -86 -190 -214 -224l-2 5c54 33 89 87 89 139c0 38 -18 75 -55 101c0 45 37 86 90 86z" />
    <glyph glyph-name="quoteleft" unicode="&#x2018;" horiz-adv-x="274" 
d="M138 474c-50 0 -92 30 -92 107c0 99 86 190 214 224l2 -5c-54 -33 -89 -87 -89 -139c0 -38 18 -75 55 -101c0 -45 -37 -86 -90 -86z" />
    <glyph glyph-name="quoteright" unicode="&#x2019;" horiz-adv-x="274" 
d="M136 809c50 0 92 -30 92 -107c0 -99 -86 -190 -214 -224l-2 5c54 33 89 87 89 139c0 38 -18 75 -55 101c0 45 37 86 90 86z" />
    <glyph glyph-name="quotesinglbase" unicode="&#x201a;" horiz-adv-x="274" 
d="M136 163c50 0 92 -30 92 -107c0 -99 -86 -190 -214 -224l-2 5c54 33 89 87 89 139c0 38 -18 75 -55 101c0 45 37 86 90 86z" />
    <glyph glyph-name="backslash.sc" horiz-adv-x="322" 
d="M2 700h55l283 -700h-55z" />
    <glyph glyph-name="braceleft.sc" horiz-adv-x="277" 
d="M254 686c-60 -23 -79 -80 -79 -129c0 -63 24 -108 24 -169c0 -51 -16 -89 -75 -99c59 -11 75 -48 75 -99c0 -61 -24 -106 -24 -169c0 -49 19 -106 79 -129v-4c-142 7 -199 72 -199 152c0 53 24 98 24 156c0 35 -8 77 -49 90v4c41 12 49 57 49 91c0 59 -24 104 -24 156
c0 80 57 146 199 153v-4z" />
    <glyph glyph-name="braceright.sc" horiz-adv-x="277" 
d="M23 686v4c142 -7 199 -73 199 -153c0 -52 -24 -97 -24 -156c0 -34 8 -79 49 -91v-4c-41 -13 -49 -55 -49 -90c0 -58 24 -103 24 -156c0 -80 -57 -145 -199 -152v4c60 23 79 80 79 129c0 63 -24 108 -24 169c0 51 16 88 75 99c-59 10 -75 48 -75 99c0 61 24 106 24 169
c0 49 -19 106 -79 129z" />
    <glyph glyph-name="bracketleft.sc" horiz-adv-x="345" 
d="M322 668l-131 -53v-649l131 -53v-4h-251v763h251v-4z" />
    <glyph glyph-name="bracketright.sc" horiz-adv-x="345" 
d="M23 668v4h251v-763h-251v4l131 53v649z" />
    <glyph glyph-name="emdash.sc" horiz-adv-x="702" 
d="M17 255h668v-44h-668v44z" />
    <glyph glyph-name="endash.sc" horiz-adv-x="496" 
d="M17 255h461v-44h-461v44z" />
    <glyph glyph-name="exclam.sc" horiz-adv-x="267" 
d="M213 618l-60 -417h-38l-61 417h159zM134 -10c-43 0 -78 36 -78 78c0 43 35 78 78 78c42 0 78 -35 78 -78c0 -42 -36 -78 -78 -78z" />
    <glyph glyph-name="exclamdown.sc" horiz-adv-x="267" 
d="M134 425c42 0 78 -36 78 -78c0 -43 -36 -78 -78 -78c-43 0 -78 35 -78 78c0 42 35 78 78 78zM213 -203h-159l61 417h38z" />
    <glyph glyph-name="hyphen.sc" horiz-adv-x="377" 
d="M26 247l322 25l5 -57l-321 -24z" />
    <glyph glyph-name="numbersign.sc" horiz-adv-x="561" 
d="M535 388h-96l-19 -203h96l-4 -44h-96l-13 -141h-57l13 141h-184l-13 -141h-56l13 141h-96l4 44h96l18 203h-95l4 45h95l13 140h57l-13 -140h184l13 140h57l-13 -140h95zM363 185l19 203h-184l-19 -203h184z" />
    <glyph glyph-name="parenleft.sc" horiz-adv-x="307" 
d="M284 685c-93 -108 -125 -250 -125 -394s32 -286 125 -395l-4 -3c-159 97 -250 229 -250 398s91 300 250 398z" />
    <glyph glyph-name="parenright.sc" horiz-adv-x="307" 
d="M27 689c159 -98 250 -229 250 -398s-91 -301 -250 -398l-4 3c93 109 125 251 125 395s-32 286 -125 394z" />
    <glyph glyph-name="question.sc" horiz-adv-x="495" 
d="M202 201c-41 137 98 186 98 292c0 50 -30 88 -91 97l-87 -100l-93 59c48 52 118 78 212 78c115 0 205 -42 205 -133c0 -137 -206 -159 -206 -293h-38zM222 -10c-42 0 -77 36 -77 78c0 43 35 78 77 78c43 0 78 -35 78 -78c0 -42 -35 -78 -78 -78z" />
    <glyph glyph-name="questiondown.sc" horiz-adv-x="425" 
d="M249 426c42 0 77 -36 77 -78c0 -43 -35 -78 -77 -78c-43 0 -78 35 -78 78c0 42 35 78 78 78zM269 215c41 -137 -98 -186 -98 -292c0 -50 30 -88 91 -97l87 100l93 -59c-48 -52 -118 -78 -212 -78c-115 0 -205 42 -205 133c0 137 206 159 206 293h38z" />
    <glyph glyph-name="slash.sc" horiz-adv-x="355" 
d="M363 700l-283 -700h-55l283 700h55z" />
    <glyph glyph-name="space" unicode=" " horiz-adv-x="206" 
 />
    <glyph glyph-name="cent" unicode="&#xa2;" horiz-adv-x="524" 
d="M345 106c39 0 92 11 149 55l5 -5c-36 -116 -114 -165 -211 -166l-8 -91l-40 4l8 90c-128 17 -213 124 -213 258c0 166 127 251 256 258l8 90l40 -3l-7 -88c74 -5 131 -32 167 -79l-98 -78l-75 92l-28 -332c14 -3 30 -5 47 -5zM177 289c0 -77 28 -135 82 -164l28 337
c-66 -13 -110 -74 -110 -173z" />
    <glyph glyph-name="currency" unicode="&#xa4;" horiz-adv-x="625" 
d="M588 265c0 -68 -25 -130 -66 -178l68 -68l-32 -31l-67 67c-48 -40 -110 -65 -178 -65s-130 25 -178 66l-68 -68l-32 31l68 68c-40 48 -65 110 -65 178s25 130 66 178l-69 68l32 31l68 -68c48 41 110 66 178 66s130 -25 178 -65l67 67l32 -31l-68 -68
c41 -48 66 -110 66 -178zM313 34c124 0 226 106 226 231s-102 231 -226 231c-125 0 -227 -106 -227 -231s102 -231 227 -231z" />
    <glyph glyph-name="dollar" unicode="$" horiz-adv-x="595" 
d="M333 427c102 -44 224 -91 224 -236c0 -142 -126 -201 -257 -201h-5l-7 -81l-53 5l7 80c-66 8 -123 31 -181 61v174l87 -141c32 -20 64 -34 99 -39l21 250c-96 44 -205 87 -205 214c0 117 98 193 241 197l7 81l53 -5l-7 -78c60 -7 112 -26 163 -53v-180l-96 158
c-24 12 -47 19 -71 22zM199 550c0 -47 35 -75 82 -100l18 204c-79 -12 -100 -67 -100 -104zM300 47c90 6 114 59 114 105c0 60 -41 94 -94 122z" />
    <glyph glyph-name="Euro" unicode="&#x20ac;" horiz-adv-x="800" 
d="M764 195l5 -5c-59 -147 -174 -200 -289 -200c-160 0 -310 106 -345 278h-95l20 53h69c-1 7 -1 15 -1 22c0 24 2 46 6 68h-84l20 54h78c54 157 211 245 378 245c52 0 111 -9 165 -27l55 23v-123s-1 0 -1 1v-130l-128 191c-28 8 -55 11 -79 11c-114 0 -204 -67 -231 -191
h319l-20 -54h-307c-1 -10 -1 -20 -1 -31c0 -21 1 -40 4 -59h314l-20 -53h-282c34 -105 116 -164 225 -164c66 0 148 22 225 91z" />
    <glyph glyph-name="sterling" unicode="&#xa3;" horiz-adv-x="684" 
d="M639 148l5 -5c-39 -125 -100 -153 -183 -153c-82 0 -157 49 -234 49c-39 0 -78 -12 -118 -49l-44 34c89 102 116 163 116 223c0 32 -7 61 -17 91h-131l20 53h93c-14 38 -26 77 -26 119c0 136 124 200 257 200c54 0 101 -10 145 -27l61 27v-235l-123 169
c-21 8 -43 12 -66 12c-76 0 -121 -48 -121 -130c0 -44 15 -86 24 -135h215l-20 -53h-189v-14c0 -74 -23 -133 -92 -220c37 27 74 44 124 44c79 0 122 -42 202 -42c44 0 78 19 102 42z" />
    <glyph glyph-name="yen" unicode="&#xa5;" horiz-adv-x="725" 
d="M670 640l-216 -332v-38h186v-54h-186v-156l63 -60h-286l62 59v157h-189v54h189v37l-227 339l-64 54h312l-63 -60l165 -252h3v-5l4 -6l167 252l-99 71h242z" />
    <glyph glyph-name="plus" unicode="+" horiz-adv-x="590" 
d="M558 377v-54h-236v-236h-54v236h-236v54h236v236h54v-236h236z" />
    <glyph glyph-name="minus" unicode="&#x2212;" horiz-adv-x="590" 
d="M32 377h526v-54h-526v54z" />
    <glyph glyph-name="multiply" unicode="&#xd7;" horiz-adv-x="544" 
d="M512 552l-202 -202l202 -202l-38 -38l-202 202l-202 -202l-38 38l202 202l-202 202l38 38l202 -202l202 202z" />
    <glyph glyph-name="divide" unicode="&#xf7;" horiz-adv-x="590" 
d="M296 451c-45 0 -84 39 -84 84c0 46 39 83 84 83c46 0 84 -37 84 -83c0 -45 -38 -84 -84 -84zM32 377h526v-54h-526v54zM296 74c-45 0 -84 39 -84 84c0 46 39 83 84 83c46 0 84 -37 84 -83c0 -45 -38 -84 -84 -84z" />
    <glyph glyph-name="equal" unicode="=" horiz-adv-x="590" 
d="M32 477h526v-54h-526v54zM32 277h526v-54h-526v54z" />
    <glyph glyph-name="notequal" unicode="&#x2260;" horiz-adv-x="590" 
d="M558 423h-184l-102 -146h286v-54h-324l-111 -159l-38 26l93 133h-146v54h184l103 146h-287v54h325l112 160l36 -27l-93 -133h146v-54z" />
    <glyph glyph-name="greater" unicode="&#x3e;" horiz-adv-x="590" 
d="M32 593l526 -246v-58l-526 -246v54l472 221l-472 221v54z" />
    <glyph glyph-name="less" unicode="&#x3c;" horiz-adv-x="590" 
d="M558 593v-54l-472 -221l472 -221v-54l-526 246v58z" />
    <glyph glyph-name="greaterequal" unicode="&#x2265;" horiz-adv-x="590" 
d="M32 641l526 -246v-58l-526 -246v54l472 221l-472 221v54zM558 54v-54h-526v54h526z" />
    <glyph glyph-name="lessequal" unicode="&#x2264;" horiz-adv-x="590" 
d="M558 641v-54l-472 -221l472 -221v-54l-526 246v58zM32 54h526v-54h-526v54z" />
    <glyph glyph-name="plusminus" unicode="&#xb1;" horiz-adv-x="590" 
d="M322 425h236v-54h-236v-236h-54v236h-236v54h236v236h54v-236zM32 0v54h526v-54h-526z" />
    <glyph glyph-name="approxequal" unicode="&#x2248;" horiz-adv-x="575" 
d="M423 505c73 0 114 -34 119 -116h-5c-22 49 -61 57 -95 57c-81 0 -206 -42 -290 -42c-73 0 -115 35 -120 116h5c22 -49 62 -57 96 -57c81 0 205 42 290 42zM423 309c73 0 114 -35 119 -116h-5c-22 49 -61 57 -95 57c-81 0 -206 -42 -290 -42c-73 0 -115 34 -120 116h5
c22 -49 62 -57 96 -57c81 0 205 42 290 42z" />
    <glyph glyph-name="asciitilde" unicode="~" horiz-adv-x="575" 
d="M423 405c73 0 114 -34 119 -116h-5c-22 49 -61 57 -95 57c-81 0 -206 -42 -290 -42c-73 0 -115 35 -120 116h5c22 -49 62 -57 96 -57c81 0 205 42 290 42z" />
    <glyph glyph-name="logicalnot" unicode="&#xac;" horiz-adv-x="590" 
d="M32 377h526v-168h-54v114h-472v54z" />
    <glyph glyph-name="emptyset" unicode="&#x2205;" horiz-adv-x="625" 
d="M590 511l-68 -68c41 -48 66 -110 66 -178c0 -152 -123 -275 -275 -275c-68 0 -130 25 -178 66l-68 -68l-32 31l68 68c-40 48 -65 110 -65 178c0 152 123 275 275 275c68 0 130 -25 178 -65l67 67zM86 265c0 -54 19 -104 51 -144l320 320c-39 34 -89 55 -144 55
c-125 0 -227 -106 -227 -231zM539 265c0 54 -19 104 -51 144l-320 -320c39 -34 90 -55 145 -55c124 0 226 106 226 231z" />
    <glyph glyph-name="infinity" unicode="&#x221e;" horiz-adv-x="675" 
d="M493 501c91 0 149 -73 149 -150s-58 -150 -149 -150c-83 0 -131 62 -156 100c-25 -38 -73 -100 -156 -100c-91 0 -149 73 -149 150s58 150 149 150c83 0 131 -62 156 -100c25 38 73 100 156 100zM184 252c50 0 85 33 129 99c-44 66 -79 99 -129 99c-58 0 -91 -45 -91 -99
s33 -99 91 -99zM491 252c58 0 91 45 91 99s-33 99 -91 99c-50 0 -85 -33 -129 -99c44 -66 79 -99 129 -99z" />
    <glyph glyph-name="integral" unicode="&#x222b;" horiz-adv-x="660" 
d="M548 788c60 0 118 -13 162 -60l-107 -79l-72 91c-59 -15 -92 -86 -101 -195l-47 -530c-16 -191 -156 -255 -270 -255c-61 0 -119 13 -163 59l107 80l73 -91c59 15 92 85 101 194l46 531c17 190 157 255 271 255z" />
    <glyph glyph-name="product" unicode="&#x220f;" horiz-adv-x="833" 
d="M737 640v-820l63 -60h-287l63 60v826h-319v-826l63 -60h-287l63 60v820l-63 60h767z" />
    <glyph glyph-name="summation" unicode="&#x2211;" horiz-adv-x="694" 
d="M582 -108l73 108v-240h-622l339 453l-314 487h596v-204l-102 150h-270l232 -363l-294 -391h362z" />
    <glyph glyph-name="radical" unicode="&#x221a;" horiz-adv-x="604" 
d="M548 860h64l-315 -890h-6l-246 478l-60 51h215l129 -280z" />
    <glyph glyph-name="partialdiff" unicode="&#x2202;" horiz-adv-x="620" 
d="M180 788c297 -54 418 -236 403 -516c-10 -202 -151 -282 -295 -282c-132 0 -253 81 -253 229c0 175 149 270 297 270c33 0 65 -4 94 -12c-34 140 -127 215 -274 267zM304 34c81 0 116 96 116 238c0 100 -31 173 -103 173c-82 0 -117 -95 -117 -233
c0 -103 41 -178 104 -178z" />
    <glyph glyph-name="percent" unicode="%" horiz-adv-x="931" 
d="M422 507c0 -123 -84 -203 -191 -203c-106 0 -191 80 -191 203c0 122 85 203 191 203c107 0 191 -81 191 -203zM613 700h64l-358 -700h-64zM231 348c50 0 66 67 66 159c0 91 -16 159 -66 159s-65 -68 -65 -159c0 -92 15 -159 65 -159zM700 396c106 0 191 -81 191 -203
c0 -123 -85 -203 -191 -203s-191 80 -191 203c0 122 85 203 191 203zM700 34c50 0 65 67 65 159c0 91 -15 159 -65 159s-66 -68 -66 -159c0 -92 16 -159 66 -159z" />
    <glyph glyph-name="perthousand" unicode="&#x2030;" horiz-adv-x="1359" 
d="M422 507c0 -123 -84 -203 -191 -203c-106 0 -191 80 -191 203c0 122 85 203 191 203c107 0 191 -81 191 -203zM613 700h64l-358 -700h-64zM231 348c50 0 66 67 66 159c0 91 -16 159 -66 159s-65 -68 -65 -159c0 -92 15 -159 65 -159zM700 396c106 0 191 -81 191 -203
c0 -123 -85 -203 -191 -203s-191 80 -191 203c0 122 85 203 191 203zM1128 396c106 0 191 -81 191 -203c0 -123 -85 -203 -191 -203s-191 80 -191 203c0 122 85 203 191 203zM700 34c50 0 65 67 65 159c0 91 -15 159 -65 159s-66 -68 -66 -159c0 -92 16 -159 66 -159z
M1128 34c50 0 65 67 65 159c0 91 -15 159 -65 159s-66 -68 -66 -159c0 -92 16 -159 66 -159z" />
    <glyph glyph-name="arrowup" unicode="&#x2191;" horiz-adv-x="516" 
d="M478 549l-4 -5l-182 92v-636h-67v637l-182 -93l-5 5l220 239z" />
    <glyph glyph-name="uni2197" unicode="&#x2197;" horiz-adv-x="575" 
d="M569 352l-6 -1l-64 194l-450 -449l-47 47l451 450l-195 63v7l325 14z" />
    <glyph glyph-name="arrowright" unicode="&#x2192;" horiz-adv-x="798" 
d="M567 571l239 -220l-239 -220l-5 5l93 182h-637v67h636l-92 182z" />
    <glyph glyph-name="uni2198" unicode="&#x2198;" horiz-adv-x="575" 
d="M569 412l14 -325l-325 14v7l195 63l-451 450l47 47l450 -449l64 194z" />
    <glyph glyph-name="arrowdown" unicode="&#x2193;" horiz-adv-x="506" 
d="M473 228l-220 -239l-220 239l5 5l182 -93v637h67v-636l182 92z" />
    <glyph glyph-name="uni2199" unicode="&#x2199;" horiz-adv-x="575" 
d="M16 412l6 1l64 -194l450 449l47 -47l-451 -450l195 -63v-7l-325 -14z" />
    <glyph glyph-name="arrowleft" unicode="&#x2190;" horiz-adv-x="791" 
d="M224 592l5 -4l-92 -182h636v-67h-637l93 -182l-5 -5l-239 220z" />
    <glyph glyph-name="uni2196" unicode="&#x2196;" horiz-adv-x="575" 
d="M16 352l-14 325l325 -14v-7l-195 -63l451 -450l-47 -47l-450 449l-64 -194z" />
    <glyph glyph-name="arrowboth" unicode="&#x2194;" horiz-adv-x="966" 
d="M735 571l239 -220l-239 -220l-5 5l93 182h-687l93 -182l-5 -5l-239 220l239 220l5 -4l-92 -182h685l-92 182z" />
    <glyph glyph-name="arrowupdn" unicode="&#x2195;" horiz-adv-x="477" 
d="M272 141l182 92l5 -5l-221 -239l-220 239l5 5l182 -93v497l-182 -93l-5 5l220 239l221 -239l-5 -5l-182 92v-495z" />
    <glyph glyph-name="lozenge" unicode="&#x25ca;" horiz-adv-x="543" 
d="M271 -40l1 2l-247 388l247 388l-1 2l246 -390zM271 59l183 291l-183 291l-182 -291z" />
    <glyph glyph-name="at" unicode="@" horiz-adv-x="905" 
d="M528 634c228 0 352 -134 352 -314c0 -138 -75 -294 -235 -294c-76 0 -130 36 -121 111l6 50h-4c-32 -96 -95 -161 -176 -161c-78 0 -120 56 -120 137c0 131 107 324 438 283l-34 -299c-6 -51 13 -71 43 -71c68 0 148 99 148 239c0 160 -107 269 -300 269
c-225 0 -427 -148 -427 -388c0 -262 242 -343 508 -297l-3 -39c-281 -57 -563 39 -563 335c0 267 230 439 488 439zM386 107c51 0 136 103 172 297c-117 2 -207 -101 -207 -229c0 -42 9 -68 35 -68z" />
    <glyph glyph-name="ampersand" unicode="&#x26;" horiz-adv-x="787" 
d="M633 147c85 -89 129 -119 215 -147v-5c-109 -21 -191 -24 -305 58c-61 -41 -137 -63 -222 -63c-145 0 -286 76 -286 228c0 102 60 178 152 233c-20 40 -31 78 -31 119c0 127 111 200 249 200c56 0 107 -15 157 -42l33 5v-118l-117 89c-22 9 -40 12 -61 12
c-72 0 -113 -36 -113 -113c0 -91 69 -163 179 -290c39 -44 72 -81 101 -112c31 42 53 101 55 179l-136 68h266l-74 -72c-1 -93 -24 -169 -62 -229zM359 97c35 0 72 6 109 19c-32 30 -67 65 -105 108c-59 67 -108 122 -143 173c-40 -46 -56 -95 -56 -141
c0 -97 71 -159 195 -159z" />
    <glyph glyph-name="paragraph" unicode="&#xb6;" horiz-adv-x="621" 
d="M603 700l-63 -60v-790h-64v796h-120v-796h-163l99 71v339h-17c-139 0 -258 80 -258 227s119 213 258 213h328z" />
    <glyph glyph-name="section" unicode="&#xa7;" horiz-adv-x="613" 
d="M464 122c57 -33 100 -82 100 -163c0 -139 -125 -199 -258 -199c-90 0 -163 27 -238 65v174l112 -155c35 -18 70 -28 109 -28c97 0 125 57 125 106c0 171 -354 129 -354 340c0 82 53 140 127 178c-63 32 -112 77 -112 156c0 114 103 192 251 192c80 0 144 -23 207 -55
v-180l-123 169c-21 8 -43 12 -67 12c-97 0 -124 -64 -124 -105c0 -149 355 -110 355 -338c0 -83 -47 -135 -110 -169zM150 299c0 -88 142 -103 260 -151c50 27 68 65 68 103c0 97 -128 122 -240 166c-66 -30 -88 -83 -88 -118z" />
    <glyph glyph-name="copyright" unicode="&#xa9;" horiz-adv-x="801" 
d="M400 710c199 0 360 -161 360 -360s-161 -360 -360 -360s-360 161 -360 360s161 360 360 360zM400 22c179 0 323 149 323 328s-144 328 -323 328s-323 -149 -323 -328s144 -328 323 -328zM450 233c41 0 80 13 115 41l4 -4c-33 -71 -94 -108 -167 -108
c-105 0 -196 74 -196 186c0 120 107 192 225 192c30 0 65 -5 96 -15l26 12v-137l-58 104c-19 6 -35 8 -49 8c-73 0 -129 -53 -129 -142c0 -92 58 -137 133 -137z" />
    <glyph glyph-name="registered" unicode="&#xae;" horiz-adv-x="801" 
d="M400 -10c-199 0 -360 161 -360 360s161 360 360 360s360 -161 360 -360s-161 -360 -360 -360zM400 22c179 0 323 149 323 328s-144 328 -323 328s-323 -149 -323 -328s144 -328 323 -328zM497 345c42 -84 74 -146 133 -175v-4c-134 -9 -185 31 -239 179c50 9 79 36 79 84
c0 51 -29 74 -70 74h-45v-296l40 -37h-184l40 37v289l-40 38h207c89 0 158 -25 158 -95c0 -45 -32 -79 -79 -94z" />
    <glyph glyph-name="trademark" unicode="&#x2122;" horiz-adv-x="1135" 
d="M410 780l60 14v-153l-69 102h-98v-401l42 -40h-194l42 40v401h-98l-69 -102v153l60 -14h324zM1060 343l43 -41h-196l43 41v308l-171 -266l-179 263v-298l68 -48h-156l43 41v396l-43 41h122l179 -263l168 263h121l-42 -40v-397z" />
    <glyph glyph-name="degree" unicode="&#xb0;" horiz-adv-x="259" 
d="M130 558c-71 0 -130 59 -130 128c0 70 59 129 130 129c70 0 129 -59 129 -129c0 -69 -59 -128 -129 -128zM130 599c49 0 87 38 87 87c0 50 -38 88 -87 88c-50 0 -87 -38 -87 -88c0 -49 37 -87 87 -87z" />
    <glyph glyph-name="bar" unicode="|" horiz-adv-x="280" 
d="M190 818v-1026h-100v1026h100z" />
    <glyph glyph-name="brokenbar" unicode="&#xa6;" horiz-adv-x="280" 
d="M190 818v-418h-100v418h100zM190 210v-418h-100v418h100z" />
    <glyph glyph-name="dagger" unicode="&#x2020;" horiz-adv-x="540" 
d="M514 525v-153l-220 53l57 -556l-81 -99l-80 99l56 556l-220 -53v153l220 -53l-56 228h161l-57 -228z" />
    <glyph glyph-name="daggerdbl" unicode="&#x2021;" horiz-adv-x="540" 
d="M514 525v-153l-220 53l57 -185l-57 -185l220 53v-153l-220 53l57 -228h-161l56 228l-220 -53v153l220 -53l-56 185l56 185l-220 -53v153l220 -53l-56 228h161l-57 -228z" />
    <glyph glyph-name="asciicircum" unicode="^" horiz-adv-x="543" 
d="M517 350h-63l-183 291l-182 -291h-64l247 388l-1 2z" />
    <glyph glyph-name="ampersand.sc" horiz-adv-x="692" 
d="M564 121c75 -77 114 -104 188 -121v-6c-110 -26 -186 -17 -275 46c-52 -32 -116 -48 -186 -48c-135 0 -256 60 -256 187c0 85 53 147 133 193c-18 33 -27 61 -27 93c0 109 101 166 223 166c54 0 96 -12 140 -35l28 2v-78c-83 53 -113 66 -153 66c-61 0 -102 -29 -102 -92
c0 -65 51 -121 158 -236c33 -35 61 -65 86 -91c30 39 48 90 50 151l-113 52h229l-63 -58c-3 -77 -24 -141 -60 -191zM328 84c30 0 57 4 82 11c-27 24 -55 53 -86 86c-53 59 -93 104 -122 142c-31 -35 -45 -74 -45 -111c0 -78 60 -128 171 -128z" />
    <glyph glyph-name="uni0308" unicode="&#x308;" 
d="M-301 607c-39 0 -73 33 -73 72s34 72 73 72s72 -33 72 -72s-33 -72 -72 -72zM-70 607c-39 0 -73 33 -73 72s34 72 73 72s72 -33 72 -72s-33 -72 -72 -72z" />
    <glyph glyph-name="uni0307" unicode="&#x307;" 
d="M-80 585c-45 0 -84 39 -84 84s39 83 84 83s84 -38 84 -83s-39 -84 -84 -84z" />
    <glyph glyph-name="gravecomb" unicode="&#x300;" 
d="M-5 574l-229 207h152l82 -202z" />
    <glyph glyph-name="acutecomb" unicode="&#x301;" 
d="M-229 574l-5 5l82 202h152z" />
    <glyph glyph-name="uni030B" unicode="&#x30b;" 
d="M-366 574l-5 5l59 202h130zM-185 574l-5 5l59 202h131z" />
    <glyph glyph-name="uni0302" unicode="&#x302;" 
d="M-177 800l177 -227l-5 -5l-172 116l-171 -116l-5 5z" />
    <glyph glyph-name="uni030C" unicode="&#x30c;" 
d="M-9 800l5 -5l-177 -227l-176 227l5 5l171 -116z" />
    <glyph glyph-name="uni0306" unicode="&#x306;" 
d="M-5 792l5 -5c-5 -122 -83 -195 -167 -195c-83 0 -161 73 -166 195l5 5c46 -88 101 -111 161 -111c61 0 116 23 162 111z" />
    <glyph glyph-name="uni030A" unicode="&#x30a;" 
d="M-129 567c-71 0 -130 58 -130 127c0 71 59 130 130 130c70 0 129 -59 129 -130c0 -69 -59 -127 -129 -127zM-129 606c49 0 85 39 85 88c0 51 -36 90 -85 90c-50 0 -86 -39 -86 -90c0 -49 36 -88 86 -88z" />
    <glyph glyph-name="tildecomb" unicode="&#x303;" 
d="M-119 754c72 0 116 -64 119 -152h-5c-26 49 -58 59 -84 59c-65 0 -110 -59 -178 -59c-73 0 -116 64 -119 152h5c25 -48 57 -59 84 -59c65 0 109 59 178 59z" />
    <glyph glyph-name="uni0304" unicode="&#x304;" 
d="M-344 708h344v-84h-344v84z" />
    <glyph glyph-name="uni0312" unicode="&#x312;" 
 />
    <glyph glyph-name="uni0326" unicode="&#x326;" 
d="M-60 -52c35 0 65 -21 65 -75c0 -69 -60 -133 -150 -157l-2 4c38 23 63 61 63 97c0 27 -13 53 -39 71c0 32 26 60 63 60z" />
    <glyph glyph-name="uni0327" unicode="&#x327;" 
d="M-105 -64c69 -21 101 -56 101 -99c0 -56 -45 -87 -104 -87c-60 0 -103 36 -120 93l5 5c18 -13 43 -28 72 -28c28 0 45 13 45 41c0 23 -11 39 -53 58l35 81h46z" />
    <glyph glyph-name="uni0328" unicode="&#x328;" 
d="M-79 20h29c-53 -41 -84 -92 -84 -131c0 -46 28 -59 58 -59c21 0 39 6 60 22l5 -5c-17 -56 -58 -97 -122 -97c-61 0 -103 37 -103 98c0 60 52 121 157 172z" />
    <glyph glyph-name="uni0335" unicode="&#x335;" 
d="M-587 397h375v-49h-375v49z" />
    <glyph glyph-name="uni0336" unicode="&#x336;" 
d="M-580 304h525v-48h-525v48z" />
    <glyph glyph-name="uni0338" unicode="&#x338;" 
 />
    <glyph glyph-name="acute" unicode="&#xb4;" horiz-adv-x="281" 
d="M5 561l-5 5l119 163h162z" />
    <glyph glyph-name="breve" unicode="&#x2d8;" horiz-adv-x="333" 
d="M328 728l5 -5c-5 -96 -77 -165 -167 -165c-89 0 -161 69 -166 165l5 5c49 -62 98 -81 161 -81s112 19 162 81z" />
    <glyph glyph-name="caron" unicode="&#x2c7;" horiz-adv-x="353" 
d="M348 734l5 -5l-177 -188l-176 188l5 5l171 -77z" />
    <glyph glyph-name="cedilla" unicode="&#xb8;" horiz-adv-x="600" 
 />
    <glyph glyph-name="circumflex" unicode="&#x2c6;" horiz-adv-x="353" 
d="M176 754l177 -188l-5 -5l-172 77l-171 -77l-5 5z" />
    <glyph glyph-name="dieresis" unicode="&#xa8;" horiz-adv-x="373" 
d="M73 570c-39 0 -73 33 -73 72s34 72 73 72s72 -33 72 -72s-33 -72 -72 -72zM304 570c-39 0 -73 33 -73 72s34 72 73 72s72 -33 72 -72s-33 -72 -72 -72z" />
    <glyph glyph-name="dotaccent" unicode="&#x2d9;" horiz-adv-x="173" 
d="M83 563c-45 0 -84 39 -84 84s39 83 84 83s84 -38 84 -83s-39 -84 -84 -84z" />
    <glyph glyph-name="grave" unicode="`" horiz-adv-x="281" 
d="M276 561l-276 168h162l119 -163z" />
    <glyph glyph-name="hungarumlaut" unicode="&#x2dd;" horiz-adv-x="434" 
d="M5 561l-5 5l90 163h143zM206 561l-5 5l90 163h143z" />
    <glyph glyph-name="macron" unicode="&#xaf;" horiz-adv-x="370" 
d="M0 682h370v-85h-370v85z" />
    <glyph glyph-name="ogonek" unicode="&#x2db;" horiz-adv-x="229" 
d="M170 0c-55 -39 -84 -74 -84 -116c0 -39 23 -54 53 -54c20 0 39 6 59 22l5 -5c-16 -56 -56 -97 -120 -97c-57 0 -99 37 -99 95c0 53 26 105 118 155h68z" />
    <glyph glyph-name="ring" unicode="&#x2da;" horiz-adv-x="259" 
d="M130 524c-71 0 -130 59 -130 128c0 70 59 129 130 129c70 0 129 -59 129 -129c0 -69 -59 -128 -129 -128zM130 565c49 0 87 38 87 87c0 50 -38 88 -87 88c-50 0 -87 -38 -87 -88c0 -49 37 -87 87 -87z" />
    <glyph glyph-name="tilde" unicode="&#x2dc;" horiz-adv-x="406" 
d="M287 718c72 0 116 -64 119 -152h-5c-26 48 -58 59 -84 59c-65 0 -130 -59 -198 -59c-73 0 -116 64 -119 152h5c25 -49 57 -59 84 -59c65 0 129 59 198 59z" />
    <glyph glyph-name="com_infinity" horiz-adv-x="647" 
 />
    <glyph glyph-name="long_f" horiz-adv-x="386" 
d="M252 545v-46h229l-31 -68h-198v-360l99 -71h-312l62 59v372h-95l95 83v19c0 190 134 255 248 255c61 0 120 -13 168 -60l-100 -79l-80 91c-58 -15 -85 -86 -85 -195z" />
    </font>
</defs>
</svg>
