<?xml version="1.0" standalone="no"?>
<!DOCTYPE svg PUBLIC "-//W3C//DTD SVG 1.1//EN" "http://www.w3.org/Graphics/SVG/1.1/DTD/svg11.dtd" >
<svg xmlns="http://www.w3.org/2000/svg" xmlns:xlink="http://www.w3.org/1999/xlink" version="1.1">
<metadata>
Created by FontForge 20190801 at Wed Feb  7 18:14:38 2018
 By Jimmy Wärting
Copyright Klim Type Foundry 2016. All Rights Reserved.
</metadata>
<defs>
<font id="TiemposFine-Light" horiz-adv-x="696" >
  <font-face 
    font-family="Tiempos Fine"
    font-weight="300"
    font-stretch="normal"
    units-per-em="1000"
    panose-1="2 2 3 3 6 3 3 6 4 3"
    ascent="783"
    descent="-217"
    x-height="520"
    cap-height="702"
    bbox="-7 -223 946 783"
    underline-thickness="30"
    underline-position="-100"
    stemh="14"
    stemv="90"
    unicode-range="U+0020-007A"
  />
<missing-glyph horiz-adv-x="960" 
d="M90 0v780h780v-780h-780zM201 714l279 -279l279 279h-558zM435 390l-275 275v-550zM525 390l275 -275v550zM480 345l-279 -279h558z" />
    <glyph glyph-name=".notdef" horiz-adv-x="960" 
d="M90 0v780h780v-780h-780zM201 714l279 -279l279 279h-558zM435 390l-275 275v-550zM525 390l275 -275v550zM480 345l-279 -279h558z" />
    <glyph glyph-name="space" unicode=" " horiz-adv-x="210" 
 />
    <glyph glyph-name="A" unicode="A" 
d="M432 298l-124 320l-119 -320h243zM197 10v-10h-202v10c38 4 67 10 79 43l223 593l-25 65h98l258 -664c11 -27 40 -36 73 -37v-10h-266v10c65 2 86 15 86 42c0 11 -4 25 -10 41l-72 187h-256l-69 -186c-6 -16 -9 -29 -9 -39c0 -30 25 -43 92 -45z" />
    <glyph glyph-name="B" unicode="B" horiz-adv-x="622" 
d="M28 0v10c74 7 88 14 88 71v540c0 57 -14 64 -88 71v10h264c157 0 245 -56 245 -163c0 -108 -106 -162 -197 -173c127 -5 238 -71 238 -176c0 -112 -96 -190 -255 -190h-295zM279 684h-69v-312h69c109 0 163 54 163 159c0 96 -59 153 -163 153zM295 354h-85v-267
c0 -56 29 -69 98 -69h12c111 0 160 75 160 174c0 94 -55 162 -185 162z" />
    <glyph glyph-name="C" unicode="C" horiz-adv-x="628" 
d="M378 698c-159 0 -243 -162 -243 -334c0 -189 84 -360 238 -360c103 0 188 77 218 218h9l-13 -178c-60 -34 -126 -54 -217 -54c-202 0 -337 143 -337 346c0 229 156 376 345 376c78 0 148 -23 201 -58v-148h-9c-20 117 -98 192 -192 192z" />
    <glyph glyph-name="D" unicode="D" horiz-adv-x="708" 
d="M28 0v10c74 7 88 14 88 71v540c0 57 -14 64 -88 71v10h269c259 0 377 -156 377 -333c0 -229 -163 -369 -353 -369h-293zM284 684h-74v-592c0 -61 27 -74 89 -74h22c140 0 249 113 249 336c0 173 -78 330 -286 330z" />
    <glyph glyph-name="E" unicode="E" horiz-adv-x="614" 
d="M562 0h-534v10c74 7 88 14 88 71v540c0 57 -14 64 -88 71v10h522l5 -167h-9c-39 127 -81 149 -164 149h-172v-312h159c63 0 81 40 87 100h11v-218h-11c-6 60 -24 100 -87 100h-159v-268c0 -54 29 -68 98 -68h92c71 0 140 44 185 182h10z" />
    <glyph glyph-name="F" unicode="F" horiz-adv-x="563" 
d="M116 81v540c0 57 -14 64 -88 71v10h502l5 -173h-9c-39 133 -81 155 -164 155h-152v-312h135c63 0 81 40 87 100h11v-218h-11c-6 60 -24 100 -87 100h-135v-267c0 -61 22 -69 124 -77v-10h-306v10c74 7 88 14 88 71z" />
    <glyph glyph-name="G" unicode="G" horiz-adv-x="697" 
d="M511 245c0 57 -14 64 -88 71v10h266v-10c-74 -7 -88 -14 -88 -71v-183c-62 -42 -142 -72 -226 -72c-204 0 -342 155 -342 346c0 223 153 376 354 376c78 0 148 -23 201 -58v-148h-9c-20 117 -98 192 -200 192c-160 0 -244 -154 -244 -334c0 -189 78 -359 240 -359
c50 0 100 11 136 45v195z" />
    <glyph glyph-name="H" unicode="H" horiz-adv-x="771" 
d="M298 10v-10h-270v10c74 7 88 14 88 71v540c0 57 -14 64 -88 71v10h270v-10c-74 -7 -88 -14 -88 -71v-248h351v248c0 57 -14 64 -88 71v10h270v-10c-74 -7 -88 -14 -88 -71v-540c0 -57 14 -64 88 -71v-10h-270v10c74 7 88 14 88 71v274h-351v-274c0 -57 14 -64 88 -71z
" />
    <glyph glyph-name="I" unicode="I" horiz-adv-x="326" 
d="M210 621v-540c0 -57 14 -64 88 -71v-10h-270v10c74 7 88 14 88 71v540c0 57 -14 64 -88 71v10h270v-10c-74 -7 -88 -14 -88 -71z" />
    <glyph glyph-name="J" unicode="J" horiz-adv-x="479" 
d="M279 621c0 57 -14 64 -88 71v10h270v-10c-74 -7 -88 -14 -88 -71v-420c0 -142 -75 -211 -199 -211c-99 0 -181 42 -181 124c0 27 14 53 29 66h67c-5 -17 -7 -37 -7 -54c0 -88 40 -124 98 -124s99 42 99 165v454z" />
    <glyph glyph-name="K" unicode="K" horiz-adv-x="666" 
d="M210 621v-540c0 -57 14 -64 88 -71v-10h-270v10c74 7 88 14 88 71v540c0 57 -14 64 -88 71v10h270v-10c-74 -7 -88 -14 -88 -71zM392 140l-168 223l258 267c11 11 22 24 22 37c0 18 -21 20 -91 25v10h217v-10c-46 -2 -73 -18 -106 -51l-226 -228l226 -294
c47 -62 96 -107 154 -109v-10h-168c-35 28 -72 79 -118 140z" />
    <glyph glyph-name="L" unicode="L" horiz-adv-x="582" 
d="M532 0h-504v10c74 7 88 14 88 71v540c0 57 -14 64 -88 71v10h270v-10c-74 -7 -88 -14 -88 -71v-535c0 -54 29 -68 98 -68h62c71 0 140 44 185 182h10z" />
    <glyph glyph-name="M" unicode="M" horiz-adv-x="890" 
d="M693 98l-56 496l-210 -600h-7l-239 601l-57 -513c-6 -54 16 -67 95 -72v-10h-210v10c55 3 85 13 90 60l63 547c0 47 -28 71 -92 75v10h176c2 -23 7 -36 15 -57l197 -509l174 509c7 21 13 34 15 57h173v-10c-73 -4 -91 -28 -91 -75l62 -547c5 -47 22 -57 81 -60v-10h-270
v10c80 5 99 19 91 88z" />
    <glyph glyph-name="N" unicode="N" horiz-adv-x="739" 
d="M633 -10h-9l-484 611v-518c0 -60 25 -68 118 -73v-10h-238v10c74 6 98 13 98 73v545c-34 39 -64 62 -100 64v10h165l428 -555v472c0 60 -25 68 -118 73v10h238v-10c-74 -6 -98 -13 -98 -73v-629z" />
    <glyph glyph-name="O" unicode="O" 
d="M351 712c200 0 311 -166 311 -347c0 -219 -141 -375 -318 -375c-200 0 -311 166 -311 347c0 219 141 375 318 375zM343 698c-134 0 -207 -156 -207 -347c0 -164 68 -347 216 -347c134 0 207 156 207 347c0 164 -68 347 -216 347z" />
    <glyph glyph-name="P" unicode="P" horiz-adv-x="581" 
d="M28 702h258c178 0 271 -92 271 -196c0 -118 -95 -203 -267 -203h-80v-216c0 -61 22 -69 124 -77v-10h-306v10c74 7 88 14 88 71v540c0 57 -14 64 -88 71v10zM210 684v-363h60c126 0 184 68 184 182c0 99 -58 181 -184 181h-60z" />
    <glyph glyph-name="Q" unicode="Q" 
d="M512 -179c-45 0 -94 21 -131 77l-61 93c-185 13 -287 172 -287 346c0 219 141 375 318 375c200 0 311 -166 311 -347c0 -195 -112 -340 -261 -369l61 -59c36 -35 89 -85 151 -85v-3c-19 -13 -58 -28 -101 -28zM343 698c-134 0 -207 -156 -207 -347
c0 -164 68 -347 216 -347c134 0 207 156 207 347c0 164 -68 347 -216 347z" />
    <glyph glyph-name="R" unicode="R" horiz-adv-x="674" 
d="M271 684h-61v-340h65c118 0 174 64 174 175c0 90 -57 165 -178 165zM28 702h265c170 0 257 -77 257 -183c0 -112 -107 -165 -182 -179l169 -229c41 -55 91 -99 149 -101v-10h-168c-35 28 -73 77 -117 140l-125 186h-66v-245c0 -57 14 -64 88 -71v-10h-270v10
c74 7 88 14 88 71v540c0 57 -14 64 -88 71v10z" />
    <glyph glyph-name="S" unicode="S" horiz-adv-x="519" 
d="M264 698c-90 0 -135 -63 -135 -135c0 -187 354 -120 354 -366c0 -125 -110 -207 -236 -207c-90 0 -167 28 -209 65l-6 173h10c23 -132 103 -223 207 -223c94 0 151 62 151 145c0 221 -354 136 -354 371c0 106 88 191 222 191c70 0 130 -24 183 -58v-146h-9
c-20 117 -88 190 -178 190z" />
    <glyph glyph-name="T" unicode="T" horiz-adv-x="641" 
d="M29 702h583l15 -209h-9c-46 149 -79 191 -177 191h-73v-605c0 -57 28 -63 97 -69v-10h-289v10c69 6 98 12 98 69v605h-74c-98 0 -131 -42 -177 -191h-9z" />
    <glyph glyph-name="U" unicode="U" horiz-adv-x="711" 
d="M191 621v-359c0 -148 63 -237 186 -237c118 0 214 74 214 237v357c0 60 -25 68 -118 73v10h238v-10c-74 -6 -98 -13 -98 -73v-372c0 -168 -113 -257 -251 -257c-159 0 -265 88 -265 260v371c0 57 -14 64 -88 71v10h270v-10c-74 -7 -88 -14 -88 -71z" />
    <glyph glyph-name="V" unicode="V" horiz-adv-x="684" 
d="M689 702v-10c-38 -3 -64 -11 -82 -58l-254 -644h-8l-270 641c-21 51 -43 57 -80 61v10h270v-10c-53 -2 -90 -9 -90 -37c0 -12 3 -24 12 -46l196 -491l187 485c9 24 12 40 12 51c0 29 -44 35 -95 38v10h202z" />
    <glyph glyph-name="W" unicode="W" horiz-adv-x="941" 
d="M627 -10l-154 456l-156 -456h-7l-235 641c-21 51 -43 57 -80 61v10h269v-10c-53 -2 -90 -9 -90 -37c0 -12 3 -24 11 -47l162 -473l115 342l-52 154c-21 51 -43 57 -80 61v10h263v-10c-53 -2 -90 -9 -90 -37c0 -12 3 -24 10 -47l153 -473l162 468c8 24 11 40 11 51
c0 29 -44 35 -95 38v10h202v-10c-38 -3 -64 -11 -82 -58l-230 -644h-7z" />
    <glyph glyph-name="X" unicode="X" horiz-adv-x="676" 
d="M229 10v-10h-236v10c41 0 76 11 109 58l196 276l-185 298c-23 38 -52 50 -90 50v10h278v-10c-57 0 -85 -6 -85 -29c0 -12 9 -28 25 -54l124 -200l141 197c15 21 22 37 22 51c0 30 -47 35 -101 35v10h221v-10c-39 0 -64 -11 -92 -50l-180 -252l205 -330
c22 -35 51 -50 90 -50v-10h-278v10c48 0 83 5 83 32c0 11 -8 27 -20 47l-146 235l-161 -228c-15 -21 -26 -37 -26 -51c0 -30 52 -35 106 -35z" />
    <glyph glyph-name="Y" unicode="Y" horiz-adv-x="626" 
d="M490 578c23 39 32 60 32 78c0 29 -47 33 -98 36v10h207v-10c-42 -3 -59 -14 -85 -58l-195 -331v-224c0 -57 28 -63 97 -69v-10h-284v10c69 6 98 12 98 69v223l-196 329c-26 43 -34 57 -71 61v10h260v-10c-63 -2 -95 -11 -95 -34c0 -15 9 -31 21 -52l164 -277z" />
    <glyph glyph-name="Z" unicode="Z" horiz-adv-x="581" 
d="M217 684c-83 0 -125 -22 -164 -155h-9l5 173h495v-8l-413 -676h235c71 0 140 44 185 182h10l-33 -200h-507v8l415 676h-219z" />
    <glyph glyph-name="a" unicode="a" horiz-adv-x="492" 
d="M407 376v-278c0 -39 18 -56 48 -56c14 0 28 3 41 10l1 -4c-24 -36 -58 -56 -96 -56c-49 0 -79 35 -84 88c-35 -41 -90 -88 -160 -88c-73 0 -127 50 -127 122c0 75 62 117 144 146l142 51v76c0 74 -26 127 -92 127c-57 0 -83 -42 -83 -100c0 -18 2 -37 9 -55l-53 -8
c-22 6 -39 29 -39 57c0 74 85 122 182 122c111 0 167 -49 167 -154zM209 44c36 0 73 11 107 44v210l-120 -49c-50 -21 -81 -53 -81 -109c0 -57 37 -96 94 -96z" />
    <glyph glyph-name="b" unicode="b" horiz-adv-x="544" 
d="M65 696l-69 33v4l155 50h4v-349c38 52 96 96 173 96c121 0 192 -96 192 -240c0 -162 -108 -300 -261 -300c-65 0 -145 18 -194 62v644zM263 5c100 0 167 108 167 245c0 121 -47 224 -161 224c-45 0 -87 -19 -114 -49v-282c0 -92 45 -138 108 -138z" />
    <glyph glyph-name="c" unicode="c" horiz-adv-x="440" 
d="M242 514c-82 0 -137 -92 -137 -213c0 -152 69 -244 170 -244c66 0 115 33 147 89l4 -2c-23 -89 -92 -154 -189 -154c-133 0 -212 115 -212 255c0 161 103 285 241 285c91 0 149 -39 149 -104c0 -26 -14 -52 -32 -63h-54c2 11 4 23 4 42c0 48 -23 109 -91 109z" />
    <glyph glyph-name="d" unicode="d" horiz-adv-x="559" 
d="M385 -10h-4l4 94c-37 -52 -88 -94 -165 -94c-119 0 -200 106 -200 244c0 168 104 296 257 296c38 0 81 -13 108 -34v200l-69 33v4l155 50h4v-700c0 -37 3 -43 73 -49v-7zM275 515c-101 0 -165 -98 -165 -235c0 -120 52 -234 167 -234c45 0 81 17 108 47v284
c0 92 -45 138 -110 138z" />
    <glyph glyph-name="e" unicode="e" horiz-adv-x="462" 
d="M446 144c-24 -87 -97 -154 -198 -154c-140 0 -223 115 -223 255c0 161 100 285 228 285c120 0 185 -86 185 -198v-8h-332c-1 -7 -1 -15 -1 -23c0 -152 74 -244 180 -244c70 0 123 33 157 89zM242 514c-74 0 -124 -79 -135 -174h244c0 95 -31 174 -109 174z" />
    <glyph glyph-name="f" unicode="f" horiz-adv-x="314" 
d="M180 59c0 -41 24 -43 94 -49v-10h-257v10c53 3 73 8 73 49v421h-74v5l74 31v56c0 134 69 211 177 211c67 0 105 -31 105 -71c0 -22 -12 -41 -29 -51h-55c3 12 5 22 5 38c0 38 -12 72 -47 72c-42 0 -66 -42 -66 -122v-139h129v-30h-129v-421z" />
    <glyph glyph-name="g" unicode="g" horiz-adv-x="494" 
d="M237 204c66 0 98 66 98 147c0 90 -35 166 -107 166c-66 0 -98 -66 -98 -147c0 -90 35 -166 107 -166zM494 -22c0 -122 -129 -201 -278 -201c-118 0 -216 45 -216 124c0 55 51 89 103 111c-37 12 -64 45 -64 85c0 51 46 89 90 118c-51 25 -89 72 -89 139
c0 100 83 176 193 176c31 0 62 -7 90 -19l145 12v-47h-7l-100 13c38 -29 64 -70 64 -122c0 -100 -83 -176 -193 -176c-32 0 -65 6 -94 19c-25 -23 -41 -48 -41 -76c0 -26 14 -39 48 -39h191c95 0 158 -31 158 -117zM322 11h-212c-23 -20 -33 -52 -33 -88
c0 -81 56 -133 152 -133c102 0 193 46 193 138c0 61 -38 83 -100 83z" />
    <glyph glyph-name="h" unicode="h" horiz-adv-x="575" 
d="M404 59v299c0 81 -30 114 -93 114c-47 0 -98 -20 -134 -49v-364c0 -41 20 -46 73 -49v-10h-236v10c53 3 73 8 73 49v637l-69 33v4l155 50h4v-352c41 46 105 99 182 99c92 0 135 -55 135 -161v-310c0 -41 20 -46 73 -49v-10h-236v10c53 3 73 8 73 49z" />
    <glyph glyph-name="i" unicode="i" horiz-adv-x="264" 
d="M130 608c-35 0 -63 29 -63 64s28 64 63 64c36 0 64 -29 64 -64s-28 -64 -64 -64zM180 530v-471c0 -41 20 -46 73 -49v-10h-236v10c53 3 73 8 73 49v384l-69 33v4l155 50h4z" />
    <glyph glyph-name="j" unicode="j" horiz-adv-x="243" 
d="M119 608c-35 0 -63 29 -63 64s28 64 63 64c36 0 64 -29 64 -64s-28 -64 -64 -64zM79 443l-69 33v4l155 50h4v-473c0 -138 -67 -210 -162 -280l-4 3c67 87 76 164 76 263v400z" />
    <glyph glyph-name="k" unicode="k" horiz-adv-x="531" 
d="M178 783v-724c0 -41 20 -46 73 -49v-10h-236v10c53 3 73 8 73 49v637l-69 33v4l155 50h4zM190 282l172 164c13 13 24 25 24 38c0 19 -31 22 -77 26v10h205v-10c-38 -4 -75 -18 -118 -58l-133 -125l276 -323v-4h-112z" />
    <glyph glyph-name="l" unicode="l" horiz-adv-x="262" 
d="M178 783v-724c0 -41 20 -46 73 -49v-10h-236v10c53 3 73 8 73 49v637l-69 33v4l155 50h4z" />
    <glyph glyph-name="m" unicode="m" horiz-adv-x="869" 
d="M788 59c0 -41 20 -46 73 -49v-10h-236v10c53 3 73 8 73 49v299c0 81 -28 114 -88 114c-44 0 -92 -20 -126 -49v-364c0 -41 20 -46 73 -49v-10h-236v10c53 3 73 8 73 49v299c0 81 -28 114 -88 114c-44 0 -92 -20 -126 -49v-364c0 -41 20 -46 73 -49v-10h-236v10
c53 3 73 8 73 49v384l-69 33v4l159 50h4l-4 -99c39 46 101 99 174 99c70 0 115 -33 129 -100c39 46 102 100 175 100c89 0 130 -55 130 -161v-310z" />
    <glyph glyph-name="n" unicode="n" horiz-adv-x="578" 
d="M407 59v299c0 81 -30 114 -93 114c-47 0 -98 -20 -134 -49v-364c0 -41 20 -46 73 -49v-10h-236v10c53 3 73 8 73 49v384l-69 33v4l159 50h4l-4 -99c41 46 105 99 182 99c92 0 135 -55 135 -161v-310c0 -41 20 -46 73 -49v-10h-236v10c53 3 73 8 73 49z" />
    <glyph glyph-name="o" unicode="o" horiz-adv-x="518" 
d="M262 530c140 0 232 -113 232 -257c0 -172 -105 -283 -238 -283c-140 0 -232 113 -232 257c0 172 105 283 238 283zM261 4c87 0 138 97 138 244c0 132 -45 268 -142 268c-87 0 -138 -97 -138 -244c0 -132 45 -268 142 -268z" />
    <glyph glyph-name="p" unicode="p" horiz-adv-x="559" 
d="M278 5c100 0 167 108 167 245c0 121 -47 224 -161 224c-45 0 -87 -19 -114 -49v-282c0 -92 45 -138 108 -138zM170 -153c0 -41 24 -43 94 -49v-10h-257v10c53 3 73 8 73 49v596l-69 33v4l159 50h4l-4 -96c38 52 96 96 173 96c121 0 192 -96 192 -240
c0 -162 -104 -300 -257 -300c-36 0 -80 12 -108 36v-179z" />
    <glyph glyph-name="q" unicode="q" horiz-adv-x="544" 
d="M277 530c56 0 107 -27 138 -59l62 59h4l-6 -124v-559c0 -41 20 -46 73 -49v-10h-257v10c70 6 94 8 94 49v237c-37 -52 -88 -94 -165 -94c-119 0 -200 106 -200 244c0 168 104 296 257 296zM276 515c-102 0 -166 -98 -166 -235c0 -120 52 -234 167 -234c45 0 81 17 108 47
v284c0 92 -45 138 -109 138z" />
    <glyph glyph-name="r" unicode="r" horiz-adv-x="363" 
d="M180 386c46 94 79 144 135 144c18 0 32 -7 38 -13v-78h-14c-61 0 -117 -8 -159 -61v-319c0 -41 24 -43 94 -49v-10h-257v10c53 3 73 8 73 49v384l-69 33v4l159 50h4z" />
    <glyph glyph-name="s" unicode="s" horiz-adv-x="432" 
d="M206 -10c-65 0 -129 20 -166 49l-6 142h8c22 -101 88 -176 170 -176c59 0 108 38 108 106c0 139 -271 94 -271 270c0 92 78 149 172 149c56 0 101 -16 142 -42v-125h-8c-11 77 -62 153 -139 153c-59 0 -97 -39 -97 -94c0 -147 275 -93 275 -274c0 -96 -78 -158 -188 -158
z" />
    <glyph glyph-name="t" unicode="t" horiz-adv-x="327" 
d="M156 634v-124h143v-30h-143v-329c0 -71 29 -104 84 -104c30 0 58 8 83 28l3 -4c-24 -37 -69 -81 -131 -81c-72 0 -127 39 -127 146v344h-68v4c57 31 119 87 152 150h4z" />
    <glyph glyph-name="u" unicode="u" horiz-adv-x="552" 
d="M468 423v-340c0 -37 3 -43 73 -49v-7l-163 -37h-4l4 90c-41 -46 -105 -90 -170 -90c-81 0 -137 48 -137 156v294c0 36 -8 45 -71 52v8l162 28h4l-5 -109v-257c0 -73 28 -115 99 -115c38 0 86 13 118 42v351c0 36 -7 45 -70 52v8l160 28h4z" />
    <glyph glyph-name="v" unicode="v" horiz-adv-x="528" 
d="M523 520v-10c-37 -6 -52 -16 -64 -47l-186 -473h-6l-202 474c-13 30 -23 40 -60 46v10h230v-10c-50 -2 -73 -9 -73 -33c0 -8 2 -17 6 -28l132 -344l129 345c4 11 6 20 6 28c0 23 -29 29 -80 32v10h168z" />
    <glyph glyph-name="w" unicode="w" horiz-adv-x="752" 
d="M505 -10l-125 337l-125 -337h-6l-184 474c-12 30 -23 40 -60 46v10h226v-10c-51 -2 -73 -10 -73 -34c0 -8 2 -16 6 -27l118 -335l88 239l-41 111c-11 29 -23 40 -60 46v10h223v-10c-52 -2 -72 -11 -72 -35c0 -7 2 -16 5 -26l113 -335l116 336c3 8 4 15 4 22
c0 25 -23 35 -78 38v10h167v-10c-37 -6 -53 -16 -64 -47l-172 -473h-6z" />
    <glyph glyph-name="x" unicode="x" horiz-adv-x="531" 
d="M177 10v-10h-178v10c37 6 67 25 94 61l138 183l-140 203c-20 29 -37 47 -74 53v10h223v-10c-45 -2 -61 -9 -61 -27c0 -11 7 -25 21 -45l88 -127l98 127c15 20 21 33 21 45c0 18 -25 25 -70 27v10h165v-10c-37 -6 -55 -25 -77 -53l-127 -160l162 -234
c20 -29 39 -47 76 -53v-10h-226v10c45 2 61 9 61 27c0 13 -7 25 -21 45l-109 157l-115 -157c-14 -20 -20 -33 -20 -45c0 -18 26 -25 71 -27z" />
    <glyph glyph-name="y" unicode="y" horiz-adv-x="525" 
d="M263 -5l-198 469c-13 30 -23 40 -60 46v10h230v-10c-50 -2 -73 -9 -73 -33c0 -8 2 -17 6 -28l133 -353l128 354c4 11 6 20 6 28c0 23 -29 29 -80 32v10h168v-10c-37 -6 -52 -16 -64 -47l-214 -567c-28 -73 -56 -114 -109 -114c-31 0 -61 20 -69 51v29
c17 -5 31 -10 58 -10c53 0 89 21 116 88z" />
    <glyph glyph-name="z" unicode="z" horiz-adv-x="478" 
d="M33 0v4l306 496h-125c-90 0 -128 -50 -159 -152h-8l16 203h3l27 -34h348v-4l-300 -496h139c73 0 125 40 157 165h8l-16 -182h-396z" />
    <glyph glyph-name="period" unicode="." horiz-adv-x="198" 
d="M30 59c0 38 31 69 69 69s69 -31 69 -69s-31 -69 -69 -69s-69 31 -69 69z" />
    <glyph glyph-name="comma" unicode="," horiz-adv-x="198" 
d="M117 0h-29c-25 5 -49 24 -49 56c0 37 27 61 62 61c43 0 65 -36 65 -81c0 -78 -59 -144 -142 -152v5c53 16 88 60 93 111z" />
    <glyph glyph-name="hyphen" unicode="-" horiz-adv-x="320" 
d="M290 283h-260v35h260v-35z" />
    <glyph glyph-name="zero" unicode="0" horiz-adv-x="600" 
d="M300 -10c-167 0 -267 170 -267 361s100 361 267 361s267 -170 267 -361s-100 -361 -267 -361zM300 4c128 0 161 184 161 347s-33 347 -161 347s-161 -184 -161 -347s33 -347 161 -347z" />
    <glyph glyph-name="one" unicode="1" horiz-adv-x="367" 
d="M353 0h-328v14c108 5 118 16 118 77v498h-127v7l48 8c82 14 130 45 171 108h6v-621c0 -61 12 -72 112 -77v-14z" />
    <glyph glyph-name="two" unicode="2" horiz-adv-x="509" 
d="M93 85h216c84 0 115 9 164 103h10l-41 -188h-438v8l176 186c132 139 167 208 167 302c0 83 -46 142 -136 142c-72 0 -135 -39 -175 -95l-7 5c41 78 114 164 237 164c110 0 182 -71 182 -177c0 -159 -225 -314 -355 -450z" />
    <glyph glyph-name="three" unicode="3" horiz-adv-x="494" 
d="M259 399c119 -6 210 -82 210 -188c0 -133 -120 -221 -240 -221c-143 0 -225 67 -225 139c0 35 23 62 48 73h55c-5 -14 -8 -38 -8 -61c0 -83 51 -136 131 -136c93 0 145 82 145 176c0 106 -85 167 -202 167h-35l-2 6c109 32 197 75 197 176c0 64 -40 115 -117 115
c-61 0 -120 -35 -154 -91l-6 4c35 83 111 154 212 154c97 0 157 -64 157 -145c0 -97 -99 -151 -166 -168z" />
    <glyph glyph-name="four" unicode="4" horiz-adv-x="570" 
d="M332 85v139h-322v4l368 474h48v-460h124v-18h-124v-139c0 -57 14 -68 88 -71v-14h-270v14c74 3 88 14 88 71zM45 242h287v369z" />
    <glyph glyph-name="five" unicode="5" horiz-adv-x="482" 
d="M231 5c88 0 149 75 149 169c0 134 -119 200 -310 201l57 327h241c36 0 45 1 69 44h8l-25 -136h-292l-26 -156c185 -7 357 -65 357 -232c0 -130 -99 -232 -236 -232c-136 0 -218 67 -218 139c0 35 23 62 48 73h55c-5 -14 -8 -38 -8 -61c0 -83 51 -136 131 -136z" />
    <glyph glyph-name="six" unicode="6" horiz-adv-x="553" 
d="M289 -10c-150 0 -256 141 -256 302c0 213 159 378 402 418l7 -9c-189 -48 -290 -187 -307 -356c31 38 93 87 183 87c105 0 205 -71 205 -200c0 -142 -115 -242 -234 -242zM289 5c92 0 145 85 145 188c0 112 -72 186 -179 186c-53 0 -94 -22 -121 -46
c-1 -13 -2 -26 -2 -40c0 -171 60 -288 157 -288z" />
    <glyph glyph-name="seven" unicode="7" horiz-adv-x="478" 
d="M429 613h-306c-50 0 -67 -25 -97 -86h-11l43 175h415v-4l-285 -698h-85z" />
    <glyph glyph-name="eight" unicode="8" horiz-adv-x="532" 
d="M266 -10c-134 0 -236 75 -236 182c0 92 79 149 163 179c-73 36 -136 82 -136 181c0 91 83 180 209 180c127 0 208 -69 208 -163c0 -85 -83 -138 -149 -159c90 -41 177 -89 177 -204c0 -106 -91 -196 -236 -196zM136 567c0 -93 88 -130 177 -171c55 36 83 87 83 158
c0 86 -48 145 -131 145c-78 0 -129 -54 -129 -132zM266 4c93 0 154 51 154 150c0 114 -114 144 -214 191c-70 -43 -90 -106 -90 -174c0 -95 60 -167 150 -167z" />
    <glyph glyph-name="nine" unicode="9" horiz-adv-x="553" 
d="M264 712c150 0 256 -141 256 -302c0 -213 -159 -378 -402 -418l-7 9c189 48 290 187 307 356c-31 -38 -93 -87 -183 -87c-105 0 -205 71 -205 200c0 142 115 242 234 242zM264 697c-92 0 -145 -85 -145 -188c0 -112 72 -186 179 -186c53 0 94 22 121 46c1 13 2 26 2 40
c0 171 -60 288 -157 288z" />
    </font>
</defs>
</svg>
